<svg width="113" height="120" viewBox="0 0 113 120" fill="none" xmlns="http://www.w3.org/2000/svg">
<path d="M71.6517 69.2233C78.6849 65.8266 84.3001 61.2577 88.5003 55.5136C92.6974 49.7724 94.799 42.2924 94.799 33.0736C94.799 26.55 93.5159 21.1747 90.9556 16.9416C88.3924 12.7084 84.9297 9.21875 80.5676 6.4696C76.3165 3.82839 71.6786 2.08959 66.663 1.25315C61.6444 0.419715 55.7564 0 48.9929 0H14.9929C6.71245 0 0 6.7124 0 14.9928V120H30.4264V76.2536H41.3871L70.8302 114.196C73.6693 117.857 78.0434 120 82.6752 120H112.601L71.6517 69.2233ZM61.9592 45.1256C61.0058 47.2272 59.5458 49.0349 57.5821 50.5428C55.5105 52.2157 52.9892 53.307 50.0182 53.8167C47.0442 54.3293 43.4347 54.5842 39.1806 54.5842H30.4295V22.158H40.6526C44.1422 22.158 47.0592 22.266 49.4036 22.4818C51.7481 22.6977 53.8736 23.2103 55.7834 24.0198C58.5085 25.207 60.4602 26.8919 61.6324 29.0744C62.8046 31.2599 63.3922 33.8591 63.3922 36.8781C63.3892 40.2718 62.9125 43.024 61.9592 45.1256Z" fill="#B8292F"/>
</svg>
