<svg width="134" height="33" viewBox="0 0 134 33" fill="none" xmlns="http://www.w3.org/2000/svg">
<path d="M105.915 28.1504C115.654 23.025 117.992 16.5312 114.991 14.7148C110.565 12.2344 98.427 16.6704 99.8028 28.8081C99.2014 29.1687 98.0047 29.8169 98.0047 29.8169L98.8129 32.272C98.8129 32.272 100.505 31.2582 100.963 30.9437C102.392 32.0963 103.127 32.7299 105.335 32.7732C110.025 32.8707 114.072 27.6682 114.072 27.6682L112.88 25.8376C112.881 25.8376 107.726 30.7857 105.915 28.1504ZM107.209 20.7123C108.601 18.2415 110.872 16.3111 111.971 17.0824C113.076 17.8483 110.841 21.7563 105.592 25.9139C105.382 25.5488 105.808 23.1907 107.209 20.7123ZM15.0955 31.6913C12.7524 29.2492 14.9655 20.9907 15.4231 19.2118C15.466 19.0457 15.3402 18.8847 15.1688 18.8847C15.0691 18.8847 14.9785 18.9399 14.9344 19.0289C13.9472 21.0199 8.5971 32.7702 3.85992 32.7702C3.77209 32.7702 3.67927 32.7702 3.58952 32.7637C-0.987332 32.336 -0.387851 26.0129 1.03472 22.182H8.413C7.8116 23.837 7.60372 24.8791 7.62443 25.4214C7.63939 25.8146 7.96732 26.0148 8.28451 25.8483C9.04776 25.449 10.3077 23.7975 11.4035 21.8943C13.4014 18.4229 15.9662 13.1963 20.395 0H28.4974C26.0956 7.35104 24.1426 13.9998 23.0771 21.6032C23.0238 21.9826 23.4595 22.3001 23.8055 21.9753C26.1171 19.8013 34.5402 1.58289 35.0694 0H43.1807C43.1807 0 35.1381 22.2748 35.812 25.9818C35.9037 26.4854 36.4245 26.6196 36.8483 26.1356C37.3412 25.5729 38.1083 24.5738 38.5605 24.0487L39.8143 25.3006C37.5073 28.1481 33.7608 33.2995 30.0181 32.68C29.4378 32.5838 28.8767 32.2539 28.4571 31.8259C24.5622 28.4407 29.9967 17.1345 30.949 14.4785C31.16 13.8909 31.3671 13.3532 31.499 13.0183C31.5665 12.8469 31.4407 12.6616 31.2562 12.6601C31.1531 12.6589 31.0599 12.7165 31.0165 12.8101C30.829 13.2097 30.3234 14.2863 30.1516 14.6484C27.7395 19.6172 22.2045 32.769 17.658 32.769C16.9454 32.7702 15.8795 32.5036 15.0955 31.6913ZM93.4935 5.58405C89.8943 5.63123 88.0586 7.50753 88.0586 7.50753L88.1526 9.71216C88.1526 9.71216 90.4447 7.42814 93.0516 8.39123C94.824 9.04594 96.5833 11.3016 95.3786 16.298C94.2959 13.5212 90.0999 12.9079 86.7262 16.5358C84.0329 19.432 80.3942 29.0954 85.7662 32.0702C92.4445 35.7687 98.3047 24.9374 99.6563 17.5503C100.509 12.8948 101.016 5.48548 93.4935 5.58405ZM90.6928 27.9774C89.9733 28.4898 88.7018 28.7521 88.4579 26.4873C88.1069 23.2322 90.3595 19.3066 91.0587 18.3941C92.2523 16.8361 93.9181 16.7184 93.9522 19.0791C93.9917 21.7962 92.4897 26.6975 90.6928 27.9774ZM70.5382 3.75453C66.6468 2.39831 52.861 6.76767 48.3474 22.0083C47.794 22.1613 45.1429 22.8432 45.1429 22.8432L43.9888 25.9641L48.0889 24.7107C48.0889 24.7107 47.6398 32.542 54.5233 32.7702C59.9359 32.5696 62.8343 24.6628 61.1483 19.5812C60.8058 19.7492 56.39 21.6213 56.39 21.6213C56.39 21.6213 57.2729 26.7592 55.346 27.9509C55.0484 28.135 54.6575 28.1105 54.4063 27.7611C53.8467 26.9825 53.4892 24.9658 54.1163 22.2813C64.0279 17.1288 70.7925 8.0606 71.2052 4.94007C71.3115 4.13693 70.6763 3.80248 70.5382 3.75453ZM58.2153 17.2477C56.3762 18.6538 54.9513 19.3549 54.9513 19.3549C54.9513 19.3549 55.4599 18.1601 55.8691 17.4701C56.9281 15.6851 62.0561 8.80469 66.3327 7.52786C66.4987 7.47839 66.6215 7.59882 66.6169 7.76797C66.5766 9.26878 61.1483 15.0047 58.2153 17.2477ZM78.9191 28.7475C79.5707 28.3406 80.4602 27.636 80.4602 27.636L81.0098 29.3156C80.6834 29.6612 78.0339 31.7611 76.3888 32.5293C74.6123 33.3585 72.9753 32.2654 72.7517 30.9292C72.4959 29.3988 73.2867 27.3967 73.2867 27.3967C73.2867 27.3967 70.4531 30.6239 67.5681 32.1956C66.7668 32.6325 66.1551 32.8078 65.6657 32.7959C63.7226 32.7487 63.1136 30.8674 63.326 29.8606C63.5796 28.6593 66.2088 20.5642 66.5406 19.2341C66.5735 19.1025 66.4427 18.9479 66.2659 18.9967C65.4693 19.2172 63.3797 20.5784 63.3797 20.5784V18.3293C63.3797 18.3293 69.1256 14.4282 70.6433 13.9975C72.046 13.5998 73.2453 14.4014 72.8924 15.9962C72.731 17.1023 69.309 26.4593 69.0953 27.5915C69.0528 27.8174 69.2883 27.8351 69.3535 27.8151C70.4688 27.4745 72.5258 25.7302 74.0999 23.244C75.5707 20.9213 76.5787 17.9722 77.7988 14.3331H83.0395C83.0395 14.3331 79.0775 26.4835 78.6307 28.4982C78.5804 28.718 78.8063 28.8181 78.9191 28.7475ZM120.857 32.7851C118.053 32.7675 116.753 30.4371 116.433 29.6853C113.232 21.7359 122.616 14.3477 122.616 14.3477H128.053C128.053 14.3477 119.777 20.9685 120.921 26.8348C121.693 29.6834 124.161 28.9351 125.772 26.6914C127.73 23.9663 129.496 18.5889 128.166 18.4432C126.93 18.3078 125.289 20.9788 125.289 20.9788L125.281 20.9708L124.131 19.2176C125.024 18.0604 127.567 15.0373 130.395 14.0915C130.822 13.9588 133.389 13.2857 133.389 17.0732C133.389 21.1257 128.874 32.8358 120.857 32.7851ZM44.4725 30.5974C44.4725 31.7998 43.4983 32.7698 42.2997 32.7698C41.1061 32.7698 40.1276 31.7998 40.1276 30.5974C40.1276 29.3953 41.1061 28.4234 42.2997 28.4234C43.4979 28.4234 44.4725 29.3953 44.4725 30.5974Z" fill="#B7B7B7"/>
</svg>
