<svg width="74" height="54" viewBox="0 0 74 54" fill="none" xmlns="http://www.w3.org/2000/svg">
<path d="M14.3886 0C17.9482 0 21.5077 0 25.1751 0C25.1751 4.14309 25.1751 8.28617 25.1751 12.5548C28.7347 12.5548 32.2942 12.5548 35.9617 12.5548C35.9617 16.1727 35.9617 19.7906 35.9617 23.5182C32.4021 23.5182 28.8425 23.5182 25.1751 23.5182C25.1751 29.6453 25.1751 35.7724 25.1751 42.0851C30.1126 42.0851 35.05 42.0851 40.1371 42.0851C40.1371 45.7614 40.1371 49.4376 40.1371 53.2253C37.5212 53.2472 37.5212 53.2472 34.8526 53.2695C34.3088 53.276 33.7651 53.2824 33.205 53.289C28.4376 53.3219 24.2381 52.5634 20.4778 49.3351C20.3403 49.2211 20.2028 49.1071 20.0612 48.9897C17.0982 46.4287 14.918 42.6741 14.3886 38.7254C14.2952 37.4565 14.3224 36.181 14.3293 34.9096C14.3295 34.5277 14.3294 34.1458 14.3291 33.764C14.329 32.7335 14.332 31.703 14.3357 30.6725C14.339 29.5933 14.3393 28.5141 14.3399 27.4349C14.3415 25.394 14.3458 23.3531 14.351 21.3122C14.3569 18.9876 14.3597 16.6629 14.3623 14.3383C14.3678 9.55884 14.3774 4.77943 14.3886 0Z" fill="white"/>
<path d="M65.6886 9.36094C69.6035 12.4154 72.299 16.4266 72.9738 21.4847C72.9933 21.7496 73.0071 22.015 73.0173 22.2805C73.0263 22.4719 73.0353 22.6634 73.0445 22.8607C73.0879 24.6095 72.8707 26.2367 72.4954 27.939C72.453 28.1334 72.4106 28.3278 72.3669 28.5282C71.2609 32.7638 68.1554 36.4239 64.4898 38.606C64.3184 38.7038 64.1471 38.8016 63.9705 38.9023C63.8494 38.9728 63.7283 39.0432 63.6036 39.1158C61.4972 40.264 59.1694 40.9095 56.7844 40.8876C56.6332 40.8876 56.4819 40.8877 56.326 40.8877C55.8328 40.8875 55.3396 40.8848 54.8463 40.882C54.5016 40.8813 54.157 40.8808 53.8123 40.8805C52.9102 40.8791 52.0082 40.8756 51.1061 40.8717C50.021 40.8674 48.936 40.8658 47.8509 40.8638C46.2071 40.8604 44.5633 40.8536 42.9194 40.8474C42.9194 37.1712 42.9194 33.4949 42.9194 29.7072C43.9436 29.7006 44.9679 29.694 46.0231 29.6872C46.6741 29.6819 47.325 29.6763 47.9759 29.6703C49.0079 29.6607 50.0399 29.6517 51.0719 29.646C51.9044 29.6414 52.7369 29.6342 53.5694 29.6253C53.8861 29.6224 54.2029 29.6204 54.5197 29.6193C54.9652 29.6175 55.4106 29.6126 55.8561 29.6069C56.0502 29.6073 56.0502 29.6073 56.2483 29.6076C57.9249 29.5776 59.3091 28.9725 60.491 27.7621C61.7466 26.0387 62.0864 24.409 61.8828 22.2805C61.4564 20.662 60.6807 19.3801 59.3167 18.4344C57.8936 17.6044 56.3806 17.2876 54.7498 17.5061C53.1429 17.9487 51.7556 18.7938 50.8251 20.2207C50.2589 21.2967 50.0266 22.3177 49.7045 23.5183C46.1449 23.5183 42.5854 23.5183 38.918 23.5183C38.918 21.0207 38.918 21.0207 39.1898 19.8491C39.2204 19.7149 39.2509 19.5807 39.2824 19.4425C40.3539 15.0396 43.1703 11.257 46.9209 8.84151C52.7731 5.27804 60.0648 5.34214 65.6886 9.36094Z" fill="white"/>
<path d="M42.9219 42.085C52.5671 42.085 62.2124 42.085 72.1499 42.085C72.1499 45.7612 72.1499 49.4375 72.1499 53.2251C62.5046 53.2251 52.8594 53.2251 42.9219 53.2251C42.9219 49.5489 42.9219 45.8726 42.9219 42.085Z" fill="white"/>
<path d="M0.644531 12.5549C4.20408 12.5549 7.76364 12.5549 11.4311 12.5549C11.4311 16.1728 11.4311 19.7907 11.4311 23.5183C7.8715 23.5183 4.31195 23.5183 0.644531 23.5183C0.644531 19.9004 0.644531 16.2825 0.644531 12.5549Z" fill="white"/>
</svg>
