<svg width="177" height="49" viewBox="0 0 177 49" fill="none" xmlns="http://www.w3.org/2000/svg">
<path d="M60.0883 44.2071C65.2204 45.0165 70.4023 45.4714 75.597 45.5685C83.1609 45.7554 90.7266 45.2745 98.206 44.1313C105.016 43.1564 111.691 41.405 118.102 38.9114C120.985 37.844 123.681 36.3266 126.089 34.4155C123.602 36.6332 120.769 38.4292 117.703 39.7325C110.996 42.7243 103.963 44.9224 96.7471 46.2821C89.1148 47.8003 81.3575 48.6035 73.576 48.6813C68.9096 48.7662 64.2439 48.477 59.6237 47.8164C54.7543 47.2028 50.0413 45.6894 45.7251 43.3533C42.8503 41.6457 41.8994 40.111 42.2021 39.7976C42.5045 39.4842 43.9421 40.1651 46.8386 41.1053C51.1653 42.4913 55.596 43.5285 60.0883 44.2071Z" fill="#B7B7B7"/>
<path fill-rule="evenodd" clip-rule="evenodd" d="M90.7392 22.5489L95.1376 13.4059H95.224L100.087 22.5489H105.091L98.6392 10.7364H94.4026L88.5666 22.5489H90.7392ZM21.561 17.3938L28.4667 17.3069C28.4417 17.8791 28.2947 18.4393 28.0356 18.9501C27.7765 19.4609 27.4113 19.9104 26.9644 20.2685C25.9196 20.9805 24.6716 21.3333 23.4087 21.2735C22.3106 21.3245 21.2214 21.0541 20.2746 20.4955C19.5921 20.0818 18.9974 19.5382 18.524 18.8957L18.2106 18.4205L15.9626 19.7388C16.7437 20.6281 17.6861 21.3615 18.7399 21.9003C20.3087 22.6787 22.048 23.0503 23.7979 22.9811C25.7755 22.9811 28.8666 22.689 31.0928 20.9925C31.7928 20.5256 32.3668 19.8932 32.7638 19.1514C33.1607 18.4095 33.3684 17.5811 33.3684 16.7397C33.3684 15.8983 33.1607 15.0699 32.7638 14.3281C32.3668 13.5862 31.7928 12.9538 31.0928 12.487C28.9507 11.0729 26.4161 10.3731 23.852 10.4877C22.2731 10.4419 20.7001 10.6949 19.2156 11.2337C18.014 11.6655 16.9114 12.3342 15.9733 13.2002L18.2213 14.4973L18.762 13.9028C19.2913 13.3494 19.9321 12.9149 20.6421 12.6279C21.5423 12.2415 22.5161 12.057 23.4952 12.0871C24.1805 12.038 24.8687 12.1275 25.5186 12.3504C26.1685 12.5733 26.7668 12.9248 27.2778 13.3842C27.9034 14.0312 28.2854 14.8752 28.3586 15.7722L21.561 15.5887V17.3938ZM113.045 11.8495C113.693 11.8089 114.341 11.9276 114.933 12.1951C115.525 12.4626 116.042 12.8708 116.439 13.3842C117.105 14.3294 117.433 15.4719 117.368 16.6264C117.431 17.7808 117.104 18.9227 116.439 19.8687C116.016 20.3527 115.495 20.7407 114.909 21.0065C114.324 21.2723 113.688 21.4099 113.046 21.4099C112.403 21.4099 111.767 21.2723 111.182 21.0065C110.597 20.7407 110.075 20.3527 109.652 19.8687C108.988 18.9223 108.661 17.7807 108.723 16.6264C108.659 15.472 108.987 14.3298 109.652 13.3842C110.049 12.8709 110.566 12.4626 111.158 12.1951C111.75 11.9276 112.397 11.8089 113.045 11.8495ZM113.045 22.9057C115.521 22.9706 117.957 22.2767 120.027 20.9171C120.708 20.431 121.268 19.7955 121.666 19.0593C122.063 18.3231 122.286 17.5057 122.318 16.6698C122.286 15.8339 122.063 15.0165 121.666 14.2802C121.269 13.5439 120.708 12.9084 120.027 12.4222C117.959 11.0588 115.522 10.3612 113.045 10.4229C110.563 10.3664 108.121 11.0635 106.042 12.4222C105.342 12.8891 104.768 13.5215 104.372 14.2634C103.975 15.0053 103.767 15.8336 103.767 16.675C103.767 17.5163 103.975 18.3447 104.372 19.0866C104.768 19.8284 105.342 20.4609 106.042 20.9277C108.122 22.2828 110.564 22.9761 113.045 22.9164M75.3169 13.7193C75.7812 13.5693 76.2661 13.4927 76.7541 13.4923H77.2838V19.6307H76.7541C76.266 19.6321 75.7808 19.5554 75.3169 19.4037C74.9474 19.2969 74.6048 19.1127 74.3119 18.8633C74.0064 18.5618 73.7638 18.2026 73.5982 17.8065C73.4326 17.4105 73.3473 16.9855 73.3473 16.5562C73.3473 16.1269 73.4326 15.7019 73.5982 15.3058C73.7638 14.9098 74.0064 14.5505 74.3119 14.249C74.6045 13.9992 74.9472 13.8148 75.3169 13.7082M83.4226 21.1223C85.0088 21.1038 86.5639 20.6795 87.9398 19.89C88.5266 19.55 89.0134 19.0612 89.3512 18.4731C89.6889 17.885 89.8657 17.2182 89.8637 16.54C89.8546 15.8669 89.6729 15.2074 89.336 14.6246C88.9992 14.0418 88.5185 13.5552 87.9398 13.2113C86.5628 12.4245 85.0084 12.0006 83.4226 11.9793H81.5962V10.3574H77.1216V11.9789H75.3386C73.752 11.9948 72.1962 12.4189 70.821 13.2105C70.243 13.5552 69.7627 14.0421 69.426 14.6248C69.0892 15.2075 68.9072 15.8667 68.8971 16.5396C68.8962 17.2176 69.0734 17.8839 69.4111 18.4719C69.7487 19.0598 70.2349 19.5487 70.821 19.8896C72.195 20.6842 73.7515 21.1088 75.3386 21.1219H77.1433V22.8402H81.6175V21.176H83.4226M83.4226 13.7619C83.792 13.8685 84.1347 14.0528 84.4275 14.3027C84.7329 14.6043 84.9753 14.9636 85.1408 15.3596C85.3063 15.7557 85.3915 16.1806 85.3915 16.6099C85.3915 17.0391 85.3063 17.464 85.1408 17.8601C84.9753 18.2561 84.7329 18.6154 84.4275 18.917C84.1347 19.1665 83.7921 19.3508 83.4226 19.4578C82.951 19.6094 82.4586 19.6859 81.9633 19.6844H81.4557V13.4923H81.9633C82.4587 13.4923 82.9509 13.5689 83.4226 13.7193M58.6303 11.8495C59.2779 11.8117 59.925 11.9316 60.5161 12.1989C61.1071 12.4662 61.6245 12.8729 62.0238 13.3842C62.6899 14.3294 63.0175 15.4718 62.9534 16.6264C63.0158 17.7808 62.6884 18.9227 62.0238 19.8687C61.5988 20.3532 61.0753 20.7415 60.4882 21.0074C59.9011 21.2734 59.264 21.411 58.6195 21.411C57.975 21.411 57.3379 21.2734 56.7508 21.0074C56.1637 20.7415 55.6402 20.3532 55.2152 19.8687C54.552 18.9225 54.2283 17.7799 54.2967 16.6264C54.2257 15.4727 54.5496 14.3292 55.2152 13.3842C55.6149 12.8707 56.1339 12.4625 56.7271 12.1951C57.3203 11.9276 57.9698 11.809 58.6193 11.8495M58.6193 22.9057C61.0947 22.9677 63.5301 22.2739 65.6012 20.9167C66.2965 20.4464 66.8659 19.8129 67.2595 19.0715C67.6531 18.3301 67.8589 17.5035 67.8589 16.6641C67.8589 15.8247 67.6531 14.9981 67.2595 14.2568C66.8659 13.5154 66.2965 12.8818 65.6012 12.4116C63.502 11.1074 61.0799 10.4163 58.6086 10.4163C56.1373 10.4163 53.7153 11.1074 51.6161 12.4116C50.9162 12.8785 50.3424 13.5109 49.9456 14.2527C49.5487 14.9945 49.3411 15.8228 49.3411 16.6641C49.3411 17.5054 49.5487 18.3337 49.9456 19.0756C50.3424 19.8174 50.9162 20.4498 51.6161 20.9167C53.6938 22.2767 56.1369 22.9708 58.6193 22.9057ZM41.7275 18.2689H42.5595C44.1834 18.3991 45.8121 18.0849 47.2718 17.361C47.7818 17.0719 48.2039 16.6499 48.4932 16.1399C48.7824 15.6299 48.9279 15.0511 48.9142 14.4649C48.9257 13.8878 48.7786 13.3187 48.489 12.8194C48.1994 12.3201 47.7784 11.9098 47.2718 11.6332C46.191 10.9957 44.7751 10.7904 42.3649 10.7904H34.7026V22.5919H39.1882V18.2689H41.7275ZM41.7275 12.6058C42.3404 12.6031 42.9436 12.7595 43.4781 13.0597C43.7113 13.2062 43.9045 13.4084 44.0404 13.648C44.1762 13.8876 44.2505 14.1572 44.2565 14.4326C44.2626 14.7341 44.1889 15.0318 44.0427 15.2956C43.8966 15.5594 43.6833 15.7798 43.4244 15.9345C42.9099 16.25 42.3202 16.4218 41.7168 16.4318H39.1878V12.5193H41.2629C41.4175 12.5082 41.5728 12.5082 41.7275 12.5193V12.6058ZM7.03556 13.5136L9.27286 17.5343H4.80932L6.97083 13.4272H7.03556V13.5136ZM10.1807 19.1444L12.1042 22.5919H17.1081L10.3212 10.704H6.17112L0 22.5919H2.22624L3.9879 19.1878L10.1807 19.1444ZM121.605 12.5193H126.425V22.5489H130.9V12.5193H135.73V10.7364H121.605V12.5193ZM5.87942 34.0369L4.60406 33.3994L9.87797 32.7185C9.97507 32.8804 10.0619 33.0213 10.1701 33.1725L5.87942 34.0369ZM20.0476 34.0369L21.323 33.3994L16.0708 32.7403C16.0023 32.909 15.9075 33.0658 15.7898 33.2048L20.0476 34.0369ZM19.2803 34.1344L17.6809 34.6961L15.4112 33.9722L15.217 33.9075C15.2912 33.8443 15.3567 33.7717 15.4112 33.6911C15.5087 33.6157 15.5841 33.5076 15.6705 33.4212L19.2803 34.1344ZM23.4952 32.5563L22.0363 33.2696L16.1572 32.5563C16.1572 32.4158 16.2543 32.2646 16.2978 32.1134L23.4952 32.5563ZM24.0142 32.3404L25.8836 31.065H15.6058C15.6179 31.4702 15.5518 31.8738 15.4112 32.254C15.233 32.7378 14.9056 33.1524 14.4764 33.438C14.0471 33.7235 13.5382 33.8653 13.0231 33.8427C12.5159 33.8414 12.0191 33.698 11.5893 33.4286C11.1595 33.1592 10.8139 32.7747 10.5916 32.3187C10.4224 31.9341 10.3376 31.5176 10.343 31.0974H0L1.89112 32.3187L9.79153 31.8865C9.92263 32.4515 10.1982 32.9728 10.5912 33.3994C10.8984 33.7368 11.272 34.007 11.6886 34.193C12.1052 34.379 12.5558 34.4768 13.0121 34.4802C13.4659 34.4915 13.9164 34.4001 14.3299 34.213C14.7435 34.0258 15.1095 33.7478 15.4006 33.3994C15.7613 32.9776 16.0202 32.4784 16.1572 31.9405L24.0142 32.3404ZM15.3682 35.6581L15.5628 36.0473L15.3682 36.1444L14.8274 36.4037L14.2116 35.1177C13.8132 35.2641 13.3934 35.3445 12.9691 35.3557C12.5105 35.3753 12.0523 35.3093 11.6179 35.1611L11.0992 36.393C10.9073 36.4187 10.7125 36.3767 10.5482 36.2742C10.5026 36.2471 10.4628 36.2111 10.4312 36.1684C10.3996 36.1257 10.3769 36.0771 10.3643 36.0255L10.5482 35.7015L10.9911 34.8583C10.8515 34.7752 10.7212 34.6774 10.6023 34.5666L10.9694 34.091C11.561 34.4896 12.2558 34.7074 12.9691 34.7178C13.6873 34.7276 14.3866 34.4868 14.9466 34.0369L15.3571 34.1668L15.5304 34.2315L15.3575 34.3827C15.2363 34.533 15.09 34.6611 14.9249 34.7612L15.3682 35.6581ZM15.3682 29.0117C15.7857 29.5517 16.0741 30.1801 16.2113 30.8487H15.5521C15.5072 30.6389 15.4457 30.433 15.3682 30.233C14.892 29.0571 14.056 28.0621 12.9797 27.3906C12.8392 27.3037 12.7204 27.2066 12.5799 27.1312L12.9797 27.2717C13.9111 27.6333 14.7335 28.2287 15.3678 29.0006L15.3682 29.0117ZM13.5848 33.583C13.8172 33.5367 14.0357 33.4368 14.2227 33.2913L13.1419 31.1298L14.2227 30.5787L13.3038 29.7356L12.9367 29.9196L11.3479 30.6758L11.8125 31.7566L12.5585 31.4002L13.5848 33.583ZM10.7535 33.9075L10.5695 33.7456C10.4518 33.6429 10.3466 33.5267 10.2561 33.3994L6.65742 34.1234L8.1921 34.6748L10.7535 33.9075ZM9.76982 32.5563C9.71287 32.411 9.66243 32.2632 9.61864 32.1134L2.41019 32.5563L3.86909 33.3023L9.77021 32.5563H9.76982ZM42.6784 29.4546C42.2814 29.1306 41.7731 28.9754 41.2629 29.0223L39.2525 28.9789L37.2639 35.4635H38.1177L38.9822 32.6755H40.2686C40.888 32.6749 41.4921 32.4823 41.9975 32.1241C42.2584 31.926 42.4771 31.6776 42.6405 31.3936C42.8039 31.1096 42.9087 30.7958 42.9487 30.4706C42.9838 30.2918 42.9776 30.1074 42.9308 29.9314C42.8839 29.7553 42.7976 29.5923 42.6784 29.4546ZM40.4738 31.9405H39.1989L39.9334 29.768H41.1547C41.4215 29.7474 41.6856 29.8329 41.8897 30.006C42.0239 30.1809 42.0752 30.4059 42.0302 30.6218C41.9588 31.0202 41.7481 31.3803 41.4358 31.6378C41.1565 31.8405 40.8188 31.9467 40.4738 31.9405ZM46.9797 32.5567C47.054 32.1907 47.0046 31.8104 46.8391 31.4756L46.8932 31.4542C46.7636 31.2594 46.5836 31.1033 46.3724 31.0025C46.1612 30.9016 45.9267 30.8598 45.6937 30.8815C45.1246 30.8876 44.5751 31.0898 44.1377 31.4538C43.4527 32.1011 43.0198 32.9707 42.9164 33.9075C42.8421 34.2733 42.8915 34.6535 43.0569 34.9882C43.1858 35.1838 43.3656 35.3405 43.577 35.4414C43.7884 35.5422 44.0234 35.5834 44.2565 35.5606C44.8066 35.5406 45.3348 35.3394 45.7588 34.9882C46.4405 34.3476 46.8731 33.4861 46.9797 32.5567ZM46.1693 31.7673C46.2937 32.1737 46.2668 32.6115 46.0935 32.9996L45.91 33.3994C45.8069 33.8697 45.5662 34.2986 45.2184 34.6314C44.9845 34.826 44.6902 34.933 44.3859 34.9341C44.2622 34.9467 44.1373 34.9252 44.0249 34.8718C43.9125 34.8184 43.8169 34.7353 43.7485 34.6314C43.6159 34.2261 43.643 33.7855 43.8242 33.3994L44.0184 32.9996C44.1321 32.5641 44.3512 32.1633 44.6563 31.8324C44.8906 31.6027 45.2038 31.4712 45.5318 31.4649C45.6553 31.4547 45.7794 31.4773 45.8913 31.5304C46.0033 31.5836 46.0992 31.6651 46.1693 31.7673Z" fill="#B7B7B7"/>
<path d="M50.7432 35.1072C50.5501 35.2051 50.3516 35.2919 50.1487 35.3666C49.8031 35.4948 49.4365 35.5572 49.068 35.5505C48.8666 35.5585 48.6658 35.523 48.4793 35.4465C48.2928 35.3701 48.125 35.2543 47.9872 35.1072C47.7738 34.7619 47.6894 34.3522 47.7492 33.9507C47.7978 33.426 47.9499 32.9162 48.1966 32.4506C48.4434 31.985 48.7799 31.5729 49.1868 31.2381C49.595 30.9934 50.0615 30.8628 50.5375 30.86C50.8496 30.8534 51.1571 30.9358 51.4241 31.0976C51.6467 31.2516 51.7572 31.5235 51.7047 31.7892C51.6756 31.9719 51.6134 32.1478 51.5212 32.3082L50.7862 32.373C50.8496 32.2686 50.8892 32.1515 50.9023 32.0301C50.9154 31.9087 50.9016 31.7859 50.862 31.6704C50.7916 31.59 50.7026 31.5283 50.6027 31.4906C50.5028 31.453 50.3951 31.4405 50.2892 31.4544C50.0647 31.4518 49.8439 31.5117 49.6514 31.6273C49.2309 31.9166 48.9401 32.3587 48.841 32.8593L48.6681 33.4431C48.5327 33.7906 48.5327 34.1763 48.6681 34.5238C48.7458 34.6568 48.8612 34.7637 48.9997 34.8311C49.1382 34.8984 49.2936 34.9231 49.4461 34.902C49.681 34.9037 49.9146 34.8672 50.1377 34.7938C50.3275 34.7425 50.5119 34.6734 50.6891 34.5886L50.7432 35.1072ZM55.1957 35.1072C55.0026 35.2049 54.8041 35.2914 54.6012 35.3666C54.2556 35.4949 53.889 35.5573 53.5204 35.5505C53.3191 35.5584 53.1183 35.523 52.9318 35.4465C52.7453 35.37 52.5775 35.2543 52.4397 35.1072C52.2246 34.7626 52.1403 34.3522 52.2021 33.9507C52.2512 33.4262 52.4034 32.9165 52.6501 32.451C52.8967 31.9855 53.2329 31.5733 53.6393 31.2381C54.0479 30.9939 54.5144 30.8633 54.9904 30.86C55.3022 30.8546 55.6093 30.9369 55.8766 31.0976C56.0996 31.2516 56.2097 31.5235 56.1576 31.7892C56.127 31.9716 56.0647 32.1472 55.9737 32.3082L55.2391 32.373C55.3021 32.2683 55.3406 32.1507 55.3518 32.0291C55.363 31.9074 55.3466 31.7848 55.3038 31.6704C55.2341 31.5892 55.1451 31.5269 55.045 31.4892C54.9449 31.4515 54.837 31.4395 54.7311 31.4544C54.503 31.4504 54.2783 31.5103 54.0825 31.6273C53.6637 31.9182 53.3733 32.3595 53.2718 32.8593L53.0989 33.4431C52.9651 33.7909 52.9651 34.176 53.0989 34.5238C53.1785 34.6576 53.2958 34.7649 53.4362 34.8322C53.5766 34.8995 53.7338 34.9238 53.8879 34.902C54.1228 34.9037 54.3564 34.8672 54.5795 34.7938C54.7694 34.7425 54.9537 34.6734 55.1309 34.5886L55.1957 35.1072ZM60.048 35.453H59.2807L60.3614 31.9625L57.249 35.453H56.3411L57.7136 30.9895H58.4809L57.4112 34.4804L60.513 30.9895H61.4315L60.048 35.453Z" fill="#B7B7B7"/>
<path fill-rule="evenodd" clip-rule="evenodd" d="M66.6295 29.3577C66.6591 29.2661 66.6808 29.1722 66.6942 29.0767H66.078V29.1955C66.0377 29.3621 65.9377 29.5081 65.797 29.606C65.6713 29.695 65.5184 29.7372 65.3648 29.7252C65.3003 29.7328 65.2349 29.7261 65.1733 29.7055C65.1117 29.685 65.0554 29.6511 65.0083 29.6064C64.9713 29.5423 64.9518 29.4696 64.9518 29.3956C64.9518 29.3216 64.9713 29.2489 65.0083 29.1848V29.0767H64.4032C64.3188 29.2242 64.2602 29.3851 64.2299 29.5523C64.2169 29.6481 64.2279 29.7456 64.2619 29.8362C64.2958 29.9267 64.3517 30.0074 64.4245 30.071C64.6393 30.2289 64.9049 30.3023 65.1702 30.2762C65.4716 30.2864 65.7703 30.2155 66.035 30.071C66.1808 30.0037 66.3099 29.9047 66.4127 29.7814C66.5155 29.658 66.5896 29.5133 66.6295 29.3577ZM64.6626 35.453H65.4299L66.7806 30.9895H65.8728L62.7821 34.4804L63.8628 30.9895H63.0955L61.7227 35.453H62.6305L65.7433 31.9625L64.6626 35.453Z" fill="#B7B7B7"/>
<path d="M70.2709 35.1072C70.0775 35.2046 69.8794 35.2911 69.6765 35.3665C69.3308 35.4945 68.9643 35.5569 68.5957 35.5504C68.3943 35.5584 68.1935 35.523 68.0071 35.4465C67.8206 35.37 67.6527 35.2543 67.515 35.1072C67.3007 34.7622 67.2164 34.3522 67.2769 33.9506C67.3275 33.4253 67.4815 32.9152 67.73 32.4496C67.9786 31.9841 68.3168 31.5723 68.7252 31.2381C69.134 30.9943 69.6004 30.8638 70.0763 30.8599C70.3882 30.854 70.6954 30.9364 70.9625 31.0975C71.1879 31.2499 71.2988 31.5231 71.2435 31.7891C71.218 31.9712 71.1594 32.1471 71.0706 32.3082L70.3357 32.3729C70.3995 32.2685 70.4385 32.1509 70.4497 32.0291C70.461 31.9073 70.4441 31.7845 70.4004 31.6703C70.3357 31.5621 70.1628 31.4544 69.8383 31.4544C69.6104 31.4504 69.3858 31.5102 69.1902 31.6273C68.7671 31.916 68.4726 32.3576 68.3687 32.8592L68.1959 33.443C68.0616 33.7907 68.0616 34.176 68.1959 34.5237C68.2746 34.6557 68.3902 34.7618 68.5284 34.8289C68.6666 34.8961 68.8214 34.9215 68.9739 34.9019C69.2087 34.9036 69.4423 34.8671 69.6654 34.7937C69.8553 34.7424 70.04 34.6737 70.2168 34.5885L70.2709 35.1072ZM74.2154 35.4529L74.0208 34.0477C74.0187 33.8661 73.9624 33.6894 73.859 33.5401C73.8027 33.4881 73.736 33.4488 73.6633 33.4245C73.5906 33.4003 73.5136 33.3918 73.4374 33.3996H72.8106L72.1838 35.4529H71.4164L72.7889 30.9894H73.5562L73.0158 32.7621H73.5562C73.7528 32.7692 73.9462 32.7124 74.1072 32.6003C74.249 32.4795 74.3666 32.3326 74.4534 32.168L74.7668 31.66C74.9122 31.3514 75.1605 31.103 75.469 30.9574C75.5867 30.9132 75.711 30.8911 75.8365 30.8927C75.9652 30.8951 76.0927 30.9168 76.2151 30.9574L75.9447 31.5519C75.8902 31.5281 75.8313 31.5158 75.7718 31.5158C75.7123 31.5158 75.6534 31.5281 75.5989 31.5519C75.4976 31.6444 75.4134 31.7541 75.3502 31.8759L75.1016 32.2651C75.0041 32.4625 74.8639 32.6362 74.691 32.7731C74.5579 32.8745 74.4078 32.9513 74.2478 33.0001C74.3993 33.0423 74.5351 33.1288 74.637 33.2488C74.7277 33.3929 74.7866 33.5551 74.8099 33.724L75.0475 35.3669L74.2154 35.4537V35.4529ZM79.7704 35.4529H78.9923L80.0731 31.9624L76.9607 35.4529H76.0528L77.4253 30.9894H78.2033L77.1225 34.4803L80.2243 30.9894H81.1432L79.7704 35.4529Z" fill="#B7B7B7"/>
<path fill-rule="evenodd" clip-rule="evenodd" d="M82.559 34.5344C82.4446 34.2092 82.4446 33.8547 82.559 33.5295L82.5914 33.4103H85.2502L85.315 33.2161C85.5826 32.6585 85.6214 32.0185 85.4231 31.4327C85.3072 31.2554 85.1457 31.1126 84.9555 31.0194C84.7653 30.9262 84.5535 30.886 84.3424 30.903C83.7947 30.9134 83.2692 31.1207 82.8618 31.4868C82.3964 31.9101 82.0513 32.449 81.8615 33.0488C81.6717 33.6486 81.6439 34.2879 81.781 34.9019C81.9151 35.1203 82.1077 35.2967 82.337 35.4113C82.5662 35.5258 82.8229 35.5739 83.0781 35.5501C83.4465 35.5552 83.8127 35.493 84.1588 35.3665C84.3618 35.292 84.5602 35.2054 84.7529 35.1072L84.6664 34.5885C84.4898 34.6745 84.3053 34.7432 84.1154 34.7938C83.8917 34.8647 83.6585 34.9011 83.4238 34.9019C83.2603 34.9197 83.0949 34.8952 82.9435 34.8309C82.7921 34.7666 82.6597 34.6645 82.559 34.5344ZM84.58 32.6429V32.8269H82.7212V32.7294C82.8236 32.3699 83.0215 32.0449 83.294 31.7891C83.5083 31.5906 83.7909 31.4823 84.083 31.4868C84.1831 31.4788 84.2834 31.5001 84.3716 31.548C84.4598 31.5959 84.5322 31.6685 84.58 31.7568C84.6869 32.0425 84.6869 32.3572 84.58 32.6429ZM92.3505 35.3555C92.5762 35.2389 92.7809 35.0855 92.956 34.9015L92.7614 35.4751H93.453L94.3392 32.5896C94.4138 32.3902 94.4682 32.1838 94.5014 31.9735C94.5454 31.756 94.5108 31.53 94.4039 31.3356C94.2658 31.1908 94.0971 31.0788 93.9101 31.0078C93.7231 30.9367 93.5225 30.9085 93.3231 30.9251C92.8524 30.9115 92.3854 31.0117 91.9617 31.2172C91.7889 31.3101 91.6419 31.4447 91.5343 31.6089C91.4267 31.773 91.3618 31.9614 91.3456 32.157H92.0371C92.0625 32.0441 92.1112 31.9377 92.1801 31.8446C92.2489 31.7516 92.3364 31.6739 92.437 31.6166C92.6446 31.512 92.8748 31.4601 93.1072 31.4655C93.3034 31.4441 93.5004 31.4982 93.6583 31.6166C93.8051 31.7883 93.8347 32.0311 93.734 32.2328L93.5612 32.8162H92.902C92.3365 32.7841 91.7737 32.9155 91.2808 33.1947C91.055 33.336 90.8633 33.5256 90.7194 33.7498C90.5755 33.974 90.4831 34.2272 90.4488 34.4914C90.4187 34.64 90.4278 34.7938 90.4751 34.9378C90.5224 35.0818 90.6064 35.2111 90.7187 35.3128C90.9601 35.4854 91.2553 35.5659 91.5508 35.5398C91.8293 35.554 92.1062 35.4905 92.3505 35.3562V35.3555ZM92.6639 33.3779H93.3559L93.0638 34.3292C92.9189 34.4863 92.7516 34.6213 92.5668 34.729C92.362 34.8649 92.1211 34.9364 91.8753 34.9343C91.7796 34.9438 91.6831 34.9311 91.5931 34.8974C91.5031 34.8637 91.4221 34.8097 91.3562 34.7397C91.3104 34.685 91.2779 34.6204 91.261 34.5511C91.2442 34.4817 91.2435 34.4095 91.2591 34.3398C91.2801 34.1927 91.3313 34.0514 91.4094 33.925C91.4875 33.7985 91.5909 33.6895 91.7131 33.6049C91.9988 33.4325 92.3311 33.3531 92.6639 33.3779ZM96.3278 30.9898H98.2947C98.6278 30.9424 98.9622 31.0688 99.1808 31.3245C99.3044 31.5045 99.351 31.726 99.3107 31.9403C99.269 32.2492 99.1242 32.5349 98.8998 32.7511C98.7391 32.9157 98.5378 33.0353 98.3164 33.0968C98.4826 33.1387 98.6259 33.2429 98.7162 33.3889C98.8058 33.55 98.8398 33.7363 98.8134 33.9183C98.785 34.1471 98.7088 34.3673 98.5896 34.5647C98.4705 34.7621 98.3111 34.9321 98.1218 35.0638C97.7653 35.3247 97.3314 35.458 96.8899 35.4423H94.977L96.3278 30.9898ZM95.9062 34.8696H96.987C97.2172 34.8789 97.4444 34.8145 97.6355 34.6856C97.7471 34.6025 97.8403 34.4972 97.9092 34.3763C97.978 34.2553 98.021 34.1214 98.0353 33.983C98.0497 33.9125 98.0452 33.8395 98.0224 33.7712C97.9996 33.703 97.9593 33.6419 97.9055 33.5942C97.7785 33.4976 97.622 33.448 97.4626 33.4537H96.3818L95.9062 34.8696ZM97.495 32.8809H96.5224L96.9329 31.5839H97.9489C98.0973 31.5752 98.2446 31.6131 98.3705 31.692C98.4822 31.7828 98.5323 31.9296 98.4999 32.0702C98.4847 32.1969 98.4432 32.3191 98.3781 32.429C98.313 32.5388 98.2257 32.6338 98.1218 32.708C97.9374 32.8328 97.7172 32.8935 97.495 32.8809Z" fill="#B7B7B7"/>
<path d="M103.374 35.4528H102.617L103.687 31.9623L100.607 35.4528H99.6992L101.061 30.9893H101.828L100.769 34.4802L103.838 30.9893H104.746L103.374 35.4528Z" fill="#B7B7B7"/>
<path fill-rule="evenodd" clip-rule="evenodd" d="M106.94 35.3554C107.169 35.2391 107.377 35.0857 107.556 34.9015L107.35 35.4746H108.042L108.929 32.5892C109.002 32.3895 109.056 32.1831 109.09 31.973C109.132 31.7556 109.097 31.5305 108.993 31.3352C108.855 31.191 108.686 31.0794 108.499 31.0084C108.312 30.9374 108.112 30.9088 107.913 30.9246C107.445 30.9119 106.982 31.0121 106.562 31.2167C106.39 31.3104 106.243 31.4452 106.136 31.6092C106.028 31.7732 105.963 31.9612 105.946 32.1566H106.637C106.662 32.0434 106.71 31.9368 106.779 31.8437C106.848 31.7505 106.936 31.673 107.037 31.6162C107.245 31.5116 107.475 31.4597 107.707 31.465C107.903 31.4437 108.1 31.4978 108.258 31.6162C108.408 31.7867 108.438 32.0307 108.334 32.2324L108.161 32.8158H107.502C106.936 32.7825 106.373 32.914 105.881 33.1943C105.655 33.3356 105.463 33.5252 105.319 33.7494C105.175 33.9735 105.083 34.2268 105.048 34.491C105.019 34.6396 105.028 34.7934 105.075 34.9374C105.123 35.0814 105.207 35.2106 105.319 35.3124C105.56 35.4859 105.855 35.5665 106.151 35.5394C106.426 35.5527 106.699 35.4888 106.94 35.3554ZM107.264 33.3779H107.956L107.664 34.3291C107.521 34.488 107.353 34.623 107.167 34.729C106.962 34.8649 106.721 34.9364 106.475 34.9343C106.38 34.9437 106.283 34.9311 106.193 34.8974C106.103 34.8636 106.022 34.8097 105.956 34.7397C105.911 34.6849 105.878 34.6204 105.861 34.551C105.844 34.4817 105.844 34.4094 105.859 34.3398C105.88 34.1927 105.931 34.0514 106.01 33.925C106.088 33.7985 106.191 33.6895 106.313 33.6048C106.599 33.4318 106.931 33.3524 107.264 33.3779Z" fill="#B7B7B7"/>
<path d="M112.517 35.453H111.749L112.927 31.6273H111.706L111.544 32.1246C111.356 32.7168 111.143 33.3008 110.906 33.8752C110.726 34.4134 110.387 34.8843 109.934 35.226C109.639 35.4121 109.307 35.5302 108.961 35.5718V34.9236C109.213 34.8704 109.452 34.7675 109.664 34.6209C109.947 34.3794 110.16 34.0657 110.279 33.713C110.463 33.2697 110.82 32.2865 110.993 31.7137L111.22 30.9788H113.878L112.517 35.453ZM117.747 35.453H116.98L118.061 31.9624L114.97 35.453H114.073L115.434 30.9894H116.202L115.132 34.4804L118.212 30.9894H119.12L117.747 35.453ZM122.73 35.453H121.973L122.589 33.443H120.687L120.06 35.453H119.293L120.665 30.9894H121.433L120.871 32.7945H122.784L123.335 30.9894H124.102L122.73 35.453ZM127.96 35.453H127.193L128.274 31.9624L125.183 35.453H124.286L125.648 30.9894H126.415L125.345 34.4804L128.425 30.9894H129.333L127.96 35.453ZM133.191 35.453H132.424L133.494 31.9624L130.414 35.453H129.506L130.878 30.9894H131.635L130.576 34.4804L133.656 30.9894H134.564L133.191 35.453Z" fill="#B7B7B7"/>
<path d="M156.158 17.6479C145.479 17.7395 140.652 20.445 131.654 27.2374L129.809 29.2094C139.081 22.2346 144.407 21.6437 152.038 21.7077C152.747 21.7535 153.424 21.7929 153.854 20.8496L156.158 17.6479Z" fill="#B7B7B7"/>
<path d="M158.128 9.5498C142.979 12.0942 136.29 22.6965 131.652 27.2283C140.704 18.5918 148.255 14.699 154.891 13.938C155.479 13.1347 157.51 10.451 158.128 9.5502L158.128 9.5498Z" fill="#B7B7B7"/>
<path d="M154.881 13.9385C144.788 15.3658 138.187 21.1844 132.105 26.7295C131.934 26.9056 131.319 27.6054 131.141 27.772C136.443 23.7126 140.895 19.5072 151.956 17.9465C152.507 17.3011 154.119 15.11 154.881 13.9385Z" fill="#B7B7B7"/>
<path d="M155.095 17.2856C153.335 17.2856 151.552 18.1501 151.381 18.6435C151.09 19.4618 151.546 19.1148 152.87 19.9303C153.991 20.6151 153.756 20.8618 153.653 21.212C154.674 19.7081 156.513 17.5079 156.513 17.5079C156.066 17.3527 155.581 17.2856 155.095 17.2856Z" fill="#B7B7B7"/>
<path d="M173.94 4.38525C170.847 8.60328 163.802 8.235 161.61 8.53617C159.55 8.82235 158.237 9.35799 157.413 10.4415L154.512 14.4401C155.144 13.8559 157.054 13.5701 159.117 13.5152H159.673C159.95 13.5061 160.259 13.4907 160.583 13.4785C163.517 13.3601 167.589 12.937 169.949 10.0823L173.51 4.99076L173.94 4.38525Z" fill="#B7B7B7"/>
<path d="M176.783 0C173.516 3.33226 169.95 3.46962 166.924 3.89553C166.018 4.01711 163.976 3.98671 162.272 5.1097C160.574 6.22677 158.538 8.89274 157.531 10.2924C158.467 9.26062 159.709 8.96852 161.516 8.75261C163.343 8.5367 165.977 8.57301 167.851 8.30539C169.638 8.06184 172.694 6.06059 173.71 4.65143L176.783 0Z" fill="#B7B7B7"/>
<path d="M170.065 9.92432C168.697 11.7381 166.257 12.5571 163.326 12.983C161.099 13.2996 158.568 13.3935 157.841 13.4393C156.59 13.4942 154.937 13.9051 154.48 14.4743C153.077 16.2727 151.744 17.9467 151.379 18.6438C152.235 17.8188 155.04 17.91 158.453 17.7489C161.843 17.5843 165.289 16.0658 168.011 12.8642L170.065 9.92432Z" fill="#B7B7B7"/>
</svg>
