<svg width="116" height="51" viewBox="0 0 116 51" fill="none" xmlns="http://www.w3.org/2000/svg">
<path d="M81.6729 4.63484V6.51313H97.7427C99.0827 6.36246 100.429 6.73643 101.499 7.55662C102.319 8.62693 102.693 9.97321 102.543 11.3132V27.1534C102.693 28.4934 102.319 29.8397 101.499 30.91C100.418 31.7076 99.0806 32.0791 97.7427 31.9535H90.0208C88.7686 31.9535 86.8904 31.9535 86.2643 30.4926C86.0604 29.8323 86.0504 29.1273 86.2354 28.4614C86.4203 27.7955 86.7925 27.1967 87.3078 26.736L97.7427 12.9619H81.6729L75.1615 21.5394C74.0619 22.6892 73.3346 24.1439 73.0745 25.7134C73.2063 27.3217 73.9539 28.817 75.1615 29.8874L76.8311 31.9744C78.1848 34.0604 79.9625 35.8381 82.0485 37.1918C84.6482 38.1491 87.4307 38.5058 90.1878 38.2353H97.0749C101.04 38.2353 107.092 38.2353 111.058 34.2701C115.023 30.3048 115.023 24.4612 115.023 22.3742V15.9046C115.023 13.8176 115.023 7.97402 111.058 4.00875C107.092 0.0434693 101.082 0.0225995 97.1166 0.0225995H86.0556C84.7827 -0.0992032 83.5119 0.27456 82.5077 1.06609C81.858 2.13705 81.5657 3.38683 81.6729 4.63484ZM62.4726 12.7741H78.5424L59.3421 38.2353H43.2723L62.4726 12.7741ZM1.11518 14.0263C0.702608 14.4706 0.3918 14.9995 0.204383 15.5762C0.0169663 16.1529 -0.042558 16.7635 0.0299516 17.3655V19.2438H6.49961V50.966H19.2302V19.2438H31.7522C33.0043 19.2438 34.8826 19.2438 35.5087 20.7046C35.7126 21.365 35.7226 22.07 35.5376 22.7359C35.3527 23.4018 34.9805 24.0006 34.4652 24.4612L24.0303 38.2353H40.1001L46.5698 29.6787C47.6694 28.5289 48.3967 27.0743 48.6567 25.5047C48.525 23.8964 47.7773 22.4011 46.5698 21.3307L44.9002 19.2438C43.5464 17.1577 41.7687 15.38 39.6827 14.0263C37.083 13.069 34.3005 12.7123 31.5435 12.9828H4.66306C4.0332 12.8088 3.36725 12.8144 2.74036 12.9987C2.11347 13.1831 1.55057 13.539 1.11518 14.0263Z" fill="#B7B7B7"/>
</svg>
