<svg width="175" height="49" viewBox="0 0 175 49" fill="none" xmlns="http://www.w3.org/2000/svg">
<path d="M59.7482 44.2071C64.7975 45.0165 69.8958 45.4714 75.0067 45.5685C82.4487 45.7554 89.8923 45.2745 97.2511 44.1313C103.951 43.1564 110.519 41.405 116.827 38.9114C119.663 37.844 122.315 36.3266 124.685 34.4155C122.238 36.6332 119.45 38.4292 116.433 39.7325C109.835 42.7243 102.916 44.9224 95.8157 46.2821C88.3065 47.8003 80.6743 48.6035 73.0183 48.6813C68.4272 48.7662 63.8367 48.477 59.2911 47.8164C54.5002 47.2028 49.8633 45.6894 45.6166 43.3533C42.7882 41.6457 41.8526 40.111 42.1505 39.7976C42.448 39.4842 43.8624 40.1651 46.7121 41.1053C50.9691 42.4913 55.3283 43.5285 59.7482 44.2071Z" fill="white"/>
<path fill-rule="evenodd" clip-rule="evenodd" d="M89.9046 22.5489L94.232 13.4059H94.3171L99.102 22.5489H104.025L97.6771 10.7364H93.5089L87.767 22.5489H89.9046ZM21.8422 17.3938L28.6365 17.3069C28.6119 17.8791 28.4673 18.4393 28.2124 18.9501C27.9574 19.4609 27.5981 19.9104 27.1584 20.2685C26.1305 20.9805 24.9026 21.3333 23.6601 21.2735C22.5796 21.3245 21.5081 21.0541 20.5765 20.4955C19.905 20.0818 19.3199 19.5382 18.8541 18.8957L18.5458 18.4205L16.3341 19.7388C17.1026 20.6281 18.0297 21.3615 19.0666 21.9003C20.6101 22.6787 22.3213 23.0503 24.043 22.9811C25.9887 22.9811 29.0299 22.689 31.2202 20.9925C31.909 20.5256 32.4736 19.8932 32.8642 19.1514C33.2548 18.4095 33.4591 17.5811 33.4591 16.7397C33.4591 15.8983 33.2548 15.0699 32.8642 14.3281C32.4736 13.5862 31.909 12.9538 31.2202 12.487C29.1127 11.0729 26.619 10.3731 24.0962 10.4877C22.5428 10.4419 20.9952 10.6949 19.5345 11.2337C18.3524 11.6655 17.2676 12.3342 16.3446 13.2002L18.5563 14.4973L19.0883 13.9028C19.6091 13.3494 20.2396 12.9149 20.9381 12.6279C21.8237 12.2415 22.7818 12.057 23.7451 12.0871C24.4194 12.038 25.0965 12.1275 25.7359 12.3504C26.3753 12.5733 26.964 12.9248 27.4667 13.3842C28.0823 14.0312 28.4581 14.8752 28.5301 15.7722L21.8422 15.5887V17.3938ZM111.851 11.8495C112.489 11.8089 113.126 11.9276 113.708 12.1951C114.29 12.4626 114.799 12.8708 115.19 13.3842C115.845 14.3294 116.168 15.4719 116.104 16.6264C116.166 17.7808 115.844 18.9227 115.19 19.8687C114.774 20.3527 114.261 20.7407 113.685 21.0065C113.109 21.2723 112.484 21.4099 111.851 21.4099C111.219 21.4099 110.594 21.2723 110.018 21.0065C109.442 20.7407 108.929 20.3527 108.512 19.8687C107.859 18.9223 107.537 17.7807 107.598 16.6264C107.536 15.472 107.858 14.3298 108.512 13.3842C108.903 12.8709 109.412 12.4626 109.994 12.1951C110.576 11.9276 111.214 11.8089 111.851 11.8495ZM111.851 22.9057C114.287 22.9706 116.684 22.2767 118.72 20.9171C119.39 20.431 119.941 19.7955 120.332 19.0593C120.723 18.3231 120.943 17.5057 120.974 16.6698C120.943 15.8339 120.723 15.0165 120.332 14.2802C119.941 13.5439 119.39 12.9084 118.72 12.4222C116.685 11.0588 114.288 10.3612 111.851 10.4229C109.408 10.3664 107.006 11.0635 104.961 12.4222C104.272 12.8891 103.708 13.5215 103.317 14.2634C102.927 15.0053 102.722 15.8336 102.722 16.675C102.722 17.5163 102.927 18.3447 103.317 19.0866C103.708 19.8284 104.272 20.4609 104.961 20.9277C107.007 22.2828 109.409 22.9761 111.851 22.9164M74.731 13.7193C75.1879 13.5693 75.665 13.4927 76.145 13.4923H76.6662V19.6307H76.145C75.6648 19.6321 75.1875 19.5554 74.731 19.4037C74.3675 19.2969 74.0304 19.1127 73.7423 18.8633C73.4417 18.5618 73.203 18.2026 73.04 17.8065C72.8771 17.4105 72.7932 16.9855 72.7932 16.5562C72.7932 16.1269 72.8771 15.7019 73.04 15.3058C73.203 14.9098 73.4417 14.5505 73.7423 14.249C74.0302 13.9992 74.3673 13.8148 74.731 13.7082M82.706 21.1223C84.2666 21.1038 85.7966 20.6795 87.1503 19.89C87.7277 19.55 88.2066 19.0612 88.5389 18.4731C88.8713 17.885 89.0452 17.2182 89.0432 16.54C89.0342 15.8669 88.8555 15.2074 88.5241 14.6246C88.1926 14.0418 87.7197 13.5552 87.1503 13.2113C85.7955 12.4245 84.2662 12.0006 82.706 11.9793H80.909V10.3574H76.5066V11.9789H74.7524C73.1914 11.9948 71.6606 12.4189 70.3076 13.2105C69.7389 13.5552 69.2664 14.0421 68.9351 14.6248C68.6038 15.2075 68.4247 15.8667 68.4148 16.5396C68.4139 17.2176 68.5883 17.8839 68.9205 18.4719C69.2527 19.0598 69.731 19.5487 70.3076 19.8896C71.6594 20.6842 73.1909 21.1088 74.7524 21.1219H76.528V22.8402H80.93V21.176H82.706M82.706 13.7619C83.0695 13.8685 83.4066 14.0528 83.6947 14.3027C83.9951 14.6043 84.2337 14.9636 84.3965 15.3596C84.5593 15.7557 84.6431 16.1806 84.6431 16.6099C84.6431 17.0391 84.5593 17.464 84.3965 17.8601C84.2337 18.2561 83.9951 18.6154 83.6947 18.917C83.4066 19.1665 83.0695 19.3508 82.706 19.4578C82.242 19.6094 81.7575 19.6859 81.2702 19.6844H80.7708V13.4923H81.2702C81.7576 13.4923 82.2419 13.5689 82.706 13.7193M58.3136 11.8495C58.9507 11.8117 59.5874 11.9316 60.1689 12.1989C60.7505 12.4662 61.2595 12.8729 61.6523 13.3842C62.3077 14.3294 62.63 15.4718 62.5669 16.6264C62.6284 17.7808 62.3062 18.9227 61.6523 19.8687C61.2342 20.3532 60.7191 20.7415 60.1415 21.0074C59.5639 21.2734 58.937 21.411 58.3029 21.411C57.6688 21.411 57.042 21.2734 56.4644 21.0074C55.8868 20.7415 55.3717 20.3532 54.9535 19.8687C54.3011 18.9225 53.9826 17.7799 54.0498 16.6264C53.98 15.4727 54.2987 14.3292 54.9535 13.3842C55.3468 12.8707 55.8574 12.4625 56.4411 12.1951C57.0247 11.9276 57.6637 11.809 58.3027 11.8495M58.3027 22.9057C60.7382 22.9677 63.1344 22.2739 65.172 20.9167C65.8561 20.4464 66.4163 19.8129 66.8036 19.0715C67.1908 18.3301 67.3934 17.5035 67.3934 16.6641C67.3934 15.8247 67.1908 14.9981 66.8036 14.2568C66.4163 13.5154 65.8561 12.8818 65.172 12.4116C63.1067 11.1074 60.7237 10.4163 58.2922 10.4163C55.8608 10.4163 53.4778 11.1074 51.4125 12.4116C50.7239 12.8785 50.1594 13.5109 49.7689 14.2527C49.3785 14.9945 49.1742 15.8228 49.1742 16.6641C49.1742 17.5054 49.3785 18.3337 49.7689 19.0756C50.1594 19.8174 50.7239 20.4498 51.4125 20.9167C53.4567 22.2767 55.8604 22.9708 58.3027 22.9057ZM41.6834 18.2689H42.502C44.0997 18.3991 45.7021 18.0849 47.1382 17.361C47.6401 17.0719 48.0554 16.6499 48.3399 16.1399C48.6245 15.6299 48.7677 15.0511 48.7542 14.4649C48.7654 13.8878 48.6207 13.3187 48.3358 12.8194C48.0509 12.3201 47.6367 11.9098 47.1382 11.6332C46.0749 10.9957 44.6819 10.7904 42.3106 10.7904H34.7718V22.5919H39.1851V18.2689H41.6834ZM41.6834 12.6058C42.2864 12.6031 42.8799 12.7595 43.4057 13.0597C43.6352 13.2062 43.8253 13.4084 43.9589 13.648C44.0926 13.8876 44.1657 14.1572 44.1716 14.4326C44.1776 14.7341 44.105 15.0318 43.9613 15.2956C43.8175 15.5594 43.6076 15.7798 43.3529 15.9345C42.8467 16.25 42.2666 16.4218 41.6729 16.4318H39.1847V12.5193H41.2263C41.3784 12.5082 41.5312 12.5082 41.6834 12.5193V12.6058ZM7.55099 13.5136L9.7522 17.5343H5.36066L7.4873 13.4272H7.55099V13.5136ZM10.6454 19.1444L12.5379 22.5919H17.4611L10.7837 10.704H6.70049L0.628906 22.5919H2.81924L4.55248 19.1878L10.6454 19.1444ZM120.273 12.5193H125.015V22.5489H129.417V12.5193H134.17V10.7364H120.273V12.5193ZM6.41349 34.0369L5.15871 33.3994L10.3476 32.7185C10.4431 32.8804 10.5285 33.0213 10.6349 33.1725L6.41349 34.0369ZM20.3532 34.0369L21.608 33.3994L16.4405 32.7403C16.3731 32.909 16.2798 33.0658 16.164 33.2048L20.3532 34.0369ZM19.5982 34.1344L18.0246 34.6961L15.7916 33.9722L15.6005 33.9075C15.6735 33.8443 15.738 33.7717 15.7916 33.6911C15.8875 33.6157 15.9617 33.5076 16.0467 33.4212L19.5982 34.1344ZM23.7451 32.5563L22.3097 33.2696L16.5255 32.5563C16.5255 32.4158 16.6211 32.2646 16.6638 32.1134L23.7451 32.5563ZM24.2558 32.3404L26.0951 31.065H15.983C15.9949 31.4702 15.9299 31.8738 15.7916 32.254C15.6162 32.7378 15.2941 33.1524 14.8718 33.438C14.4495 33.7235 13.9488 33.8653 13.442 33.8427C12.9429 33.8414 12.4542 33.698 12.0313 33.4286C11.6085 33.1592 11.2684 32.7747 11.0497 32.3187C10.8832 31.9341 10.7998 31.5176 10.805 31.0974H0.628906L2.48953 32.3187L10.2625 31.8865C10.3915 32.4515 10.6626 32.9728 11.0493 33.3994C11.3515 33.7368 11.7191 34.007 12.129 34.193C12.5389 34.379 12.9822 34.4768 13.4311 34.4802C13.8776 34.4915 14.3208 34.4001 14.7277 34.213C15.1346 34.0258 15.4947 33.7478 15.7811 33.3994C16.136 32.9776 16.3907 32.4784 16.5255 31.9405L24.2558 32.3404ZM15.7492 35.6581L15.9407 36.0473L15.7492 36.1444L15.2172 36.4037L14.6113 35.1177C14.2193 35.2641 13.8063 35.3445 13.3888 35.3557C12.9376 35.3753 12.4868 35.3093 12.0594 35.1611L11.5491 36.393C11.3603 36.4187 11.1686 36.3767 11.007 36.2742C10.9621 36.2471 10.923 36.2111 10.8919 36.1684C10.8608 36.1257 10.8384 36.0771 10.826 36.0255L11.007 35.7015L11.4427 34.8583C11.3054 34.7752 11.1772 34.6774 11.0602 34.5666L11.4214 34.091C12.0034 34.4896 12.687 34.7074 13.3888 34.7178C14.0955 34.7276 14.7835 34.4868 15.3345 34.0369L15.7383 34.1668L15.9088 34.2315L15.7387 34.3827C15.6195 34.533 15.4755 34.6611 15.3131 34.7612L15.7492 35.6581ZM15.7492 29.0117C16.16 29.5517 16.4437 30.1801 16.5788 30.8487H15.9302C15.886 30.6389 15.8255 30.433 15.7492 30.233C15.2807 29.0571 14.4582 28.0621 13.3993 27.3906C13.261 27.3037 13.1441 27.2066 13.0059 27.1312L13.3993 27.2717C14.3156 27.6333 15.1248 28.2287 15.7488 29.0006L15.7492 29.0117ZM13.9946 33.583C14.2233 33.5367 14.4382 33.4368 14.6222 33.2913L13.5589 31.1298L14.6222 30.5787L13.7181 29.7356L13.3569 29.9196L11.7938 30.6758L12.2509 31.7566L12.9849 31.4002L13.9946 33.583ZM11.2089 33.9075L11.028 33.7456C10.9122 33.6429 10.8087 33.5267 10.7196 33.3994L7.17895 34.1234L8.68888 34.6748L11.2089 33.9075ZM10.2411 32.5563C10.1851 32.411 10.1355 32.2632 10.0924 32.1134L3.00022 32.5563L4.43559 33.3023L10.2415 32.5563H10.2411ZM42.6189 29.4546C42.2283 29.1306 41.7283 28.9754 41.2263 29.0223L39.2484 28.9789L37.2918 35.4635H38.1318L38.9823 32.6755H40.248C40.8575 32.6749 41.4517 32.4823 41.949 32.1241C42.2058 31.926 42.4209 31.6776 42.5816 31.3936C42.7424 31.1096 42.8455 30.7958 42.8849 30.4706C42.9194 30.2918 42.9134 30.1074 42.8673 29.9314C42.8212 29.7553 42.7362 29.5923 42.6189 29.4546ZM40.4499 31.9405H39.1955L39.9183 29.768H41.1198C41.3823 29.7474 41.6422 29.8329 41.843 30.006C41.975 30.1809 42.0255 30.4059 41.9812 30.6218C41.9109 31.0202 41.7036 31.3803 41.3964 31.6378C41.1216 31.8405 40.7894 31.9467 40.4499 31.9405ZM46.8508 32.5567C46.924 32.1907 46.8754 31.8104 46.7126 31.4756L46.7658 31.4542C46.6382 31.2594 46.4612 31.1033 46.2534 31.0025C46.0456 30.9016 45.8148 30.8598 45.5856 30.8815C45.0257 30.8876 44.485 31.0898 44.0547 31.4538C43.3807 32.1011 42.9549 32.9707 42.8531 33.9075C42.78 34.2733 42.8287 34.6535 42.9913 34.9882C43.1181 35.1838 43.2951 35.3405 43.5031 35.4414C43.7111 35.5422 43.9422 35.5834 44.1716 35.5606C44.7129 35.5406 45.2325 35.3394 45.6497 34.9882C46.3204 34.3476 46.746 33.4861 46.8508 32.5567ZM46.0535 31.7673C46.176 32.1737 46.1495 32.6115 45.979 32.9996L45.7984 33.3994C45.697 33.8697 45.4602 34.2986 45.118 34.6314C44.8879 34.826 44.5983 34.933 44.2989 34.9341C44.1772 34.9467 44.0543 34.9252 43.9437 34.8718C43.8332 34.8184 43.7391 34.7353 43.6717 34.6314C43.5414 34.2261 43.568 33.7855 43.7463 33.3994L43.9374 32.9996C44.0492 32.5641 44.2648 32.1633 44.565 31.8324C44.7955 31.6027 45.1036 31.4712 45.4263 31.4649C45.5479 31.4547 45.6699 31.4773 45.7801 31.5304C45.8902 31.5836 45.9846 31.6651 46.0535 31.7673Z" fill="white"/>
<path d="M50.55 35.1072C50.3601 35.2051 50.1648 35.2919 49.9652 35.3666C49.6251 35.4948 49.2645 35.5572 48.9019 35.5505C48.7037 35.5585 48.5062 35.523 48.3227 35.4465C48.1392 35.3701 47.9741 35.2543 47.8385 35.1072C47.6285 34.7619 47.5456 34.3522 47.6044 33.9507C47.6522 33.426 47.8018 32.9162 48.0446 32.4506C48.2874 31.985 48.6184 31.5729 49.0188 31.2381C49.4204 30.9934 49.8794 30.8628 50.3477 30.86C50.6548 30.8534 50.9573 30.9358 51.22 31.0976C51.439 31.2516 51.5477 31.5235 51.4961 31.7892C51.4675 31.9719 51.4063 32.1478 51.3155 32.3082L50.5924 32.373C50.6547 32.2686 50.6937 32.1515 50.7066 32.0301C50.7195 31.9087 50.706 31.7859 50.6669 31.6704C50.5977 31.59 50.5101 31.5283 50.4118 31.4906C50.3135 31.453 50.2076 31.4405 50.1034 31.4544C49.8825 31.4518 49.6652 31.5117 49.4758 31.6273C49.0622 31.9166 48.7761 32.3587 48.6785 32.8593L48.5084 33.4431C48.3752 33.7906 48.3752 34.1763 48.5084 34.5238C48.5849 34.6568 48.6984 34.7637 48.8347 34.8311C48.9709 34.8984 49.1238 34.9231 49.2739 34.902C49.505 34.9037 49.7348 34.8672 49.9543 34.7938C50.1411 34.7425 50.3225 34.6734 50.4968 34.5886L50.55 35.1072ZM54.9307 35.1072C54.7408 35.2049 54.5455 35.2914 54.3459 35.3666C54.0058 35.4949 53.6452 35.5573 53.2825 35.5505C53.0844 35.5584 52.8869 35.523 52.7034 35.4465C52.5199 35.37 52.3548 35.2543 52.2192 35.1072C52.0076 34.7626 51.9247 34.3522 51.9854 33.9507C52.0337 33.4262 52.1835 32.9165 52.4262 32.451C52.6689 31.9855 52.9996 31.5733 53.3994 31.2381C53.8014 30.9939 54.2604 30.8633 54.7288 30.86C55.0356 30.8546 55.3377 30.9369 55.6006 31.0976C55.8201 31.2516 55.9284 31.5235 55.8771 31.7892C55.847 31.9716 55.7858 32.1472 55.6962 32.3082L54.9734 32.373C55.0354 32.2683 55.0734 32.1507 55.0844 32.0291C55.0954 31.9074 55.0793 31.7848 55.0371 31.6704C54.9685 31.5892 54.881 31.5269 54.7825 31.4892C54.684 31.4515 54.5778 31.4395 54.4736 31.4544C54.2492 31.4504 54.0282 31.5103 53.8355 31.6273C53.4235 31.9182 53.1377 32.3595 53.0379 32.8593L52.8678 33.4431C52.7361 33.7909 52.7361 34.176 52.8678 34.5238C52.9461 34.6576 53.0615 34.7649 53.1997 34.8322C53.3378 34.8995 53.4924 34.9238 53.6441 34.902C53.8752 34.9037 54.105 34.8672 54.3245 34.7938C54.5113 34.7425 54.6927 34.6734 54.867 34.5886L54.9307 35.1072ZM59.7048 35.453H58.9498L60.0132 31.9625L56.951 35.453H56.0577L57.4081 30.9895H58.163L57.1106 34.4804L60.1623 30.9895H61.066L59.7048 35.453Z" fill="white"/>
<path fill-rule="evenodd" clip-rule="evenodd" d="M66.1831 29.3577C66.2123 29.2661 66.2336 29.1722 66.2468 29.0767H65.6406V29.1955C65.6009 29.3621 65.5026 29.5081 65.3641 29.606C65.2404 29.695 65.0899 29.7372 64.9388 29.7252C64.8754 29.7328 64.8111 29.7261 64.7505 29.7055C64.6899 29.685 64.6344 29.6511 64.5882 29.6064C64.5517 29.5423 64.5325 29.4696 64.5325 29.3956C64.5325 29.3216 64.5517 29.2489 64.5882 29.1848V29.0767H63.9928C63.9098 29.2242 63.8521 29.3851 63.8223 29.5523C63.8095 29.6481 63.8203 29.7456 63.8537 29.8362C63.8871 29.9267 63.9421 30.0074 64.0138 30.071C64.225 30.2289 64.4864 30.3023 64.7474 30.2762C65.044 30.2864 65.3378 30.2155 65.5983 30.071C65.7417 30.0037 65.8687 29.9047 65.9698 29.7814C66.071 29.658 66.1439 29.5133 66.1831 29.3577ZM64.248 35.453H65.0029L66.3319 30.9895H65.4387L62.3978 34.4804L63.4611 30.9895H62.7062L61.3555 35.453H62.2487L65.3113 31.9625L64.248 35.453Z" fill="white"/>
<path d="M69.7653 35.1072C69.575 35.2046 69.38 35.2911 69.1804 35.3665C68.8403 35.4945 68.4797 35.5569 68.1171 35.5504C67.9189 35.5584 67.7214 35.523 67.5379 35.4465C67.3545 35.37 67.1893 35.2543 67.0538 35.1072C66.843 34.7622 66.76 34.3522 66.8196 33.9506C66.8693 33.4253 67.0208 32.9152 67.2654 32.4496C67.5099 31.9841 67.8427 31.5723 68.2445 31.2381C68.6467 30.9943 69.1055 30.8638 69.5738 30.8599C69.8807 30.854 70.1829 30.9364 70.4457 31.0975C70.6674 31.2499 70.7766 31.5231 70.7222 31.7891C70.6971 31.9712 70.6395 32.1471 70.5521 32.3082L69.829 32.3729C69.8918 32.2685 69.9302 32.1509 69.9412 32.0291C69.9523 31.9073 69.9357 31.7845 69.8927 31.6703C69.829 31.5621 69.6589 31.4544 69.3397 31.4544C69.1154 31.4504 68.8945 31.5102 68.702 31.6273C68.2857 31.916 67.996 32.3576 67.8938 32.8592L67.7237 33.443C67.5916 33.7907 67.5916 34.176 67.7237 34.5237C67.8012 34.6557 67.9149 34.7618 68.0509 34.8289C68.1869 34.8961 68.3392 34.9215 68.4891 34.9019C68.7202 34.9036 68.95 34.8671 69.1695 34.7937C69.3563 34.7424 69.5381 34.6737 69.7121 34.5885L69.7653 35.1072ZM73.6461 35.4529L73.4547 34.0477C73.4527 33.8661 73.3972 33.6894 73.2955 33.5401C73.2401 33.4881 73.1744 33.4488 73.1029 33.4245C73.0314 33.4003 72.9557 33.3918 72.8807 33.3996H72.264L71.6473 35.4529H70.8923L72.2426 30.9894H72.9976L72.4659 32.7621H72.9976C73.191 32.7692 73.3813 32.7124 73.5397 32.6003C73.6792 32.4795 73.7949 32.3326 73.8803 32.168L74.1887 31.66C74.3317 31.3514 74.576 31.103 74.8796 30.9574C74.9953 30.9132 75.1176 30.8911 75.2411 30.8927C75.3677 30.8951 75.4932 30.9168 75.6136 30.9574L75.3475 31.5519C75.2939 31.5281 75.236 31.5158 75.1774 31.5158C75.1189 31.5158 75.061 31.5281 75.0073 31.5519C74.9076 31.6444 74.8248 31.7541 74.7627 31.8759L74.518 32.2651C74.4221 32.4625 74.2842 32.6362 74.1141 32.7731C73.9831 32.8745 73.8355 32.9513 73.678 33.0001C73.8271 33.0423 73.9607 33.1288 74.0609 33.2488C74.1502 33.3929 74.2081 33.5551 74.231 33.724L74.4648 35.3669L73.6461 35.4537V35.4529ZM79.1115 35.4529H78.346L79.4094 31.9624L76.3472 35.4529H75.454L76.8043 30.9894H77.5697L76.5064 34.4803L79.5581 30.9894H80.4622L79.1115 35.4529Z" fill="white"/>
<path fill-rule="evenodd" clip-rule="evenodd" d="M81.8537 34.5344C81.7411 34.2092 81.7411 33.8547 81.8537 33.5295L81.8855 33.4103H84.5015L84.5652 33.2161C84.8285 32.6585 84.8667 32.0185 84.6716 31.4327C84.5576 31.2554 84.3986 31.1126 84.2115 31.0194C84.0244 30.9262 83.816 30.886 83.6083 30.903C83.0695 30.9134 82.5524 31.1207 82.1515 31.4868C81.6937 31.9101 81.3542 32.449 81.1674 33.0488C80.9807 33.6486 80.9533 34.2879 81.0882 34.9019C81.2202 35.1203 81.4097 35.2967 81.6352 35.4113C81.8607 35.5258 82.1133 35.5739 82.3644 35.5501C82.7268 35.5552 83.0872 35.493 83.4277 35.3665C83.6274 35.292 83.8226 35.2054 84.0122 35.1072L83.9271 34.5885C83.7533 34.6745 83.5718 34.7432 83.385 34.7938C83.1649 34.8647 82.9354 34.9011 82.7046 34.9019C82.5437 34.9197 82.3809 34.8952 82.232 34.8309C82.083 34.7666 81.9528 34.6645 81.8537 34.5344ZM83.8421 32.6429V32.8269H82.0133V32.7294C82.114 32.3699 82.3087 32.0449 82.5768 31.7891C82.7876 31.5906 83.0657 31.4823 83.3531 31.4868C83.4516 31.4788 83.5502 31.5001 83.637 31.548C83.7238 31.5959 83.795 31.6685 83.8421 31.7568C83.9473 32.0425 83.9473 32.3572 83.8421 32.6429ZM91.4873 35.3555C91.7093 35.2389 91.9107 35.0855 92.083 34.9015L91.8915 35.4751H92.5719L93.4438 32.5896C93.5173 32.3902 93.5708 32.1838 93.6034 31.9735C93.6467 31.756 93.6127 31.53 93.5075 31.3356C93.3717 31.1908 93.2057 31.0788 93.0217 31.0078C92.8376 30.9367 92.6403 30.9085 92.4442 30.9251C91.9811 30.9115 91.5216 31.0117 91.1047 31.2172C90.9346 31.3101 90.7901 31.4447 90.6842 31.6089C90.5784 31.773 90.5145 31.9614 90.4985 32.157H91.1789C91.2039 32.0441 91.2518 31.9377 91.3195 31.8446C91.3873 31.7516 91.4734 31.6739 91.5723 31.6166C91.7766 31.512 92.0031 31.4601 92.2318 31.4655C92.4248 31.4441 92.6186 31.4982 92.7739 31.6166C92.9184 31.7883 92.9475 32.0311 92.8485 32.2328L92.6784 32.8162H92.0298C91.4734 32.7841 90.9197 32.9155 90.4348 33.1947C90.2126 33.336 90.024 33.5256 89.8824 33.7498C89.7409 33.974 89.65 34.2272 89.6162 34.4914C89.5866 34.64 89.5955 34.7938 89.6421 34.9378C89.6887 35.0818 89.7713 35.2111 89.8818 35.3128C90.1193 35.4854 90.4097 35.5659 90.7005 35.5398C90.9744 35.554 91.2468 35.4905 91.4873 35.3562V35.3555ZM91.7956 33.3779H92.4764L92.189 34.3292C92.0465 34.4863 91.8818 34.6213 91.7001 34.729C91.4985 34.8649 91.2616 34.9364 91.0197 34.9343C90.9256 34.9438 90.8306 34.9311 90.7421 34.8974C90.6535 34.8637 90.5738 34.8097 90.509 34.7397C90.464 34.685 90.4319 34.6204 90.4153 34.5511C90.3988 34.4817 90.3981 34.4095 90.4135 34.3398C90.4341 34.1927 90.4845 34.0514 90.5613 33.925C90.6382 33.7985 90.7399 33.6895 90.8601 33.6049C91.1412 33.4325 91.4682 33.3531 91.7956 33.3779ZM95.4004 30.9898H97.3355C97.6633 30.9424 97.9923 31.0688 98.2074 31.3245C98.329 31.5045 98.3748 31.726 98.3352 31.9403C98.2942 32.2492 98.1517 32.5349 97.9309 32.7511C97.7728 32.9157 97.5748 33.0353 97.3569 33.0968C97.5204 33.1387 97.6614 33.2429 97.7503 33.3889C97.8385 33.55 97.8719 33.7363 97.8458 33.9183C97.818 34.1471 97.743 34.3673 97.6257 34.5647C97.5085 34.7621 97.3517 34.9321 97.1654 35.0638C96.8147 35.3247 96.3878 35.458 95.9534 35.4423H94.0714L95.4004 30.9898ZM94.9856 34.8696H96.0489C96.2755 34.8789 96.499 34.8145 96.687 34.6856C96.7968 34.6025 96.8885 34.4972 96.9562 34.3763C97.0239 34.2553 97.0662 34.1214 97.0804 33.983C97.0945 33.9125 97.0901 33.8395 97.0677 33.7712C97.0452 33.703 97.0056 33.6419 96.9526 33.5942C96.8277 33.4976 96.6737 33.448 96.5169 33.4537H95.4536L94.9856 34.8696ZM96.5487 32.8809H95.5918L95.9957 31.5839H96.9953C97.1414 31.5752 97.2862 31.6131 97.4101 31.692C97.52 31.7828 97.5693 31.9296 97.5375 32.0702C97.5225 32.1969 97.4817 32.3191 97.4176 32.429C97.3536 32.5388 97.2677 32.6338 97.1654 32.708C96.9841 32.8328 96.7674 32.8935 96.5487 32.8809Z" fill="white"/>
<path d="M102.334 35.453H101.589L102.642 31.9625L99.6116 35.453H98.7188L100.058 30.9895H100.813L99.7712 34.4804L102.791 30.9895H103.684L102.334 35.453Z" fill="white"/>
<path fill-rule="evenodd" clip-rule="evenodd" d="M105.843 35.3554C106.068 35.2391 106.273 35.0857 106.449 34.9015L106.247 35.4746H106.927L107.799 32.5892C107.872 32.3895 107.925 32.1831 107.959 31.973C107.999 31.7556 107.965 31.5305 107.863 31.3352C107.727 31.191 107.561 31.0794 107.377 31.0084C107.193 30.9374 106.996 30.9088 106.8 30.9246C106.34 30.9119 105.884 31.0121 105.471 31.2167C105.301 31.3104 105.157 31.4452 105.051 31.6092C104.946 31.7732 104.881 31.9612 104.865 32.1566H105.545C105.569 32.0434 105.617 31.9368 105.685 31.8437C105.753 31.7505 105.839 31.673 105.938 31.6162C106.143 31.5116 106.369 31.4597 106.598 31.465C106.791 31.4437 106.985 31.4978 107.14 31.6162C107.287 31.7867 107.317 32.0307 107.214 32.2324L107.044 32.8158H106.396C105.839 32.7825 105.285 32.914 104.801 33.1943C104.579 33.3356 104.39 33.5252 104.248 33.7494C104.107 33.9735 104.016 34.2268 103.982 34.491C103.952 34.6396 103.961 34.7934 104.008 34.9374C104.055 35.0814 104.137 35.2106 104.248 35.3124C104.485 35.4859 104.776 35.5665 105.066 35.5394C105.337 35.5527 105.606 35.4888 105.843 35.3554ZM106.162 33.3779H106.842L106.555 34.3291C106.414 34.488 106.249 34.623 106.066 34.729C105.865 34.8649 105.628 34.9364 105.386 34.9343C105.292 34.9437 105.197 34.9311 105.108 34.8974C105.02 34.8636 104.94 34.8097 104.875 34.7397C104.83 34.6849 104.798 34.6204 104.781 34.551C104.765 34.4817 104.764 34.4094 104.779 34.3398C104.8 34.1927 104.85 34.0514 104.927 33.925C105.004 33.7985 105.106 33.6895 105.226 33.6048C105.507 33.4318 105.834 33.3524 106.162 33.3779Z" fill="white"/>
<path d="M111.33 35.453H110.575L111.734 31.6273H110.533L110.373 32.1246C110.188 32.7168 109.979 33.3008 109.746 33.8752C109.568 34.4134 109.235 34.8843 108.789 35.226C108.499 35.4121 108.172 35.5302 107.832 35.5718V34.9236C108.08 34.8704 108.315 34.7675 108.523 34.6209C108.802 34.3794 109.012 34.0657 109.129 33.713C109.31 33.2697 109.661 32.2865 109.831 31.7137L110.054 30.9788H112.67L111.33 35.453ZM116.477 35.453H115.722L116.785 31.9624L113.744 35.453H112.862L114.201 30.9894H114.956L113.904 34.4804L116.934 30.9894H117.827L116.477 35.453ZM121.379 35.453H120.634L121.24 33.443H119.369L118.752 35.453H117.997L119.348 30.9894H120.103L119.55 32.7945H121.432L121.974 30.9894H122.729L121.379 35.453ZM126.525 35.453H125.77L126.833 31.9624L123.792 35.453H122.91L124.249 30.9894H125.004L123.952 34.4804L126.982 30.9894H127.876L126.525 35.453ZM131.671 35.453H130.916L131.969 31.9624L128.939 35.453H128.046L129.396 30.9894H130.14L129.098 34.4804L132.128 30.9894H133.022L131.671 35.453Z" fill="white"/>
<path d="M154.272 17.6479C143.765 17.7395 139.017 20.445 130.163 27.2374L128.348 29.2094C137.471 22.2346 142.711 21.6437 150.219 21.7077C150.916 21.7535 151.582 21.7929 152.005 20.8496L154.272 17.6479Z" fill="white"/>
<path d="M156.205 9.55005C141.3 12.0944 134.719 22.6967 130.156 27.2286C139.062 18.592 146.491 14.6992 153.02 13.9382C153.599 13.1349 155.597 10.4512 156.205 9.55044L156.205 9.55005Z" fill="white"/>
<path d="M153.014 13.9385C143.083 15.3658 136.589 21.1844 130.605 26.7295C130.437 26.9056 129.832 27.6054 129.656 27.772C134.873 23.7126 139.254 19.5072 150.136 17.9465C150.678 17.3011 152.264 15.11 153.014 13.9385Z" fill="white"/>
<path d="M153.221 17.2856C151.49 17.2856 149.735 18.1501 149.567 18.6435C149.281 19.4618 149.73 19.1148 151.033 19.9303C152.135 20.6151 151.904 20.8618 151.803 21.212C152.807 19.7081 154.617 17.5079 154.617 17.5079C154.177 17.3527 153.699 17.2856 153.221 17.2856Z" fill="white"/>
<path d="M171.763 4.38525C168.72 8.60328 161.789 8.235 159.632 8.53617C157.605 8.82235 156.314 9.35799 155.503 10.4415L152.648 14.4401C153.271 13.8559 155.15 13.5701 157.179 13.5152H157.727C157.999 13.5061 158.303 13.4907 158.621 13.4785C161.508 13.3601 165.515 12.937 167.837 10.0823L171.34 4.99076L171.763 4.38525Z" fill="white"/>
<path d="M174.562 0C171.348 3.33226 167.839 3.46962 164.863 3.89553C163.971 4.01711 161.962 3.98671 160.285 5.1097C158.615 6.22677 156.611 8.89274 155.621 10.2924C156.542 9.26062 157.764 8.96852 159.541 8.75261C161.339 8.5367 163.93 8.57301 165.775 8.30539C167.532 8.06184 170.539 6.06059 171.539 4.65143L174.562 0Z" fill="white"/>
<path d="M167.951 9.92432C166.605 11.7381 164.205 12.5571 161.321 12.983C159.129 13.2996 156.64 13.3935 155.924 13.4393C154.694 13.4942 153.067 13.9051 152.618 14.4743C151.237 16.2727 149.925 17.9467 149.566 18.6438C150.409 17.8188 153.168 17.91 156.527 17.7489C159.862 17.5843 163.252 16.0658 165.93 12.8642L167.951 9.92432Z" fill="white"/>
</svg>
