<svg width="74" height="54" viewBox="0 0 74 54" fill="none" xmlns="http://www.w3.org/2000/svg">
<path d="M13.9678 0C17.5858 0 21.2037 0 24.9312 0C24.9312 4.14309 24.9312 8.28617 24.9312 12.5548C28.5491 12.5548 32.167 12.5548 35.8946 12.5548C35.8946 16.1727 35.8946 19.7906 35.8946 23.5182C32.2766 23.5182 28.6587 23.5182 24.9312 23.5182C24.9312 29.6453 24.9312 35.7724 24.9312 42.0851C29.9496 42.0851 34.968 42.0851 40.1384 42.0851C40.1384 45.7614 40.1384 49.4376 40.1384 53.2253C37.4797 53.2472 37.4797 53.2472 34.7673 53.2695C34.2147 53.276 33.662 53.2824 33.0927 53.289C28.2471 53.3219 23.9788 52.5634 20.1568 49.3351C20.0171 49.2211 19.8774 49.1071 19.7334 48.9897C16.7218 46.4287 14.506 42.6741 13.9678 38.7254C13.8729 37.4565 13.9006 36.181 13.9076 34.9096C13.9078 34.5277 13.9077 34.1458 13.9074 33.764C13.9072 32.7335 13.9103 31.703 13.9141 30.6725C13.9174 29.5933 13.9177 28.5141 13.9183 27.4349C13.92 25.394 13.9243 23.3531 13.9296 21.3122C13.9356 18.9876 13.9385 16.6629 13.9412 14.3383C13.9467 9.55884 13.9564 4.77943 13.9678 0Z" fill="#B7B7B7"/>
<path d="M66.1118 9.36094C70.0909 12.4154 72.8306 16.4266 73.5165 21.4847C73.5363 21.7496 73.5503 22.015 73.5607 22.2805C73.5698 22.4719 73.5789 22.6634 73.5883 22.8607C73.6324 24.6095 73.4116 26.2367 73.0302 27.939C72.9871 28.1334 72.944 28.3278 72.8997 28.5282C71.7755 32.7638 68.6191 36.4239 64.8933 38.606C64.7192 38.7038 64.545 38.8016 64.3656 38.9023C64.2425 38.9728 64.1194 39.0432 63.9926 39.1158C61.8517 40.264 59.4858 40.9095 57.0617 40.8876C56.9079 40.8876 56.7542 40.8877 56.5958 40.8877C56.0944 40.8875 55.5931 40.8848 55.0918 40.882C54.7415 40.8813 54.3912 40.8808 54.0409 40.8805C53.124 40.8791 52.2071 40.8756 51.2903 40.8717C50.1874 40.8674 49.0846 40.8658 47.9817 40.8638C46.3109 40.8604 44.6402 40.8536 42.9694 40.8474C42.9694 37.1712 42.9694 33.4949 42.9694 29.7072C44.0104 29.7006 45.0514 29.694 46.124 29.6872C46.7856 29.6819 47.4472 29.6763 48.1088 29.6703C49.1577 29.6607 50.2066 29.6517 51.2555 29.646C52.1017 29.6414 52.9478 29.6342 53.7939 29.6253C54.1159 29.6224 54.4378 29.6204 54.7598 29.6193C55.2127 29.6175 55.6654 29.6126 56.1182 29.6069C56.3155 29.6073 56.3155 29.6073 56.5167 29.6076C58.2209 29.5776 59.6277 28.9725 60.8291 27.7621C62.1053 26.0387 62.4506 24.409 62.2437 22.2805C61.8102 20.662 61.0218 19.3801 59.6355 18.4344C58.189 17.6044 56.6512 17.2876 54.9937 17.5061C53.3605 17.9487 51.9504 18.7938 51.0047 20.2207C50.4291 21.2967 50.1931 22.3177 49.8657 23.5183C46.2478 23.5183 42.6299 23.5183 38.9023 23.5183C38.9023 21.0207 38.9023 21.0207 39.1786 19.8491C39.2097 19.7149 39.2408 19.5807 39.2728 19.4425C40.3618 15.0396 43.2244 11.257 47.0364 8.84151C52.9846 5.27804 60.3958 5.34214 66.1118 9.36094Z" fill="#B7B7B7"/>
<path d="M42.9688 42.085C52.7721 42.085 62.5755 42.085 72.6759 42.085C72.6759 45.7612 72.6759 49.4375 72.6759 53.2251C62.8725 53.2251 53.0692 53.2251 42.9688 53.2251C42.9688 49.5489 42.9688 45.8726 42.9688 42.085Z" fill="#B7B7B7"/>
<path d="M0 12.5549C3.61791 12.5549 7.23581 12.5549 10.9634 12.5549C10.9634 16.1728 10.9634 19.7907 10.9634 23.5183C7.34545 23.5183 3.72754 23.5183 0 23.5183C0 19.9004 0 16.2825 0 12.5549Z" fill="#B7B7B7"/>
</svg>
