<svg width="111" height="76" viewBox="0 0 111 76" fill="none" xmlns="http://www.w3.org/2000/svg">
<path fill-rule="evenodd" clip-rule="evenodd" d="M31.6002 9.63943L79.9465 9.62439C80.2186 9.85656 80.4879 10.0904 80.7521 10.3323L30.7969 10.3457C31.0611 10.1085 31.3287 9.87135 31.6008 9.63895" fill="#B7B7B7"/>
<path fill-rule="evenodd" clip-rule="evenodd" d="M55.7841 0.0449905C68.9716 0.0349674 80.2761 9.37697 85.2698 22.7135H84.5142C79.561 9.74047 68.5199 0.742201 55.7793 0.754118C43.0387 0.760799 32.0203 9.76431 27.0862 22.7373H26.3359C31.3106 9.40676 42.5984 0.0509491 55.7799 0.0449905" fill="#B7B7B7"/>
<path fill-rule="evenodd" clip-rule="evenodd" d="M55.7822 0.0450974C64.3097 0.0384159 71.4964 9.44262 74.6786 22.7136H73.9575C70.798 9.68695 63.7615 0.742308 55.7822 0.754225C47.8089 0.757622 40.7891 9.71078 37.6486 22.7314H36.9258C40.0883 9.45454 47.2589 0.0510559 55.7804 0.0450974" fill="#B7B7B7"/>
<path fill-rule="evenodd" clip-rule="evenodd" d="M55.3054 22.6897L55.2891 0.0033493L55.997 -5.53131e-05L56.0154 22.6863L55.3056 22.6896" fill="#B7B7B7"/>
<path fill-rule="evenodd" clip-rule="evenodd" d="M55.7849 0.0451527C71.3143 0.0301247 84.6806 9.35329 90.5802 22.7136H89.8037V22.7103C83.9483 9.75518 70.9133 0.739033 55.7831 0.75095C40.641 0.7593 27.5965 9.82073 21.8102 22.7341H21.0391C26.9207 9.38571 40.2691 0.0537395 55.7807 0.0418224" fill="#B7B7B7"/>
<path fill-rule="evenodd" clip-rule="evenodd" d="M21.007 22.6898L90.5499 22.6597C90.6562 22.8935 90.7619 23.1324 90.8664 23.3676L20.668 23.3977C20.7703 23.1572 20.8799 22.9234 20.9856 22.6898" fill="#B7B7B7"/>
<path fill-rule="evenodd" clip-rule="evenodd" d="M30.8164 65.6549L80.7776 65.6354C80.5101 65.8788 80.2407 66.1149 79.9684 66.3475L31.6221 66.363C31.3493 66.1302 31.0806 65.8954 30.8164 65.6551" fill="#B7B7B7"/>
<path fill-rule="evenodd" clip-rule="evenodd" d="M26.2791 53.2005H27.033C31.9588 66.2391 43.0272 75.3029 55.8155 75.291C68.5978 75.2831 79.646 66.2152 84.5563 53.1767H85.3083C80.3569 66.5728 69.04 75.9882 55.8167 75.9941C42.5874 76.0027 31.2472 66.5966 26.2773 53.2005" fill="#B7B7B7"/>
<path fill-rule="evenodd" clip-rule="evenodd" d="M36.8945 53.2004H37.612C40.7566 66.2926 47.814 75.2968 55.8171 75.2909C63.8142 75.283 70.8579 66.2747 73.9805 53.1825H74.7033C71.5569 66.525 64.3702 75.9881 55.8189 76C47.2676 76.0067 40.057 66.5429 36.8987 53.2004" fill="#B7B7B7"/>
<path fill-rule="evenodd" clip-rule="evenodd" d="M55.3679 75.9941L55.3516 53.1886L56.0595 53.1853L56.0759 75.9909L55.3679 75.994" fill="#B7B7B7"/>
<path fill-rule="evenodd" clip-rule="evenodd" d="M20.9648 53.2004H21.7377C21.7409 53.2036 21.7409 53.2036 21.7409 53.2049H21.7423C27.5685 66.2256 40.6386 75.3013 55.8165 75.2894C70.9824 75.2764 84.0329 66.1958 89.843 53.1811H90.6159C84.7605 66.595 71.3799 75.9866 55.8206 75.9985C40.2376 76.0135 26.8355 66.6248 20.9658 53.2049" fill="#B7B7B7"/>
<path fill-rule="evenodd" clip-rule="evenodd" d="M20.6367 52.4854L90.9543 52.4553C90.8532 52.6921 90.7489 52.9303 90.6399 53.1632L20.9779 53.1926C20.8701 52.9565 20.7671 52.7235 20.6614 52.4853" fill="#B7B7B7"/>
<path fill-rule="evenodd" clip-rule="evenodd" d="M80.2174 47.5989H77.3141L76.7875 32.3495L74.4289 47.5989H71.6758L74.7745 29.3521H79.1294L79.5841 42.1344L84.6487 29.3521H89.0442L85.9436 47.5989H83.153L86.0807 32.4627L80.2169 47.5989" fill="#B7B7B7"/>
<path fill-rule="evenodd" clip-rule="evenodd" d="M95.1147 41.4013C94.9322 41.458 94.6985 41.5115 94.4133 41.5633C93.054 41.762 92.1572 42.0276 91.727 42.3648C91.295 42.7038 91.0768 43.1532 91.0768 43.7175C91.0768 44.1568 91.2021 44.5142 91.4532 44.7866C91.7063 45.0638 92.0241 45.1958 92.4121 45.1958C92.8153 45.1958 93.1981 45.0839 93.5717 44.8517C93.9417 44.6295 94.2385 44.3072 94.462 43.8965C94.6818 43.4889 94.873 42.8107 95.0277 41.8757L95.1147 41.4013ZM92.3485 38.091L89.5108 37.792C89.8466 36.571 90.4285 35.6426 91.2657 35.0031C92.0922 34.3649 93.1482 34.0443 94.4235 34.0443C95.7231 34.0443 96.7213 34.3716 97.4245 35.0246C98.1205 35.6694 98.4697 36.5394 98.4697 37.6168C98.4697 38.0009 98.4456 38.407 98.3902 38.8378C98.3359 39.2704 98.1357 40.448 97.7913 42.3716C97.5029 43.9567 97.3625 45.0639 97.3625 45.6968C97.3625 46.2679 97.4408 46.891 97.5955 47.5608H94.7834C94.6627 47.0814 94.5962 46.5823 94.5702 46.0692C94.1441 46.6504 93.6537 47.0966 93.0935 47.4023C92.5388 47.7079 91.9893 47.8599 91.4363 47.8599C90.5638 47.8599 89.8333 47.5125 89.2379 46.8158C88.6442 46.1174 88.3477 45.189 88.3477 44.027C88.3477 42.6927 88.6869 41.6636 89.3619 40.9407C90.0293 40.2209 91.1478 39.7817 92.7187 39.6327C94.1018 39.4908 95.0284 39.3221 95.4962 39.1233C95.6203 38.6189 95.6802 38.2164 95.6802 37.916C95.6802 37.5202 95.5485 37.1961 95.2791 36.9506C95.0148 36.7068 94.6462 36.5849 94.1862 36.5849C93.185 36.5849 92.5712 37.0859 92.3484 38.0913" fill="#B7B7B7"/>
<path fill-rule="evenodd" clip-rule="evenodd" d="M103.039 41.9375C103.039 42.9744 103.243 43.7765 103.654 44.3408C104.068 44.907 104.544 45.1876 105.089 45.1876C105.524 45.1876 105.948 45.0056 106.371 44.6448C106.79 44.2841 107.171 43.6193 107.514 42.6473C107.853 41.6772 108.023 40.6784 108.023 39.6463C108.023 38.6595 107.827 37.9027 107.442 37.3801C107.046 36.859 106.564 36.5982 105.988 36.5982C105.536 36.5982 105.097 36.7769 104.675 37.1327C104.251 37.4918 103.873 38.1315 103.54 39.0617C103.204 39.9901 103.039 40.9507 103.039 41.9375ZM101.285 34.3516H104.038L103.804 35.7109C104.418 35.0881 104.985 34.6573 105.495 34.4183C106.006 34.1778 106.541 34.0559 107.101 34.0559C108.217 34.0559 109.124 34.5319 109.813 35.4706C110.507 36.4193 110.851 37.8441 110.851 39.7427C110.851 42.168 110.243 44.1989 109.026 45.8448C108.023 47.1957 106.839 47.8709 105.484 47.8709C104.068 47.8709 102.994 47.1659 102.259 45.7548L101.088 52.6138H98.1836L101.286 34.3491" fill="#B7B7B7"/>
<path fill-rule="evenodd" clip-rule="evenodd" d="M32.0658 40.5075L31.2143 33.1599L27.9439 40.5075H32.0658ZM32.4508 43.5407H26.5626L24.7814 47.5708H21.6445L30.0409 29.324H33.4251L35.8326 47.5708H32.9442L32.4517 43.5407" fill="#B7B7B7"/>
<path fill-rule="evenodd" clip-rule="evenodd" d="M40.5505 42.1166L40.7593 39.9469H43.8699V39.4609C43.8699 37.6958 43.3089 36.812 42.19 36.812C41.4148 36.812 40.7462 37.3482 40.1771 38.4156L37.3143 37.8361C38.2993 35.316 39.9452 34.0598 42.252 34.0598C43.6024 34.0598 44.6756 34.5709 45.4729 35.5895C46.2708 36.6133 46.6689 38.003 46.6689 39.7615C46.6689 42.1166 46.0864 44.0604 44.9205 45.5854C43.7495 47.1186 42.2812 47.8784 40.5233 47.8784C39.375 47.8784 38.4138 47.4926 37.6558 46.7212C36.8936 45.9512 36.424 44.844 36.25 43.4073L39.0031 43.1117C39.112 44.5013 39.6878 45.1991 40.733 45.1991C41.901 45.1991 42.814 44.1718 43.4879 42.1159H40.5501" fill="#B7B7B7"/>
<path fill-rule="evenodd" clip-rule="evenodd" d="M51.6533 41.9375C51.6533 42.9744 51.8602 43.7765 52.2701 44.3408C52.6843 44.907 53.1603 45.1876 53.7032 45.1876C54.139 45.1876 54.5673 45.0056 54.9868 44.6448C55.4057 44.2841 55.7859 43.6193 56.1286 42.6473C56.4692 41.6772 56.6388 40.6784 56.6388 39.6463C56.6388 38.6595 56.4451 37.9027 56.0536 37.3801C55.6634 36.859 55.1794 36.5982 54.6019 36.5982C54.1498 36.5982 53.7128 36.7769 53.2909 37.1327C52.8648 37.4918 52.4852 38.1315 52.1557 39.0617C51.823 39.9901 51.6533 40.9507 51.6533 41.9375ZM49.8995 34.3516H52.6526L52.4196 35.7109C53.034 35.0881 53.6007 34.6573 54.1126 34.4183C54.6195 34.1778 55.1543 34.0559 55.7156 34.0559C56.8347 34.0559 57.737 34.5319 58.4294 35.4706C59.1177 36.4193 59.4669 37.8441 59.4669 39.7427C59.4669 42.168 58.8537 44.1989 57.6404 45.8448C56.6345 47.1957 55.4546 47.8709 54.1001 47.8709C52.6842 47.8709 51.611 47.1659 50.875 45.7548L49.7041 52.6138H46.8008L49.8995 34.3491" fill="#B7B7B7"/>
<path fill-rule="evenodd" clip-rule="evenodd" d="M68.4172 39.554C68.4172 38.6857 68.2149 37.9975 67.804 37.5017C67.3995 37.004 66.8809 36.7532 66.2576 36.7532C65.7325 36.7532 65.2386 36.9369 64.7732 37.301C64.3132 37.6668 63.9109 38.3016 63.5682 39.2085C63.2225 40.1119 63.0497 41.0475 63.0497 42.023C63.0497 43.0069 63.2598 43.775 63.6837 44.3262C64.1065 44.8707 64.6294 45.1462 65.2557 45.1462C66.0453 45.1462 66.7169 44.7236 67.2669 43.8751C68.0315 42.7143 68.4153 41.2716 68.4165 39.5542L68.4172 39.554ZM60.134 42.1093C60.134 39.9378 60.6187 38.0994 61.591 36.5774C62.6654 34.9106 64.2279 34.077 66.2683 34.077C67.7986 34.077 69.0149 34.5997 69.9248 35.6454C70.836 36.6906 71.2913 38.1441 71.2913 40.0146C71.2913 42.2058 70.7237 44.068 69.5917 45.6013C68.4613 47.131 66.9798 47.8926 65.1564 47.8926C63.6654 47.8926 62.4575 47.3748 61.529 46.3343C60.5982 45.3021 60.1328 43.891 60.1328 42.1087" fill="#B7B7B7"/>
<path fill-rule="evenodd" clip-rule="evenodd" d="M0.000596039 47.9563L4.65407 38.1118C9.3433 37.7194 13.6762 37.0195 16.5365 35.047C14.2858 39.4544 11.777 43.8785 18.4077 47.9604H0" fill="#B7B7B7"/>
<path fill-rule="evenodd" clip-rule="evenodd" d="M5.60684 36.0976L9.45941 27.9396H24.3453L24.2527 28.0181L23.5645 28.5609L22.8613 29.0786L22.263 29.5179L19.4491 28.9035L21.5759 30.1794C15.6323 35.6105 10.331 37.4376 5.60547 36.0967L5.60684 36.0976ZM21.8871 30.5396L22.8168 32.9745L22.5937 29.8948L23.096 29.3671L23.7158 28.7342L24.3433 28.1282L24.5475 27.9411H28.0575L21.5382 41.7067C13.988 41.8436 13.7913 38.2694 21.8852 30.5393" fill="#B7B7B7"/>
</svg>
