<svg width="125" height="56" viewBox="0 0 125 56" fill="none" xmlns="http://www.w3.org/2000/svg">
<g clip-path="url(#clip0_3148_4657)">
<path d="M62.4981 6.66411L49.9552 0L37.5195 6.66411H62.4981Z" fill="white"/>
<path d="M37.5195 6.66406V20.0998L49.9552 26.7639L37.5195 6.66406Z" fill="white"/>
<path d="M49.957 26.7639L62.4999 20.0998V6.66406L49.957 26.7639Z" fill="white"/>
<path d="M87.4786 20.0999L75.0429 26.764L62.5 20.0999H87.4786Z" fill="white"/>
<path d="M62.5 20.0998V6.66411L75.0429 0L62.5 20.0998Z" fill="white"/>
<path d="M75.043 0L87.4786 6.66411V20.0998L75.043 0Z" fill="white"/>
<path d="M71.7213 34.3954C65.1818 34.3954 60.4648 38.5873 60.4648 45.1439C60.4648 51.8081 65.0746 55.8925 71.7213 55.8925C78.3679 55.8925 82.9777 51.8081 82.9777 45.1439C82.9777 38.4798 78.3679 34.3954 71.7213 34.3954ZM71.7213 51.3781C68.2907 51.3781 65.825 48.7985 65.825 45.1439C65.825 41.4894 68.2907 38.9098 71.7213 38.9098C75.3662 38.9098 77.6175 41.3819 77.6175 45.1439C77.7247 48.7985 75.259 51.3781 71.7213 51.3781Z" fill="white"/>
<path d="M9.00515 35.4702L0 55.8925H6.11063L14.5798 51.0556H7.61149L11.7925 40.522L17.7959 55.8925H23.5849L14.5798 35.4702H9.00515Z" fill="white"/>
<path d="M115.994 35.4702H110.419L101.414 55.8925H107.203L113.207 40.522L117.387 51.0556H110.419L118.888 55.8925H124.999L115.994 35.4702Z" fill="white"/>
<path d="M30.3372 51.0556V35.4702H25.1914V55.8925H27.0139H30.3372H36.9839L39.9856 51.0556H30.3372Z" fill="white"/>
<path d="M87.6936 55.2476C86.0855 54.8176 84.9062 54.2802 83.9414 53.7428L85.8711 49.6583C86.7287 50.1957 87.8007 50.7332 89.0872 51.0556C90.3736 51.3781 91.5529 51.5931 92.7321 51.5931C95.1978 51.5931 96.3771 50.9481 96.3771 49.7658C96.3771 49.2284 96.0555 48.7984 95.4122 48.5835C94.769 48.3685 93.697 48.1535 92.4105 47.9385C90.8025 47.7236 89.4088 47.4011 88.444 47.0787C87.3719 46.7562 86.5143 46.2188 85.6567 45.3589C84.9062 44.499 84.4774 43.4241 84.4774 41.9194C84.4774 40.6295 84.799 39.5547 85.5495 38.5873C86.2999 37.6199 87.3719 36.8675 88.7656 36.3301C90.1592 35.7927 91.7673 35.4702 93.697 35.4702C95.0906 35.4702 96.4843 35.5777 97.8779 35.9002C99.2716 36.2226 100.451 36.6526 101.308 37.19L99.3788 41.2744C97.5563 40.3071 95.6267 39.7696 93.5898 39.7696C92.4105 39.7696 91.4457 39.9846 90.8025 40.3071C90.1592 40.6295 89.8376 41.0595 89.8376 41.5969C89.8376 42.2418 90.1592 42.6718 90.8025 42.8867C91.4457 43.1017 92.5177 43.3167 93.9114 43.6391C95.5194 43.9616 96.8059 44.1766 97.8779 44.499C98.95 44.8215 99.8076 45.3589 100.558 46.2188C101.308 47.0787 101.737 48.1535 101.737 49.6583C101.737 50.8407 101.416 52.023 100.665 52.9904C99.9148 53.9577 98.8428 54.7101 97.4491 55.2476C96.0555 55.785 94.3402 56 92.4105 56C90.8025 55.8925 89.1944 55.6775 87.6936 55.2476Z" fill="white"/>
<path d="M55.4244 48.3685C57.1396 47.1862 58.3189 45.4664 58.3189 42.6718C58.3189 37.62 54.674 35.3628 50.3858 35.3628L41.2734 35.4703V55.8925H46.4192V39.9847L50.0642 39.8772C51.8866 39.8772 53.3875 40.8446 53.3875 42.9943C53.3875 45.144 51.565 46.0039 49.7426 46.0039H48.3489L49.7426 48.3685L54.0307 55.8925H59.8197L55.4244 48.3685Z" fill="white"/>
</g>
<defs>
<clipPath id="clip0_3148_4657">
<rect width="125" height="56" fill="white"/>
</clipPath>
</defs>
</svg>
