<svg width="74" height="27" viewBox="0 0 74 27" fill="none" xmlns="http://www.w3.org/2000/svg">
<mask id="mask0_3383_14927" style="mask-type:luminance" maskUnits="userSpaceOnUse" x="0" y="0" width="74" height="27">
<path d="M73.9968 0.0106201H0.226562V26.3571H73.9968V0.0106201Z" fill="white"/>
</mask>
<g mask="url(#mask0_3383_14927)">
<path fill-rule="evenodd" clip-rule="evenodd" d="M5.24848 0.0106201L3.99222 3.45733H21.4012L22.6575 0.0106201H5.24848ZM3.36369 5.17988L2.10743 8.62581H19.5164L20.7727 5.17988H3.36369ZM1.48282 10.3492L0.226562 13.7951H17.6356L18.891 10.3492H1.48282Z" fill="#00AAFF"/>
<path fill-rule="evenodd" clip-rule="evenodd" d="M37.2352 15.1085V15.1812C38.0306 15.4737 38.7906 15.9851 39.1889 16.3136C40.419 17.3365 40.9622 18.6879 40.9622 20.4412C40.9622 23.3278 39.4422 25.4096 36.9453 26.0673C36.1854 26.2863 35.3899 26.3598 33.9055 26.3598H26.3438V5.24609H33.0379C34.413 5.24609 35.3534 5.31882 36.1854 5.53776C38.6102 6.19548 40.2022 7.87612 40.2022 10.5421C40.2022 11.967 39.6955 13.1729 38.8636 13.9761C38.5018 14.3413 37.9952 14.78 37.2352 15.1085ZM30.541 17.3365V22.889H33.4361C34.3036 22.889 35.1001 22.8163 35.6797 22.2681C36.2583 21.7199 36.5116 21.0262 36.5116 20.1128C36.5116 19.4191 36.3303 18.7614 35.9685 18.2867C35.3534 17.5195 34.5934 17.3365 33.2912 17.3365H30.541ZM30.5046 13.6836H32.8566C33.5801 13.6836 33.9419 13.6836 34.3036 13.5741C35.2815 13.2816 35.8966 12.4057 35.8966 11.1998C35.8966 9.7757 35.245 9.15396 34.3036 8.86225C33.9055 8.75278 33.5081 8.71603 32.7117 8.71603H30.5046V13.6836ZM47.258 26.3598V8.78875H41.2155V5.24609H58.0053L56.8116 8.78875H51.4555V26.3598H47.258ZM59.3075 26.3598V5.24609H72.9134L71.7197 8.78875H63.4692V13.4646H66.8345C69.5481 13.4646 70.9597 14.1223 71.9366 14.9622C72.6966 15.6199 73.999 17.0808 73.999 19.9673C73.999 22.8163 72.6601 24.3867 71.5383 25.1906C70.2362 26.1032 68.8611 26.3598 66.0745 26.3598H59.3075ZM63.4692 22.8163H66.6176C67.8113 22.8163 68.5348 22.5238 69.0415 21.8661C69.2948 21.5377 69.6566 20.9527 69.6566 19.8571C69.6566 18.7614 69.2948 17.9942 68.5713 17.446C68.1376 17.1175 67.558 16.9353 66.5811 16.9353H63.4692V22.8163Z" fill="#0A2896"/>
</g>
</svg>
