<svg width="118" height="65" viewBox="0 0 118 65" fill="none" xmlns="http://www.w3.org/2000/svg">
<path d="M18.091 10.7775C28.4754 5.11059 42.7613 1.60958 58.5975 1.60958C74.4336 1.60958 88.7492 5.11059 99.1039 10.7775C109.31 16.3628 115.622 24.025 115.622 32.4437C115.622 40.8625 109.31 48.5247 99.1039 54.11C88.7196 59.7769 74.4336 63.2779 58.5975 63.2779C42.7613 63.2779 28.4457 59.7769 18.091 54.11C7.8847 48.5247 1.57249 40.8625 1.57249 32.4437C1.57249 24.025 7.8847 16.3628 18.091 10.7775ZM58.5975 0C42.5017 0 27.9117 3.58261 17.3271 9.36818C6.60891 15.2353 0 23.3945 0 32.4437C0 41.493 6.63116 49.6521 17.3567 55.5193C27.9339 61.3048 42.5314 64.8875 58.6272 64.8875C74.7229 64.8875 89.313 61.3048 99.8976 55.5193C110.586 49.6521 117.195 41.493 117.195 32.4437C117.195 23.3945 110.564 15.2353 99.8383 9.36818C89.261 3.58261 74.6636 0 58.5678 0" fill="#B7B7B7"/>
<path fill-rule="evenodd" clip-rule="evenodd" d="M16.8803 32.3917L18.3192 28.3566H20.181L17.9558 34.4315C17.7196 35.1663 17.361 35.8559 16.8951 36.4712C16.6992 36.7045 16.4499 36.887 16.1684 37.0032C15.8869 37.1194 15.5815 37.166 15.2781 37.1388C15.0037 37.1165 14.7326 37.0643 14.4696 36.9831V35.5663C14.6217 35.6101 14.7787 35.635 14.9369 35.6405C15.0533 35.6483 15.1701 35.6318 15.2799 35.5923C15.3897 35.5527 15.4901 35.4908 15.5748 35.4106C15.7735 35.1577 15.9198 34.8677 16.005 34.5576L12.9045 28.3937H14.885L16.8803 32.3917ZM23.3334 32.681H24.1642C24.5771 32.7088 24.9866 32.5906 25.3213 32.3472C25.4668 32.2118 25.5803 32.0457 25.6534 31.8609C25.7266 31.6761 25.7575 31.4773 25.7441 31.2791C25.7836 30.2901 25.2545 29.7956 24.1567 29.7956H23.3408L23.3334 32.681ZM23.3334 34.1644V36.9534H21.4494V28.3566H24.09C25.0719 28.298 26.05 28.5219 26.9086 29.0019C27.2581 29.2672 27.5308 29.6206 27.699 30.0259C27.8671 30.4313 27.9245 30.8739 27.8654 31.3087C27.8654 33.1977 26.7009 34.1422 24.3719 34.1422L23.3334 34.1644ZM34.4595 29.803H31.1514V36.9534H29.2748V28.3566H34.4669L34.4595 29.803ZM38.9916 32.4065L40.4305 28.3714H42.2775L40.0522 34.4463C39.8157 35.1809 39.4571 35.8705 38.9916 36.4861C38.7957 36.7193 38.5464 36.9018 38.2649 37.018C37.9833 37.1343 37.6779 37.1808 37.3746 37.1537C37.1002 37.1315 36.829 37.0792 36.5661 36.9979V35.5812C36.7182 35.625 36.8751 35.65 37.0334 35.6553C37.1562 35.6615 37.2789 35.6408 37.3929 35.5947C37.5069 35.5486 37.6095 35.4781 37.6935 35.3883C37.8922 35.1354 38.0385 34.8454 38.1237 34.5353L35.0232 28.3714H37.0037L38.9916 32.4065ZM46.9059 29.7882V36.946H45.0293V29.7733H42.8412V28.3566H49.0866V29.7733L46.9059 29.7882ZM52.2242 33.0073V36.946H50.3476V28.3566H52.2242V31.5609H55.3469V28.3566H57.2235V36.9311H55.3469V32.9925L52.2242 33.0073ZM64.5297 29.7882H61.1028V31.8057H63.9734V33.2892H61.1028V35.5144H64.9599V36.9089H59.2188V28.3566H64.5297V29.7882ZM71.5317 30.1442V34.2757C71.8061 34.3222 72.0872 34.3106 72.3568 34.2416C72.6264 34.1726 72.8785 34.0478 73.0968 33.8752C73.4755 33.4033 73.6516 32.8004 73.5863 32.1988C73.5863 30.75 72.9015 30.0651 71.5317 30.1442ZM69.6848 30.1442C68.3793 30.0255 67.7266 30.7055 67.7266 32.184C67.6639 32.7807 67.8281 33.3791 68.1865 33.8603C68.39 34.0305 68.628 34.1545 68.8842 34.2236C69.1403 34.2928 69.4084 34.3055 69.6699 34.2609L69.6848 30.1442ZM69.6848 36.9237V35.6628H69.4103C68.8658 35.6759 68.3227 35.6033 67.8008 35.4476C67.2165 35.2188 66.7256 34.801 66.4063 34.2609C66.0324 33.6367 65.8445 32.9187 65.8648 32.1914C65.8699 31.6617 65.9678 31.137 66.1541 30.6412C66.3775 30.0729 66.778 29.5917 67.2964 29.269C68.0175 28.8475 68.8537 28.6657 69.6848 28.7497V27.741H71.5317V28.7349C72.3841 28.6492 73.2421 28.8307 73.9869 29.2541C74.5118 29.5732 74.9181 30.0551 75.144 30.6263C75.3303 31.1222 75.4282 31.6469 75.4333 32.1766C75.4509 32.9046 75.2605 33.6225 74.8844 34.246C74.5503 34.7918 74.0361 35.2037 73.4306 35.4106C72.8959 35.5662 72.3406 35.6387 71.7839 35.6257H71.5095V36.8866L69.6848 36.9237ZM80.2694 29.7659V36.9237H78.3928V29.7733H76.2047V28.3566H82.4501V29.7733L80.2694 29.7659ZM89.0294 29.7659H85.6025V31.7834H88.4731V33.2669H85.6025V35.4922H89.4596V36.8866H83.7185V28.3566H89.0071L89.0294 29.7659ZM96.0611 29.7659H92.7158V36.9163H90.8392V28.3566H96.0314L96.0611 29.7659ZM99.7253 33.6823H101.802L100.734 30.9824L99.7253 33.6823ZM99.169 35.1658L98.5088 36.9311H96.6248L99.8588 28.3566H101.617L104.91 36.9311H103.026L102.284 35.1287L99.169 35.1658ZM106.69 30.3148L105.859 29.1354C106.73 28.4792 107.795 28.132 108.886 28.1489C109.476 28.1198 110.066 28.229 110.607 28.4679C111.01 28.6483 111.355 28.9388 111.601 29.306C111.805 29.6263 111.935 29.9891 111.979 30.3667C112.003 30.6595 111.97 30.9542 111.882 31.2346C111.792 31.5227 111.622 31.7796 111.393 31.9763C111.137 32.1931 110.827 32.3343 110.495 32.3843V32.5178C110.963 32.5509 111.402 32.751 111.734 33.0815C111.908 33.2559 112.044 33.4647 112.134 33.6945C112.223 33.9244 112.264 34.1703 112.253 34.4166C112.252 34.8751 112.118 35.3233 111.868 35.7073C111.578 36.1394 111.175 36.4833 110.703 36.7012C110.108 36.9772 109.46 37.1215 108.804 37.124C107.576 37.1354 106.387 36.6915 105.466 35.8779L106.364 34.7282C106.402 34.7331 106.438 34.7485 106.468 34.7727L106.557 34.8468L106.824 35.0174L107.202 35.2474C107.7 35.5113 108.266 35.6198 108.826 35.5589C109.207 35.5251 109.562 35.3506 109.82 35.0694C109.933 34.9502 110.02 34.8088 110.074 34.6542C110.129 34.4997 110.151 34.3354 110.139 34.1719C110.139 33.5241 109.702 33.2002 108.826 33.2002H107.996V31.7612H108.678C108.869 31.7857 109.063 31.7664 109.246 31.7047C109.428 31.643 109.594 31.5406 109.731 31.4052C109.815 31.3023 109.875 31.1832 109.91 31.0555C109.944 30.9277 109.952 30.7942 109.932 30.6634C109.912 30.5249 109.863 30.392 109.789 30.2733C109.715 30.1545 109.617 30.0524 109.501 29.9736C109.209 29.7817 108.864 29.6882 108.515 29.7066C107.861 29.7421 107.229 29.9577 106.69 30.3296M12.0441 29.3654L11.1169 30.4854C10.8598 30.2221 10.5475 30.019 10.2025 29.8908C9.85749 29.7625 9.48838 29.7123 9.12167 29.7437C8.8309 29.7895 8.55149 29.8902 8.29833 30.0404C7.95439 30.2565 7.68111 30.5685 7.51209 30.9379C7.26493 31.4764 7.15291 32.0671 7.18572 32.6587C7.12936 33.4134 7.35097 34.1626 7.80879 34.7652C8.14566 35.1515 8.603 35.4129 9.10683 35.507C9.52334 35.5462 9.94284 35.475 10.3231 35.3005C10.7033 35.126 11.0308 34.8544 11.2727 34.5131L12.3037 35.4254C11.9176 35.9571 11.4129 36.3914 10.8297 36.694C10.2464 36.9966 9.60065 37.159 8.94365 37.1685C8.22383 37.1793 7.51598 36.9837 6.90386 36.6048C6.29109 36.2137 5.80026 35.6586 5.48714 35.0026C5.13906 34.2923 4.96611 33.5089 4.98276 32.718C4.94975 32.093 5.04896 31.468 5.27391 30.8839C5.49886 30.2998 5.84448 29.7697 6.28822 29.3283C7.07647 28.5909 8.11649 28.1824 9.19584 28.186C9.74372 28.1813 10.2867 28.2899 10.7906 28.505C11.2638 28.7076 11.6885 29.0085 12.0367 29.3876" fill="#B7B7B7"/>
<path fill-rule="evenodd" clip-rule="evenodd" d="M89.2755 40.6028C81.4279 52.263 59.7988 58.0411 45.4535 60.1477C42.8352 59.8213 42.0563 59.7175 39.5938 59.3318C48.3018 56.4464 68.3733 51.2987 72.0152 40.6028H89.2755ZM68.3139 11.2818C75.3679 13.2771 84.0685 16.5853 89.1346 24.24H68.4252C68.1433 23.884 67.8541 23.4983 67.5574 23.1719L67.231 22.7862L66.556 22.0445L66.4744 21.9481L66.3038 21.7552L65.9552 21.3769L65.6882 21.0951L65.3321 20.7242L65.2431 20.5758L65.0651 20.3904L64.7907 20.116L64.6052 19.9379L64.5162 19.8489L64.3308 19.6709L64.2418 19.5819L64.1454 19.4929L63.9599 19.3149L63.6706 19.0479L62.4468 17.9352L62.2836 17.7943L62.0388 17.5718L61.8756 17.4309L61.7124 17.2973L61.5493 17.1564L61.2303 16.882L60.7482 16.4814L60.2735 16.1031V16.029C62.8158 14.2057 65.5166 12.6145 68.3436 11.2744" fill="#B7B7B7"/>
<path fill-rule="evenodd" clip-rule="evenodd" d="M91.4268 40.6029C84.6918 52.3372 64.0566 58.872 51.625 60.7634C53.9837 60.8524 56.0309 61.023 58.7828 61.023C74.0849 61.023 87.77 57.7297 97.7687 52.4485C104.444 48.814 108.591 44.9124 111.075 40.5807L91.4268 40.6029ZM70.8583 10.0729C79.826 13.2772 86.5758 16.5928 91.4639 24.2401L111.038 24.1808C105.327 14.197 91.9757 8.93802 80.9015 6.31226C78.9359 6.85373 71.6965 9.66492 70.8583 10.1025" fill="#B7B7B7"/>
<path fill-rule="evenodd" clip-rule="evenodd" d="M27.8984 40.6028C31.9558 46.4699 38.2828 50.3122 45.8856 52.5893C47.1763 52.975 49.3347 53.3904 50.6179 53.6352C54.1381 52.5794 57.5388 51.16 60.765 49.3998L58.8142 49.4888H56.5074C53.3855 49.0969 50.4753 47.7016 48.2147 45.5131C46.8239 44.1401 45.7548 42.4757 45.0846 40.6399L27.8984 40.6028ZM71.7798 4.70996C51.1965 7.67692 34.2106 14.7828 28.0171 24.2326H48.7858L48.8526 24.1436L49.1641 23.743L49.2383 23.6466L49.4757 23.3499L49.8836 22.8529L49.9652 22.7565C50.1877 22.4969 50.4103 22.2373 50.6402 22.0148L50.7218 21.9183L50.8924 21.7255L51.241 21.3472L51.508 21.0653L51.8641 20.6945L51.9531 20.6055L52.1311 20.42L52.4055 20.1456L52.591 19.9676L52.68 19.8786L52.8654 19.7005L52.9544 19.6115L53.0509 19.5225L53.1844 19.3964C53.9261 18.6547 54.7643 17.9129 55.595 17.2157L55.7953 17.0525L55.9511 16.9264L56.4332 16.5259L56.9079 16.1476C57.4049 15.7545 57.8944 15.4059 58.3914 15.0721C64.2754 10.9007 70.785 7.69091 77.6766 5.56296L77.4467 5.50362C75.889 5.21434 73.382 4.96215 71.7575 4.76188" fill="#B7B7B7"/>
<path fill-rule="evenodd" clip-rule="evenodd" d="M25.7401 24.2847C32.9721 12.0014 54.1414 6.11201 65.6235 4.15382C62.9829 3.94613 61.1731 3.84229 58.4138 3.84229C43.1117 3.84229 29.2782 7.13561 19.287 12.4168C13.4124 15.7398 8.74685 19.7823 6.12109 24.2847H25.7401ZM42.0584 53.2125C35.0935 50.3717 29.6046 47.1377 25.7401 40.6697H6.17302C11.788 50.4533 25.2209 55.9199 36.2432 58.6643C38.3571 58.0932 45.5446 55.7344 47.7253 54.8369C45.8036 54.4661 43.9193 53.9225 42.0955 53.2125" fill="#B7B7B7"/>
</svg>
