<svg width="148" height="31" viewBox="0 0 148 31" fill="none" xmlns="http://www.w3.org/2000/svg">
<path d="M41.85 20.198C41.8325 18.695 41.4979 17.2125 40.8681 15.8476C40.2383 14.4827 39.3274 13.2662 38.1951 12.2775C38.5617 11.2783 38.748 10.2218 38.7453 9.1574C38.7446 8.58148 38.6891 8.00695 38.5795 7.44155C37.7797 3.2085 34.069 0 29.6221 0H18.8372V19.8725C18.8372 23.6979 15.5667 26.8134 11.5459 26.8134C11.4193 26.8125 11.2927 26.8094 11.1662 26.8041C7.3222 26.6181 4.2532 23.5786 4.2532 19.8756V5.86675C4.2532 4.93985 5.01735 4.18655 5.9551 4.18655H10.1773C10.4544 4.189 10.7292 4.1368 10.9861 4.03293C11.243 3.92906 11.4769 3.77556 11.6744 3.58121C11.872 3.38686 12.0292 3.15548 12.1372 2.9003C12.2452 2.64511 12.3019 2.37114 12.3039 2.09405C12.3039 0.9393 11.3507 0.00155 10.1773 0.00155H5.95665C2.67065 0.00155 0 2.6319 0 5.86675V7.74535V19.8756L0.00155 20.0291C0.093 26.0927 5.2328 31 11.5475 31C17.9134 31 23.0935 26.009 23.0935 19.8756V4.185H29.6236C29.667 4.185 29.7089 4.18655 29.7476 4.19275C32.3749 4.2594 34.4906 6.4604 34.4906 9.1574C34.4966 10.1492 34.205 11.1199 33.6536 11.9443C33.015 12.9301 33.1762 14.0151 34.1574 14.5638C35.1991 15.1226 36.0695 15.9539 36.6756 16.9689C37.2817 17.9839 37.6006 19.1445 37.5984 20.3267C37.5984 23.6639 35.1091 26.4182 31.9254 26.7762C31.6931 26.8006 31.4598 26.813 31.2263 26.8134H24.3505C23.1787 26.8134 22.227 27.7527 22.227 28.9075C22.227 30.0653 23.1787 31 24.3505 31H31.2248C37.0791 31 41.8469 26.2105 41.8469 20.3282C41.8516 20.2833 41.85 20.2414 41.85 20.198Z" fill="#B7B7B7"/>
<path d="M68.5922 4.71517C68.958 4.71517 69.082 4.92907 68.958 5.23597L62.6851 22.6425C61.5846 25.7347 59.8703 26.7748 56.7192 26.7748C55.893 26.7748 54.822 26.6818 53.7819 26.347C53.2611 26.1935 53.1387 26.1036 53.2317 25.6743L53.7215 23.1354C53.8114 22.6766 53.9648 22.7386 54.4252 22.799C55.0979 22.8905 55.5877 22.923 56.1085 22.923C57.4864 22.892 58.1266 22.768 58.6164 21.3916L59.1077 20.0152H58.311C57.3299 20.0152 57.0261 19.8013 56.5967 18.7008L51.2105 5.29797C51.0276 4.90117 51.2725 4.71827 51.6383 4.71827H55.1878C55.8899 4.71827 56.0434 4.84227 56.1968 5.32897L58.4614 11.5383L60.1757 16.5882H60.3896L62.0093 11.2949L63.9375 5.35842C64.122 4.83917 64.2444 4.71517 64.8846 4.71517H68.5922ZM71.5868 24.3878V6.88672C71.5868 5.47932 72.0766 4.80662 73.5444 4.80662H85.4779C85.9367 4.80662 86.0281 4.95852 86.0281 5.47932V8.20112C86.0281 8.63047 85.9041 8.78237 85.4779 8.78237H76.2368V12.5768H80.7023C87.9827 12.5768 88.474 17.4097 88.474 19.4898C88.474 23.3756 85.2609 26.2199 81.1301 26.2199H73.4235C71.9231 26.223 71.5868 25.7022 71.5868 24.3878ZM80.7054 16.4642H76.2383V22.1527H80.6744C82.9994 22.1527 83.6427 20.4105 83.6427 19.2464C83.6427 17.6577 82.6026 16.4642 80.7054 16.4642ZM96.5836 25.5813C96.5836 26.1315 96.4596 26.2245 95.8489 26.2245H92.6358C92.146 26.2245 91.9321 26.0711 91.9321 25.5813V6.64337C91.9321 5.51187 92.2979 4.77562 93.7673 4.77562H101.263C105.699 4.77562 108.424 7.59042 108.424 11.4763C108.424 13.5564 107.536 18.4513 100.652 18.4513H96.5836V25.5813ZM100.559 8.87692H96.5805V14.6894H100.589C102.67 14.6894 103.618 13.406 103.618 11.7816C103.621 10.6207 103.039 8.87692 100.559 8.87692ZM111.329 10.6486C111.329 10.2828 111.482 10.1603 111.879 10.1603H115.153C115.642 10.1603 115.734 10.2533 115.734 10.6501V20.0121H115.887C117.478 17.3802 117.755 16.8904 118.274 16.0953C119.038 14.9018 119.989 13.3409 121.332 11.1694C121.914 10.3432 122.19 10.1603 123.23 10.1603H124.729C125.86 10.1603 126.443 10.5261 126.443 11.8731V25.7332C126.443 26.13 126.288 26.223 125.893 26.223H122.588C122.128 26.223 122.007 26.1625 122.007 25.7332V16.5556H121.853C120.936 17.963 120.11 19.3999 119.221 20.7778C118.276 22.2457 117.355 23.7461 116.377 25.2139C115.827 26.0695 115.46 26.223 114.48 26.223H113.042C111.634 26.223 111.329 25.6433 111.329 24.5102V10.6486ZM135.406 25.5813C135.406 26.1315 135.282 26.2245 134.672 26.2245H131.46C130.97 26.2245 130.756 26.0711 130.756 25.5813V6.64337C130.756 5.51187 131.124 4.77562 132.592 4.77562H140.089C144.524 4.77562 147.248 7.59042 147.248 11.4763C147.248 13.5564 146.36 18.4513 139.478 18.4513H135.406V25.5813ZM139.382 8.87692H135.406V14.6894H139.415C141.495 14.6894 142.443 13.406 142.443 11.7816C142.443 10.6207 141.861 8.87692 139.382 8.87692Z" fill="#B7B7B7"/>
</svg>
