<svg width="110" height="31" viewBox="0 0 110 31" fill="none" xmlns="http://www.w3.org/2000/svg">
<path d="M37.2552 27.4075C40.437 27.9094 43.6497 28.1914 46.8703 28.2515C51.5598 28.3675 56.2504 28.0693 60.8875 27.3605C65.1093 26.7561 69.2481 25.6703 73.2229 24.1243C75.0103 23.4625 76.6816 22.5217 78.1746 21.3369C76.6327 22.7118 74.8763 23.8253 72.975 24.6333C68.8173 26.4882 64.457 27.851 59.983 28.694C55.2511 29.6352 50.4417 30.1332 45.6173 30.1814C42.7242 30.2341 39.8316 30.0548 36.9672 29.6452C33.9482 29.2648 31.0263 28.3265 28.3503 26.8781C26.5679 25.8195 25.9784 24.868 26.1661 24.6737C26.3536 24.4794 27.2448 24.9015 29.0406 25.4845C31.7231 26.3437 34.4701 26.9868 37.2552 27.4075Z" fill="#E47E1A"/>
<path fill-rule="evenodd" clip-rule="evenodd" d="M56.2566 13.98L58.9836 8.3115H59.0372L62.0524 13.98H65.1547L61.1545 6.65644H58.5279L54.9097 13.98H56.2566ZM13.3674 10.7839L17.6488 10.7301C17.6333 11.0848 17.5422 11.4322 17.3816 11.7488C17.221 12.0655 16.9945 12.3442 16.7174 12.5662C16.0697 13.0076 15.2959 13.2263 14.513 13.1893C13.8322 13.2209 13.1569 13.0533 12.5699 12.7069C12.1468 12.4504 11.778 12.1135 11.4845 11.7151L11.2902 11.4204L9.89655 12.2378C10.3808 12.7891 10.9651 13.2438 11.6184 13.5779C12.591 14.0605 13.6694 14.2909 14.7543 14.248C15.9803 14.248 17.8967 14.0669 19.277 13.015C19.711 12.7256 20.0668 12.3335 20.3129 11.8736C20.559 11.4137 20.6878 10.9001 20.6878 10.3784C20.6878 9.85676 20.559 9.34318 20.3129 8.88323C20.0668 8.42329 19.711 8.03121 19.277 7.74178C17.9489 6.86512 16.3775 6.43124 14.7878 6.50227C13.8089 6.47388 12.8337 6.63075 11.9133 6.96479C11.1684 7.23246 10.4848 7.64707 9.90316 8.184L11.2968 8.98815L11.6321 8.6196C11.9603 8.2765 12.3576 8.00707 12.7977 7.82915C13.3558 7.58963 13.9596 7.4752 14.5666 7.49388C14.9915 7.46343 15.4181 7.51895 15.8211 7.65712C16.224 7.79528 16.5949 8.01327 16.9117 8.29804C17.2996 8.6992 17.5364 9.22243 17.5818 9.7786L13.3674 9.66481V10.7839ZM70.0861 7.34656C70.4878 7.32141 70.8896 7.39497 71.2564 7.56082C71.6232 7.72667 71.9438 7.97977 72.1902 8.29804C72.6032 8.88408 72.8061 9.59238 72.7663 10.3082C72.8051 11.0239 72.6022 11.7318 72.1902 12.3183C71.928 12.6184 71.6045 12.859 71.2416 13.0238C70.8787 13.1886 70.4848 13.2738 70.0862 13.2738C69.6877 13.2738 69.2937 13.1886 68.9308 13.0238C68.5679 12.859 68.2445 12.6184 67.9822 12.3183C67.5707 11.7316 67.3679 11.0238 67.4062 10.3082C67.3668 9.59243 67.5698 8.88431 67.9822 8.29804C68.2287 7.97979 68.5492 7.7267 68.9159 7.56085C69.2827 7.395 69.6844 7.32142 70.0861 7.34656ZM70.0861 14.2012C71.621 14.2415 73.1314 13.8112 74.4148 12.9683C74.8368 12.6669 75.1842 12.2729 75.4304 11.8165C75.6766 11.3601 75.8151 10.8533 75.8351 10.3351C75.8151 9.81684 75.6767 9.31005 75.4305 8.85357C75.1843 8.39709 74.8368 8.00305 74.4148 7.70165C73.1322 6.85638 71.6217 6.42384 70.0861 6.46213C68.5468 6.4271 67.0331 6.85925 65.7443 7.70165C65.3103 7.99111 64.9545 8.3832 64.7084 8.84314C64.4624 9.30308 64.3336 9.81665 64.3336 10.3383C64.3336 10.8599 64.4624 11.3735 64.7084 11.8334C64.9545 12.2934 65.3103 12.6855 65.7443 12.9749C67.0338 13.815 68.5475 14.2448 70.0861 14.2078M46.6951 8.5058C46.983 8.41283 47.2836 8.36535 47.5861 8.36509H47.9146V12.1708H47.5861C47.2835 12.1716 46.9827 12.1241 46.6951 12.03C46.466 11.9638 46.2536 11.8496 46.0721 11.695C45.8826 11.5081 45.7322 11.2854 45.6295 11.0398C45.5269 10.7943 45.474 10.5308 45.474 10.2646C45.474 9.99847 45.5269 9.73498 45.6295 9.48943C45.7322 9.24388 45.8826 9.02117 46.0721 8.83422C46.2535 8.67932 46.4659 8.56501 46.6951 8.49895M51.7205 13.0956C52.7039 13.0841 53.668 12.821 54.5211 12.3315C54.8849 12.1207 55.1867 11.8177 55.3961 11.4531C55.6055 11.0885 55.7151 10.6751 55.7138 10.2546C55.7082 9.83729 55.5956 9.42842 55.3867 9.06709C55.1779 8.70576 54.8798 8.40406 54.5211 8.19085C53.6673 7.70305 52.7036 7.44023 51.7205 7.42707H50.5882V6.42151H47.814V7.42683H46.7086C45.7249 7.43665 44.7603 7.6996 43.9077 8.19036C43.5494 8.40407 43.2516 8.70592 43.0429 9.06719C42.8341 9.42846 42.7212 9.83713 42.715 10.2543C42.7144 10.6747 42.8243 11.0878 43.0336 11.4523C43.243 11.8168 43.5444 12.1199 43.9077 12.3313C44.7596 12.8239 45.7246 13.0872 46.7086 13.0953H47.8274V14.1606H50.6014V13.1288H51.7205M51.7205 8.53223C51.9495 8.59831 52.162 8.71259 52.3435 8.8675C52.5329 9.05452 52.6832 9.27725 52.7858 9.52279C52.8883 9.76833 52.9412 10.0318 52.9412 10.2979C52.9412 10.564 52.8883 10.8275 52.7858 11.073C52.6832 11.3186 52.5329 11.5413 52.3435 11.7283C52.162 11.883 51.9496 11.9973 51.7205 12.0636C51.4281 12.1576 51.1228 12.205 50.8157 12.204H50.501V8.36509H50.8157C51.1229 8.36509 51.428 8.41257 51.7205 8.5058M36.3498 7.34656C36.7512 7.32312 37.1524 7.39745 37.5189 7.56317C37.8853 7.7289 38.2061 7.98107 38.4536 8.29804C38.8666 8.88406 39.0697 9.59235 39.0299 10.3082C39.0687 11.0239 38.8657 11.7319 38.4536 12.3183C38.1901 12.6187 37.8655 12.8594 37.5016 13.0243C37.1376 13.1892 36.7426 13.2745 36.343 13.2745C35.9434 13.2745 35.5484 13.1892 35.1845 13.0243C34.8205 12.8594 34.4959 12.6187 34.2324 12.3183C33.8213 11.7317 33.6206 11.0233 33.6629 10.3082C33.6189 9.5929 33.8198 8.88395 34.2324 8.29804C34.4802 7.97968 34.802 7.72662 35.1698 7.56081C35.5376 7.395 35.9402 7.32145 36.3429 7.34656M36.3429 14.2012C37.8776 14.2397 39.3875 13.8095 40.6715 12.9681C41.1026 12.6765 41.4556 12.2837 41.6997 11.8241C41.9437 11.3644 42.0713 10.852 42.0713 10.3316C42.0713 9.81114 41.9437 9.29867 41.6997 8.83902C41.4556 8.37938 41.1026 7.98658 40.6715 7.69504C39.3701 6.88649 37.8685 6.45801 36.3363 6.45801C34.8041 6.45801 33.3025 6.88649 32.001 7.69504C31.5671 7.98451 31.2114 8.3766 30.9654 8.83651C30.7193 9.29643 30.5906 9.80996 30.5906 10.3316C30.5906 10.8531 30.7193 11.3667 30.9654 11.8266C31.2114 12.2865 31.5671 12.6786 32.001 12.9681C33.2892 13.8112 34.8039 14.2416 36.3429 14.2012ZM25.8703 11.3265H26.3861C27.3929 11.4072 28.4027 11.2124 29.3076 10.7636C29.6239 10.5844 29.8856 10.3227 30.0649 10.0066C30.2442 9.69037 30.3344 9.33148 30.3259 8.96808C30.333 8.6103 30.2418 8.25742 30.0623 7.94787C29.8827 7.63831 29.6217 7.38394 29.3076 7.21245C28.6376 6.81722 27.7598 6.68997 26.2655 6.68997H21.515V14.0067H24.296V11.3265H25.8703ZM25.8703 7.81544C26.2503 7.81381 26.6243 7.91078 26.9556 8.09687C27.1002 8.18773 27.22 8.31305 27.3042 8.4616C27.3884 8.61015 27.4345 8.77729 27.4382 8.94802C27.442 9.13494 27.3963 9.31954 27.3057 9.48308C27.2151 9.64662 27.0828 9.78328 26.9223 9.87918C26.6034 10.0748 26.2378 10.1813 25.8637 10.1875H24.2957V7.76185H25.5822C25.6781 7.75497 25.7744 7.75497 25.8703 7.76185V7.81544ZM4.36192 8.3783L5.749 10.871H2.98169L4.32179 8.32471H4.36192V8.3783ZM6.31186 11.8693L7.50439 14.0067H10.6067L6.39898 6.63637H3.82598L0 14.0067H1.38023L2.47242 11.8962L6.31186 11.8693ZM75.3929 7.76185H78.3814V13.98H81.1554V7.76185H84.1503V6.65644H75.3929V7.76185ZM3.64513 21.1024L2.85443 20.7071L6.12416 20.285C6.18436 20.3853 6.2382 20.4727 6.30526 20.5664L3.64513 21.1024ZM12.4292 21.1024L13.2199 20.7071L9.9636 20.2985C9.92115 20.4031 9.86233 20.5003 9.78936 20.5865L12.4292 21.1024ZM11.9534 21.1628L10.9618 21.5111L9.55467 21.0622L9.43427 21.0221C9.48028 20.9829 9.5209 20.9379 9.55467 20.888C9.61512 20.8412 9.66186 20.7742 9.71545 20.7206L11.9534 21.1628ZM14.5666 20.1844L13.6621 20.6266L10.0172 20.1844C10.0172 20.0973 10.0774 20.0036 10.1043 19.9098L14.5666 20.1844ZM14.8884 20.0506L16.0474 19.2599H9.67532C9.68282 19.511 9.64185 19.7613 9.55467 19.997C9.44419 20.2969 9.24123 20.554 8.9751 20.731C8.70897 20.9081 8.39345 20.996 8.07411 20.982C7.75962 20.9812 7.45165 20.8922 7.18518 20.7252C6.91871 20.5582 6.70441 20.3198 6.56662 20.0371C6.46169 19.7986 6.40912 19.5404 6.41244 19.2799H0L1.17246 20.0371L6.07057 19.7691C6.15185 20.1194 6.32269 20.4427 6.56637 20.7071C6.75679 20.9163 6.98843 21.0838 7.24673 21.1992C7.50503 21.3145 7.78439 21.3751 8.06725 21.3772C8.3486 21.3842 8.62789 21.3275 8.88429 21.2115C9.14069 21.0955 9.36759 20.9231 9.54806 20.7071C9.77172 20.4456 9.93223 20.1361 10.0172 19.8027L14.8884 20.0506ZM9.528 22.1074L9.64864 22.3487L9.528 22.4089L9.19273 22.5697L8.81096 21.7724C8.5639 21.8632 8.30369 21.913 8.04058 21.92C7.75628 21.9321 7.47221 21.8912 7.2029 21.7993L6.88133 22.5631C6.76235 22.579 6.64155 22.553 6.5397 22.4895C6.5114 22.4726 6.48675 22.4503 6.46717 22.4238C6.44759 22.3974 6.43348 22.3673 6.42566 22.3353L6.5397 22.1344L6.81428 21.6116C6.72774 21.5601 6.64694 21.4994 6.57323 21.4308L6.80082 21.1359C7.16759 21.383 7.59836 21.5181 8.04058 21.5245C8.4859 21.5306 8.91943 21.3813 9.26663 21.1024L9.52114 21.1829L9.62858 21.223L9.52139 21.3167C9.44625 21.4099 9.3555 21.4893 9.25317 21.5514L9.528 22.1074ZM9.528 17.9868C9.78683 18.3216 9.96563 18.7112 10.0507 19.1258H9.64204C9.61418 18.9957 9.57605 18.868 9.528 18.744C9.23279 18.015 8.71444 17.3981 8.04719 16.9817C7.96006 16.9279 7.8864 16.8677 7.79928 16.821L8.04719 16.9081C8.6246 17.1322 9.13452 17.5014 9.52775 17.98L9.528 17.9868ZM8.42234 20.8209C8.56644 20.7922 8.70185 20.7303 8.81781 20.6401L8.14777 19.3L8.81781 18.9584L8.2481 18.4356L8.02051 18.5497L7.03551 19.0186L7.32354 19.6886L7.78607 19.4676L8.42234 20.8209ZM6.66695 21.0221L6.55292 20.9218C6.47994 20.8581 6.41472 20.7861 6.35861 20.7071L4.12748 21.156L5.07896 21.4978L6.66695 21.0221ZM6.05711 20.1844C6.0218 20.0943 5.99053 20.0027 5.96338 19.9098L1.49427 20.1844L2.39876 20.6469L6.05735 20.1844H6.05711ZM26.4598 18.2614C26.2137 18.0605 25.8986 17.9643 25.5822 17.9934L24.3359 17.9665L23.103 21.9868H23.6323L24.1682 20.2583H24.9658C25.3498 20.258 25.7243 20.1385 26.0377 19.9164C26.1995 19.7936 26.335 19.6396 26.4363 19.4636C26.5376 19.2875 26.6026 19.0929 26.6274 18.8913C26.6492 18.7805 26.6454 18.6661 26.6163 18.557C26.5873 18.4479 26.5337 18.3468 26.4598 18.2614ZM25.093 19.8027H24.3026L24.758 18.4557H25.5152C25.6806 18.4429 25.8443 18.496 25.9709 18.6033C26.0541 18.7117 26.0859 18.8512 26.058 18.985C26.0137 19.2321 25.8831 19.4553 25.6894 19.6149C25.5163 19.7406 25.3069 19.8065 25.093 19.8027ZM29.1265 20.1847C29.1726 19.9578 29.142 19.722 29.0394 19.5144L29.0729 19.5012C28.9926 19.3804 28.881 19.2836 28.7501 19.2211C28.6191 19.1585 28.4737 19.1326 28.3292 19.1461C27.9764 19.1499 27.6357 19.2752 27.3645 19.5009C26.9399 19.9022 26.6715 20.4413 26.6074 21.0221C26.5613 21.2489 26.592 21.4846 26.6945 21.6921C26.7744 21.8134 26.8859 21.9106 27.017 21.9731C27.148 22.0356 27.2937 22.0612 27.4382 22.047C27.7793 22.0346 28.1068 21.9099 28.3696 21.6921C28.7923 21.295 29.0604 20.7609 29.1265 20.1847ZM28.6241 19.6952C28.7013 19.9472 28.6846 20.2186 28.5771 20.4592L28.4633 20.7071C28.3995 20.9987 28.2502 21.2646 28.0346 21.4709C27.8896 21.5916 27.7071 21.6579 27.5185 21.6586C27.4417 21.6664 27.3643 21.6531 27.2946 21.62C27.225 21.5869 27.1657 21.5353 27.1232 21.4709C27.0411 21.2196 27.0579 20.9465 27.1702 20.7071L27.2906 20.4592C27.3611 20.1892 27.4969 19.9407 27.6861 19.7356C27.8314 19.5932 28.0255 19.5117 28.2289 19.5078C28.3055 19.5014 28.3824 19.5154 28.4518 19.5484C28.5212 19.5814 28.5807 19.6319 28.6241 19.6952Z" fill="#0E4D92"/>
<path d="M31.4616 21.7659C31.3419 21.8266 31.2188 21.8804 31.093 21.9267C30.8787 22.0062 30.6515 22.0449 30.423 22.0407C30.2981 22.0457 30.1736 22.0237 30.058 21.9763C29.9424 21.9288 29.8383 21.8571 29.7529 21.7659C29.6206 21.5518 29.5683 21.2978 29.6054 21.0488C29.6355 20.7236 29.7298 20.4075 29.8828 20.1188C30.0357 19.8302 30.2444 19.5747 30.4966 19.3671C30.7497 19.2154 31.039 19.1344 31.3341 19.1327C31.5276 19.1286 31.7182 19.1797 31.8837 19.28C32.0217 19.3754 32.0903 19.5441 32.0577 19.7088C32.0397 19.8221 32.0011 19.9311 31.9439 20.0306L31.4882 20.0707C31.5275 20.006 31.5521 19.9334 31.5602 19.8581C31.5683 19.7828 31.5598 19.7067 31.5352 19.6351C31.4916 19.5853 31.4364 19.547 31.3745 19.5237C31.3125 19.5003 31.2458 19.4926 31.1801 19.5012C31.0409 19.4996 30.904 19.5367 30.7847 19.6084C30.524 19.7877 30.3437 20.0618 30.2823 20.3722L30.1751 20.7341C30.0911 20.9496 30.0911 21.1887 30.1751 21.4042C30.2232 21.4866 30.2948 21.5529 30.3806 21.5947C30.4665 21.6364 30.5628 21.6517 30.6574 21.6386C30.803 21.6397 30.9478 21.6171 31.0862 21.5716C31.2039 21.5398 31.3182 21.4969 31.428 21.4443L31.4616 21.7659ZM34.222 21.7659C34.1023 21.8264 33.9793 21.8801 33.8535 21.9267C33.6392 22.0062 33.4119 22.0449 33.1834 22.0407C33.0586 22.0456 32.9341 22.0236 32.8185 21.9762C32.7029 21.9288 32.5988 21.8571 32.5134 21.7659C32.38 21.5522 32.3278 21.2978 32.3661 21.0488C32.3965 20.7237 32.4909 20.4077 32.6438 20.1191C32.7967 19.8305 33.0051 19.5749 33.2571 19.3671C33.5104 19.2157 33.7996 19.1347 34.0948 19.1327C34.2881 19.1293 34.4785 19.1804 34.6442 19.28C34.7824 19.3754 34.8507 19.5441 34.8184 19.7088C34.7994 19.8218 34.7608 19.9307 34.7044 20.0306L34.249 20.0707C34.288 20.0058 34.3119 19.9329 34.3189 19.8575C34.3258 19.7821 34.3156 19.706 34.2891 19.6351C34.2459 19.5848 34.1907 19.5462 34.1286 19.5228C34.0666 19.4994 33.9997 19.492 33.934 19.5012C33.7926 19.4987 33.6533 19.5358 33.5319 19.6084C33.2722 19.7888 33.0922 20.0624 33.0293 20.3722L32.9221 20.7341C32.8391 20.9498 32.8391 21.1885 32.9221 21.4042C32.9714 21.4871 33.0442 21.5537 33.1312 21.5954C33.2183 21.6371 33.3157 21.6521 33.4113 21.6386C33.5569 21.6397 33.7017 21.6171 33.84 21.5716C33.9577 21.5398 34.072 21.4969 34.1819 21.4443L34.222 21.7659ZM37.2304 21.9803H36.7547L37.4247 19.8162L35.4951 21.9803H34.9322L35.7831 19.2129H36.2588L35.5957 21.3773L37.5187 19.2129H38.0881L37.2304 21.9803Z" fill="#0E4D92"/>
<path fill-rule="evenodd" clip-rule="evenodd" d="M41.3078 18.2011C41.3261 18.1443 41.3396 18.0861 41.3479 18.0269H40.9659V18.1005C40.9409 18.2038 40.8789 18.2944 40.7916 18.355C40.7137 18.4102 40.6189 18.4364 40.5237 18.4289C40.4837 18.4336 40.4432 18.4295 40.405 18.4167C40.3668 18.404 40.3319 18.383 40.3027 18.3553C40.2797 18.3155 40.2676 18.2705 40.2676 18.2246C40.2676 18.1787 40.2797 18.1336 40.3027 18.0939V18.0269H39.9275C39.8752 18.1183 39.8389 18.2181 39.8201 18.3217C39.812 18.3811 39.8188 18.4416 39.8399 18.4977C39.8609 18.5539 39.8956 18.6039 39.9407 18.6433C40.0739 18.7412 40.2386 18.7867 40.403 18.7706C40.5899 18.7769 40.7751 18.7329 40.9392 18.6433C41.0296 18.6016 41.1096 18.5403 41.1734 18.4638C41.2371 18.3873 41.283 18.2975 41.3078 18.2011ZM40.0883 21.9801H40.5641L41.4015 19.2128H40.8386L38.9225 21.3771L39.5925 19.2128H39.1168L38.2656 21.9801H38.8285L40.7584 19.816L40.0883 21.9801Z" fill="#0E4D92"/>
<path d="M43.5712 21.7658C43.4513 21.8263 43.3284 21.8799 43.2026 21.9266C42.9883 22.006 42.7611 22.0447 42.5326 22.0407C42.4077 22.0456 42.2833 22.0236 42.1676 21.9762C42.052 21.9288 41.948 21.857 41.8625 21.7658C41.7297 21.5519 41.6774 21.2978 41.715 21.0488C41.7463 20.7231 41.8418 20.4069 41.9959 20.1182C42.15 19.8296 42.3597 19.5743 42.6129 19.3671C42.8663 19.216 43.1555 19.135 43.4505 19.1326C43.6439 19.1289 43.8344 19.18 43.9999 19.28C44.1397 19.3744 44.2085 19.5438 44.1742 19.7087C44.1584 19.8216 44.122 19.9307 44.067 20.0305L43.6113 20.0707C43.6509 20.006 43.6751 19.933 43.6821 19.8575C43.689 19.782 43.6786 19.7059 43.6515 19.635C43.6113 19.568 43.5041 19.5012 43.303 19.5012C43.1617 19.4987 43.0225 19.5358 42.9011 19.6084C42.6389 19.7874 42.4563 20.0612 42.3919 20.3721L42.2847 20.7341C42.2015 20.9497 42.2015 21.1885 42.2847 21.4041C42.3335 21.4859 42.4052 21.5517 42.4909 21.5933C42.5766 21.635 42.6725 21.6507 42.767 21.6386C42.9127 21.6397 43.0575 21.617 43.1958 21.5715C43.3135 21.5397 43.428 21.4971 43.5377 21.4443L43.5712 21.7658ZM46.0167 21.9802L45.8961 21.109C45.8948 20.9964 45.8598 20.8868 45.7957 20.7943C45.7608 20.7621 45.7195 20.7377 45.6744 20.7226C45.6293 20.7076 45.5816 20.7024 45.5344 20.7072H45.1457L44.7571 21.9802H44.2814L45.1323 19.2129H45.608L45.273 20.3119H45.608C45.7299 20.3164 45.8498 20.2811 45.9496 20.2116C46.0375 20.1367 46.1104 20.0457 46.1643 19.9436L46.3586 19.6287C46.4487 19.4373 46.6026 19.2833 46.7939 19.1931C46.8669 19.1657 46.944 19.152 47.0218 19.1529C47.1016 19.1544 47.1806 19.1679 47.2565 19.1931L47.0888 19.5616C47.055 19.5469 47.0185 19.5393 46.9816 19.5393C46.9448 19.5393 46.9083 19.5469 46.8745 19.5616C46.8116 19.619 46.7594 19.687 46.7203 19.7625L46.5661 20.0038C46.5057 20.1262 46.4188 20.2339 46.3116 20.3188C46.229 20.3816 46.136 20.4293 46.0368 20.4595C46.1307 20.4857 46.2149 20.5393 46.2781 20.6137C46.3344 20.703 46.3708 20.8036 46.3853 20.9083L46.5326 21.9269L46.0167 21.9807V21.9802ZM49.4607 21.9802H48.9783L49.6484 19.8161L47.7187 21.9802H47.1559L48.0068 19.2129H48.4891L47.8191 21.3772L49.7421 19.2129H50.3118L49.4607 21.9802Z" fill="#0E4D92"/>
<path fill-rule="evenodd" clip-rule="evenodd" d="M51.1839 21.4107C51.113 21.209 51.113 20.9892 51.1839 20.7876L51.204 20.7137H52.8524L52.8926 20.5933C53.0585 20.2476 53.0825 19.8508 52.9596 19.4876C52.8878 19.3777 52.7876 19.2892 52.6697 19.2314C52.5518 19.1736 52.4205 19.1487 52.2896 19.1592C51.95 19.1657 51.6242 19.2942 51.3716 19.5212C51.0831 19.7836 50.8692 20.1177 50.7515 20.4896C50.6338 20.8615 50.6166 21.2578 50.7016 21.6385C50.7847 21.7739 50.9041 21.8833 51.0462 21.9543C51.1884 22.0253 51.3475 22.0551 51.5057 22.0403C51.7341 22.0435 51.9612 22.0049 52.1758 21.9265C52.3016 21.8803 52.4246 21.8267 52.5441 21.7657L52.4905 21.4442C52.381 21.4975 52.2666 21.5401 52.1488 21.5714C52.0102 21.6154 51.8656 21.638 51.7201 21.6385C51.6187 21.6495 51.5162 21.6344 51.4223 21.5945C51.3284 21.5546 51.2464 21.4913 51.1839 21.4107ZM52.4369 20.2379V20.352H51.2845V20.2915C51.3479 20.0687 51.4707 19.8672 51.6396 19.7086C51.7725 19.5855 51.9477 19.5184 52.1288 19.5212C52.1908 19.5162 52.253 19.5294 52.3077 19.5591C52.3624 19.5888 52.4073 19.6338 52.4369 19.6886C52.5032 19.8657 52.5032 20.0608 52.4369 20.2379ZM57.2545 21.9197C57.3944 21.8474 57.5213 21.7523 57.6299 21.6382L57.5092 21.9938H57.938L58.4874 20.2049C58.5337 20.0813 58.5674 19.9533 58.588 19.8229C58.6152 19.6881 58.5938 19.548 58.5275 19.4274C58.4419 19.3377 58.3373 19.2682 58.2214 19.2242C58.1054 19.1801 57.9811 19.1626 57.8575 19.1729C57.5657 19.1645 57.2761 19.2267 57.0134 19.354C56.9063 19.4116 56.8152 19.4951 56.7484 19.5969C56.6817 19.6986 56.6415 19.8154 56.6314 19.9367H57.0602C57.0759 19.8667 57.1061 19.8007 57.1488 19.743C57.1915 19.6853 57.2457 19.6372 57.3081 19.6017C57.4368 19.5368 57.5795 19.5046 57.7236 19.5079C57.8452 19.4947 57.9674 19.5283 58.0652 19.6017C58.1563 19.7081 58.1746 19.8586 58.1122 19.9837L58.005 20.3454H57.5964C57.2457 20.3255 56.8968 20.407 56.5913 20.5801C56.4513 20.6677 56.3324 20.7852 56.2432 20.9242C56.154 21.0632 56.0967 21.2202 56.0754 21.384C56.0568 21.4761 56.0624 21.5715 56.0917 21.6608C56.1211 21.75 56.1731 21.8302 56.2428 21.8932C56.3925 22.0002 56.5754 22.0501 56.7587 22.034C56.9313 22.0428 57.103 22.0034 57.2545 21.9202V21.9197ZM57.4488 20.6936H57.8778L57.6967 21.2834C57.6069 21.3808 57.5031 21.4645 57.3886 21.5313C57.2616 21.6156 57.1123 21.6599 56.9598 21.6586C56.9005 21.6644 56.8407 21.6566 56.7849 21.6357C56.7291 21.6148 56.6788 21.5813 56.638 21.5379C56.6096 21.504 56.5895 21.464 56.579 21.421C56.5686 21.378 56.5682 21.3332 56.5778 21.29C56.5909 21.1988 56.6226 21.1112 56.671 21.0328C56.7194 20.9544 56.7835 20.8868 56.8593 20.8343C57.0364 20.7275 57.2424 20.6783 57.4488 20.6936ZM59.7203 19.2131H60.9397C61.1463 19.1837 61.3536 19.262 61.4891 19.4206C61.5657 19.5322 61.5946 19.6695 61.5697 19.8023C61.5438 19.9938 61.4541 20.171 61.3149 20.305C61.2153 20.4071 61.0905 20.4812 60.9532 20.5194C61.0562 20.5453 61.1451 20.6099 61.2011 20.7005C61.2567 20.8003 61.2777 20.9158 61.2613 21.0286C61.2437 21.1705 61.1965 21.3071 61.1226 21.4294C61.0487 21.5518 60.9499 21.6572 60.8326 21.7388C60.6115 21.9006 60.3425 21.9833 60.0688 21.9735H58.8829L59.7203 19.2131ZM59.4589 21.6184H60.129C60.2717 21.6242 60.4126 21.5843 60.5311 21.5044C60.6003 21.4529 60.6581 21.3876 60.7007 21.3126C60.7434 21.2376 60.77 21.1546 60.779 21.0688C60.7878 21.0251 60.7851 20.9798 60.7709 20.9375C60.7568 20.8952 60.7318 20.8573 60.6984 20.8277C60.6197 20.7679 60.5227 20.7371 60.4239 20.7406H59.7538L59.4589 21.6184ZM60.4439 20.3855H59.8409L60.0955 19.5814H60.7254C60.8174 19.576 60.9087 19.5995 60.9867 19.6484C61.056 19.7047 61.0871 19.7957 61.067 19.8829C61.0576 19.9615 61.0318 20.0372 60.9915 20.1053C60.9511 20.1734 60.897 20.2323 60.8326 20.2783C60.7183 20.3557 60.5817 20.3933 60.4439 20.3855Z" fill="#0E4D92"/>
<path d="M64.0906 21.9802H63.6215L64.2849 19.8161L62.3751 21.9802H61.8125L62.6565 19.2129H63.1323L62.4757 21.3772L64.3787 19.2129H64.9415L64.0906 21.9802Z" fill="#0E4D92"/>
<path fill-rule="evenodd" clip-rule="evenodd" d="M66.3006 21.9198C66.4425 21.8477 66.5716 21.7526 66.6826 21.6384L66.5551 21.9937H66.9841L67.5335 20.2048C67.5791 20.081 67.6127 19.953 67.6338 19.8228C67.6594 19.6879 67.6382 19.5484 67.5736 19.4273C67.4877 19.3379 67.3831 19.2688 67.2672 19.2247C67.1513 19.1807 67.0271 19.163 66.9035 19.1728C66.6139 19.1649 66.3266 19.227 66.0661 19.3539C65.9593 19.4119 65.8685 19.4955 65.8019 19.5972C65.7352 19.6989 65.6948 19.8155 65.6841 19.9366H66.1129C66.1282 19.8664 66.1583 19.8003 66.201 19.7426C66.2437 19.6848 66.2982 19.6368 66.3608 19.6015C66.4895 19.5367 66.6322 19.5045 66.7763 19.5078C66.8979 19.4946 67.02 19.5281 67.1179 19.6015C67.2107 19.7073 67.2293 19.8585 67.1649 19.9836L67.0577 20.3453H66.649C66.2984 20.3246 65.9492 20.4061 65.644 20.5799C65.5039 20.6676 65.3851 20.7851 65.2958 20.9241C65.2066 21.063 65.1492 21.2201 65.1279 21.3839C65.1093 21.476 65.115 21.5714 65.1444 21.6606C65.1738 21.7499 65.2258 21.83 65.2955 21.8931C65.4449 22.0007 65.6281 22.0506 65.8114 22.0338C65.9818 22.0421 66.1512 22.0025 66.3006 21.9198ZM66.5015 20.6937H66.9305L66.7494 21.2835C66.6605 21.382 66.5565 21.4657 66.4413 21.5314C66.3143 21.6157 66.1649 21.66 66.0125 21.6587C65.9532 21.6645 65.8934 21.6567 65.8376 21.6358C65.7818 21.6149 65.7315 21.5814 65.6907 21.538C65.6623 21.5041 65.6421 21.4641 65.6317 21.4211C65.6213 21.3781 65.6208 21.3333 65.6305 21.2901C65.6435 21.1989 65.6753 21.1113 65.7237 21.0329C65.7721 20.9545 65.8362 20.887 65.9119 20.8345C66.089 20.7272 66.2951 20.678 66.5015 20.6937Z" fill="#0E4D92"/>
<path d="M69.7591 21.9801H69.2834L70.0137 19.6083H69.2565L69.1561 19.9166C69.0395 20.2837 68.9076 20.6458 68.7607 21.0019C68.6488 21.3356 68.4386 21.6275 68.1577 21.8394C67.9751 21.9547 67.7691 22.028 67.5547 22.0538V21.6519C67.7109 21.6189 67.859 21.5551 67.9903 21.4642C68.166 21.3145 68.2979 21.12 68.3721 20.9014C68.4861 20.6265 68.7071 20.0169 68.8143 19.6618L68.955 19.2062H70.6034L69.7591 21.9801ZM73.0022 21.9801H72.5265L73.1965 19.816L71.2801 21.9801H70.7241L71.5681 19.2128H72.0439L71.3807 21.3771L73.2902 19.2128H73.8531L73.0022 21.9801ZM76.0911 21.9801H75.6219L76.004 20.734H74.8246L74.436 21.9801H73.9603L74.8112 19.2128H75.2869L74.9384 20.3319H76.1246L76.4662 19.2128H76.942L76.0911 21.9801ZM79.3339 21.9801H78.8581L79.5282 19.816L77.612 21.9801H77.0558L77.9001 19.2128H78.3758L77.7126 21.3771L79.6222 19.2128H80.185L79.3339 21.9801ZM82.5769 21.9801H82.1012L82.7646 19.816L80.8551 21.9801H80.2922L81.1431 19.2128H81.612L80.9554 21.3771L82.865 19.2128H83.4278L82.5769 21.9801Z" fill="#0E4D92"/>
<path d="M96.8127 10.9415C90.1918 10.9983 87.1996 12.6756 81.6204 16.8868L80.4766 18.1094C86.2253 13.7852 89.5276 13.4188 94.2586 13.4585C94.6981 13.4869 95.1178 13.5114 95.384 12.9265L96.8127 10.9415Z" fill="url(#paint0_linear_3383_14936)"/>
<path d="M98.0392 5.9209C88.6473 7.49837 84.5005 14.0716 81.625 16.8813C87.237 11.5267 91.9185 9.11329 96.0325 8.64147C96.3974 8.14346 97.6562 6.4796 98.0395 5.92114L98.0392 5.9209Z" fill="url(#paint1_linear_3383_14936)"/>
<path d="M96.0235 8.6416C89.7657 9.52652 85.6735 13.134 81.9023 16.5718C81.7966 16.681 81.4153 17.1148 81.3047 17.2181C84.592 14.7014 87.3525 12.0941 94.2101 11.1265C94.5512 10.7264 95.5509 9.36794 96.0235 8.6416Z" fill="url(#paint2_linear_3383_14936)"/>
<path d="M96.1517 10.7168C95.0607 10.7168 93.9551 11.2527 93.8491 11.5586C93.6685 12.0659 93.9514 11.8508 94.7725 12.3564C95.4675 12.781 95.3216 12.934 95.2577 13.151C95.8908 12.2187 97.031 10.8546 97.031 10.8546C96.7537 10.7584 96.4527 10.7168 96.1517 10.7168Z" fill="url(#paint3_linear_3383_14936)"/>
<path d="M107.842 2.71887C105.924 5.33397 101.557 5.10564 100.197 5.29237C98.9203 5.46979 98.1066 5.80188 97.5958 6.47364L95.7969 8.95267C96.1892 8.59048 97.3731 8.4133 98.652 8.37929H98.9969C99.1684 8.37366 99.36 8.36411 99.5607 8.35653C101.38 8.28311 103.905 8.02077 105.368 6.25094L107.576 3.09428L107.842 2.71887Z" fill="url(#paint4_linear_3383_14936)"/>
<path d="M109.6 0C107.575 2.06594 105.363 2.1511 103.488 2.41516C102.926 2.49053 101.66 2.47169 100.603 3.16792C99.5506 3.86049 98.2881 5.51334 97.6641 6.38112C98.2443 5.74142 99.0142 5.56032 100.134 5.42646C101.267 5.2926 102.9 5.31511 104.062 5.14919C105.17 4.9982 107.065 3.75746 107.695 2.8838L109.6 0Z" fill="url(#paint5_linear_3383_14936)"/>
<path d="M105.437 6.15283C104.588 7.27733 103.076 7.78513 101.259 8.04918C99.8776 8.24545 98.3087 8.30369 97.8579 8.33208C97.0826 8.3661 96.0572 8.62085 95.7743 8.97374C94.9041 10.0887 94.0777 11.1266 93.8516 11.5587C94.3824 11.0473 96.1211 11.1038 98.2375 11.004C100.339 10.9019 102.476 9.96046 104.163 7.97552L105.437 6.15283Z" fill="url(#paint6_linear_3383_14936)"/>
<defs>
<linearGradient id="paint0_linear_3383_14936" x1="79.216" y1="20.1061" x2="94.1022" y2="25.4291" gradientUnits="userSpaceOnUse">
<stop stop-color="#C4161C"/>
<stop offset="0.3" stop-color="#ED1C24"/>
<stop offset="0.5" stop-color="#F8ABAD"/>
<stop offset="0.719" stop-color="#ED1C24"/>
<stop offset="1" stop-color="#C4161C"/>
</linearGradient>
<linearGradient id="paint1_linear_3383_14936" x1="84.8463" y1="7.8356" x2="92.0661" y2="19.5617" gradientUnits="userSpaceOnUse">
<stop stop-color="white"/>
<stop offset="0.343" stop-color="white"/>
<stop offset="0.55" stop-color="white"/>
<stop offset="0.91" stop-color="#C7D2EC"/>
<stop offset="1" stop-color="#C7D2EC"/>
</linearGradient>
<linearGradient id="paint2_linear_3383_14936" x1="83.3785" y1="15.1142" x2="90.3995" y2="19.7392" gradientUnits="userSpaceOnUse">
<stop stop-color="#00529B"/>
<stop offset="0.107" stop-color="#00529B"/>
<stop offset="0.5" stop-color="#7D97CD"/>
<stop offset="0.527" stop-color="#7492C9"/>
<stop offset="0.732" stop-color="#3670B1"/>
<stop offset="0.882" stop-color="#0F5AA1"/>
<stop offset="0.961" stop-color="#00529B"/>
<stop offset="1" stop-color="#00529B"/>
</linearGradient>
<linearGradient id="paint3_linear_3383_14936" x1="93.0447" y1="10.3955" x2="96.1495" y2="13.9381" gradientUnits="userSpaceOnUse">
<stop stop-color="#C4161C"/>
<stop offset="0.5" stop-color="#ED1C24"/>
<stop offset="1" stop-color="#F8ABAD"/>
</linearGradient>
<linearGradient id="paint4_linear_3383_14936" x1="93.844" y1="8.0007" x2="107.551" y2="13.0403" gradientUnits="userSpaceOnUse">
<stop stop-color="#C7D6EE"/>
<stop offset="0.073" stop-color="#C7D6EE"/>
<stop offset="0.118" stop-color="#AFC6E4"/>
<stop offset="0.214" stop-color="#719DCA"/>
<stop offset="0.352" stop-color="#0E5BA1"/>
<stop offset="0.371" stop-color="#00529B"/>
<stop offset="0.43" stop-color="#08579E"/>
<stop offset="0.522" stop-color="#1E66A8"/>
<stop offset="0.636" stop-color="#437EB7"/>
<stop offset="0.767" stop-color="#75A0CC"/>
<stop offset="0.912" stop-color="#B5CAE7"/>
<stop offset="0.949" stop-color="#C7D6EE"/>
<stop offset="1" stop-color="#C7D6EE"/>
</linearGradient>
<linearGradient id="paint5_linear_3383_14936" x1="92.4527" y1="7.62626" x2="114.279" y2="13.6618" gradientUnits="userSpaceOnUse">
<stop stop-color="white"/>
<stop offset="0.174" stop-color="white"/>
<stop offset="0.23" stop-color="#F9FAFD"/>
<stop offset="0.306" stop-color="#E8ECF6"/>
<stop offset="0.354" stop-color="#D9E0F1"/>
<stop offset="0.469" stop-color="#EDF0F8"/>
<stop offset="0.592" stop-color="#FAFBFD"/>
<stop offset="0.7" stop-color="white"/>
<stop offset="1" stop-color="white"/>
</linearGradient>
<linearGradient id="paint6_linear_3383_14936" x1="92.3272" y1="15.6135" x2="101.324" y2="18.105" gradientUnits="userSpaceOnUse">
<stop stop-color="#F8ABAD"/>
<stop offset="0.056" stop-color="#F8ABAD"/>
<stop offset="0.101" stop-color="#F8A6A8"/>
<stop offset="0.156" stop-color="#F6979A"/>
<stop offset="0.215" stop-color="#F57E82"/>
<stop offset="0.278" stop-color="#F25C62"/>
<stop offset="0.343" stop-color="#EF3138"/>
<stop offset="0.371" stop-color="#ED1C24"/>
<stop offset="0.46" stop-color="#D1181E"/>
<stop offset="0.517" stop-color="#C4161C"/>
<stop offset="0.607" stop-color="#D1181E"/>
<stop offset="0.747" stop-color="#ED1C24"/>
<stop offset="0.961" stop-color="#F8ABAD"/>
<stop offset="1" stop-color="#F8ABAD"/>
</linearGradient>
</defs>
</svg>
