<svg width="164" height="26" viewBox="0 0 164 26" fill="none" xmlns="http://www.w3.org/2000/svg">
<path d="M30.9976 7.88547C30.9976 4.61265 26.9223 1.95392 19.9719 1.95392H18.974L21.0186 0H17.9831L12.9727 1.93997H4.98948C2.19816 1.93997 0.621068 2.6378 0 3.96367H16.406C20.9349 3.96367 23.9704 4.6615 23.9704 7.77382C23.9704 11.1374 20.3208 11.7863 16.406 11.7863H9.07179L15.5616 18.8205C21.0884 24.6404 26.2733 25.6732 32.7143 25.6732L21.0954 13.8101C27.2572 13.5937 30.9976 11.0187 30.9976 7.90641V7.88547Z" fill="#B7B7B7"/>
<path d="M51.5538 15.3662C50.5443 15.374 49.5372 15.2639 48.5532 15.0382V8.27623C49.5492 8.16085 50.5511 8.10261 51.5538 8.10178C54.401 8.10178 56.0688 9.25319 56.0688 11.6537C56.0688 14.0543 54.2893 15.3662 51.5538 15.3662ZM51.9795 6.64331C49.579 6.64331 47.2482 6.92942 44.75 7.02712V20.6139H48.5532V16.6502C49.6418 16.7479 50.8421 16.8246 51.9795 16.8246C57.0946 16.8246 60.3535 15.3173 60.3535 11.6537C60.3535 7.99012 57.1225 6.64331 51.9795 6.64331Z" fill="#B7B7B7"/>
<path d="M73.3571 19.5045C70.3424 19.5045 68.249 17.2924 68.249 13.7963C68.249 10.3001 70.3424 8.0322 73.3571 8.0322C76.3717 8.0322 78.4722 10.3141 78.4722 13.7963C78.4722 17.2784 76.3787 19.5045 73.3571 19.5045ZM73.3571 6.57373C67.7256 6.60164 63.9922 9.51159 63.9922 13.7963C63.9922 18.0809 67.7256 20.963 73.3571 20.963C78.9886 20.963 82.7289 18.067 82.7289 13.7963C82.7289 9.52555 78.9955 6.60164 73.3571 6.60164V6.57373Z" fill="#B7B7B7"/>
<path d="M138.2 7.00635L129.763 17.7669V7.00635H125.953V20.6699H127.474H129.763L138.2 9.89536V20.6699H142.003V7.00635H140.461H138.2Z" fill="#B7B7B7"/>
<path d="M96.6842 8.08076C98.3851 8.05308 100.044 8.60702 101.388 9.65088L102.176 7.63415C100.279 6.88568 98.2482 6.53418 96.2097 6.60136C90.7875 6.60136 86.9844 9.53922 86.9844 13.8169C86.9844 18.0946 90.5503 20.9906 96.4469 20.9906C98.4109 21.0529 100.363 20.6662 102.155 19.8601V17.662C102.155 17.662 100.39 19.3298 96.8517 19.3298C93.3137 19.3298 91.269 17.2363 91.269 13.789C91.269 10.3417 93.3207 8.08076 96.7191 8.08076H96.6842Z" fill="#B7B7B7"/>
<path d="M159.718 14.452H156.173C153.703 14.452 152.202 13.2727 152.202 11.1583C152.202 9.04385 153.703 8.10178 156.173 8.10178C157.359 8.10499 158.543 8.18424 159.718 8.33904V14.452ZM155.747 6.64331C151.135 6.64331 147.946 7.79473 147.946 11.1792C147.946 13.4192 149.244 14.7381 151.512 15.3662L146.445 20.8581H146.92C150.409 20.8581 152.105 20.1603 154.345 17.4457L155.671 15.8477H159.718V20.5999H163.521V7.01316C160.311 6.92244 158.148 6.64331 155.747 6.64331Z" fill="#B7B7B7"/>
<path d="M115.204 8.0809C116.907 8.05275 118.569 8.60665 119.914 9.65101L120.724 7.63429C118.818 6.88204 116.777 6.53047 114.729 6.6015C109.307 6.6015 105.504 9.53936 105.504 13.8171C105.504 18.0947 109.07 20.9907 114.966 20.9907C116.93 21.053 118.883 20.6664 120.675 19.8603V17.6621C120.675 17.6621 118.916 19.3299 115.371 19.3299C111.826 19.3299 109.789 17.2364 109.789 13.7891C109.789 10.3419 111.833 8.0809 115.232 8.0809H115.204Z" fill="#B7B7B7"/>
</svg>
