<svg width="126" height="45" viewBox="0 0 126 45" fill="none" xmlns="http://www.w3.org/2000/svg">
<mask id="mask0_2872_6723" style="mask-type:luminance" maskUnits="userSpaceOnUse" x="0" y="0" width="126" height="45">
<path d="M126 0H0V45H126V0Z" fill="white"/>
</mask>
<g mask="url(#mask0_2872_6723)">
<path fill-rule="evenodd" clip-rule="evenodd" d="M8.57746 0L6.43177 5.887H36.1664L38.3121 0H8.57746ZM5.35824 8.82914L3.21253 14.7148H32.9472L35.0929 8.82914H5.35824ZM2.1457 17.6583L0 23.544H29.7347L31.879 17.6583H2.1457Z" fill="#B7B7B7"/>
<path fill-rule="evenodd" clip-rule="evenodd" d="M63.2159 25.7871V25.9114C64.5745 26.4109 65.8726 27.2845 66.5528 27.8455C68.654 29.5926 69.5817 31.9008 69.5817 34.8955C69.5817 39.8258 66.9855 43.3815 62.7209 44.5049C61.4228 44.8789 60.0641 45.0044 57.5288 45.0044H44.6133V8.94214H56.0469C58.3957 8.94214 60.0018 9.06635 61.4228 9.44031C65.5645 10.5637 68.2836 13.4342 68.2836 17.9877C68.2836 20.4215 67.4182 22.4812 65.9972 23.853C65.3793 24.4768 64.514 25.2261 63.2159 25.7871ZM51.7822 29.5926V39.0764H56.727C58.2088 39.0764 59.5691 38.9522 60.5591 38.0158C61.5474 37.0795 61.9801 35.8947 61.9801 34.3345C61.9801 33.1497 61.6703 32.0264 61.0524 31.2156C60.0018 29.9052 58.7038 29.5926 56.4796 29.5926H51.7822ZM51.72 23.3534H55.7372C56.9731 23.3534 57.591 23.3534 58.2088 23.1664C59.879 22.6669 60.9295 21.1708 60.9295 19.1111C60.9295 16.6787 59.8166 15.6168 58.2088 15.1186C57.5288 14.9316 56.8501 14.8688 55.4898 14.8688H51.72V23.3534ZM80.3349 45.0044V14.993H70.0143V8.94214H98.6915L96.6526 14.993H87.5043V45.0044H80.3349ZM100.916 45.0044V8.94214H124.155L122.116 14.993H108.024V22.9794H113.772C118.407 22.9794 120.818 24.1028 122.486 25.5373C123.784 26.6607 126.009 29.1559 126.009 34.0861C126.009 38.9522 123.722 41.6343 121.806 43.0075C119.582 44.5663 117.233 45.0044 112.474 45.0044H100.916ZM108.024 38.9522H113.401C115.44 38.9522 116.676 38.4526 117.541 37.3292C117.974 36.7682 118.592 35.7691 118.592 33.8978C118.592 32.0264 117.974 30.716 116.738 29.7796C115.997 29.2186 115.007 28.9074 113.339 28.9074H108.024V38.9522Z" fill="#B7B7B7"/>
</g>
</svg>
