<svg width="51" height="40" viewBox="0 0 51 40" fill="none" xmlns="http://www.w3.org/2000/svg">
<g clip-path="url(#clip0_3383_14953)">
<path d="M0 0C16.83 0 33.66 0 51 0C51 13.2 51 26.4 51 40C34.17 40 17.34 40 0 40C0 26.8 0 13.6 0 0Z" fill="black"/>
<path d="M11.1182 5.09998C13.2051 5.09998 15.292 5.09998 17.4422 5.09998C17.4422 7.44298 17.4422 9.78598 17.4422 12.2C19.5291 12.2 21.616 12.2 23.7662 12.2C23.7662 14.246 23.7662 16.292 23.7662 18.4C21.6792 18.4 19.5923 18.4 17.4422 18.4C17.4422 21.865 17.4422 25.33 17.4422 28.9C20.3369 28.9 23.2317 28.9 26.2142 28.9C26.2142 30.979 26.2142 33.058 26.2142 35.2C24.6805 35.2124 24.6805 35.2124 23.1159 35.225C22.7971 35.2286 22.4784 35.2323 22.15 35.236C19.3549 35.2546 16.8928 34.8257 14.6882 33C14.6076 32.9355 14.527 32.8711 14.4439 32.8047C12.7067 31.3563 11.4286 29.2331 11.1182 27C11.0634 26.2824 11.0794 25.5611 11.0834 24.842C11.0835 24.6261 11.0835 24.4101 11.0833 24.1942C11.0832 23.6114 11.085 23.0287 11.0871 22.4459C11.0891 21.8356 11.0892 21.2253 11.0896 20.615C11.0905 19.4608 11.093 18.3066 11.0961 17.1525C11.0996 15.8378 11.1012 14.5232 11.1028 13.2086C11.106 10.5057 11.1116 7.80284 11.1182 5.09998Z" fill="#FEFEFE"/>
<path d="M41.1952 10.3937C43.4905 12.121 45.0709 14.3895 45.4665 17.25C45.4779 17.3998 45.486 17.5498 45.492 17.7C45.4973 17.8082 45.5025 17.9165 45.5079 18.0281C45.5334 19.0171 45.406 19.9373 45.186 20.9C45.1611 21.0099 45.1363 21.1199 45.1107 21.2332C44.4622 23.6285 42.6416 25.6983 40.4924 26.9324C40.392 26.9877 40.2915 27.043 40.188 27.1C40.117 27.1398 40.046 27.1796 39.9728 27.2207C38.7379 27.87 37.3732 28.235 35.9749 28.2227C35.8862 28.2227 35.7975 28.2227 35.7061 28.2228C35.4169 28.2226 35.1278 28.2211 34.8386 28.2195C34.6365 28.2191 34.4344 28.2188 34.2324 28.2186C33.7035 28.2179 33.1746 28.2159 32.6457 28.2137C32.0096 28.2113 31.3734 28.2104 30.7373 28.2092C29.7735 28.2073 28.8098 28.2034 27.846 28.2C27.846 26.121 27.846 24.042 27.846 21.9C28.4465 21.8962 29.047 21.8925 29.6657 21.8886C30.0473 21.8856 30.4289 21.8825 30.8106 21.8791C31.4156 21.8736 32.0206 21.8685 32.6257 21.8653C33.1138 21.8627 33.6018 21.8587 34.0899 21.8536C34.2756 21.852 34.4614 21.8508 34.6471 21.8502C34.9083 21.8492 35.1694 21.8464 35.4306 21.8432C35.5444 21.8434 35.5444 21.8434 35.6605 21.8436C36.6435 21.8266 37.455 21.4844 38.148 20.8C38.8842 19.8253 39.0833 18.9037 38.964 17.7C38.714 16.7847 38.2592 16.0597 37.4595 15.525C36.6251 15.0555 35.7381 14.8764 34.782 15C33.8399 15.2503 33.0265 15.7282 32.481 16.5351C32.149 17.1436 32.0129 17.721 31.824 18.4C29.7371 18.4 27.6502 18.4 25.5 18.4C25.5 16.9876 25.5 16.9876 25.6594 16.325C25.6773 16.2491 25.6952 16.1732 25.7137 16.095C26.3419 13.6051 27.9931 11.466 30.192 10.1C33.6231 8.08474 37.8981 8.12099 41.1952 10.3937Z" fill="#FDFDFD"/>
<path d="M27.8438 28.9C33.4986 28.9 39.1535 28.9 44.9797 28.9C44.9797 30.979 44.9797 33.058 44.9797 35.2C39.3249 35.2 33.67 35.2 27.8438 35.2C27.8438 33.121 27.8438 31.042 27.8438 28.9Z" fill="#FCFCFC"/>
<path d="M3.0625 12.2C5.14942 12.2 7.23634 12.2 9.3865 12.2C9.3865 14.246 9.3865 16.292 9.3865 18.4C7.29958 18.4 5.21266 18.4 3.0625 18.4C3.0625 16.354 3.0625 14.308 3.0625 12.2Z" fill="#FF3495"/>
</g>
<defs>
<clipPath id="clip0_3383_14953">
<rect width="51" height="40" fill="white"/>
</clipPath>
</defs>
</svg>
