<svg width="132" height="33" viewBox="0 0 132 33" fill="none" xmlns="http://www.w3.org/2000/svg">
<path d="M104.754 28.1504C114.335 23.025 116.635 16.5312 113.683 14.7148C109.328 12.2344 97.3864 16.6704 98.74 28.8081C98.1483 29.1687 96.9709 29.8169 96.9709 29.8169L97.766 32.272C97.766 32.272 99.4309 31.2582 99.8811 30.9437C101.287 32.0963 102.011 32.7299 104.183 32.7732C108.797 32.8707 112.779 27.6682 112.779 27.6682L111.606 25.8376C111.607 25.8376 106.536 30.7857 104.754 28.1504ZM106.027 20.7123C107.397 18.2415 109.63 16.3111 110.712 17.0824C111.799 17.8483 109.6 21.7563 104.436 25.9139C104.229 25.5488 104.648 23.1907 106.027 20.7123ZM15.3989 31.6913C13.0936 29.2492 15.271 20.9907 15.7212 19.2118C15.7634 19.0457 15.6397 18.8847 15.471 18.8847C15.3729 18.8847 15.2838 18.9399 15.2404 19.0289C14.2691 21.0199 9.00531 32.7702 4.34454 32.7702C4.25813 32.7702 4.1668 32.7702 4.0785 32.7637C-0.424532 32.336 0.16528 26.0129 1.56491 22.182H8.82418C8.23248 23.837 8.02795 24.8791 8.04833 25.4214C8.06305 25.8146 8.38568 26.0148 8.69776 25.8483C9.44871 25.449 10.6883 23.7975 11.7665 21.8943C13.7321 18.4229 16.2555 13.1963 20.6129 0H28.5846C26.2216 7.35104 24.3001 13.9998 23.2518 21.6032C23.1993 21.9826 23.628 22.3001 23.9684 21.9753C26.2427 19.8013 34.5299 1.58289 35.0507 0H43.0311C43.0311 0 35.1182 22.2748 35.7812 25.9818C35.8714 26.4854 36.3839 26.6196 36.8009 26.1356C37.2858 25.5729 38.0405 24.5738 38.4854 24.0487L39.719 25.3006C37.4492 28.1481 33.7631 33.2995 30.0809 32.68C29.5099 32.5838 28.9578 32.2539 28.545 31.8259C24.7129 28.4407 30.0597 17.1345 30.9967 14.4785C31.2043 13.8909 31.408 13.3532 31.5378 13.0183C31.6043 12.8469 31.4805 12.6616 31.299 12.6601C31.1975 12.6589 31.1058 12.7165 31.0631 12.8101C30.8786 13.2097 30.3812 14.2863 30.2122 14.6484C27.839 19.6172 22.3933 32.769 17.9201 32.769C17.2189 32.7702 16.1702 32.5036 15.3989 31.6913ZM92.5324 5.58405C88.9912 5.63123 87.1852 7.50753 87.1852 7.50753L87.2776 9.71216C87.2776 9.71216 89.5327 7.42814 92.0977 8.39123C93.8414 9.04594 95.5724 11.3016 94.3871 16.298C93.3218 13.5212 89.1935 12.9079 85.8743 16.5358C83.2244 19.432 79.6444 29.0954 84.9297 32.0702C91.5003 35.7687 97.266 24.9374 98.5958 17.5503C99.4343 12.8948 99.9335 5.48548 92.5324 5.58405ZM89.7769 27.9774C89.069 28.4898 87.818 28.7521 87.578 26.4873C87.2327 23.2322 89.449 19.3066 90.1369 18.3941C91.3112 16.8361 92.9501 16.7184 92.9837 19.0791C93.0226 21.7962 91.5448 26.6975 89.7769 27.9774ZM69.9474 3.75453C66.1187 2.39831 52.5553 6.76767 48.1145 22.0083C47.57 22.1613 44.9617 22.8432 44.9617 22.8432L43.8262 25.9641L47.8602 24.7107C47.8602 24.7107 47.4183 32.542 54.1908 32.7702C59.516 32.5696 62.3677 24.6628 60.7089 19.5812C60.3719 19.7492 56.0273 21.6213 56.0273 21.6213C56.0273 21.6213 56.896 26.7592 55.0002 27.9509C54.7074 28.135 54.3228 28.1105 54.0756 27.7611C53.5251 26.9825 53.1734 24.9658 53.7904 22.2813C63.5421 17.1288 70.1976 8.0606 70.6036 4.94007C70.7082 4.13693 70.0832 3.80248 69.9474 3.75453ZM57.8232 17.2477C56.0138 18.6538 54.6119 19.3549 54.6119 19.3549C54.6119 19.3549 55.1123 18.1601 55.5149 17.4701C56.5568 15.6851 61.6021 8.80469 65.8096 7.52786C65.973 7.47839 66.0938 7.59882 66.0893 7.76797C66.0496 9.26878 60.7089 15.0047 57.8232 17.2477ZM78.1931 28.7475C78.8342 28.3406 79.7093 27.636 79.7093 27.636L80.2501 29.3156C79.9289 29.6612 77.3221 31.7611 75.7036 32.5293C73.9557 33.3585 72.3451 32.2654 72.1251 30.9292C71.8735 29.3988 72.6516 27.3967 72.6516 27.3967C72.6516 27.3967 69.8636 30.6239 67.0251 32.1956C66.2368 32.6325 65.6349 32.8078 65.1534 32.7959C63.2417 32.7487 62.6425 30.8674 62.8515 29.8606C63.101 28.6593 65.6878 20.5642 66.0142 19.2341C66.0466 19.1025 65.918 18.9479 65.744 18.9967C64.9602 19.2172 62.9044 20.5784 62.9044 20.5784V18.3293C62.9044 18.3293 68.5576 14.4282 70.0508 13.9975C71.4308 13.5998 72.6108 14.4014 72.2636 15.9962C72.1048 17.1023 68.738 26.4593 68.5278 27.5915C68.4859 27.8174 68.7176 27.8351 68.7817 27.8151C69.8791 27.4745 71.9029 25.7302 73.4516 23.244C74.8987 20.9213 75.8904 17.9722 77.0908 14.3331H82.2471C82.2471 14.3331 78.3489 26.4835 77.9093 28.4982C77.8599 28.718 78.0821 28.8181 78.1931 28.7475ZM119.455 32.7851C116.696 32.7675 115.417 30.4371 115.102 29.6853C111.952 21.7359 121.185 14.3477 121.185 14.3477H126.534C126.534 14.3477 118.392 20.9685 119.517 26.8348C120.277 29.6834 122.705 28.9351 124.291 26.6914C126.217 23.9663 127.954 18.5889 126.646 18.4432C125.43 18.3078 123.815 20.9788 123.815 20.9788L123.807 20.9708L122.675 19.2176C123.555 18.0604 126.056 15.0373 128.839 14.0915C129.259 13.9588 131.785 13.2857 131.785 17.0732C131.785 21.1257 127.342 32.8358 119.455 32.7851ZM44.302 30.5974C44.302 31.7998 43.3435 32.7698 42.1643 32.7698C40.9899 32.7698 40.0273 31.7998 40.0273 30.5974C40.0273 29.3953 40.9899 28.4234 42.1643 28.4234C43.3432 28.4234 44.302 29.3953 44.302 30.5974Z" fill="white"/>
</svg>
