<svg width="71" height="32" viewBox="0 0 71 32" fill="none" xmlns="http://www.w3.org/2000/svg">
<path d="M50.0878 2.84243V3.99433H59.943C60.7648 3.90193 61.5905 4.13127 62.2468 4.63428C62.7499 5.29067 62.9792 6.11631 62.8868 6.93809V16.6525C62.9792 17.4743 62.7499 18.2999 62.2468 18.9563C61.5836 19.4455 60.7635 19.6733 59.943 19.5963H55.2074C54.4395 19.5963 53.2876 19.5963 52.9036 18.7003C52.7786 18.2953 52.7724 17.863 52.8859 17.4546C52.9993 17.0462 53.2276 16.679 53.5436 16.3965L59.943 7.94921H50.0878L46.0946 13.2096C45.4202 13.9147 44.9742 14.8068 44.8147 15.7694C44.8955 16.7557 45.354 17.6727 46.0946 18.3292L47.1185 19.6091C47.9487 20.8884 49.0389 21.9786 50.3182 22.8088C51.9125 23.3958 53.619 23.6146 55.3098 23.4487H59.5335C61.9653 23.4487 65.677 23.4487 68.1088 21.0169C70.5406 18.5851 70.5406 15.0014 70.5406 13.7215V9.75386C70.5406 8.47396 70.5406 4.89026 68.1088 2.45846C65.677 0.0266586 61.9909 0.0138597 59.5591 0.0138597H52.7756C51.995 -0.0608388 51.2157 0.168381 50.5998 0.653807C50.2014 1.3106 50.0221 2.07706 50.0878 2.84243ZM38.3128 7.83402H48.168L36.393 23.4487H26.5378L38.3128 7.83402ZM0.683914 8.60195C0.430891 8.87446 0.240281 9.19883 0.125343 9.55249C0.010405 9.90614 -0.0260997 10.2806 0.0183685 10.6498V11.8017H3.98604V31.2561H11.7934V11.8017H19.4728C20.2407 11.8017 21.3926 11.8017 21.7766 12.6976C21.9016 13.1026 21.9077 13.535 21.7943 13.9433C21.6809 14.3517 21.4526 14.7189 21.1366 15.0014L14.7372 23.4487H24.5923L28.56 18.2012C29.2344 17.496 29.6804 16.6039 29.8399 15.6414C29.7591 14.6551 29.3006 13.738 28.56 13.0816L27.5361 11.8017C26.7059 10.5224 25.6157 9.43217 24.3364 8.60195C22.7421 8.0149 21.0356 7.79612 19.3448 7.96201H2.85973C2.47345 7.85532 2.06505 7.85871 1.68059 7.97179C1.29613 8.08486 0.950925 8.30313 0.683914 8.60195Z" fill="#FF0F00"/>
</svg>
