<svg width="1433" height="912" viewBox="0 0 1433 912" fill="none" xmlns="http://www.w3.org/2000/svg">
<mask id="mask0_2825_3687" style="mask-type:alpha" maskUnits="userSpaceOnUse" x="0" y="0" width="1444" height="912">
<path d="M0 50C0 22.3858 22.3858 0 50 0H1393.27C1420.89 0 1443.27 22.3858 1443.27 50V862C1443.27 889.614 1420.89 912 1393.27 912H50C22.3858 912 0 889.614 0 862V50Z" fill="#545454"/>
</mask>
<g mask="url(#mask0_2825_3687)">
<path fill-rule="evenodd" clip-rule="evenodd" d="M1053.42 -57.2188L917.94 286.7L783.636 -58.041L673.271 -327.382L658.531 -312.657L767.535 -50.6824L917.828 286.984L916.644 289.99L916.368 289.884L916.553 289.389L916.344 289.875L915.526 289.561L916.327 289.913L916.11 290.416L916.053 290.36L915.094 290.733L573.007 140.205L431.016 81.1498L476.96 -28.7366H456.124L413.821 73.9985L168.671 -27.9617H130.858L407.527 89.2858L348.087 233.638L214.248 582.7L78.9549 233.828L-39.297 -28.7382H-43.1555L62.8428 241.162L214.239 582.724L214.199 582.828L214.242 582.731L214.387 583.059L214.252 582.708L364.679 239.812L424.591 96.5172L566.815 156.789L915.04 290.755L555.288 430.807L214.875 583.281L214.77 583.235L214.443 582.442L214.717 583.211L-127.345 431.755L-396.483 329.338L-399.215 332.062L-133.575 448.325L214.727 583.239L214.76 583.333L214.201 583.583L214.77 583.361L340.11 935.552L486.122 1293.13L486.519 1292.76L356.937 927.95L214.815 583.344L214.905 583.308L215.155 583.405L214.921 583.302L563.391 447.399L915.778 291.039L915.832 291.059L767.932 633.469L711.045 783.701L563.574 719.706L215.395 583.211L557.277 736.251L704.775 800.26L631.155 994.683L631.701 994.68L714.072 804.295L1036 944L1080.44 944L721.095 788.062L785.428 639.37L915.966 290.955L916.439 290.746L916.152 290.459L916.353 289.924L916.623 290.043L916.438 290.512L916.646 290.053L919.48 291.297L1050.45 638.322L1203.22 993.068L1203.61 992.686L1067.13 630.401L919.738 291.411L1258.47 440.21L1526.96 552.624L1526.97 531.788L1264.65 423.622L919.616 291.131L919.208 290.192L919.249 290.175L919.607 290.98L919.287 290.16L1267.15 152.16L1619.28 -6.54156L1618.9 -6.92517L1258.95 135.616L919.277 290.134L918.042 286.963L1070.81 -51.0251L1213.63 -409.892L1213.09 -409.898L1053.42 -57.2188ZM214.856 583.29L214.78 583.26L214.802 583.314L214.856 583.29ZM915.832 291.058L915.783 291.037L915.855 291.005L915.832 291.058ZM918.759 290.37L919.075 290.226L918.106 287.658L919.198 290.17L919.238 290.152L917.93 287.212L916.67 290L919.383 291.042L919.081 290.242L918.759 290.37ZM86.9637 934.602L214.267 583.213L69.4045 928.892L-63.4272 1291.58L-62.8816 1291.57L86.9637 934.602ZM214.045 583.03L-126.151 737.779L-486.096 880.313L-486.484 879.93L-134.349 721.234L214.045 583.03Z" fill="black" fill-opacity="0.03"/>
</g>
</svg>
