<svg width="211" height="194" viewBox="0 0 211 194" fill="none" xmlns="http://www.w3.org/2000/svg">
<path d="M104.824 50.5775C118.986 50.5775 130.113 39.1133 130.113 25.2887C130.113 11.4642 118.648 0 104.824 0C90.9994 0 79.5352 11.4642 79.5352 25.2887C79.5352 39.1133 90.6622 50.5775 104.824 50.5775ZM104.824 14.8361C110.556 14.8361 114.939 19.5566 114.939 24.9516C114.939 30.3465 110.219 35.0671 104.824 35.0671C99.429 35.0671 94.7084 30.3465 94.7084 24.9516C94.7084 19.5566 99.0918 14.8361 104.824 14.8361Z" fill="black" fill-opacity="0.05"/>
<path d="M76.8364 84.6188C83.9173 76.8635 94.37 72.143 105.16 72.143C115.95 72.143 126.402 76.5264 133.483 84.6188C134.832 86.3047 136.855 86.979 139.215 86.979C140.901 86.979 142.924 86.3047 144.273 84.9559C147.308 82.2585 147.645 77.2007 144.61 74.1661C134.495 63.3762 119.996 56.9697 105.16 56.9697C90.3238 56.9697 75.8249 63.3762 65.7094 74.1661C63.0119 77.2007 63.0119 81.9213 66.0466 84.9559C69.0812 87.9906 73.8018 87.6534 76.8364 84.6188Z" fill="black" fill-opacity="0.05"/>
<path d="M42.4444 157.465C56.6061 157.465 67.7332 146.001 67.7332 132.177C67.7332 118.015 56.2689 106.888 42.4444 106.888C28.6199 106.888 17.1557 118.352 17.1557 132.177C16.8185 146.338 28.2827 157.465 42.4444 157.465ZM42.4444 121.724C48.1765 121.724 52.5599 126.445 52.5599 131.84C52.5599 137.572 47.8394 141.955 42.4444 141.955C37.0495 141.955 32.3289 137.234 32.3289 131.84C31.9918 126.445 36.7123 121.724 42.4444 121.724Z" fill="black" fill-opacity="0.05"/>
<path d="M41.4333 163.176C26.5972 163.176 12.0983 169.582 1.98281 180.372C-0.714654 183.407 -0.714654 188.127 2.32 191.162C5.35465 194.197 10.0752 193.859 13.1099 190.825C20.1907 183.07 30.6434 178.349 41.4333 178.349C52.2231 178.349 62.6758 182.732 69.7567 190.825C71.1054 192.511 73.1285 193.185 75.4888 193.185C77.1747 193.185 79.1978 192.511 80.5465 191.162C83.5812 188.465 83.9183 183.407 80.8837 180.372C70.7682 169.582 56.2693 163.176 41.4333 163.176Z" fill="black" fill-opacity="0.05"/>
<path d="M167.203 157.465C181.365 157.465 192.492 146.001 192.492 132.177C192.492 118.015 181.027 106.888 167.203 106.888C153.041 106.888 141.914 118.352 141.914 132.177C141.914 146.338 153.378 157.465 167.203 157.465ZM167.203 121.724C172.935 121.724 177.318 126.445 177.318 131.84C177.318 137.572 172.598 141.955 167.203 141.955C161.471 141.955 157.087 137.234 157.087 131.84C157.087 126.445 161.808 121.724 167.203 121.724Z" fill="black" fill-opacity="0.05"/>
<path d="M208.677 180.734C198.561 169.944 184.062 163.538 169.226 163.538C154.39 163.538 139.891 169.944 129.776 180.734C127.078 183.769 127.078 188.489 130.113 191.524C133.148 194.222 137.868 194.222 140.903 191.187C147.984 183.432 158.436 178.711 169.226 178.711C180.016 178.711 190.469 183.094 197.55 191.187C198.898 192.873 200.921 193.547 203.282 193.547C204.968 193.547 206.991 192.873 208.339 191.524C211.037 188.489 211.374 183.769 208.677 180.734Z" fill="black" fill-opacity="0.05"/>
<path d="M129.438 126.442C131.124 122.733 129.438 118.013 125.729 116.327L112.579 110.257V96.4329C112.579 92.3867 109.207 88.6777 105.161 88.6777C101.115 88.6777 97.4061 92.0496 97.4061 96.4329V109.92L83.9188 116.327C80.2097 118.013 78.5238 122.733 80.2097 126.442C81.8957 130.151 86.6162 131.837 90.3252 130.151L104.487 123.408L119.66 130.151C120.672 130.488 121.683 130.826 122.695 130.826C125.392 130.826 128.09 129.14 129.438 126.442Z" fill="black" fill-opacity="0.05"/>
</svg>
