<svg width="1998" height="366" viewBox="0 0 1998 366" fill="none" xmlns="http://www.w3.org/2000/svg">
<path d="M5 249.047L233.941 123.738C239.519 120.685 246.256 120.625 251.888 123.579L689.846 353.271C695.478 356.225 702.215 356.165 707.793 353.112L883.954 256.692C895.158 250.559 895.015 234.418 883.704 228.485V228.485C872.393 222.553 872.249 206.411 883.453 200.279L897.302 192.699C902.88 189.646 909.617 189.586 915.249 192.54L1131.64 306.031C1137.28 308.985 1144.01 308.925 1149.59 305.871L1249.48 251.197C1262.79 243.916 1262.61 224.748 1249.18 217.704L1130.45 155.432C1117.02 148.387 1116.85 129.22 1130.15 121.939L1329.39 12.8882C1334.96 9.83478 1341.7 9.77491 1347.33 12.7287L1993 351.357" stroke="url(#paint0_linear_2842_6168)" stroke-opacity="0.15" stroke-width="20"/>
<defs>
<linearGradient id="paint0_linear_2842_6168" x1="5" y1="183" x2="1993" y2="183" gradientUnits="userSpaceOnUse">
<stop stop-color="#E9E9E9"/>
<stop offset="1" stop-color="#FF3434"/>
</linearGradient>
</defs>
</svg>
