<svg width="123" height="135" viewBox="0 0 123 135" fill="none" xmlns="http://www.w3.org/2000/svg">
<path d="M122.838 38.7624C122.838 26.5099 113.029 16.7079 100.767 16.7079C94.9708 16.7079 89.6203 18.9356 85.6075 22.7228C79.5882 20.0495 73.346 18.2673 66.435 17.8218V10.2475H72.6772C75.3524 10.2475 77.8047 8.0198 77.8047 5.12376C77.8047 2.22772 75.5754 0 72.6772 0H50.1606C47.4854 0 45.0331 2.22772 45.0331 5.12376C45.0331 8.0198 47.2625 10.2475 50.1606 10.2475H56.4029V18.0446C49.7148 18.7129 43.2496 20.2723 37.2303 22.9455C33.2175 19.1584 27.867 16.9307 22.0707 16.9307C9.80919 16.9307 0 26.7327 0 38.9851C0 45 2.4523 50.7921 6.91102 54.802C4.23579 61.4851 2.67523 68.8366 2.67523 76.4109C2.67523 108.713 28.9817 135 61.3075 135C93.6332 135 119.94 108.713 119.94 76.4109C119.94 68.8366 118.379 61.4851 115.704 54.802C120.386 50.5693 122.838 44.7772 122.838 38.7624ZM100.767 26.7327C107.455 26.7327 112.806 32.0792 112.806 38.7624C112.806 40.9901 112.137 43.2178 111.022 45C106.786 38.3168 101.436 32.7475 94.9708 28.2921C96.7543 27.1782 98.7607 26.7327 100.767 26.7327ZM10.2551 38.7624C10.2551 32.0792 15.6055 26.7327 22.2936 26.7327C24.3 26.7327 26.3065 27.1782 28.09 28.2921C21.6248 32.7475 16.2743 38.5396 12.0386 45C10.9239 42.995 10.2551 40.9901 10.2551 38.7624ZM61.5304 124.975C34.778 124.975 12.9303 103.144 12.9303 76.4109C12.9303 49.6782 34.778 27.8465 61.5304 27.8465C88.2827 27.8465 110.13 49.6782 110.13 76.4109C110.13 103.144 88.2827 124.975 61.5304 124.975Z" fill="black" fill-opacity="0.05"/>
<path d="M87.1671 74.1633H66.341V53.7076C66.341 51.0682 64.0525 48.6487 61.0773 48.6487C58.331 48.6487 55.8136 50.8482 55.8136 53.7076V74.1633H55.127C52.3807 74.1633 49.8633 76.3629 49.8633 79.2223C49.8633 82.0817 52.1519 84.2812 55.127 84.2812H55.8136V84.9411C55.8136 87.5805 58.1022 90 61.0773 90C63.8236 90 66.341 87.8005 66.341 84.9411V84.2812H87.1671C89.9134 84.2812 92.4308 82.0817 92.4308 79.2223C92.4308 76.3629 89.9134 74.1633 87.1671 74.1633Z" fill="black" fill-opacity="0.05"/>
</svg>
