<svg width="20" height="12" viewBox="0 0 20 12" fill="none" xmlns="http://www.w3.org/2000/svg">
<path d="M9.93201 1.56006C6.57601 1.56006 3.642 3.33906 2 6.00006C3.642 8.66106 6.57601 10.4401 9.93201 10.4401C13.288 10.4401 16.221 8.66106 17.864 6.00006C16.221 3.33906 13.288 1.56006 9.93201 1.56006Z" stroke="#999999" stroke-width="2" stroke-miterlimit="10"/>
<path d="M9.93091 1.56006C7.97291 1.56006 6.37891 3.15407 6.37891 5.11307C6.37891 7.07207 7.97291 8.66608 9.93091 8.66608C11.8889 8.66608 13.4829 7.07207 13.4829 5.11307C13.4829 3.15407 11.8889 1.56006 9.93091 1.56006ZM10.8189 6.00107C10.0839 6.00107 9.48691 5.40407 9.48691 4.66907C9.48691 3.93507 10.0839 3.33707 10.8189 3.33707C11.5529 3.33707 12.1509 3.93507 12.1509 4.66907C12.1509 5.40407 11.5529 6.00107 10.8189 6.00107Z" fill="#999999"/>
</svg>
