<svg width="112" height="146" viewBox="0 0 112 146" fill="none" xmlns="http://www.w3.org/2000/svg">
<path fill-rule="evenodd" clip-rule="evenodd" d="M81.1157 37.1368C81.1157 51.0079 69.871 62.2526 56 62.2526C42.129 62.2526 30.8843 51.0079 30.8843 37.1368C30.8843 23.2658 42.129 12.0211 56 12.0211C69.871 12.0211 81.1157 23.2658 81.1157 37.1368ZM93.1368 37.1368C93.1368 57.6469 76.5101 74.2737 56 74.2737C35.4899 74.2737 18.8632 57.6469 18.8632 37.1368C18.8632 16.6267 35.4899 0 56 0C76.5101 0 93.1368 16.6267 93.1368 37.1368ZM39.1339 97.9688C44.4811 95.7306 50.2122 94.5786 56 94.5786C61.7878 94.5786 67.5189 95.7306 72.8661 97.9688C78.2133 100.207 83.0719 103.488 87.1645 107.623C91.257 111.759 94.5034 116.669 96.7183 122.072C98.9332 127.476 100.073 133.267 100.073 139.116H100.211C100.211 142.371 102.85 145.011 106.105 145.011C109.361 145.011 112 142.371 112 139.116C112 131.684 110.552 124.326 107.737 117.46C104.923 110.594 100.798 104.356 95.598 99.101C90.3979 93.8462 84.2245 89.6778 77.4303 86.8339C70.636 83.99 63.354 82.5263 56 82.5263C48.646 82.5263 41.364 83.99 34.5697 86.8339C27.7755 89.6778 21.6021 93.8462 16.402 99.101C11.2019 104.356 7.07701 110.594 4.26274 117.46C1.44848 124.326 0 131.684 0 139.116C0 142.371 2.63916 145.011 5.89474 145.011C9.15031 145.011 11.7895 142.371 11.7895 139.116H11.9268C11.9268 133.267 13.0668 127.476 15.2817 122.072C17.4965 116.669 20.743 111.759 24.8355 107.623C28.9281 103.488 33.7867 100.207 39.1339 97.9688Z" fill="black" fill-opacity="0.05"/>
</svg>
