<svg width="103" height="79" viewBox="0 0 103 79" fill="none" xmlns="http://www.w3.org/2000/svg">
<path d="M1.56076 1.56119V6.43656e-06H0V1.56119H1.56076ZM44.37 1.56119H45.9308V0H44.37V1.56119ZM1.56077 44.382H6.62981e-06V45.9432H1.56077V44.382ZM29.6103 44.382L31.171 44.3804L31.1694 42.8208H29.6103V44.382ZM19.3959 66.3117L18.2815 65.2187L17.1778 66.3444L18.3142 67.4367L19.3959 66.3117ZM29.9836 76.4926L28.902 77.6183L30.016 78.6897L31.098 77.5863L29.9836 76.4926ZM44.3679 44.382V42.8208H42.8057L42.8071 44.3834L44.3679 44.382ZM44.3679 44.382L44.37 45.9432H45.9308V44.382H44.3679ZM1.56076 3.12237H44.37V0L1.56076 6.43656e-06V3.12237ZM3.12153 44.382V1.56119H0L6.62981e-06 44.382H3.12153ZM29.6103 42.8208H1.56077V45.9432L29.6103 45.9432V42.8208ZM29.2283 55.8804C30.6006 52.785 31.1765 49.4173 31.171 44.3804L28.0495 44.3837C28.0547 49.1713 27.507 52.0607 26.3747 54.6146L29.2283 55.8804ZM20.5102 67.4047C25.2477 62.5721 27.7848 59.1361 29.2283 55.8804L26.3747 54.6146C25.155 57.3658 22.9207 60.4865 18.2815 65.2187L20.5102 67.4047ZM31.0653 75.3676L20.4775 65.186L18.3142 67.4367L28.902 77.6183L31.0653 75.3676ZM39.8871 60.4907C37.6252 65.5924 33.9775 70.1894 28.8693 75.3997L31.098 77.5863C36.306 72.2739 40.2555 67.3615 42.7406 61.7565L39.8871 60.4907ZM42.8071 44.3834C42.8126 50.3112 42.1354 55.4195 39.8871 60.4907L42.7406 61.7565C45.2288 56.1442 45.9365 50.5593 45.9308 44.382L42.8071 44.3834ZM42.8093 1.56119L42.8071 44.3834L45.9308 44.382V1.56119H42.8093Z" fill="#FF0000"/>
<path d="M58.6311 1.56119V6.43656e-06H57.0703V1.56119H58.6311ZM101.441 1.56119H103.001V0H101.441V1.56119ZM58.6311 44.382H57.0703V45.9432H58.6311V44.382ZM86.6804 44.382L88.2416 44.3804L88.2396 42.8208H86.6804V44.382ZM76.4662 66.3117L75.352 65.2187L74.2482 66.3444L75.3847 67.4367L76.4662 66.3117ZM87.054 76.4926L85.9725 77.6183L87.0861 78.6897L88.1683 77.5863L87.054 76.4926ZM101.438 44.382V42.8208H99.8762L99.8775 44.3834L101.438 44.382ZM101.438 44.382L101.441 45.9432H103.001V44.382H101.438ZM58.6311 3.12237H101.441V0L58.6311 6.43656e-06V3.12237ZM60.1918 44.382V1.56119H57.0703V44.382H60.1918ZM86.6804 42.8208H58.6311V45.9432L86.6804 45.9432V42.8208ZM86.2983 55.8804C87.671 52.785 88.2468 49.4173 88.2416 44.3804L85.1199 44.3837C85.1252 49.1713 84.5775 52.0607 83.4449 54.6146L86.2983 55.8804ZM77.5805 67.4047C82.3182 62.5721 84.8549 59.1361 86.2983 55.8804L83.4449 54.6146C82.2253 57.3658 79.9909 60.4865 75.352 65.2187L77.5805 67.4047ZM88.1356 75.3676L77.5478 65.186L75.3847 67.4367L85.9725 77.6183L88.1356 75.3676ZM96.9574 60.4907C94.6955 65.5924 91.0478 70.1894 85.9397 75.3997L88.1683 77.5863C93.3764 72.2739 97.3258 67.3615 99.8108 61.7565L96.9574 60.4907ZM99.8775 44.3834C99.8827 50.3112 99.2055 55.4195 96.9574 60.4907L99.8108 61.7565C102.299 56.1442 103.006 50.5593 103.001 44.382L99.8775 44.3834ZM99.8795 1.56119L99.8775 44.3834L103.001 44.382V1.56119H99.8795Z" fill="#FF0000"/>
</svg>
