<svg width="51" height="55" viewBox="0 0 51 55" fill="none" xmlns="http://www.w3.org/2000/svg">
<path d="M29.625 50.875L25.375 53L21.125 50.875V43.4375H29.625V50.875Z" stroke="#FF3434" stroke-width="3" stroke-linecap="round" stroke-linejoin="round"/>
<path d="M38.125 25.375C38.125 18.3338 32.4162 12.625 25.375 12.625C18.3338 12.625 12.625 18.3338 12.625 25.375C12.625 29.1469 14.4196 32.3673 16.8708 34.8599C21.125 39.1875 21.125 43.3493 21.125 43.3493H29.625C29.625 43.3493 29.625 39.1875 33.8761 34.8642C36.3283 32.3694 38.125 29.149 38.125 25.375Z" stroke="#FF3434" stroke-width="3" stroke-linecap="round" stroke-linejoin="round"/>
<path d="M25.375 42.3749V27.4999" stroke="#FF3434" stroke-width="3" stroke-linecap="round" stroke-linejoin="round"/>
<path d="M25.375 27.5L21.6562 23.7812" stroke="#FF3434" stroke-width="3" stroke-linecap="round" stroke-linejoin="round"/>
<path d="M25.375 27.5L29.0938 23.7812" stroke="#FF3434" stroke-width="3" stroke-linecap="round" stroke-linejoin="round"/>
<path d="M25.375 7.3125V2" stroke="#FF3434" stroke-width="3" stroke-linecap="round" stroke-linejoin="round"/>
<path d="M43.4375 25.375H48.75" stroke="#FF3434" stroke-width="3" stroke-linecap="round" stroke-linejoin="round"/>
<path d="M2 25.375H7.3125" stroke="#FF3434" stroke-width="3" stroke-linecap="round" stroke-linejoin="round"/>
<path d="M8.86719 8.86914L12.6231 12.6251" stroke="#FF3434" stroke-width="3" stroke-linecap="round" stroke-linejoin="round"/>
<path d="M42.3731 9.4375L38.6172 13.1934" stroke="#FF3434" stroke-width="3" stroke-linecap="round" stroke-linejoin="round"/>
</svg>
