<svg width="41" height="41" viewBox="0 0 41 41" fill="none" xmlns="http://www.w3.org/2000/svg">
<path d="M2.1777 3.97986C4.43217 0.188477 11.5029 0.0140381 17.0765 0.0140381C22.65 0.0140381 27.6877 0.0527519 31.1176 2.90802C34.1187 5.40637 34.1187 12.1259 34.1187 20.4863C34.1187 28.8467 34.1187 35.0633 31.4391 37.9573C28.1751 41.4824 23.2932 40.9584 17.0765 40.9584C10.8597 40.9584 6.25427 40.9584 3.03529 38.2788C0.034076 35.7805 0.0341844 28.4179 0.0341233 20.4863C0.0340622 12.5546 -0.254991 8.07096 2.1777 3.97986Z" fill="#0077FF"/>
<path d="M9.03708 3.97986C11.2915 0.188477 18.3623 0.0140381 23.9358 0.0140381C29.5094 0.0140381 34.547 0.0527519 37.977 2.90802C40.9781 5.40637 40.9781 12.1259 40.9781 20.4863C40.9781 28.8467 40.9781 35.0633 38.2985 37.9573C35.0345 41.4824 30.1525 40.9584 23.9358 40.9584C17.7191 40.9584 13.1136 40.9584 9.89467 38.2788C6.89345 35.7805 6.89356 28.4179 6.8935 20.4863C6.89344 12.5546 6.60438 8.07096 9.03708 3.97986Z" fill="#FF2B42"/>
<path d="M31.596 18.5459L20.6999 12.3195C19.1278 11.4213 17.1719 12.5563 17.1719 14.3669V26.8196C17.1719 28.6302 19.1278 29.7653 20.6999 28.867L31.596 22.6406C33.1801 21.7354 33.1801 19.4511 31.596 18.5459Z" fill="white"/>
</svg>
