<svg width="24" height="28" viewBox="0 0 24 28" fill="none" xmlns="http://www.w3.org/2000/svg">
<path d="M3.05502 3.63597C3.56498 2.77836 4.71755 2.19563 6.46528 1.86626C8.16909 1.54517 10.1618 1.51416 12.0034 1.51416C13.8534 1.51416 15.5213 1.52259 17.0023 1.75025C18.4711 1.97603 19.6681 2.40627 20.6069 3.18783C21.2749 3.74394 21.739 4.90555 21.9829 6.88064C22.2207 8.8056 22.2224 11.218 22.2224 13.9911C22.2224 16.7626 22.221 19.0979 22.0082 20.9787C21.7924 22.8863 21.3776 24.1077 20.7246 24.8129C19.8632 25.7432 18.7763 26.1726 17.3321 26.3585C16.196 26.5048 14.9391 26.4922 13.474 26.4775C13.006 26.4729 12.5167 26.468 12.0034 26.468C9.93528 26.468 8.23281 26.4658 6.78393 26.2576C5.35495 26.0523 4.26698 25.6573 3.39984 24.9354C3.09028 24.6777 2.80111 24.2448 2.55811 23.5738C2.31632 22.906 2.14307 22.0659 2.0243 21.0703C1.78588 19.0719 1.7844 16.6205 1.78438 13.9911C1.78437 13.4546 1.78247 12.946 1.78067 12.462C1.77354 10.5537 1.76784 9.02957 1.8855 7.6979C2.02986 6.06405 2.35536 4.8126 3.05502 3.63597Z" stroke="#FF3434" stroke-width="2"/>
<path d="M17.0462 12.7138L9.87326 8.61502C8.8384 8.02368 7.55078 8.77091 7.55078 9.96281V18.1604C7.55078 19.3523 8.8384 20.0996 9.87326 19.5082L17.0462 15.4094C18.0891 14.8135 18.0891 13.3098 17.0462 12.7138Z" stroke="#FF3434" stroke-width="2"/>
</svg>
