<svg width="92" height="112" viewBox="0 0 92 112" fill="none" xmlns="http://www.w3.org/2000/svg">
<g filter="url(#filter0_d_3149_6020)">
<path d="M46 6C26.116 6 10 22.12 10 42C10 71.3239 33.3984 74.2163 43.8919 96.6613C44.6942 98.3773 47.4368 98.4284 48.2884 96.7363C59.4692 74.5208 82 70.3924 82 42C82 22.12 65.884 6 46 6Z" fill="white"/>
</g>
<rect x="34" y="32" width="5.23927" height="21.612" fill="#FF3434"/>
<path fill-rule="evenodd" clip-rule="evenodd" d="M39.2422 37.2395H52.8183C52.8709 37.2395 52.8955 37.2473 52.901 37.2492C52.9074 37.2514 52.9107 37.2533 52.9144 37.2561C52.9247 37.264 52.9538 37.2931 52.9733 37.3506C52.9929 37.4082 52.9875 37.449 52.984 37.4615C52.9828 37.466 52.9814 37.4695 52.9777 37.4751C52.9744 37.48 52.9596 37.5012 52.9179 37.5332L40.5519 47.0147V53.6168L56.1058 41.6909C60.2033 38.5492 57.9816 32.0002 52.8183 32.0002H39.2422V37.2395Z" fill="#FF3434"/>
<path fill-rule="evenodd" clip-rule="evenodd" d="M54.5296 53.6132L49.082 47.1211H55.9214L61.369 53.6132H54.5296Z" fill="#FF3434"/>
<defs>
<filter id="filter0_d_3149_6020" x="0" y="0" width="92" height="111.977" filterUnits="userSpaceOnUse" color-interpolation-filters="sRGB">
<feFlood flood-opacity="0" result="BackgroundImageFix"/>
<feColorMatrix in="SourceAlpha" type="matrix" values="0 0 0 0 0 0 0 0 0 0 0 0 0 0 0 0 0 0 127 0" result="hardAlpha"/>
<feOffset dy="4"/>
<feGaussianBlur stdDeviation="5"/>
<feComposite in2="hardAlpha" operator="out"/>
<feColorMatrix type="matrix" values="0 0 0 0 0 0 0 0 0 0 0 0 0 0 0 0 0 0 0.25 0"/>
<feBlend mode="normal" in2="BackgroundImageFix" result="effect1_dropShadow_3149_6020"/>
<feBlend mode="normal" in="SourceGraphic" in2="effect1_dropShadow_3149_6020" result="shape"/>
</filter>
</defs>
</svg>
