<svg width="134" height="41" viewBox="0 0 134 41" fill="none" xmlns="http://www.w3.org/2000/svg">
<path d="M122.607 40.2588H121.617V35.0156H123.744C124.12 35.0156 124.448 35.0841 124.726 35.221C125.01 35.353 125.23 35.5387 125.386 35.7783C125.548 36.0178 125.628 36.2965 125.628 36.6143C125.628 36.932 125.548 37.2131 125.386 37.4576C125.23 37.6971 125.01 37.8853 124.726 38.0222C124.448 38.1542 124.12 38.2202 123.744 38.2202H122.534V37.3842H123.744C124.018 37.3842 124.233 37.3158 124.389 37.1789C124.546 37.042 124.624 36.8538 124.624 36.6143C124.624 36.3796 124.546 36.1938 124.389 36.0569C124.233 35.92 124.018 35.8516 123.744 35.8516H122.607V40.2588Z" fill="#FF3434"/>
<path d="M119.453 35.0156V38.1909C119.453 38.8802 119.253 39.418 118.852 39.8042C118.456 40.1855 117.908 40.3762 117.209 40.3762C116.515 40.3762 115.968 40.1855 115.567 39.8042C115.171 39.418 114.973 38.8802 114.973 38.1909V35.0156H115.963V38.1909C115.963 38.5918 116.073 38.912 116.293 39.1515C116.513 39.3862 116.818 39.5035 117.209 39.5035C117.605 39.5035 117.913 39.3862 118.133 39.1515C118.358 38.912 118.471 38.5918 118.471 38.1909V35.0156H119.453Z" fill="#FF3434"/>
<path d="M110.149 40.3758C109.743 40.3758 109.369 40.3074 109.027 40.1705C108.69 40.0336 108.394 39.8429 108.14 39.5985C107.885 39.3541 107.69 39.0656 107.553 38.7332C107.416 38.3959 107.348 38.0292 107.348 37.6332C107.348 37.2372 107.416 36.873 107.553 36.5406C107.69 36.2081 107.885 35.9197 108.14 35.6753C108.394 35.4308 108.69 35.2402 109.027 35.1033C109.369 34.9664 109.743 34.8979 110.149 34.8979C110.555 34.8979 110.926 34.9664 111.264 35.1033C111.606 35.2402 111.904 35.4308 112.158 35.6753C112.412 35.9197 112.608 36.2081 112.745 36.5406C112.882 36.873 112.95 37.2372 112.95 37.6332C112.95 38.0292 112.882 38.3959 112.745 38.7332C112.608 39.0656 112.412 39.3541 112.158 39.5985C111.904 39.8429 111.606 40.0336 111.264 40.1705C110.926 40.3074 110.555 40.3758 110.149 40.3758ZM110.149 39.5032C110.496 39.5032 110.802 39.4225 111.066 39.2612C111.33 39.0999 111.535 38.8799 111.682 38.6012C111.833 38.3177 111.909 37.995 111.909 37.6332C111.909 37.2715 111.833 36.9512 111.682 36.6726C111.535 36.3939 111.33 36.1739 111.066 36.0126C110.802 35.8513 110.496 35.7706 110.149 35.7706C109.807 35.7706 109.501 35.8513 109.232 36.0126C108.968 36.1739 108.761 36.3939 108.609 36.6726C108.462 36.9512 108.389 37.2715 108.389 37.6332C108.389 37.995 108.462 38.3177 108.609 38.6012C108.761 38.8799 108.968 39.0999 109.232 39.2612C109.501 39.4225 109.807 39.5032 110.149 39.5032Z" fill="#FF3434"/>
<path d="M102.51 40.2588H101.52V35.0156H103.646C104.023 35.0156 104.35 35.0841 104.629 35.221C104.912 35.353 105.132 35.5387 105.289 35.7783C105.45 36.0178 105.531 36.2965 105.531 36.6143C105.531 36.932 105.45 37.2131 105.289 37.4576C105.132 37.6971 104.912 37.8853 104.629 38.0222C104.35 38.1542 104.023 38.2202 103.646 38.2202H102.436V37.3842H103.646C103.92 37.3842 104.135 37.3158 104.291 37.1789C104.448 37.042 104.526 36.8538 104.526 36.6143C104.526 36.3796 104.448 36.1938 104.291 36.0569C104.135 35.92 103.92 35.8516 103.646 35.8516H102.51V40.2588ZM106.066 40.2588H104.856L103.001 37.8169H104.137L106.066 40.2588Z" fill="#FF3434"/>
<path d="M99.4311 40.2585H98.5145V39.5398L98.6025 39.5765C98.4363 39.8307 98.2089 40.0287 97.9205 40.1705C97.6321 40.3074 97.3069 40.3758 96.9452 40.3758C96.5639 40.3758 96.2094 40.3098 95.8819 40.1778C95.5543 40.0458 95.2683 39.8576 95.0239 39.6132C94.7795 39.3687 94.5888 39.0779 94.4519 38.7405C94.3199 38.4032 94.2539 38.0341 94.2539 37.6332C94.2539 37.2372 94.3223 36.873 94.4592 36.5406C94.601 36.2081 94.7966 35.9197 95.0459 35.6753C95.3001 35.4308 95.5983 35.2402 95.9405 35.1033C96.2827 34.9664 96.6567 34.8979 97.0625 34.8979C97.5221 34.8979 97.9425 34.9884 98.3238 35.1693C98.7051 35.3502 99.0131 35.5873 99.2478 35.8806L98.5951 36.5406C98.424 36.3059 98.2065 36.1201 97.9425 35.9833C97.6834 35.8415 97.3901 35.7706 97.0625 35.7706C96.7203 35.7706 96.4147 35.8513 96.1459 36.0126C95.8819 36.1739 95.6741 36.3939 95.5225 36.6726C95.371 36.9512 95.2952 37.2715 95.2952 37.6332C95.2952 37.9999 95.371 38.325 95.5225 38.6085C95.6741 38.8921 95.8843 39.1145 96.1532 39.2759C96.4221 39.4372 96.7301 39.5178 97.0772 39.5178C97.4194 39.5178 97.7249 39.4445 97.9938 39.2979C98.2627 39.1512 98.4583 38.941 98.5805 38.6672L98.5071 38.9532V38.1905H96.9965V37.3912H99.4311V40.2585Z" fill="#FF3434"/>
<rect y="8.14746" width="5.23927" height="21.612" fill="#FF3434"/>
<path fill-rule="evenodd" clip-rule="evenodd" d="M70.7312 13.3867C68.5611 13.3867 66.8018 15.146 66.8018 17.3162V29.7595H61.5625V17.3162C61.5625 12.2524 65.6675 8.14746 70.7312 8.14746C75.795 8.14746 79.9 12.2524 79.9 17.3162V29.7595H74.6607V17.3162C74.6607 15.146 72.9014 13.3867 70.7312 13.3867Z" fill="#FF3434"/>
<path fill-rule="evenodd" clip-rule="evenodd" d="M5.23828 13.387H18.8144C18.8669 13.387 18.8915 13.3948 18.8971 13.3967C18.9035 13.3988 18.9068 13.4008 18.9105 13.4036C18.9208 13.4115 18.9499 13.4405 18.9694 13.4981C18.9889 13.5557 18.9836 13.5964 18.9801 13.609C18.9789 13.6135 18.9775 13.617 18.9737 13.6226C18.9705 13.6275 18.9557 13.6486 18.914 13.6806L6.54798 23.1622V29.7643L22.1019 17.8384C26.1994 14.6967 23.9777 8.14771 18.8144 8.14771H5.23828V13.387Z" fill="#FF3434"/>
<path fill-rule="evenodd" clip-rule="evenodd" d="M57.6336 13.3867C55.4634 13.3867 53.7041 15.146 53.7041 17.3162V29.7595H48.4648V17.3162C48.4648 12.2524 52.5698 8.14746 57.6336 8.14746C62.6973 8.14746 66.8023 12.2524 66.8023 17.3162V29.7595H61.563V17.3162C61.563 15.146 59.8038 13.3867 57.6336 13.3867Z" fill="#FF3434"/>
<path fill-rule="evenodd" clip-rule="evenodd" d="M32.0921 8.14771C28.4751 8.14771 25.543 11.0798 25.543 14.6968V23.2106C25.543 26.8276 28.4751 29.7597 32.0921 29.7597H40.6059V24.5204H32.0921C31.3687 24.5204 30.7822 23.934 30.7822 23.2106V14.6968C30.7822 13.9734 31.3687 13.387 32.0921 13.387H34.0568C38.3971 13.387 41.9157 16.9055 41.9157 21.2459L41.9157 24.5201L41.9157 24.5204L41.9157 29.7597H47.155V21.2459C47.155 14.012 41.2907 8.14771 34.0568 8.14771H32.0921Z" fill="#FF3434"/>
<path fill-rule="evenodd" clip-rule="evenodd" d="M87.7561 8.14771C84.1392 8.14771 81.207 11.0798 81.207 14.6968V16.6615C81.207 23.8955 87.0713 29.7597 94.3052 29.7597H96.2699V24.5204H94.3052C89.9649 24.5204 86.4463 21.0019 86.4463 16.6615V14.6968C86.4463 13.9734 87.0327 13.387 87.7561 13.387H96.2699C96.9933 13.387 97.5798 13.9734 97.5798 14.6968V23.2106C97.5798 23.213 97.5798 23.2154 97.5797 23.2178V29.6287C100.569 29.0219 102.819 26.379 102.819 23.2106V14.6968C102.819 11.0798 99.8869 8.14771 96.2699 8.14771H87.7561Z" fill="#FF3434"/>
<path fill-rule="evenodd" clip-rule="evenodd" d="M119.048 8.14844H125.888L116.86 18.9075L125.966 29.7599H119.127L113.44 22.9829L107.753 29.7599H100.914L110.02 18.9075L100.992 8.14844H107.832L113.44 14.832L119.048 8.14844Z" fill="#FF3434"/>
<path fill-rule="evenodd" clip-rule="evenodd" d="M20.5296 29.7604L15.082 23.2683H21.9214L27.369 29.7604H20.5296Z" fill="#FF3434"/>
<path fill-rule="evenodd" clip-rule="evenodd" d="M131.29 4.831C132.463 4.831 133.413 3.88063 133.413 2.70829C133.413 1.53595 132.463 0.585576 131.29 0.585576C130.118 0.585576 129.168 1.53595 129.168 2.70829C129.168 3.88063 130.118 4.831 131.29 4.831ZM131.29 5.41658C132.786 5.41658 133.999 4.20404 133.999 2.70829C133.999 1.21254 132.786 0 131.29 0C129.795 0 128.582 1.21254 128.582 2.70829C128.582 4.20404 129.795 5.41658 131.29 5.41658Z" fill="#FF3434"/>
<path fill-rule="evenodd" clip-rule="evenodd" d="M131.477 1.775C131.292 1.73829 131.101 1.75713 130.927 1.82915C130.753 1.90117 130.604 2.02314 130.5 2.17962C130.395 2.33611 130.339 2.52008 130.339 2.70828C130.339 2.89648 130.395 3.08046 130.5 3.23694C130.604 3.39342 130.753 3.51539 130.927 3.58741C131.101 3.65943 131.292 3.67827 131.477 3.64156C131.661 3.60484 131.831 3.51421 131.964 3.38114L132.378 3.7952C132.163 4.01017 131.889 4.15657 131.591 4.21588C131.293 4.27519 130.984 4.24475 130.703 4.12841C130.422 4.01207 130.182 3.81505 130.013 3.56227C129.844 3.30949 129.754 3.0123 129.754 2.70828C129.754 2.40426 129.844 2.10707 130.013 1.85429C130.182 1.60151 130.422 1.40449 130.703 1.28815C130.984 1.17181 131.293 1.14137 131.591 1.20068C131.889 1.25999 132.163 1.40639 132.378 1.62136L131.964 2.03543C131.831 1.90235 131.661 1.81172 131.477 1.775Z" fill="#FF3434"/>
</svg>
