<svg width="198" height="272" viewBox="0 0 198 272" fill="none" xmlns="http://www.w3.org/2000/svg">
<g filter="url(#filter0_ii_5301_875)">
<path d="M0.5 59.5C0.5 53.9771 4.97715 49.5 10.5 49.5H121.5C127.023 49.5 131.5 45.0228 131.5 39.5V10.5C131.5 4.97715 135.977 0.5 141.5 0.5H188C193.523 0.5 198 4.97715 198 10.5V262C198 267.523 193.523 272 188 272H10.5C4.97715 272 0.5 267.523 0.5 262V59.5Z" fill="url(#paint0_linear_5301_875)"/>
</g>
<path d="M40.239 169V154.7H52.119V169H49.819V155.24L50.979 156.68H41.299L42.539 155.24V169H40.239ZM60.1882 169.32C59.1349 169.32 58.1949 169.093 57.3682 168.64C56.5549 168.187 55.9149 167.56 55.4482 166.76C54.9815 165.96 54.7482 165.04 54.7482 164C54.7482 162.973 54.9815 162.06 55.4482 161.26C55.9149 160.46 56.5549 159.833 57.3682 159.38C58.1949 158.927 59.1349 158.7 60.1882 158.7C61.2549 158.7 62.1949 158.927 63.0082 159.38C63.8349 159.833 64.4749 160.46 64.9282 161.26C65.3949 162.06 65.6282 162.973 65.6282 164C65.6282 165.04 65.3949 165.96 64.9282 166.76C64.4749 167.56 63.8349 168.187 63.0082 168.64C62.1949 169.093 61.2549 169.32 60.1882 169.32ZM60.1882 167.44C60.8149 167.44 61.3615 167.293 61.8282 167C62.2949 166.707 62.6549 166.307 62.9082 165.8C63.1749 165.28 63.3082 164.68 63.3082 164C63.3082 163.333 63.1749 162.747 62.9082 162.24C62.6549 161.72 62.2949 161.313 61.8282 161.02C61.3615 160.727 60.8149 160.58 60.1882 160.58C59.5749 160.58 59.0349 160.727 58.5682 161.02C58.1015 161.313 57.7349 161.72 57.4682 162.24C57.2149 162.747 57.0882 163.333 57.0882 164C57.0882 164.68 57.2149 165.28 57.4682 165.8C57.7349 166.307 58.1015 166.707 58.5682 167C59.0349 167.293 59.5749 167.44 60.1882 167.44ZM70.1468 172.88H67.9068V159.02H70.1268V162.1H69.6468C69.7401 161.433 69.9735 160.847 70.3468 160.34C70.7201 159.833 71.2001 159.433 71.7868 159.14C72.3735 158.847 73.0268 158.7 73.7468 158.7C74.6801 158.7 75.5201 158.927 76.2668 159.38C77.0268 159.833 77.6268 160.46 78.0668 161.26C78.5068 162.06 78.7268 162.973 78.7268 164C78.7268 165.04 78.5001 165.96 78.0468 166.76C77.6068 167.56 77.0068 168.187 76.2468 168.64C75.4868 169.093 74.6268 169.32 73.6668 169.32C72.7868 169.32 72.0268 169.14 71.3868 168.78C70.7468 168.407 70.2601 167.907 69.9268 167.28C69.6068 166.64 69.4735 165.927 69.5268 165.14L69.9868 164.78C70.0535 165.3 70.2335 165.76 70.5268 166.16C70.8201 166.56 71.2001 166.873 71.6668 167.1C72.1335 167.327 72.6401 167.44 73.1868 167.44C73.8401 167.44 74.4001 167.293 74.8668 167C75.3468 166.707 75.7201 166.3 75.9868 165.78C76.2535 165.26 76.3868 164.667 76.3868 164C76.3868 163.347 76.2601 162.76 76.0068 162.24C75.7535 161.72 75.3935 161.313 74.9268 161.02C74.4735 160.727 73.9335 160.58 73.3068 160.58C72.6935 160.58 72.1468 160.733 71.6668 161.04C71.2001 161.333 70.8268 161.747 70.5468 162.28C70.2801 162.813 70.1468 163.44 70.1468 164.16V172.88ZM83.1416 169V159.76H85.3816V169H83.1416ZM79.6416 160.84V159.02H88.8616V160.84H79.6416ZM99.1477 169H97.0877V167.02L96.9877 166.6V162.86C96.9877 162.113 96.7477 161.533 96.2677 161.12C95.7877 160.693 95.1344 160.48 94.3077 160.48C93.7077 160.48 93.1477 160.6 92.6277 160.84C92.1211 161.08 91.6811 161.413 91.3077 161.84L90.0277 160.44C90.5744 159.893 91.2144 159.467 91.9477 159.16C92.6811 158.853 93.4944 158.7 94.3877 158.7C95.3344 158.7 96.1611 158.867 96.8677 159.2C97.5877 159.52 98.1477 159.987 98.5477 160.6C98.9477 161.213 99.1477 161.947 99.1477 162.8V169ZM93.5477 169.32C92.7877 169.32 92.1144 169.18 91.5277 168.9C90.9411 168.62 90.4877 168.24 90.1677 167.76C89.8477 167.28 89.6877 166.72 89.6877 166.08C89.6877 165.387 89.8877 164.8 90.2877 164.32C90.6877 163.827 91.2411 163.453 91.9477 163.2C92.6677 162.933 93.4944 162.8 94.4277 162.8H97.2277V164.34H94.6277C93.8411 164.34 93.2011 164.48 92.7077 164.76C92.2277 165.04 91.9877 165.453 91.9877 166C91.9877 166.493 92.1744 166.887 92.5477 167.18C92.9211 167.46 93.4077 167.6 94.0077 167.6C94.5811 167.6 95.1077 167.48 95.5877 167.24C96.0677 167 96.4477 166.673 96.7277 166.26C97.0211 165.833 97.1877 165.347 97.2277 164.8L97.9477 165.14C97.9477 165.953 97.7611 166.68 97.3877 167.32C97.0144 167.947 96.4944 168.44 95.8277 168.8C95.1611 169.147 94.4011 169.32 93.5477 169.32ZM100.636 169V167.14H101.356C101.716 167.14 101.983 167.053 102.156 166.88C102.343 166.707 102.449 166.407 102.476 165.98L103.116 159.02H110.716V169H108.476V159.38L110.076 160.84H103.536L105.236 159.38L104.556 166.42C104.463 167.38 104.196 168.053 103.756 168.44C103.316 168.813 102.643 169 101.736 169H100.636ZM113.61 169V159.02H115.77V168.7L114.27 167.18H118.35C118.924 167.18 119.364 167.047 119.67 166.78C119.977 166.5 120.13 166.12 120.13 165.64C120.13 165.16 119.977 164.787 119.67 164.52C119.364 164.253 118.924 164.12 118.35 164.12H114.77V162.3H118.53C119.704 162.3 120.644 162.607 121.35 163.22C122.07 163.833 122.43 164.62 122.43 165.58C122.43 166.26 122.264 166.86 121.93 167.38C121.597 167.887 121.137 168.287 120.55 168.58C119.964 168.86 119.29 169 118.53 169H113.61ZM131.594 169V159.02H133.834V169H131.594ZM124.314 169V159.02H126.554V169H124.314ZM125.374 164.68V162.84H132.874V164.68H125.374ZM136.755 169V159.02H138.915V168.7L137.355 167.18H141.455C142.028 167.18 142.468 167.047 142.775 166.78C143.082 166.5 143.235 166.12 143.235 165.64C143.235 165.16 143.082 164.787 142.775 164.52C142.468 164.253 142.028 164.12 141.455 164.12H137.875V162.3H141.615C142.802 162.3 143.748 162.607 144.455 163.22C145.162 163.833 145.515 164.62 145.515 165.58C145.515 166.26 145.348 166.86 145.015 167.38C144.695 167.887 144.242 168.287 143.655 168.58C143.068 168.86 142.388 169 141.615 169H136.755ZM146.695 169V159.02H148.935V169H146.695ZM160.193 165.98L161.473 167.38C160.953 167.98 160.306 168.453 159.533 168.8C158.759 169.147 157.899 169.32 156.953 169.32C155.833 169.32 154.839 169.093 153.973 168.64C153.119 168.187 152.446 167.56 151.953 166.76C151.473 165.96 151.233 165.047 151.233 164.02C151.233 162.98 151.466 162.06 151.933 161.26C152.399 160.46 153.039 159.833 153.853 159.38C154.666 158.927 155.579 158.7 156.593 158.7C157.579 158.7 158.453 158.927 159.213 159.38C159.973 159.82 160.573 160.433 161.013 161.22C161.453 161.993 161.673 162.893 161.673 163.92V164.04H159.453V163.82C159.453 163.153 159.326 162.573 159.073 162.08C158.833 161.573 158.499 161.187 158.073 160.92C157.646 160.64 157.146 160.5 156.573 160.5C155.973 160.5 155.439 160.647 154.973 160.94C154.519 161.22 154.166 161.62 153.913 162.14C153.659 162.647 153.533 163.26 153.533 163.98C153.533 164.7 153.679 165.327 153.973 165.86C154.279 166.393 154.693 166.807 155.213 167.1C155.746 167.38 156.359 167.52 157.053 167.52C158.319 167.52 159.366 167.007 160.193 165.98ZM161.673 164.72H152.793V163.2H161.353L161.673 163.94V164.72ZM58.7991 197.88H56.5591V184.02H58.7791V187.1H58.2991C58.3925 186.433 58.6258 185.847 58.9991 185.34C59.3725 184.833 59.8525 184.433 60.4391 184.14C61.0258 183.847 61.6791 183.7 62.3991 183.7C63.3325 183.7 64.1725 183.927 64.9191 184.38C65.6791 184.833 66.2791 185.46 66.7191 186.26C67.1591 187.06 67.3791 187.973 67.3791 189C67.3791 190.04 67.1525 190.96 66.6991 191.76C66.2591 192.56 65.6591 193.187 64.8991 193.64C64.1391 194.093 63.2791 194.32 62.3191 194.32C61.4391 194.32 60.6791 194.14 60.0391 193.78C59.3991 193.407 58.9125 192.907 58.5791 192.28C58.2591 191.64 58.1258 190.927 58.1791 190.14L58.6391 189.78C58.7058 190.3 58.8858 190.76 59.1791 191.16C59.4725 191.56 59.8525 191.873 60.3191 192.1C60.7858 192.327 61.2925 192.44 61.8391 192.44C62.4925 192.44 63.0525 192.293 63.5191 192C63.9991 191.707 64.3725 191.3 64.6391 190.78C64.9058 190.26 65.0391 189.667 65.0391 189C65.0391 188.347 64.9125 187.76 64.6591 187.24C64.4058 186.72 64.0458 186.313 63.5791 186.02C63.1258 185.727 62.5858 185.58 61.9591 185.58C61.3458 185.58 60.7991 185.733 60.3191 186.04C59.8525 186.333 59.4791 186.747 59.1991 187.28C58.9325 187.813 58.7991 188.44 58.7991 189.16V197.88ZM78.0246 190.98L79.3046 192.38C78.7846 192.98 78.1379 193.453 77.3646 193.8C76.5913 194.147 75.7313 194.32 74.7846 194.32C73.6646 194.32 72.6713 194.093 71.8046 193.64C70.9513 193.187 70.2779 192.56 69.7846 191.76C69.3046 190.96 69.0646 190.047 69.0646 189.02C69.0646 187.98 69.2979 187.06 69.7646 186.26C70.2313 185.46 70.8713 184.833 71.6846 184.38C72.4979 183.927 73.4113 183.7 74.4246 183.7C75.4113 183.7 76.2846 183.927 77.0446 184.38C77.8046 184.82 78.4046 185.433 78.8446 186.22C79.2846 186.993 79.5046 187.893 79.5046 188.92V189.04H77.2846V188.82C77.2846 188.153 77.1579 187.573 76.9046 187.08C76.6646 186.573 76.3313 186.187 75.9046 185.92C75.4779 185.64 74.9779 185.5 74.4046 185.5C73.8046 185.5 73.2713 185.647 72.8046 185.94C72.3513 186.22 71.9979 186.62 71.7446 187.14C71.4913 187.647 71.3646 188.26 71.3646 188.98C71.3646 189.7 71.5113 190.327 71.8046 190.86C72.1113 191.393 72.5246 191.807 73.0446 192.1C73.5779 192.38 74.1913 192.52 74.8846 192.52C76.1513 192.52 77.1979 192.007 78.0246 190.98ZM79.5046 189.72H70.6246V188.2H79.1846L79.5046 188.94V189.72ZM81.833 194V184.02H84.033V193.56L83.273 192.18H88.633L87.853 193.56V184.02H90.053V193.56L89.533 192.18H94.933L93.873 193.56V184.02H96.073V194H81.833ZM107.341 190.98L108.621 192.38C108.101 192.98 107.454 193.453 106.681 193.8C105.908 194.147 105.048 194.32 104.101 194.32C102.981 194.32 101.988 194.093 101.121 193.64C100.268 193.187 99.5943 192.56 99.101 191.76C98.621 190.96 98.381 190.047 98.381 189.02C98.381 187.98 98.6143 187.06 99.081 186.26C99.5477 185.46 100.188 184.833 101.001 184.38C101.814 183.927 102.728 183.7 103.741 183.7C104.728 183.7 105.601 183.927 106.361 184.38C107.121 184.82 107.721 185.433 108.161 186.22C108.601 186.993 108.821 187.893 108.821 188.92V189.04H106.601V188.82C106.601 188.153 106.474 187.573 106.221 187.08C105.981 186.573 105.648 186.187 105.221 185.92C104.794 185.64 104.294 185.5 103.721 185.5C103.121 185.5 102.588 185.647 102.121 185.94C101.668 186.22 101.314 186.62 101.061 187.14C100.808 187.647 100.681 188.26 100.681 188.98C100.681 189.7 100.828 190.327 101.121 190.86C101.428 191.393 101.841 191.807 102.361 192.1C102.894 192.38 103.508 192.52 104.201 192.52C105.468 192.52 106.514 192.007 107.341 190.98ZM108.821 189.72H99.941V188.2H108.501L108.821 188.94V189.72ZM118.429 194V184.02H120.669V194H118.429ZM111.149 194V184.02H113.389V194H111.149ZM112.209 189.68V187.84H119.709V189.68H112.209ZM123.591 194V184.02H125.751V191.12L125.591 191.06L131.111 184.02H133.071V194H130.911V186.9L131.051 186.96L125.551 194H123.591ZM142.313 194V184.32L143.753 185.74H139.773C139.267 185.74 138.84 185.853 138.493 186.08C138.16 186.307 137.993 186.68 137.993 187.2C137.993 187.667 138.147 188.027 138.453 188.28C138.773 188.533 139.22 188.66 139.793 188.66H143.233V190.3H139.553C138.393 190.3 137.467 190.02 136.773 189.46C136.093 188.887 135.753 188.12 135.753 187.16C135.753 186.56 135.92 186.027 136.253 185.56C136.587 185.08 137.04 184.707 137.613 184.44C138.2 184.16 138.86 184.02 139.593 184.02H144.413V194H142.313ZM135.273 194L138.713 189.56H141.033L137.773 194H135.273Z" fill="white"/>
<path fill-rule="evenodd" clip-rule="evenodd" d="M97.3672 110.654V117.918H104.632V110.654H97.3672ZM97.0547 107.841C95.674 107.841 94.5547 108.96 94.5547 110.341V118.231C94.5547 119.611 95.674 120.731 97.0547 120.731H104.944C106.325 120.731 107.444 119.611 107.444 118.231V110.341C107.444 108.96 106.325 107.841 104.944 107.841H97.0547Z" fill="white"/>
<path fill-rule="evenodd" clip-rule="evenodd" d="M86.6328 132.096V139.361H93.8973V132.096H86.6328ZM86.3203 129.284C84.9396 129.284 83.8203 130.403 83.8203 131.784V139.673C83.8203 141.054 84.9396 142.173 86.3203 142.173H94.2098C95.5905 142.173 96.7098 141.054 96.7098 139.673V131.784C96.7098 130.403 95.5905 129.284 94.2098 129.284H86.3203Z" fill="white"/>
<path fill-rule="evenodd" clip-rule="evenodd" d="M108.102 132.096V139.361H115.366V132.096H108.102ZM107.789 129.284C106.408 129.284 105.289 130.403 105.289 131.784V139.673C105.289 141.054 106.408 142.173 107.789 142.173H115.679C117.059 142.173 118.179 141.054 118.179 139.673V131.784C118.179 130.403 117.059 129.284 115.679 129.284H107.789Z" fill="white"/>
<path fill-rule="evenodd" clip-rule="evenodd" d="M99.3896 121.714V123.089C99.3896 124.982 97.8549 126.517 95.9617 126.517H92.1501C91.9335 126.517 91.7578 126.692 91.7578 126.909V128.284H89.0078V126.909C89.0078 125.173 90.4147 123.767 92.1501 123.767H95.9617C96.3361 123.767 96.6396 123.463 96.6396 123.089V121.714H99.3896Z" fill="white"/>
<path fill-rule="evenodd" clip-rule="evenodd" d="M102.632 121.714V123.089C102.632 124.982 104.167 126.517 106.06 126.517H109.889C110.106 126.517 110.281 126.692 110.281 126.909V128.284H113.031V126.909C113.031 125.173 111.624 123.767 109.889 123.767H106.06C105.686 123.767 105.382 123.463 105.382 123.089V121.714H102.632Z" fill="white"/>
<defs>
<filter id="filter0_ii_5301_875" x="-0.5" y="-0.5" width="199.5" height="273.5" filterUnits="userSpaceOnUse" color-interpolation-filters="sRGB">
<feFlood flood-opacity="0" result="BackgroundImageFix"/>
<feBlend mode="normal" in="SourceGraphic" in2="BackgroundImageFix" result="shape"/>
<feColorMatrix in="SourceAlpha" type="matrix" values="0 0 0 0 0 0 0 0 0 0 0 0 0 0 0 0 0 0 127 0" result="hardAlpha"/>
<feOffset dx="1" dy="1"/>
<feGaussianBlur stdDeviation="1.5"/>
<feComposite in2="hardAlpha" operator="arithmetic" k2="-1" k3="1"/>
<feColorMatrix type="matrix" values="0 0 0 0 1 0 0 0 0 1 0 0 0 0 1 0 0 0 1 0"/>
<feBlend mode="normal" in2="shape" result="effect1_innerShadow_5301_875"/>
<feColorMatrix in="SourceAlpha" type="matrix" values="0 0 0 0 0 0 0 0 0 0 0 0 0 0 0 0 0 0 127 0" result="hardAlpha"/>
<feOffset dx="-1" dy="-1"/>
<feGaussianBlur stdDeviation="1.5"/>
<feComposite in2="hardAlpha" operator="arithmetic" k2="-1" k3="1"/>
<feColorMatrix type="matrix" values="0 0 0 0 0 0 0 0 0 0 0 0 0 0 0 0 0 0 1 0"/>
<feBlend mode="normal" in2="effect1_innerShadow_5301_875" result="effect2_innerShadow_5301_875"/>
</filter>
<linearGradient id="paint0_linear_5301_875" x1="115" y1="272" x2="115" y2="49.0002" gradientUnits="userSpaceOnUse">
<stop stop-color="#454545"/>
<stop offset="1" stop-color="#8B8B8B"/>
</linearGradient>
</defs>
</svg>
