<svg width="272" height="195" viewBox="0 0 272 195" fill="none" xmlns="http://www.w3.org/2000/svg">
<g filter="url(#filter0_ii_5301_871)">
<path d="M0 10C0 4.47716 4.47715 0 10 0H262C267.523 0 272 4.47715 272 10V136C272 141.523 267.523 146 262 146H177.754C172.231 146 167.754 150.477 167.754 156V184.5C167.754 190.023 163.277 194.5 157.754 194.5H10C4.47716 194.5 0 190.023 0 184.5V10Z" fill="url(#paint0_linear_5301_871)"/>
</g>
<path d="M90.2559 93V78.7H92.5559V93H90.2559ZM82.9159 93H80.6159V78.7H82.9159V93ZM82.7159 86.62V84.64H90.4559V86.62H82.7159ZM104.583 93H102.523V91.02L102.423 90.6V86.86C102.423 86.1133 102.183 85.5333 101.703 85.12C101.223 84.6933 100.57 84.48 99.7433 84.48C99.1433 84.48 98.5833 84.6 98.0633 84.84C97.5566 85.08 97.1166 85.4133 96.7433 85.84L95.4633 84.44C96.0099 83.8933 96.6499 83.4667 97.3833 83.16C98.1166 82.8533 98.9299 82.7 99.8233 82.7C100.77 82.7 101.597 82.8667 102.303 83.2C103.023 83.52 103.583 83.9867 103.983 84.6C104.383 85.2133 104.583 85.9467 104.583 86.8V93ZM98.9833 93.32C98.2233 93.32 97.5499 93.18 96.9633 92.9C96.3766 92.62 95.9233 92.24 95.6033 91.76C95.2833 91.28 95.1233 90.72 95.1233 90.08C95.1233 89.3867 95.3233 88.8 95.7233 88.32C96.1233 87.8267 96.6766 87.4533 97.3833 87.2C98.1033 86.9333 98.9299 86.8 99.8633 86.8H102.663V88.34H100.063C99.2766 88.34 98.6366 88.48 98.1433 88.76C97.6633 89.04 97.4233 89.4533 97.4233 90C97.4233 90.4933 97.6099 90.8867 97.9833 91.18C98.3566 91.46 98.8433 91.6 99.4433 91.6C100.017 91.6 100.543 91.48 101.023 91.24C101.503 91 101.883 90.6733 102.163 90.26C102.457 89.8333 102.623 89.3467 102.663 88.8L103.383 89.14C103.383 89.9533 103.197 90.68 102.823 91.32C102.45 91.9467 101.93 92.44 101.263 92.8C100.597 93.1467 99.8366 93.32 98.9833 93.32ZM106.071 93V91.14H106.791C107.151 91.14 107.418 91.0533 107.591 90.88C107.778 90.7067 107.885 90.4067 107.911 89.98L108.551 83.02H116.151V93H113.911V83.38L115.511 84.84H108.971L110.671 83.38L109.991 90.42C109.898 91.38 109.631 92.0533 109.191 92.44C108.751 92.8133 108.078 93 107.171 93H106.071ZM123.866 93.32C122.813 93.32 121.873 93.0933 121.046 92.64C120.233 92.1867 119.593 91.56 119.126 90.76C118.659 89.96 118.426 89.04 118.426 88C118.426 86.9733 118.659 86.06 119.126 85.26C119.593 84.46 120.233 83.8333 121.046 83.38C121.873 82.9267 122.813 82.7 123.866 82.7C124.933 82.7 125.873 82.9267 126.686 83.38C127.513 83.8333 128.153 84.46 128.606 85.26C129.073 86.06 129.306 86.9733 129.306 88C129.306 89.04 129.073 89.96 128.606 90.76C128.153 91.56 127.513 92.1867 126.686 92.64C125.873 93.0933 124.933 93.32 123.866 93.32ZM123.866 91.44C124.493 91.44 125.039 91.2933 125.506 91C125.973 90.7067 126.333 90.3067 126.586 89.8C126.853 89.28 126.986 88.68 126.986 88C126.986 87.3333 126.853 86.7467 126.586 86.24C126.333 85.72 125.973 85.3133 125.506 85.02C125.039 84.7267 124.493 84.58 123.866 84.58C123.253 84.58 122.713 84.7267 122.246 85.02C121.779 85.3133 121.413 85.72 121.146 86.24C120.893 86.7467 120.766 87.3333 120.766 88C120.766 88.68 120.893 89.28 121.146 89.8C121.413 90.3067 121.779 90.7067 122.246 91C122.713 91.2933 123.253 91.44 123.866 91.44ZM131.605 93V83.02H138.825V84.84H132.085L133.845 83.46V93H131.605ZM145.253 93.32C144.199 93.32 143.259 93.0933 142.433 92.64C141.619 92.1867 140.979 91.56 140.513 90.76C140.046 89.96 139.813 89.04 139.813 88C139.813 86.9733 140.046 86.06 140.513 85.26C140.979 84.46 141.619 83.8333 142.433 83.38C143.259 82.9267 144.199 82.7 145.253 82.7C146.319 82.7 147.259 82.9267 148.073 83.38C148.899 83.8333 149.539 84.46 149.993 85.26C150.459 86.06 150.693 86.9733 150.693 88C150.693 89.04 150.459 89.96 149.993 90.76C149.539 91.56 148.899 92.1867 148.073 92.64C147.259 93.0933 146.319 93.32 145.253 93.32ZM145.253 91.44C145.879 91.44 146.426 91.2933 146.893 91C147.359 90.7067 147.719 90.3067 147.973 89.8C148.239 89.28 148.373 88.68 148.373 88C148.373 87.3333 148.239 86.7467 147.973 86.24C147.719 85.72 147.359 85.3133 146.893 85.02C146.426 84.7267 145.879 84.58 145.253 84.58C144.639 84.58 144.099 84.7267 143.633 85.02C143.166 85.3133 142.799 85.72 142.533 86.24C142.279 86.7467 142.153 87.3333 142.153 88C142.153 88.68 142.279 89.28 142.533 89.8C142.799 90.3067 143.166 90.7067 143.633 91C144.099 91.2933 144.639 91.44 145.253 91.44ZM152.991 93V83.02H158.091C159.171 83.02 160.025 83.26 160.651 83.74C161.278 84.22 161.591 84.8667 161.591 85.68C161.591 86.1867 161.438 86.6333 161.131 87.02C160.838 87.3933 160.438 87.68 159.931 87.88L159.911 87.7C160.551 87.8733 161.071 88.1733 161.471 88.6C161.871 89.0133 162.071 89.52 162.071 90.12C162.071 90.6933 161.898 91.2 161.551 91.64C161.218 92.0667 160.765 92.4 160.191 92.64C159.618 92.88 158.978 93 158.271 93H152.991ZM155.051 92.44L153.891 91.32H157.991C158.591 91.32 159.045 91.2067 159.351 90.98C159.671 90.7533 159.831 90.42 159.831 89.98C159.831 89.54 159.671 89.2067 159.351 88.98C159.045 88.7533 158.591 88.64 157.991 88.64H154.111V87.06H157.831C158.391 87.06 158.785 86.9533 159.011 86.74C159.251 86.5267 159.371 86.2267 159.371 85.84C159.371 85.4533 159.251 85.1667 159.011 84.98C158.785 84.7933 158.391 84.7 157.831 84.7H153.831L155.051 83.54V92.44ZM164.124 93V83.02H166.284V92.7L164.724 91.18H168.824C169.397 91.18 169.837 91.0467 170.144 90.78C170.451 90.5 170.604 90.12 170.604 89.64C170.604 89.16 170.451 88.7867 170.144 88.52C169.837 88.2533 169.397 88.12 168.824 88.12H165.244V86.3H168.984C170.171 86.3 171.117 86.6067 171.824 87.22C172.531 87.8333 172.884 88.62 172.884 89.58C172.884 90.26 172.717 90.86 172.384 91.38C172.064 91.8867 171.611 92.2867 171.024 92.58C170.437 92.86 169.757 93 168.984 93H164.124ZM174.064 93V83.02H176.304V93H174.064ZM179.222 93V83.02H181.382V90.12L181.222 90.06L186.742 83.02H188.702V93H186.542V85.9L186.682 85.96L181.182 93H179.222ZM184.062 81.28C183.115 81.28 182.328 81.04 181.702 80.56C181.075 80.08 180.702 79.3733 180.582 78.44H182.382C182.462 78.9867 182.648 79.38 182.942 79.62C183.235 79.86 183.608 79.98 184.062 79.98C184.515 79.98 184.888 79.86 185.182 79.62C185.475 79.38 185.655 78.9867 185.722 78.44H187.542C187.422 79.3733 187.048 80.08 186.422 80.56C185.795 81.04 185.008 81.28 184.062 81.28ZM75.1202 118V108.02H77.4802L81.2202 115.06L80.8602 115.04L84.5402 108.02H87.0002V118H84.9402V108.76L85.8402 109.26L81.7602 117H80.2202L76.1402 109.26L77.1002 108.84V118H75.1202ZM94.7448 118.32C93.6915 118.32 92.7515 118.093 91.9248 117.64C91.1115 117.187 90.4715 116.56 90.0048 115.76C89.5382 114.96 89.3048 114.04 89.3048 113C89.3048 111.973 89.5382 111.06 90.0048 110.26C90.4715 109.46 91.1115 108.833 91.9248 108.38C92.7515 107.927 93.6915 107.7 94.7448 107.7C95.8115 107.7 96.7515 107.927 97.5648 108.38C98.3915 108.833 99.0315 109.46 99.4848 110.26C99.9515 111.06 100.185 111.973 100.185 113C100.185 114.04 99.9515 114.96 99.4848 115.76C99.0315 116.56 98.3915 117.187 97.5648 117.64C96.7515 118.093 95.8115 118.32 94.7448 118.32ZM94.7448 116.44C95.3715 116.44 95.9182 116.293 96.3848 116C96.8515 115.707 97.2115 115.307 97.4648 114.8C97.7315 114.28 97.8648 113.68 97.8648 113C97.8648 112.333 97.7315 111.747 97.4648 111.24C97.2115 110.72 96.8515 110.313 96.3848 110.02C95.9182 109.727 95.3715 109.58 94.7448 109.58C94.1315 109.58 93.5915 109.727 93.1248 110.02C92.6582 110.313 92.2915 110.72 92.0248 111.24C91.7715 111.747 91.6448 112.333 91.6448 113C91.6448 113.68 91.7715 114.28 92.0248 114.8C92.2915 115.307 92.6582 115.707 93.1248 116C93.5915 116.293 94.1315 116.44 94.7448 116.44ZM109.763 118V108.02H112.003V118H109.763ZM102.483 118V108.02H104.723V118H102.483ZM103.543 113.68V111.84H111.043V113.68H103.543ZM114.925 118V108.02H117.085V115.12L116.925 115.06L122.445 108.02H124.405V118H122.245V110.9L122.385 110.96L116.885 118H114.925ZM129.827 118V108.76H132.067V118H129.827ZM126.327 109.84V108.02H135.547V109.84H126.327ZM141.893 118.32C140.84 118.32 139.9 118.093 139.073 117.64C138.26 117.187 137.62 116.56 137.153 115.76C136.687 114.96 136.453 114.04 136.453 113C136.453 111.973 136.687 111.06 137.153 110.26C137.62 109.46 138.26 108.833 139.073 108.38C139.9 107.927 140.84 107.7 141.893 107.7C142.96 107.7 143.9 107.927 144.713 108.38C145.54 108.833 146.18 109.46 146.633 110.26C147.1 111.06 147.333 111.973 147.333 113C147.333 114.04 147.1 114.96 146.633 115.76C146.18 116.56 145.54 117.187 144.713 117.64C143.9 118.093 142.96 118.32 141.893 118.32ZM141.893 116.44C142.52 116.44 143.067 116.293 143.533 116C144 115.707 144.36 115.307 144.613 114.8C144.88 114.28 145.013 113.68 145.013 113C145.013 112.333 144.88 111.747 144.613 111.24C144.36 110.72 144 110.313 143.533 110.02C143.067 109.727 142.52 109.58 141.893 109.58C141.28 109.58 140.74 109.727 140.273 110.02C139.807 110.313 139.44 110.72 139.173 111.24C138.92 111.747 138.793 112.333 138.793 113C138.793 113.68 138.92 114.28 139.173 114.8C139.44 115.307 139.807 115.707 140.273 116C140.74 116.293 141.28 116.44 141.893 116.44ZM151.852 121.88H149.612V108.02H151.832V111.1H151.352C151.445 110.433 151.679 109.847 152.052 109.34C152.425 108.833 152.905 108.433 153.492 108.14C154.079 107.847 154.732 107.7 155.452 107.7C156.385 107.7 157.225 107.927 157.972 108.38C158.732 108.833 159.332 109.46 159.772 110.26C160.212 111.06 160.432 111.973 160.432 113C160.432 114.04 160.205 114.96 159.752 115.76C159.312 116.56 158.712 117.187 157.952 117.64C157.192 118.093 156.332 118.32 155.372 118.32C154.492 118.32 153.732 118.14 153.092 117.78C152.452 117.407 151.965 116.907 151.632 116.28C151.312 115.64 151.179 114.927 151.232 114.14L151.692 113.78C151.759 114.3 151.939 114.76 152.232 115.16C152.525 115.56 152.905 115.873 153.372 116.1C153.839 116.327 154.345 116.44 154.892 116.44C155.545 116.44 156.105 116.293 156.572 116C157.052 115.707 157.425 115.3 157.692 114.78C157.959 114.26 158.092 113.667 158.092 113C158.092 112.347 157.965 111.76 157.712 111.24C157.459 110.72 157.099 110.313 156.632 110.02C156.179 109.727 155.639 109.58 155.012 109.58C154.399 109.58 153.852 109.733 153.372 110.04C152.905 110.333 152.532 110.747 152.252 111.28C151.985 111.813 151.852 112.44 151.852 113.16V121.88ZM162.737 118V108.02H164.897V115.12L164.737 115.06L170.257 108.02H172.217V118H170.057V110.9L170.197 110.96L164.697 118H162.737ZM182.42 118V108.02H184.66V118H182.42ZM175.14 118V108.02H177.38V118H175.14ZM176.2 113.68V111.84H183.7V113.68H176.2ZM187.581 118V108.02H194.801V109.84H188.061L189.821 108.46V118H187.581Z" fill="white"/>
<path d="M152.5 65.1266H118.938V31.5016C118.938 30.7516 118.312 30.0641 117.5 30.0641C116.688 30.0641 116.125 30.7516 116.125 31.5016V65.3141C116.125 66.7516 117.312 67.9391 118.75 67.9391H152.5C153.25 67.9391 153.938 67.3141 153.938 66.5016C153.938 65.6891 153.25 65.1266 152.5 65.1266Z" fill="white"/>
<path d="M150.008 47.3545H142.695C141.945 47.3545 141.258 47.9795 141.258 48.792C141.258 49.6045 141.883 50.2295 142.695 50.2295H146.945L143.633 53.1045H135.445C135.008 53.1045 134.57 53.292 134.32 53.667L129.883 59.4795H123.32C122.57 59.4795 121.883 60.1045 121.883 60.917C121.883 61.7295 122.508 62.3545 123.32 62.3545H130.57C131.008 62.3545 131.445 62.167 131.695 61.792L136.133 55.9795H144.195C144.508 55.9795 144.883 55.8545 145.133 55.6045L149.258 51.9795V56.792C149.258 57.542 149.883 58.2295 150.695 58.2295C151.508 58.2295 152.133 57.6045 152.133 56.792V49.3545C152.07 48.292 151.133 47.3545 150.008 47.3545Z" fill="white"/>
<path fill-rule="evenodd" clip-rule="evenodd" d="M128.623 40.0345C130.601 40.0345 132.204 38.4315 132.204 36.4541C132.204 34.4767 130.601 32.8737 128.623 32.8737C126.646 32.8737 125.043 34.4767 125.043 36.4541C125.043 38.4315 126.646 40.0345 128.623 40.0345ZM128.623 42.847C132.154 42.847 135.016 39.9848 135.016 36.4541C135.016 32.9234 132.154 30.0612 128.623 30.0612C125.093 30.0612 122.23 32.9234 122.23 36.4541C122.23 39.9848 125.093 42.847 128.623 42.847Z" fill="white"/>
<path fill-rule="evenodd" clip-rule="evenodd" d="M135.569 45.8249L131.609 41.8651L133.598 39.8763L137.557 43.8362L135.569 45.8249Z" fill="white"/>
<defs>
<filter id="filter0_ii_5301_871" x="-1" y="-1" width="274" height="196.5" filterUnits="userSpaceOnUse" color-interpolation-filters="sRGB">
<feFlood flood-opacity="0" result="BackgroundImageFix"/>
<feBlend mode="normal" in="SourceGraphic" in2="BackgroundImageFix" result="shape"/>
<feColorMatrix in="SourceAlpha" type="matrix" values="0 0 0 0 0 0 0 0 0 0 0 0 0 0 0 0 0 0 127 0" result="hardAlpha"/>
<feOffset dx="1" dy="1"/>
<feGaussianBlur stdDeviation="1.5"/>
<feComposite in2="hardAlpha" operator="arithmetic" k2="-1" k3="1"/>
<feColorMatrix type="matrix" values="0 0 0 0 1 0 0 0 0 1 0 0 0 0 1 0 0 0 1 0"/>
<feBlend mode="normal" in2="shape" result="effect1_innerShadow_5301_871"/>
<feColorMatrix in="SourceAlpha" type="matrix" values="0 0 0 0 0 0 0 0 0 0 0 0 0 0 0 0 0 0 127 0" result="hardAlpha"/>
<feOffset dx="-1" dy="-1"/>
<feGaussianBlur stdDeviation="1.5"/>
<feComposite in2="hardAlpha" operator="arithmetic" k2="-1" k3="1"/>
<feColorMatrix type="matrix" values="0 0 0 0 0 0 0 0 0 0 0 0 0 0 0 0 0 0 1 0"/>
<feBlend mode="normal" in2="effect1_innerShadow_5301_871" result="effect2_innerShadow_5301_871"/>
</filter>
<linearGradient id="paint0_linear_5301_871" x1="157.691" y1="194.5" x2="157.691" y2="34.7451" gradientUnits="userSpaceOnUse">
<stop stop-color="#363636"/>
<stop offset="1" stop-color="#5B5B5B"/>
</linearGradient>
</defs>
</svg>
