<svg width="345" height="225" viewBox="0 0 345 225" fill="none" xmlns="http://www.w3.org/2000/svg">
<g filter="url(#filter0_ii_5308_869)">
<path d="M344.5 10C344.5 4.47716 340.023 0 334.5 0H10C4.47714 0 0 4.47715 0 10V115C0 120.523 4.47714 125 10 125H121.5C127.023 125 131.5 129.477 131.5 135V214.5C131.5 220.023 135.977 224.5 141.5 224.5H334.5C340.023 224.5 344.5 220.023 344.5 214.5V10Z" fill="url(#paint0_linear_5308_869)"/>
</g>
<path d="M189.1 108V93.7H191.4V106.28L191.16 106.04H195.1C195.927 106.04 196.574 105.84 197.04 105.44C197.507 105.027 197.74 104.46 197.74 103.74C197.74 103.033 197.507 102.487 197.04 102.1C196.574 101.713 195.927 101.52 195.1 101.52H190.24V99.56H195.08C196.094 99.56 196.974 99.7333 197.72 100.08C198.467 100.413 199.047 100.893 199.46 101.52C199.874 102.147 200.08 102.887 200.08 103.74C200.08 104.593 199.874 105.34 199.46 105.98C199.047 106.62 198.46 107.12 197.7 107.48C196.954 107.827 196.08 108 195.08 108H189.1ZM190.38 95.68V93.7H198.96V95.68H190.38ZM202.237 108V98.02H204.397V105.12L204.237 105.06L209.757 98.02H211.717V108H209.557V100.9L209.697 100.96L204.197 108H202.237ZM217.96 108.32C217.12 108.32 216.293 108.173 215.48 107.88C214.666 107.587 213.986 107.147 213.44 106.56L214.66 105.2C215.526 106.067 216.606 106.5 217.9 106.5C218.673 106.5 219.28 106.367 219.72 106.1C220.16 105.82 220.38 105.44 220.38 104.96C220.38 104.107 219.633 103.68 218.14 103.68H216.14V102.1H218.16C218.786 102.1 219.266 102 219.6 101.8C219.933 101.587 220.1 101.273 220.1 100.86C220.1 100.447 219.9 100.12 219.5 99.88C219.113 99.64 218.58 99.52 217.9 99.52C216.74 99.52 215.746 99.9533 214.92 100.82L213.7 99.42C214.82 98.2733 216.24 97.7 217.96 97.7C218.8 97.7 219.54 97.8267 220.18 98.08C220.833 98.32 221.346 98.66 221.72 99.1C222.093 99.5267 222.28 100.027 222.28 100.6C222.28 101.133 222.12 101.593 221.8 101.98C221.48 102.367 221.026 102.647 220.44 102.82V102.66C221.12 102.833 221.646 103.133 222.02 103.56C222.393 103.973 222.58 104.487 222.58 105.1C222.58 105.713 222.38 106.267 221.98 106.76C221.58 107.24 221.033 107.62 220.34 107.9C219.646 108.18 218.853 108.32 217.96 108.32ZM231.939 108V98.02H234.179V108H231.939ZM224.659 108V98.02H226.899V108H224.659ZM225.719 103.68V101.84H233.219V103.68H225.719ZM245.441 104.98L246.721 106.38C246.201 106.98 245.554 107.453 244.781 107.8C244.007 108.147 243.147 108.32 242.201 108.32C241.081 108.32 240.087 108.093 239.221 107.64C238.367 107.187 237.694 106.56 237.201 105.76C236.721 104.96 236.481 104.047 236.481 103.02C236.481 101.98 236.714 101.06 237.181 100.26C237.647 99.46 238.287 98.8333 239.101 98.38C239.914 97.9267 240.827 97.7 241.841 97.7C242.827 97.7 243.701 97.9267 244.461 98.38C245.221 98.82 245.821 99.4333 246.261 100.22C246.701 100.993 246.921 101.893 246.921 102.92V103.04H244.701V102.82C244.701 102.153 244.574 101.573 244.321 101.08C244.081 100.573 243.747 100.187 243.321 99.92C242.894 99.64 242.394 99.5 241.821 99.5C241.221 99.5 240.687 99.6467 240.221 99.94C239.767 100.22 239.414 100.62 239.161 101.14C238.907 101.647 238.781 102.26 238.781 102.98C238.781 103.7 238.927 104.327 239.221 104.86C239.527 105.393 239.941 105.807 240.461 106.1C240.994 106.38 241.607 106.52 242.301 106.52C243.567 106.52 244.614 106.007 245.441 104.98ZM246.921 103.72H238.041V102.2H246.601L246.921 102.94V103.72ZM256.849 104.94L258.289 106.34C257.796 106.953 257.189 107.44 256.469 107.8C255.749 108.147 254.922 108.32 253.989 108.32C252.962 108.32 252.042 108.093 251.229 107.64C250.429 107.173 249.796 106.547 249.329 105.76C248.862 104.96 248.629 104.04 248.629 103C248.629 101.973 248.862 101.067 249.329 100.28C249.796 99.48 250.436 98.8533 251.249 98.4C252.076 97.9333 253.009 97.7 254.049 97.7C254.956 97.7 255.762 97.8733 256.469 98.22C257.189 98.5667 257.796 99.0533 258.289 99.68L256.849 101.08C256.556 100.627 256.182 100.267 255.729 100C255.289 99.72 254.756 99.58 254.129 99.58C253.516 99.58 252.969 99.7267 252.489 100.02C252.009 100.313 251.636 100.72 251.369 101.24C251.102 101.747 250.969 102.333 250.969 103C250.969 103.667 251.102 104.26 251.369 104.78C251.636 105.3 252.009 105.707 252.489 106C252.969 106.293 253.516 106.44 254.129 106.44C254.756 106.44 255.289 106.3 255.729 106.02C256.182 105.74 256.556 105.38 256.849 104.94ZM265.081 103.24H259.561V101.32H265.081V103.24ZM184.581 133H182.521V131.02L182.421 130.6V126.86C182.421 126.113 182.181 125.533 181.701 125.12C181.221 124.693 180.568 124.48 179.741 124.48C179.141 124.48 178.581 124.6 178.061 124.84C177.555 125.08 177.115 125.413 176.741 125.84L175.461 124.44C176.008 123.893 176.648 123.467 177.381 123.16C178.115 122.853 178.928 122.7 179.821 122.7C180.768 122.7 181.595 122.867 182.301 123.2C183.021 123.52 183.581 123.987 183.981 124.6C184.381 125.213 184.581 125.947 184.581 126.8V133ZM178.981 133.32C178.221 133.32 177.548 133.18 176.961 132.9C176.375 132.62 175.921 132.24 175.601 131.76C175.281 131.28 175.121 130.72 175.121 130.08C175.121 129.387 175.321 128.8 175.721 128.32C176.121 127.827 176.675 127.453 177.381 127.2C178.101 126.933 178.928 126.8 179.861 126.8H182.661V128.34H180.061C179.275 128.34 178.635 128.48 178.141 128.76C177.661 129.04 177.421 129.453 177.421 130C177.421 130.493 177.608 130.887 177.981 131.18C178.355 131.46 178.841 131.6 179.441 131.6C180.015 131.6 180.541 131.48 181.021 131.24C181.501 131 181.881 130.673 182.161 130.26C182.455 129.833 182.621 129.347 182.661 128.8L183.381 129.14C183.381 129.953 183.195 130.68 182.821 131.32C182.448 131.947 181.928 132.44 181.261 132.8C180.595 133.147 179.835 133.32 178.981 133.32ZM194.429 133V123.02H196.669V133H194.429ZM187.149 133V123.02H189.389V133H187.149ZM188.209 128.68V126.84H195.709V128.68H188.209ZM208.351 133H206.291V131.02L206.191 130.6V126.86C206.191 126.113 205.951 125.533 205.471 125.12C204.991 124.693 204.338 124.48 203.511 124.48C202.911 124.48 202.351 124.6 201.831 124.84C201.324 125.08 200.884 125.413 200.511 125.84L199.231 124.44C199.778 123.893 200.418 123.467 201.151 123.16C201.884 122.853 202.698 122.7 203.591 122.7C204.538 122.7 205.364 122.867 206.071 123.2C206.791 123.52 207.351 123.987 207.751 124.6C208.151 125.213 208.351 125.947 208.351 126.8V133ZM202.751 133.32C201.991 133.32 201.318 133.18 200.731 132.9C200.144 132.62 199.691 132.24 199.371 131.76C199.051 131.28 198.891 130.72 198.891 130.08C198.891 129.387 199.091 128.8 199.491 128.32C199.891 127.827 200.444 127.453 201.151 127.2C201.871 126.933 202.698 126.8 203.631 126.8H206.431V128.34H203.831C203.044 128.34 202.404 128.48 201.911 128.76C201.431 129.04 201.191 129.453 201.191 130C201.191 130.493 201.378 130.887 201.751 131.18C202.124 131.46 202.611 131.6 203.211 131.6C203.784 131.6 204.311 131.48 204.791 131.24C205.271 131 205.651 130.673 205.931 130.26C206.224 129.833 206.391 129.347 206.431 128.8L207.151 129.14C207.151 129.953 206.964 130.68 206.591 131.32C206.218 131.947 205.698 132.44 205.031 132.8C204.364 133.147 203.604 133.32 202.751 133.32ZM209.839 133V131.14H210.559C210.919 131.14 211.186 131.053 211.359 130.88C211.546 130.707 211.652 130.407 211.679 129.98L212.319 123.02H219.919V133H217.679V123.38L219.279 124.84H212.739L214.439 123.38L213.759 130.42C213.666 131.38 213.399 132.053 212.959 132.44C212.519 132.813 211.846 133 210.939 133H209.839ZM222.814 133V123.02H224.974V130.12L224.814 130.06L230.334 123.02H232.294V133H230.134V125.9L230.274 125.96L224.774 133H222.814ZM237.716 133V123.76H239.956V133H237.716ZM234.216 124.84V123.02H243.436V124.84H234.216ZM245.353 133V123.02H247.513V130.12L247.353 130.06L252.873 123.02H254.833V133H252.673V125.9L252.813 125.96L247.313 133H245.353ZM264.535 133L259.415 127.82H259.635L264.235 123.02H266.995L261.775 128.46L261.515 127.06L267.455 133H264.535ZM257.755 133V123.02H259.995V133H257.755ZM277.531 133H275.471V131.02L275.371 130.6V126.86C275.371 126.113 275.131 125.533 274.651 125.12C274.171 124.693 273.517 124.48 272.691 124.48C272.091 124.48 271.531 124.6 271.011 124.84C270.504 125.08 270.064 125.413 269.691 125.84L268.411 124.44C268.957 123.893 269.597 123.467 270.331 123.16C271.064 122.853 271.877 122.7 272.771 122.7C273.717 122.7 274.544 122.867 275.251 123.2C275.971 123.52 276.531 123.987 276.931 124.6C277.331 125.213 277.531 125.947 277.531 126.8V133ZM271.931 133.32C271.171 133.32 270.497 133.18 269.911 132.9C269.324 132.62 268.871 132.24 268.551 131.76C268.231 131.28 268.071 130.72 268.071 130.08C268.071 129.387 268.271 128.8 268.671 128.32C269.071 127.827 269.624 127.453 270.331 127.2C271.051 126.933 271.877 126.8 272.811 126.8H275.611V128.34H273.011C272.224 128.34 271.584 128.48 271.091 128.76C270.611 129.04 270.371 129.453 270.371 130C270.371 130.493 270.557 130.887 270.931 131.18C271.304 131.46 271.791 131.6 272.391 131.6C272.964 131.6 273.491 131.48 273.971 131.24C274.451 131 274.831 130.673 275.111 130.26C275.404 129.833 275.571 129.347 275.611 128.8L276.331 129.14C276.331 129.953 276.144 130.68 275.771 131.32C275.397 131.947 274.877 132.44 274.211 132.8C273.544 133.147 272.784 133.32 271.931 133.32Z" fill="white"/>
<path fill-rule="evenodd" clip-rule="evenodd" d="M212.621 52.3875V48.6364H216.372V52.3875H212.621ZM209.809 48.3239C209.809 46.9431 210.928 45.8239 212.309 45.8239H216.685C218.065 45.8239 219.185 46.9431 219.185 48.3239V52.7C219.185 54.0807 218.065 55.2 216.685 55.2H212.309C210.928 55.2 209.809 54.0807 209.809 52.7V48.3239ZM220.436 64.873V61.1218H224.187V64.873H220.436ZM217.624 60.8093C217.624 59.4286 218.743 58.3093 220.124 58.3093H224.5C225.881 58.3093 227 59.4286 227 60.8093V65.1855C227 66.5662 225.881 67.6855 224.5 67.6855H220.124C218.743 67.6855 217.624 66.5662 217.624 65.1855V60.8093ZM237.587 73.6368V77.388H241.338V73.6368H237.587ZM237.274 70.8243C235.894 70.8243 234.774 71.9436 234.774 73.3243V77.7005C234.774 79.0812 235.894 80.2005 237.274 80.2005H241.651C243.031 80.2005 244.151 79.0812 244.151 77.7005V73.3243C244.151 71.9436 243.031 70.8243 241.651 70.8243H237.274ZM241.512 52.7769V56.3241H241.515V59.871C241.515 62.3736 239.486 64.4023 236.984 64.4023H232.489V66.6071L228.877 62.9952L232.489 59.3833V61.5898H236.984C237.933 61.5898 238.703 60.8203 238.703 59.871V56.3264H238.7V52.7769C238.7 51.8277 237.93 51.0582 236.981 51.0582L231.21 51.0582L230.482 51.0582H221.222V48.2457H230.482L231.21 48.2457L236.981 48.2457C239.484 48.2457 241.512 50.2744 241.512 52.7769ZM212.719 72.4768L212.719 69.3849V66.1194C212.719 65.1701 213.488 64.4006 214.438 64.4006H215.766L215.766 61.5881H214.438C211.935 61.5881 209.906 63.6168 209.906 66.1194L209.906 69.3849L209.906 72.4768C209.906 74.9794 211.935 77.0081 214.438 77.0081H229.235V79.1489L232.847 75.5369L229.235 71.925V74.1956H214.438C213.488 74.1956 212.719 73.4261 212.719 72.4768Z" fill="white"/>
<defs>
<filter id="filter0_ii_5308_869" x="-1" y="-1" width="346.5" height="226.5" filterUnits="userSpaceOnUse" color-interpolation-filters="sRGB">
<feFlood flood-opacity="0" result="BackgroundImageFix"/>
<feBlend mode="normal" in="SourceGraphic" in2="BackgroundImageFix" result="shape"/>
<feColorMatrix in="SourceAlpha" type="matrix" values="0 0 0 0 0 0 0 0 0 0 0 0 0 0 0 0 0 0 127 0" result="hardAlpha"/>
<feOffset dx="1" dy="1"/>
<feGaussianBlur stdDeviation="1.5"/>
<feComposite in2="hardAlpha" operator="arithmetic" k2="-1" k3="1"/>
<feColorMatrix type="matrix" values="0 0 0 0 1 0 0 0 0 1 0 0 0 0 1 0 0 0 1 0"/>
<feBlend mode="normal" in2="shape" result="effect1_innerShadow_5308_869"/>
<feColorMatrix in="SourceAlpha" type="matrix" values="0 0 0 0 0 0 0 0 0 0 0 0 0 0 0 0 0 0 127 0" result="hardAlpha"/>
<feOffset dx="-1" dy="-1"/>
<feGaussianBlur stdDeviation="1.5"/>
<feComposite in2="hardAlpha" operator="arithmetic" k2="-1" k3="1"/>
<feColorMatrix type="matrix" values="0 0 0 0 0 0 0 0 0 0 0 0 0 0 0 0 0 0 1 0"/>
<feBlend mode="normal" in2="effect1_innerShadow_5308_869" result="effect2_innerShadow_5308_869"/>
</filter>
<linearGradient id="paint0_linear_5308_869" x1="144.777" y1="224.5" x2="144.777" y2="40.1042" gradientUnits="userSpaceOnUse">
<stop stop-color="#454545"/>
<stop offset="1" stop-color="#8B8B8B"/>
</linearGradient>
</defs>
</svg>
