<svg width="328" height="223" viewBox="0 0 328 223" fill="none" xmlns="http://www.w3.org/2000/svg">
<g filter="url(#filter0_ii_5301_874)">
<path d="M328 213C328 218.523 323.523 223 318 223L9.99976 223C4.4769 223 -0.000244532 218.523 -0.000245015 213L-0.000253014 121.5C-0.000253497 115.977 4.47689 111.5 9.99975 111.5L46.4998 111.5C52.0226 111.5 56.4997 107.023 56.4998 101.5L56.5 9.99998C56.5 4.47714 60.9772 -7.1737e-06 66.5 -7.65652e-06L318 -2.96433e-05C323.523 -3.01262e-05 328 4.47713 328 9.99997L328 213Z" fill="url(#paint0_linear_5301_874)"/>
</g>
<path d="M96.7234 120V105.7H99.0234V118.84H97.5434L106.263 105.7H108.743V120H106.443V106.84H107.883L99.1634 120H96.7234ZM119.269 120V110.02H121.509V120H119.269ZM111.989 120V110.02H114.229V120H111.989ZM113.049 115.68V113.84H120.549V115.68H113.049ZM130.491 120.32C129.131 120.32 127.951 120.107 126.951 119.68C125.951 119.24 125.177 118.627 124.631 117.84C124.084 117.04 123.811 116.093 123.811 115C123.811 113.92 124.084 112.987 124.631 112.2C125.177 111.4 125.951 110.787 126.951 110.36C127.951 109.92 129.131 109.7 130.491 109.7H131.311C132.684 109.7 133.864 109.92 134.851 110.36C135.851 110.787 136.624 111.4 137.171 112.2C137.717 112.987 137.991 113.92 137.991 115C137.991 116.093 137.717 117.04 137.171 117.84C136.624 118.627 135.851 119.24 134.851 119.68C133.864 120.107 132.684 120.32 131.311 120.32H130.491ZM130.491 118.46H131.311C132.777 118.46 133.884 118.167 134.631 117.58C135.377 116.993 135.751 116.133 135.751 115C135.751 113.88 135.371 113.027 134.611 112.44C133.864 111.853 132.764 111.56 131.311 111.56H130.491C129.024 111.56 127.917 111.853 127.171 112.44C126.424 113.013 126.051 113.867 126.051 115C126.051 116.133 126.424 116.993 127.171 117.58C127.917 118.167 129.024 118.46 130.491 118.46ZM129.811 124.08V119.46L129.851 119.16V111.04L129.811 110.7V105.6H132.011V110.7L131.971 111.04V119.16L132.011 119.46V124.08H129.811ZM145.11 120.32C144.057 120.32 143.117 120.093 142.29 119.64C141.477 119.187 140.837 118.56 140.37 117.76C139.903 116.96 139.67 116.04 139.67 115C139.67 113.973 139.903 113.06 140.37 112.26C140.837 111.46 141.477 110.833 142.29 110.38C143.117 109.927 144.057 109.7 145.11 109.7C146.177 109.7 147.117 109.927 147.93 110.38C148.757 110.833 149.397 111.46 149.85 112.26C150.317 113.06 150.55 113.973 150.55 115C150.55 116.04 150.317 116.96 149.85 117.76C149.397 118.56 148.757 119.187 147.93 119.64C147.117 120.093 146.177 120.32 145.11 120.32ZM145.11 118.44C145.737 118.44 146.283 118.293 146.75 118C147.217 117.707 147.577 117.307 147.83 116.8C148.097 116.28 148.23 115.68 148.23 115C148.23 114.333 148.097 113.747 147.83 113.24C147.577 112.72 147.217 112.313 146.75 112.02C146.283 111.727 145.737 111.58 145.11 111.58C144.497 111.58 143.957 111.727 143.49 112.02C143.023 112.313 142.657 112.72 142.39 113.24C142.137 113.747 142.01 114.333 142.01 115C142.01 115.68 142.137 116.28 142.39 116.8C142.657 117.307 143.023 117.707 143.49 118C143.957 118.293 144.497 118.44 145.11 118.44ZM155.069 123.88H152.829V110.02H155.049V113.1H154.569C154.662 112.433 154.895 111.847 155.269 111.34C155.642 110.833 156.122 110.433 156.709 110.14C157.295 109.847 157.949 109.7 158.669 109.7C159.602 109.7 160.442 109.927 161.189 110.38C161.949 110.833 162.549 111.46 162.989 112.26C163.429 113.06 163.649 113.973 163.649 115C163.649 116.04 163.422 116.96 162.969 117.76C162.529 118.56 161.929 119.187 161.169 119.64C160.409 120.093 159.549 120.32 158.589 120.32C157.709 120.32 156.949 120.14 156.309 119.78C155.669 119.407 155.182 118.907 154.849 118.28C154.529 117.64 154.395 116.927 154.449 116.14L154.909 115.78C154.975 116.3 155.155 116.76 155.449 117.16C155.742 117.56 156.122 117.873 156.589 118.1C157.055 118.327 157.562 118.44 158.109 118.44C158.762 118.44 159.322 118.293 159.789 118C160.269 117.707 160.642 117.3 160.909 116.78C161.175 116.26 161.309 115.667 161.309 115C161.309 114.347 161.182 113.76 160.929 113.24C160.675 112.72 160.315 112.313 159.849 112.02C159.395 111.727 158.855 111.58 158.229 111.58C157.615 111.58 157.069 111.733 156.589 112.04C156.122 112.333 155.749 112.747 155.469 113.28C155.202 113.813 155.069 114.44 155.069 115.16V123.88ZM165.954 120V110.02H168.314L172.054 117.06L171.694 117.04L175.374 110.02H177.834V120H175.774V110.76L176.674 111.26L172.594 119H171.054L166.974 111.26L167.934 110.84V120H165.954ZM189.519 120H187.459V118.02L187.359 117.6V113.86C187.359 113.113 187.119 112.533 186.639 112.12C186.159 111.693 185.505 111.48 184.679 111.48C184.079 111.48 183.519 111.6 182.999 111.84C182.492 112.08 182.052 112.413 181.679 112.84L180.399 111.44C180.945 110.893 181.585 110.467 182.319 110.16C183.052 109.853 183.865 109.7 184.759 109.7C185.705 109.7 186.532 109.867 187.239 110.2C187.959 110.52 188.519 110.987 188.919 111.6C189.319 112.213 189.519 112.947 189.519 113.8V120ZM183.919 120.32C183.159 120.32 182.485 120.18 181.899 119.9C181.312 119.62 180.859 119.24 180.539 118.76C180.219 118.28 180.059 117.72 180.059 117.08C180.059 116.387 180.259 115.8 180.659 115.32C181.059 114.827 181.612 114.453 182.319 114.2C183.039 113.933 183.865 113.8 184.799 113.8H187.599V115.34H184.999C184.212 115.34 183.572 115.48 183.079 115.76C182.599 116.04 182.359 116.453 182.359 117C182.359 117.493 182.545 117.887 182.919 118.18C183.292 118.46 183.779 118.6 184.379 118.6C184.952 118.6 185.479 118.48 185.959 118.24C186.439 118 186.819 117.673 187.099 117.26C187.392 116.833 187.559 116.347 187.599 115.8L188.319 116.14C188.319 116.953 188.132 117.68 187.759 118.32C187.385 118.947 186.865 119.44 186.199 119.8C185.532 120.147 184.772 120.32 183.919 120.32ZM192.087 120V110.02H194.327V119.64L192.607 118.18H200.027L198.907 119.64V110.02H201.147V120H192.087ZM200.527 122.68V118.18H202.627V122.68H200.527ZM204.997 120V110.02H207.157V117.12L206.997 117.06L212.517 110.02H214.477V120H212.317V112.9L212.457 112.96L206.957 120H204.997ZM222.219 120.32C221.166 120.32 220.226 120.093 219.399 119.64C218.586 119.187 217.946 118.56 217.479 117.76C217.013 116.96 216.779 116.04 216.779 115C216.779 113.973 217.013 113.06 217.479 112.26C217.946 111.46 218.586 110.833 219.399 110.38C220.226 109.927 221.166 109.7 222.219 109.7C223.286 109.7 224.226 109.927 225.039 110.38C225.866 110.833 226.506 111.46 226.959 112.26C227.426 113.06 227.659 113.973 227.659 115C227.659 116.04 227.426 116.96 226.959 117.76C226.506 118.56 225.866 119.187 225.039 119.64C224.226 120.093 223.286 120.32 222.219 120.32ZM222.219 118.44C222.846 118.44 223.393 118.293 223.859 118C224.326 117.707 224.686 117.307 224.939 116.8C225.206 116.28 225.339 115.68 225.339 115C225.339 114.333 225.206 113.747 224.939 113.24C224.686 112.72 224.326 112.313 223.859 112.02C223.393 111.727 222.846 111.58 222.219 111.58C221.606 111.58 221.066 111.727 220.599 112.02C220.133 112.313 219.766 112.72 219.499 113.24C219.246 113.747 219.119 114.333 219.119 115C219.119 115.68 219.246 116.28 219.499 116.8C219.766 117.307 220.133 117.707 220.599 118C221.066 118.293 221.606 118.44 222.219 118.44ZM237.238 120V110.02H239.478V120H237.238ZM229.958 120V110.02H232.198V120H229.958ZM231.018 115.68V113.84H238.518V115.68H231.018ZM249.679 120V110.02H251.919V120H249.679ZM242.399 120V110.02H244.639V120H242.399ZM243.459 115.68V113.84H250.959V115.68H243.459ZM263.601 120H261.541V118.02L261.441 117.6V113.86C261.441 113.113 261.201 112.533 260.721 112.12C260.241 111.693 259.588 111.48 258.761 111.48C258.161 111.48 257.601 111.6 257.081 111.84C256.574 112.08 256.134 112.413 255.761 112.84L254.481 111.44C255.028 110.893 255.668 110.467 256.401 110.16C257.134 109.853 257.948 109.7 258.841 109.7C259.788 109.7 260.614 109.867 261.321 110.2C262.041 110.52 262.601 110.987 263.001 111.6C263.401 112.213 263.601 112.947 263.601 113.8V120ZM258.001 120.32C257.241 120.32 256.568 120.18 255.981 119.9C255.394 119.62 254.941 119.24 254.621 118.76C254.301 118.28 254.141 117.72 254.141 117.08C254.141 116.387 254.341 115.8 254.741 115.32C255.141 114.827 255.694 114.453 256.401 114.2C257.121 113.933 257.948 113.8 258.881 113.8H261.681V115.34H259.081C258.294 115.34 257.654 115.48 257.161 115.76C256.681 116.04 256.441 116.453 256.441 117C256.441 117.493 256.628 117.887 257.001 118.18C257.374 118.46 257.861 118.6 258.461 118.6C259.034 118.6 259.561 118.48 260.041 118.24C260.521 118 260.901 117.673 261.181 117.26C261.474 116.833 261.641 116.347 261.681 115.8L262.401 116.14C262.401 116.953 262.214 117.68 261.841 118.32C261.468 118.947 260.948 119.44 260.281 119.8C259.614 120.147 258.854 120.32 258.001 120.32ZM272.489 120V110.32L273.929 111.74H269.949C269.442 111.74 269.016 111.853 268.669 112.08C268.336 112.307 268.169 112.68 268.169 113.2C268.169 113.667 268.322 114.027 268.629 114.28C268.949 114.533 269.396 114.66 269.969 114.66H273.409V116.3H269.729C268.569 116.3 267.642 116.02 266.949 115.46C266.269 114.887 265.929 114.12 265.929 113.16C265.929 112.56 266.096 112.027 266.429 111.56C266.762 111.08 267.216 110.707 267.789 110.44C268.376 110.16 269.036 110.02 269.769 110.02H274.589V120H272.489ZM265.449 120L268.889 115.56H271.209L267.949 120H265.449ZM122.392 145.32C120.686 145.32 119.372 144.713 118.452 143.5C117.532 142.287 117.072 140.547 117.072 138.28C117.072 136.053 117.459 134.38 118.232 133.26C119.006 132.14 120.232 131.467 121.912 131.24L126.292 130.6L126.572 132.46L122.252 133.12C121.506 133.24 120.906 133.473 120.452 133.82C120.012 134.167 119.692 134.687 119.492 135.38C119.292 136.06 119.166 136.967 119.112 138.1L118.772 138.7C118.906 138.02 119.172 137.44 119.572 136.96C119.972 136.467 120.472 136.093 121.072 135.84C121.672 135.573 122.312 135.44 122.992 135.44C123.952 135.44 124.766 135.647 125.432 136.06C126.112 136.46 126.632 137.02 126.992 137.74C127.352 138.447 127.532 139.26 127.532 140.18C127.532 141.207 127.319 142.107 126.892 142.88C126.466 143.653 125.866 144.253 125.092 144.68C124.332 145.107 123.432 145.32 122.392 145.32ZM122.312 143.42C123.219 143.42 123.926 143.14 124.432 142.58C124.952 142.02 125.212 141.253 125.212 140.28C125.212 139.333 124.972 138.6 124.492 138.08C124.012 137.547 123.332 137.28 122.452 137.28C121.932 137.28 121.459 137.4 121.032 137.64C120.606 137.867 120.239 138.187 119.932 138.6C119.639 139.013 119.439 139.507 119.332 140.08L119.412 138.96C119.386 140.48 119.606 141.607 120.072 142.34C120.539 143.06 121.286 143.42 122.312 143.42ZM138.181 141.98L139.461 143.38C138.941 143.98 138.294 144.453 137.521 144.8C136.748 145.147 135.888 145.32 134.941 145.32C133.821 145.32 132.828 145.093 131.961 144.64C131.108 144.187 130.434 143.56 129.941 142.76C129.461 141.96 129.221 141.047 129.221 140.02C129.221 138.98 129.454 138.06 129.921 137.26C130.388 136.46 131.028 135.833 131.841 135.38C132.654 134.927 133.568 134.7 134.581 134.7C135.568 134.7 136.441 134.927 137.201 135.38C137.961 135.82 138.561 136.433 139.001 137.22C139.441 137.993 139.661 138.893 139.661 139.92V140.04H137.441V139.82C137.441 139.153 137.314 138.573 137.061 138.08C136.821 137.573 136.488 137.187 136.061 136.92C135.634 136.64 135.134 136.5 134.561 136.5C133.961 136.5 133.428 136.647 132.961 136.94C132.508 137.22 132.154 137.62 131.901 138.14C131.648 138.647 131.521 139.26 131.521 139.98C131.521 140.7 131.668 141.327 131.961 141.86C132.268 142.393 132.681 142.807 133.201 143.1C133.734 143.38 134.348 143.52 135.041 143.52C136.308 143.52 137.354 143.007 138.181 141.98ZM139.661 140.72H130.781V139.2H139.341L139.661 139.94V140.72ZM145.309 145.32C144.469 145.32 143.643 145.173 142.829 144.88C142.016 144.587 141.336 144.147 140.789 143.56L142.009 142.2C142.876 143.067 143.956 143.5 145.249 143.5C146.023 143.5 146.629 143.367 147.069 143.1C147.509 142.82 147.729 142.44 147.729 141.96C147.729 141.107 146.983 140.68 145.489 140.68H143.489V139.1H145.509C146.136 139.1 146.616 139 146.949 138.8C147.283 138.587 147.449 138.273 147.449 137.86C147.449 137.447 147.249 137.12 146.849 136.88C146.463 136.64 145.929 136.52 145.249 136.52C144.089 136.52 143.096 136.953 142.269 137.82L141.049 136.42C142.169 135.273 143.589 134.7 145.309 134.7C146.149 134.7 146.889 134.827 147.529 135.08C148.183 135.32 148.696 135.66 149.069 136.1C149.443 136.527 149.629 137.027 149.629 137.6C149.629 138.133 149.469 138.593 149.149 138.98C148.829 139.367 148.376 139.647 147.789 139.82V139.66C148.469 139.833 148.996 140.133 149.369 140.56C149.743 140.973 149.929 141.487 149.929 142.1C149.929 142.713 149.729 143.267 149.329 143.76C148.929 144.24 148.383 144.62 147.689 144.9C146.996 145.18 146.203 145.32 145.309 145.32ZM156.829 145.32C155.775 145.32 154.835 145.093 154.009 144.64C153.195 144.187 152.555 143.56 152.089 142.76C151.622 141.96 151.389 141.04 151.389 140C151.389 138.973 151.622 138.06 152.089 137.26C152.555 136.46 153.195 135.833 154.009 135.38C154.835 134.927 155.775 134.7 156.829 134.7C157.895 134.7 158.835 134.927 159.649 135.38C160.475 135.833 161.115 136.46 161.569 137.26C162.035 138.06 162.269 138.973 162.269 140C162.269 141.04 162.035 141.96 161.569 142.76C161.115 143.56 160.475 144.187 159.649 144.64C158.835 145.093 157.895 145.32 156.829 145.32ZM156.829 143.44C157.455 143.44 158.002 143.293 158.469 143C158.935 142.707 159.295 142.307 159.549 141.8C159.815 141.28 159.949 140.68 159.949 140C159.949 139.333 159.815 138.747 159.549 138.24C159.295 137.72 158.935 137.313 158.469 137.02C158.002 136.727 157.455 136.58 156.829 136.58C156.215 136.58 155.675 136.727 155.209 137.02C154.742 137.313 154.375 137.72 154.109 138.24C153.855 138.747 153.729 139.333 153.729 140C153.729 140.68 153.855 141.28 154.109 141.8C154.375 142.307 154.742 142.707 155.209 143C155.675 143.293 156.215 143.44 156.829 143.44ZM164.567 145V135.02H173.787V145H171.547V135.38L173.147 136.84H165.087L166.807 135.38V145H164.567ZM185.476 145H183.416V143.02L183.316 142.6V138.86C183.316 138.113 183.076 137.533 182.596 137.12C182.116 136.693 181.463 136.48 180.636 136.48C180.036 136.48 179.476 136.6 178.956 136.84C178.449 137.08 178.009 137.413 177.636 137.84L176.356 136.44C176.903 135.893 177.543 135.467 178.276 135.16C179.009 134.853 179.823 134.7 180.716 134.7C181.663 134.7 182.489 134.867 183.196 135.2C183.916 135.52 184.476 135.987 184.876 136.6C185.276 137.213 185.476 137.947 185.476 138.8V145ZM179.876 145.32C179.116 145.32 178.443 145.18 177.856 144.9C177.269 144.62 176.816 144.24 176.496 143.76C176.176 143.28 176.016 142.72 176.016 142.08C176.016 141.387 176.216 140.8 176.616 140.32C177.016 139.827 177.569 139.453 178.276 139.2C178.996 138.933 179.823 138.8 180.756 138.8H183.556V140.34H180.956C180.169 140.34 179.529 140.48 179.036 140.76C178.556 141.04 178.316 141.453 178.316 142C178.316 142.493 178.503 142.887 178.876 143.18C179.249 143.46 179.736 143.6 180.336 143.6C180.909 143.6 181.436 143.48 181.916 143.24C182.396 143 182.776 142.673 183.056 142.26C183.349 141.833 183.516 141.347 183.556 140.8L184.276 141.14C184.276 141.953 184.089 142.68 183.716 143.32C183.343 143.947 182.823 144.44 182.156 144.8C181.489 145.147 180.729 145.32 179.876 145.32ZM195.644 141.94L197.084 143.34C196.591 143.953 195.984 144.44 195.264 144.8C194.544 145.147 193.717 145.32 192.784 145.32C191.757 145.32 190.837 145.093 190.024 144.64C189.224 144.173 188.591 143.547 188.124 142.76C187.657 141.96 187.424 141.04 187.424 140C187.424 138.973 187.657 138.067 188.124 137.28C188.591 136.48 189.231 135.853 190.044 135.4C190.871 134.933 191.804 134.7 192.844 134.7C193.751 134.7 194.557 134.873 195.264 135.22C195.984 135.567 196.591 136.053 197.084 136.68L195.644 138.08C195.351 137.627 194.977 137.267 194.524 137C194.084 136.72 193.551 136.58 192.924 136.58C192.311 136.58 191.764 136.727 191.284 137.02C190.804 137.313 190.431 137.72 190.164 138.24C189.897 138.747 189.764 139.333 189.764 140C189.764 140.667 189.897 141.26 190.164 141.78C190.431 142.3 190.804 142.707 191.284 143C191.764 143.293 192.311 143.44 192.924 143.44C193.551 143.44 194.084 143.3 194.524 143.02C194.977 142.74 195.351 142.38 195.644 141.94ZM206.496 145V135.02H208.736V145H206.496ZM199.216 145V135.02H201.456V145H199.216ZM200.276 140.68V138.84H207.776V140.68H200.276ZM216.477 145.32C215.424 145.32 214.484 145.093 213.657 144.64C212.844 144.187 212.204 143.56 211.737 142.76C211.271 141.96 211.037 141.04 211.037 140C211.037 138.973 211.271 138.06 211.737 137.26C212.204 136.46 212.844 135.833 213.657 135.38C214.484 134.927 215.424 134.7 216.477 134.7C217.544 134.7 218.484 134.927 219.297 135.38C220.124 135.833 220.764 136.46 221.217 137.26C221.684 138.06 221.917 138.973 221.917 140C221.917 141.04 221.684 141.96 221.217 142.76C220.764 143.56 220.124 144.187 219.297 144.64C218.484 145.093 217.544 145.32 216.477 145.32ZM216.477 143.44C217.104 143.44 217.651 143.293 218.117 143C218.584 142.707 218.944 142.307 219.197 141.8C219.464 141.28 219.597 140.68 219.597 140C219.597 139.333 219.464 138.747 219.197 138.24C218.944 137.72 218.584 137.313 218.117 137.02C217.651 136.727 217.104 136.58 216.477 136.58C215.864 136.58 215.324 136.727 214.857 137.02C214.391 137.313 214.024 137.72 213.757 138.24C213.504 138.747 213.377 139.333 213.377 140C213.377 140.68 213.504 141.28 213.757 141.8C214.024 142.307 214.391 142.707 214.857 143C215.324 143.293 215.864 143.44 216.477 143.44ZM231.816 141.94L233.256 143.34C232.763 143.953 232.156 144.44 231.436 144.8C230.716 145.147 229.889 145.32 228.956 145.32C227.929 145.32 227.009 145.093 226.196 144.64C225.396 144.173 224.763 143.547 224.296 142.76C223.829 141.96 223.596 141.04 223.596 140C223.596 138.973 223.829 138.067 224.296 137.28C224.763 136.48 225.403 135.853 226.216 135.4C227.043 134.933 227.976 134.7 229.016 134.7C229.923 134.7 230.729 134.873 231.436 135.22C232.156 135.567 232.763 136.053 233.256 136.68L231.816 138.08C231.523 137.627 231.149 137.267 230.696 137C230.256 136.72 229.723 136.58 229.096 136.58C228.483 136.58 227.936 136.727 227.456 137.02C226.976 137.313 226.603 137.72 226.336 138.24C226.069 138.747 225.936 139.333 225.936 140C225.936 140.667 226.069 141.26 226.336 141.78C226.603 142.3 226.976 142.707 227.456 143C227.936 143.293 228.483 143.44 229.096 143.44C229.723 143.44 230.256 143.3 230.696 143.02C231.149 142.74 231.523 142.38 231.816 141.94ZM237.888 145V135.76H240.128V145H237.888ZM234.388 136.84V135.02H243.608V136.84H234.388ZM245.524 145V135.02H247.684V144.7L246.184 143.18H250.264C250.838 143.18 251.278 143.047 251.584 142.78C251.891 142.5 252.044 142.12 252.044 141.64C252.044 141.16 251.891 140.787 251.584 140.52C251.278 140.253 250.838 140.12 250.264 140.12H246.684V138.3H250.444C251.618 138.3 252.558 138.607 253.264 139.22C253.984 139.833 254.344 140.62 254.344 141.58C254.344 142.26 254.178 142.86 253.844 143.38C253.511 143.887 253.051 144.287 252.464 144.58C251.878 144.86 251.204 145 250.444 145H245.524Z" fill="white"/>
<path d="M198.663 64.5659L186.293 61.1534C185.805 61.0315 185.257 61.0315 184.77 61.1534L172.338 64.5659C171.059 64.9315 170.145 66.0894 170.145 67.43V76.4487C170.145 85.894 175.751 94.2425 184.404 97.7159C184.77 97.8378 185.135 97.9597 185.501 97.9597C185.866 97.9597 186.232 97.8987 186.598 97.7159C195.251 94.2425 200.857 85.8331 200.857 76.3878V67.43C200.857 66.0894 199.943 64.9315 198.663 64.5659ZM198.115 76.3878C198.115 84.5534 193.057 92.1097 185.623 95.1565C185.562 95.1565 185.501 95.1565 185.44 95.1565C177.823 92.1097 172.887 84.7362 172.887 76.4487V67.43C172.887 67.369 172.948 67.2472 173.009 67.2472L185.44 63.8347H185.501C185.501 63.8347 185.501 63.8347 185.562 63.8347L197.993 67.2472C198.054 67.2472 198.115 67.369 198.115 67.43V76.3878Z" fill="white"/>
<path d="M192.388 73.7689L183.979 80.8376L180.201 77.6689C179.591 77.1814 178.738 77.2423 178.251 77.8517C177.763 78.461 177.824 79.3142 178.434 79.8017L183.065 83.7017C183.309 83.9454 183.613 84.0064 183.918 84.0064C184.223 84.0064 184.527 83.8845 184.771 83.7017L194.155 75.8407C194.765 75.3532 194.826 74.5001 194.338 73.8907C193.851 73.3423 192.937 73.2814 192.388 73.7689Z" fill="white"/>
<defs>
<filter id="filter0_ii_5301_874" x="-1" y="-1" width="330" height="225" filterUnits="userSpaceOnUse" color-interpolation-filters="sRGB">
<feFlood flood-opacity="0" result="BackgroundImageFix"/>
<feBlend mode="normal" in="SourceGraphic" in2="BackgroundImageFix" result="shape"/>
<feColorMatrix in="SourceAlpha" type="matrix" values="0 0 0 0 0 0 0 0 0 0 0 0 0 0 0 0 0 0 127 0" result="hardAlpha"/>
<feOffset dx="1" dy="1"/>
<feGaussianBlur stdDeviation="1.5"/>
<feComposite in2="hardAlpha" operator="arithmetic" k2="-1" k3="1"/>
<feColorMatrix type="matrix" values="0 0 0 0 1 0 0 0 0 1 0 0 0 0 1 0 0 0 1 0"/>
<feBlend mode="normal" in2="shape" result="effect1_innerShadow_5301_874"/>
<feColorMatrix in="SourceAlpha" type="matrix" values="0 0 0 0 0 0 0 0 0 0 0 0 0 0 0 0 0 0 127 0" result="hardAlpha"/>
<feOffset dx="-1" dy="-1"/>
<feGaussianBlur stdDeviation="1.5"/>
<feComposite in2="hardAlpha" operator="arithmetic" k2="-1" k3="1"/>
<feColorMatrix type="matrix" values="0 0 0 0 0 0 0 0 0 0 0 0 0 0 0 0 0 0 1 0"/>
<feBlend mode="normal" in2="effect1_innerShadow_5301_874" result="effect2_innerShadow_5301_874"/>
</filter>
<linearGradient id="paint0_linear_5301_874" x1="137.843" y1="-1.38935e-05" x2="137.843" y2="183.164" gradientUnits="userSpaceOnUse">
<stop stop-color="#ABABAB"/>
<stop offset="1" stop-color="#8D8D8D"/>
</linearGradient>
</defs>
</svg>
