<svg width="261" height="344" viewBox="0 0 261 344" fill="none" xmlns="http://www.w3.org/2000/svg">
<g filter="url(#filter0_ii_5308_867)">
<path d="M251 241.709C256.523 241.709 261 237.232 261 231.709L261 10C261 4.47717 256.523 -5.33895e-08 251 -1.19249e-07L177.301 -9.98105e-07C171.778 -1.06396e-06 167.301 4.47714 167.301 10L167.301 70.3172C167.301 75.84 162.823 80.3172 157.301 80.3172L10 80.3172C4.47715 80.3172 3.091e-06 84.7943 3.02514e-06 90.3172L1.19249e-07 334C5.33895e-08 339.523 4.47714 344 10 344L166.5 344C172.023 344 176.5 339.523 176.5 334L176.5 251.709C176.5 246.186 180.977 241.709 186.5 241.709L251 241.709Z" fill="url(#paint0_linear_5308_867)"/>
</g>
<path d="M72.0113 184V182.06H73.7913C74.2446 182.06 74.6313 181.993 74.9513 181.86C75.2713 181.713 75.5579 181.473 75.8112 181.14C76.0646 180.807 76.3246 180.353 76.5913 179.78L81.3913 169.7H83.7513L78.1913 181C77.8313 181.733 77.4513 182.32 77.0513 182.76C76.6646 183.2 76.2179 183.52 75.7113 183.72C75.2046 183.907 74.5979 184 73.8913 184H72.0113ZM76.4913 180.8L70.8513 169.7H73.2313L78.2313 179.76L76.4913 180.8ZM84.335 184V174.02H93.555V184H91.315V174.38L92.915 175.84H84.855L86.575 174.38V184H84.335ZM98.7034 187.88H96.4634V174.02H98.6834V177.1H98.2034C98.2968 176.433 98.5301 175.847 98.9034 175.34C99.2768 174.833 99.7568 174.433 100.343 174.14C100.93 173.847 101.583 173.7 102.303 173.7C103.237 173.7 104.077 173.927 104.823 174.38C105.583 174.833 106.183 175.46 106.623 176.26C107.063 177.06 107.283 177.973 107.283 179C107.283 180.04 107.057 180.96 106.603 181.76C106.163 182.56 105.563 183.187 104.803 183.64C104.043 184.093 103.183 184.32 102.223 184.32C101.343 184.32 100.583 184.14 99.9434 183.78C99.3034 183.407 98.8168 182.907 98.4834 182.28C98.1634 181.64 98.0301 180.927 98.0834 180.14L98.5434 179.78C98.6101 180.3 98.7901 180.76 99.0834 181.16C99.3768 181.56 99.7568 181.873 100.223 182.1C100.69 182.327 101.197 182.44 101.743 182.44C102.397 182.44 102.957 182.293 103.423 182C103.903 181.707 104.277 181.3 104.543 180.78C104.81 180.26 104.943 179.667 104.943 179C104.943 178.347 104.817 177.76 104.563 177.24C104.31 176.72 103.95 176.313 103.483 176.02C103.03 175.727 102.49 175.58 101.863 175.58C101.25 175.58 100.703 175.733 100.223 176.04C99.7568 176.333 99.3834 176.747 99.1034 177.28C98.8368 177.813 98.7034 178.44 98.7034 179.16V187.88ZM118.193 184H116.133V182.02L116.033 181.6V177.86C116.033 177.113 115.793 176.533 115.313 176.12C114.833 175.693 114.179 175.48 113.353 175.48C112.753 175.48 112.193 175.6 111.673 175.84C111.166 176.08 110.726 176.413 110.353 176.84L109.073 175.44C109.619 174.893 110.259 174.467 110.993 174.16C111.726 173.853 112.539 173.7 113.433 173.7C114.379 173.7 115.206 173.867 115.913 174.2C116.633 174.52 117.193 174.987 117.593 175.6C117.993 176.213 118.193 176.947 118.193 177.8V184ZM112.593 184.32C111.833 184.32 111.159 184.18 110.573 183.9C109.986 183.62 109.533 183.24 109.213 182.76C108.893 182.28 108.733 181.72 108.733 181.08C108.733 180.387 108.933 179.8 109.333 179.32C109.733 178.827 110.286 178.453 110.993 178.2C111.713 177.933 112.539 177.8 113.473 177.8H116.273V179.34H113.673C112.886 179.34 112.246 179.48 111.753 179.76C111.273 180.04 111.033 180.453 111.033 181C111.033 181.493 111.219 181.887 111.593 182.18C111.966 182.46 112.453 182.6 113.053 182.6C113.626 182.6 114.153 182.48 114.633 182.24C115.113 182 115.493 181.673 115.773 181.26C116.066 180.833 116.233 180.347 116.273 179.8L116.993 180.14C116.993 180.953 116.806 181.68 116.433 182.32C116.059 182.947 115.539 183.44 114.873 183.8C114.206 184.147 113.446 184.32 112.593 184.32ZM120.761 184V174.02H125.861C126.941 174.02 127.794 174.26 128.421 174.74C129.047 175.22 129.361 175.867 129.361 176.68C129.361 177.187 129.207 177.633 128.901 178.02C128.607 178.393 128.207 178.68 127.701 178.88L127.681 178.7C128.321 178.873 128.841 179.173 129.241 179.6C129.641 180.013 129.841 180.52 129.841 181.12C129.841 181.693 129.667 182.2 129.321 182.64C128.987 183.067 128.534 183.4 127.961 183.64C127.387 183.88 126.747 184 126.041 184H120.761ZM122.821 183.44L121.661 182.32H125.761C126.361 182.32 126.814 182.207 127.121 181.98C127.441 181.753 127.601 181.42 127.601 180.98C127.601 180.54 127.441 180.207 127.121 179.98C126.814 179.753 126.361 179.64 125.761 179.64H121.881V178.06H125.601C126.161 178.06 126.554 177.953 126.781 177.74C127.021 177.527 127.141 177.227 127.141 176.84C127.141 176.453 127.021 176.167 126.781 175.98C126.554 175.793 126.161 175.7 125.601 175.7H121.601L122.821 174.54V183.44ZM130.814 184V182.14H131.534C131.894 182.14 132.16 182.053 132.334 181.88C132.52 181.707 132.627 181.407 132.654 180.98L133.294 174.02H140.894V184H138.654V174.38L140.254 175.84H133.714L135.414 174.38L134.734 181.42C134.64 182.38 134.374 183.053 133.934 183.44C133.494 183.813 132.82 184 131.914 184H130.814ZM152.128 180.98L153.408 182.38C152.888 182.98 152.241 183.453 151.468 183.8C150.695 184.147 149.835 184.32 148.888 184.32C147.768 184.32 146.775 184.093 145.908 183.64C145.055 183.187 144.381 182.56 143.888 181.76C143.408 180.96 143.168 180.047 143.168 179.02C143.168 177.98 143.401 177.06 143.868 176.26C144.335 175.46 144.975 174.833 145.788 174.38C146.601 173.927 147.515 173.7 148.528 173.7C149.515 173.7 150.388 173.927 151.148 174.38C151.908 174.82 152.508 175.433 152.948 176.22C153.388 176.993 153.608 177.893 153.608 178.92V179.04H151.388V178.82C151.388 178.153 151.261 177.573 151.008 177.08C150.768 176.573 150.435 176.187 150.008 175.92C149.581 175.64 149.081 175.5 148.508 175.5C147.908 175.5 147.375 175.647 146.908 175.94C146.455 176.22 146.101 176.62 145.848 177.14C145.595 177.647 145.468 178.26 145.468 178.98C145.468 179.7 145.615 180.327 145.908 180.86C146.215 181.393 146.628 181.807 147.148 182.1C147.681 182.38 148.295 182.52 148.988 182.52C150.255 182.52 151.301 182.007 152.128 180.98ZM153.608 179.72H144.728V178.2H153.288L153.608 178.94V179.72ZM163.217 184V174.02H165.457V184H163.217ZM155.937 184V174.02H158.177V184H155.937ZM156.997 179.68V177.84H164.497V179.68H156.997ZM168.378 184V174.02H170.538V181.12L170.378 181.06L175.898 174.02H177.858V184H175.698V176.9L175.838 176.96L170.338 184H168.378ZM189.12 180.98L190.4 182.38C189.88 182.98 189.234 183.453 188.46 183.8C187.687 184.147 186.827 184.32 185.88 184.32C184.76 184.32 183.767 184.093 182.9 183.64C182.047 183.187 181.374 182.56 180.88 181.76C180.4 180.96 180.16 180.047 180.16 179.02C180.16 177.98 180.394 177.06 180.86 176.26C181.327 175.46 181.967 174.833 182.78 174.38C183.594 173.927 184.507 173.7 185.52 173.7C186.507 173.7 187.38 173.927 188.14 174.38C188.9 174.82 189.5 175.433 189.94 176.22C190.38 176.993 190.6 177.893 190.6 178.92V179.04H188.38V178.82C188.38 178.153 188.254 177.573 188 177.08C187.76 176.573 187.427 176.187 187 175.92C186.574 175.64 186.074 175.5 185.5 175.5C184.9 175.5 184.367 175.647 183.9 175.94C183.447 176.22 183.094 176.62 182.84 177.14C182.587 177.647 182.46 178.26 182.46 178.98C182.46 179.7 182.607 180.327 182.9 180.86C183.207 181.393 183.62 181.807 184.14 182.1C184.674 182.38 185.287 182.52 185.98 182.52C187.247 182.52 188.294 182.007 189.12 180.98ZM190.6 179.72H181.72V178.2H190.28L190.6 178.94V179.72ZM86.3048 208.06V207.18H86.6248C86.9048 207.18 87.1248 207.127 87.2848 207.02C87.4581 206.9 87.5848 206.7 87.6648 206.42C87.7581 206.127 87.8314 205.72 87.8848 205.2L88.5648 199.02H96.0248V207.76H93.8248V199.38L95.3848 200.84H88.9448L90.7048 199.38L89.9848 205.38C89.9181 206.047 89.7848 206.573 89.5848 206.96C89.3981 207.347 89.1114 207.627 88.7248 207.8C88.3514 207.973 87.8448 208.06 87.2048 208.06H86.3048ZM85.8248 211.68V207.18H97.5848V211.68H95.4848V207.7L96.7448 209H87.1448L87.9448 207.7V211.68H85.8248ZM108.32 209H106.26V207.02L106.16 206.6V202.86C106.16 202.113 105.92 201.533 105.44 201.12C104.96 200.693 104.306 200.48 103.48 200.48C102.88 200.48 102.32 200.6 101.8 200.84C101.293 201.08 100.853 201.413 100.48 201.84L99.1996 200.44C99.7463 199.893 100.386 199.467 101.12 199.16C101.853 198.853 102.666 198.7 103.56 198.7C104.506 198.7 105.333 198.867 106.04 199.2C106.76 199.52 107.32 199.987 107.72 200.6C108.12 201.213 108.32 201.947 108.32 202.8V209ZM102.72 209.32C101.96 209.32 101.286 209.18 100.7 208.9C100.113 208.62 99.6596 208.24 99.3396 207.76C99.0196 207.28 98.8596 206.72 98.8596 206.08C98.8596 205.387 99.0596 204.8 99.4596 204.32C99.8596 203.827 100.413 203.453 101.12 203.2C101.84 202.933 102.666 202.8 103.6 202.8H106.4V204.34H103.8C103.013 204.34 102.373 204.48 101.88 204.76C101.4 205.04 101.16 205.453 101.16 206C101.16 206.493 101.346 206.887 101.72 207.18C102.093 207.46 102.58 207.6 103.18 207.6C103.753 207.6 104.28 207.48 104.76 207.24C105.24 207 105.62 206.673 105.9 206.26C106.193 205.833 106.36 205.347 106.4 204.8L107.12 205.14C107.12 205.953 106.933 206.68 106.56 207.32C106.186 207.947 105.666 208.44 105 208.8C104.333 209.147 103.573 209.32 102.72 209.32ZM118.168 209V199.02H120.408V209H118.168ZM110.888 209V199.02H113.128V209H110.888ZM111.948 204.68V202.84H119.448V204.68H111.948ZM130.609 209V199.02H132.849V209H130.609ZM123.329 209V199.02H125.569V209H123.329ZM124.389 204.68V202.84H131.889V204.68H124.389ZM135.771 209V199.02H137.931V208.7L136.371 207.18H140.471C141.044 207.18 141.484 207.047 141.791 206.78C142.097 206.5 142.251 206.12 142.251 205.64C142.251 205.16 142.097 204.787 141.791 204.52C141.484 204.253 141.044 204.12 140.471 204.12H136.891V202.3H140.631C141.817 202.3 142.764 202.607 143.471 203.22C144.177 203.833 144.531 204.62 144.531 205.58C144.531 206.26 144.364 206.86 144.031 207.38C143.711 207.887 143.257 208.287 142.671 208.58C142.084 208.86 141.404 209 140.631 209H135.771ZM145.711 209V199.02H147.951V209H145.711ZM150.868 209V199.02H153.228L156.968 206.06L156.608 206.04L160.288 199.02H162.748V209H160.688V199.76L161.588 200.26L157.508 208H155.968L151.888 200.26L152.848 199.84V209H150.868ZM165.673 209V199.02H167.833V206.12L167.673 206.06L173.193 199.02H175.153V209H172.993V201.9L173.133 201.96L167.633 209H165.673Z" fill="white"/>
<path d="M131 120.124C123.688 120.124 117.938 123.562 117.938 127.874V150.124C117.938 154.437 123.813 157.874 130.938 157.874C138.125 157.874 144 154.374 144 150.124V127.874C144.062 123.499 138.313 120.124 131 120.124ZM131 122.937C137 122.937 141.25 125.562 141.25 127.874C141.25 130.249 137.063 132.812 131 132.812C124.938 132.812 120.75 130.187 120.75 127.874C120.75 125.499 125 122.937 131 122.937ZM131 155.124C125.125 155.124 120.812 152.499 120.812 150.187V147.749C123.188 149.499 126.813 150.562 131 150.562C135.188 150.562 138.875 149.437 141.25 147.749V150.187C141.25 152.499 136.875 155.124 131 155.124ZM131 147.749C125 147.749 120.812 145.249 120.812 142.999V140.124C123.25 141.874 127.063 142.937 131 142.937C135.125 142.937 138.813 141.874 141.25 140.124V142.999C141.25 145.249 137 147.749 131 147.749ZM139.625 137.812C137.688 139.249 134.5 140.124 131 140.124C127.563 140.124 124.313 139.249 122.375 137.812C121.625 137.312 120.812 136.437 120.812 135.374V132.749C123.188 134.499 126.875 135.624 131.062 135.624C135.25 135.624 138.938 134.499 141.313 132.749V135.374C141.25 136.374 140.375 137.249 139.625 137.812Z" fill="white"/>
<defs>
<filter id="filter0_ii_5308_867" x="-1" y="-1" width="263" height="346" filterUnits="userSpaceOnUse" color-interpolation-filters="sRGB">
<feFlood flood-opacity="0" result="BackgroundImageFix"/>
<feBlend mode="normal" in="SourceGraphic" in2="BackgroundImageFix" result="shape"/>
<feColorMatrix in="SourceAlpha" type="matrix" values="0 0 0 0 0 0 0 0 0 0 0 0 0 0 0 0 0 0 127 0" result="hardAlpha"/>
<feOffset dx="1" dy="1"/>
<feGaussianBlur stdDeviation="1.5"/>
<feComposite in2="hardAlpha" operator="arithmetic" k2="-1" k3="1"/>
<feColorMatrix type="matrix" values="0 0 0 0 1 0 0 0 0 1 0 0 0 0 1 0 0 0 1 0"/>
<feBlend mode="normal" in2="shape" result="effect1_innerShadow_5308_867"/>
<feColorMatrix in="SourceAlpha" type="matrix" values="0 0 0 0 0 0 0 0 0 0 0 0 0 0 0 0 0 0 127 0" result="hardAlpha"/>
<feOffset dx="-1" dy="-1"/>
<feGaussianBlur stdDeviation="1.5"/>
<feComposite in2="hardAlpha" operator="arithmetic" k2="-1" k3="1"/>
<feColorMatrix type="matrix" values="0 0 0 0 0 0 0 0 0 0 0 0 0 0 0 0 0 0 1 0"/>
<feBlend mode="normal" in2="effect1_innerShadow_5308_867" result="effect2_innerShadow_5308_867"/>
</filter>
<linearGradient id="paint0_linear_5308_867" x1="2.37821e-06" y1="144.567" x2="214.375" y2="144.567" gradientUnits="userSpaceOnUse">
<stop stop-color="#363636"/>
<stop offset="1" stop-color="#5B5B5B"/>
</linearGradient>
</defs>
</svg>
