<svg width="445" height="216" viewBox="0 0 445 216" fill="none" xmlns="http://www.w3.org/2000/svg">
<g filter="url(#filter0_ii_5301_873)">
<path d="M0 206C0 211.523 4.47715 216 10 216L435 216C440.523 216 445 211.523 445 206V79C445 73.4772 440.523 69 435 69L302.5 69C296.977 69 292.5 64.5228 292.5 59V10C292.5 4.47716 288.023 0 282.5 0L92 0C86.4771 0 82 4.47716 82 10L82 85.5C82 91.0228 77.5229 95.5 72 95.5L10 95.5C4.47715 95.5 0 99.9771 0 105.5L0 206Z" fill="url(#paint0_linear_5301_873)"/>
</g>
<path d="M171.162 118.08L172.702 119.62C172.076 120.447 171.256 121.107 170.242 121.6C169.242 122.08 168.136 122.32 166.922 122.32C165.842 122.32 164.849 122.133 163.942 121.76C163.049 121.387 162.269 120.867 161.602 120.2C160.949 119.533 160.436 118.747 160.062 117.84C159.702 116.92 159.522 115.927 159.522 114.86C159.522 113.78 159.709 112.787 160.082 111.88C160.456 110.96 160.976 110.167 161.642 109.5C162.322 108.833 163.116 108.313 164.022 107.94C164.929 107.567 165.916 107.38 166.982 107.38C168.196 107.38 169.296 107.627 170.282 108.12C171.269 108.6 172.076 109.253 172.702 110.08L171.162 111.62C170.696 110.94 170.109 110.407 169.402 110.02C168.696 109.62 167.889 109.42 166.982 109.42C166.022 109.42 165.162 109.66 164.402 110.14C163.642 110.607 163.042 111.247 162.602 112.06C162.162 112.873 161.942 113.807 161.942 114.86C161.942 115.9 162.162 116.827 162.602 117.64C163.042 118.453 163.642 119.1 164.402 119.58C165.162 120.047 166.022 120.28 166.982 120.28C167.889 120.28 168.696 120.08 169.402 119.68C170.109 119.28 170.696 118.747 171.162 118.08ZM184.043 122H181.823V120.08L181.803 119.52V112.02H184.043V122ZM181.963 117.78L182.423 118.16C182.463 118.973 182.317 119.693 181.983 120.32C181.65 120.947 181.177 121.44 180.563 121.8C179.963 122.147 179.257 122.32 178.443 122.32C177.27 122.32 176.33 121.967 175.623 121.26C174.917 120.553 174.563 119.533 174.563 118.2V112.02H176.803V117.98C176.803 118.78 177.003 119.393 177.403 119.82C177.803 120.233 178.35 120.44 179.043 120.44C179.537 120.44 179.99 120.327 180.403 120.1C180.83 119.873 181.183 119.56 181.463 119.16C181.743 118.76 181.91 118.3 181.963 117.78ZM185.799 120.48L187.099 119.08C187.552 119.547 188.085 119.913 188.699 120.18C189.325 120.447 189.979 120.58 190.659 120.58C191.352 120.58 191.905 120.453 192.319 120.2C192.732 119.933 192.939 119.593 192.939 119.18C192.939 118.807 192.752 118.52 192.379 118.32C192.019 118.107 191.372 117.94 190.439 117.82C188.972 117.607 187.905 117.273 187.239 116.82C186.585 116.353 186.259 115.713 186.259 114.9C186.259 114.26 186.445 113.7 186.819 113.22C187.192 112.74 187.699 112.367 188.339 112.1C188.979 111.833 189.712 111.7 190.539 111.7C191.499 111.7 192.345 111.86 193.079 112.18C193.825 112.5 194.472 112.933 195.019 113.48L193.719 114.9C193.305 114.447 192.832 114.087 192.299 113.82C191.765 113.553 191.185 113.42 190.559 113.42C189.932 113.42 189.425 113.547 189.039 113.8C188.652 114.04 188.459 114.353 188.459 114.74C188.459 115.06 188.632 115.307 188.979 115.48C189.339 115.64 189.965 115.78 190.859 115.9C192.325 116.113 193.405 116.467 194.099 116.96C194.792 117.44 195.139 118.133 195.139 119.04C195.139 119.693 194.945 120.267 194.559 120.76C194.172 121.253 193.639 121.64 192.959 121.92C192.279 122.187 191.485 122.32 190.579 122.32C189.605 122.32 188.712 122.16 187.899 121.84C187.085 121.507 186.385 121.053 185.799 120.48ZM203.287 122H200.827C199.987 122 199.354 121.787 198.927 121.36C198.5 120.92 198.287 120.287 198.287 119.46V109.28H200.527V119.12C200.527 119.467 200.607 119.727 200.767 119.9C200.927 120.06 201.18 120.14 201.527 120.14H203.287V122ZM203.147 113.84H196.427V112.02H203.147V113.84ZM209.997 122.32C208.943 122.32 208.003 122.093 207.177 121.64C206.363 121.187 205.723 120.56 205.257 119.76C204.79 118.96 204.557 118.04 204.557 117C204.557 115.973 204.79 115.06 205.257 114.26C205.723 113.46 206.363 112.833 207.177 112.38C208.003 111.927 208.943 111.7 209.997 111.7C211.063 111.7 212.003 111.927 212.817 112.38C213.643 112.833 214.283 113.46 214.737 114.26C215.203 115.06 215.437 115.973 215.437 117C215.437 118.04 215.203 118.96 214.737 119.76C214.283 120.56 213.643 121.187 212.817 121.64C212.003 122.093 211.063 122.32 209.997 122.32ZM209.997 120.44C210.623 120.44 211.17 120.293 211.637 120C212.103 119.707 212.463 119.307 212.717 118.8C212.983 118.28 213.117 117.68 213.117 117C213.117 116.333 212.983 115.747 212.717 115.24C212.463 114.72 212.103 114.313 211.637 114.02C211.17 113.727 210.623 113.58 209.997 113.58C209.383 113.58 208.843 113.727 208.377 114.02C207.91 114.313 207.543 114.72 207.277 115.24C207.023 115.747 206.897 116.333 206.897 117C206.897 117.68 207.023 118.28 207.277 118.8C207.543 119.307 207.91 119.707 208.377 120C208.843 120.293 209.383 120.44 209.997 120.44ZM233.535 122H231.295V116.18C231.295 115.313 231.109 114.667 230.735 114.24C230.375 113.8 229.889 113.58 229.275 113.58C228.822 113.58 228.395 113.707 227.995 113.96C227.595 114.213 227.269 114.607 227.015 115.14C226.775 115.673 226.655 116.367 226.655 117.22V122H224.415V116.18C224.415 115.313 224.229 114.667 223.855 114.24C223.495 113.8 223.009 113.58 222.395 113.58C221.942 113.58 221.509 113.707 221.095 113.96C220.695 114.213 220.369 114.607 220.115 115.14C219.875 115.673 219.755 116.367 219.755 117.22V122H217.515V112.02H219.735V114.32L219.595 114.3C219.782 113.633 220.055 113.113 220.415 112.74C220.775 112.367 221.182 112.1 221.635 111.94C222.089 111.78 222.542 111.7 222.995 111.7C223.862 111.7 224.582 111.94 225.155 112.42C225.729 112.887 226.109 113.58 226.295 114.5L226.035 114.52C226.235 113.813 226.529 113.253 226.915 112.84C227.315 112.427 227.769 112.133 228.275 111.96C228.782 111.787 229.289 111.7 229.795 111.7C230.969 111.7 231.882 112.067 232.535 112.8C233.202 113.533 233.535 114.6 233.535 116V122ZM244.454 118.98L245.734 120.38C245.214 120.98 244.568 121.453 243.794 121.8C243.021 122.147 242.161 122.32 241.214 122.32C240.094 122.32 239.101 122.093 238.234 121.64C237.381 121.187 236.708 120.56 236.214 119.76C235.734 118.96 235.494 118.047 235.494 117.02C235.494 115.98 235.728 115.06 236.194 114.26C236.661 113.46 237.301 112.833 238.114 112.38C238.928 111.927 239.841 111.7 240.854 111.7C241.841 111.7 242.714 111.927 243.474 112.38C244.234 112.82 244.834 113.433 245.274 114.22C245.714 114.993 245.934 115.893 245.934 116.92V117.04H243.714V116.82C243.714 116.153 243.588 115.573 243.334 115.08C243.094 114.573 242.761 114.187 242.334 113.92C241.908 113.64 241.408 113.5 240.834 113.5C240.234 113.5 239.701 113.647 239.234 113.94C238.781 114.22 238.428 114.62 238.174 115.14C237.921 115.647 237.794 116.26 237.794 116.98C237.794 117.7 237.941 118.327 238.234 118.86C238.541 119.393 238.954 119.807 239.474 120.1C240.008 120.38 240.621 120.52 241.314 120.52C242.581 120.52 243.628 120.007 244.454 118.98ZM245.934 117.72H237.054V116.2H245.614L245.934 116.94V117.72ZM253.963 111.84V113.92H253.483C252.869 113.92 252.323 114.053 251.843 114.32C251.363 114.587 250.983 115 250.703 115.56C250.423 116.12 250.283 116.853 250.283 117.76V122H248.043V112.02H250.263V115.24H249.963C250.096 114.373 250.356 113.693 250.743 113.2C251.129 112.707 251.583 112.36 252.103 112.16C252.623 111.947 253.143 111.84 253.663 111.84H253.963ZM163.993 147H154.153V132.7H163.993V134.66H156.453V145.04H163.993V147ZM163.613 140.72H156.253V138.76H163.613V140.72ZM167.678 147H165.118L168.978 141.82L165.458 137.02H167.998L170.398 140.52L172.818 137.02H175.358L171.838 141.82L175.678 147H173.118L170.398 143.18L167.678 147ZM179.375 150.88H177.135V137.02H179.355V140.1H178.875C178.968 139.433 179.201 138.847 179.575 138.34C179.948 137.833 180.428 137.433 181.015 137.14C181.601 136.847 182.255 136.7 182.975 136.7C183.908 136.7 184.748 136.927 185.495 137.38C186.255 137.833 186.855 138.46 187.295 139.26C187.735 140.06 187.955 140.973 187.955 142C187.955 143.04 187.728 143.96 187.275 144.76C186.835 145.56 186.235 146.187 185.475 146.64C184.715 147.093 183.855 147.32 182.895 147.32C182.015 147.32 181.255 147.14 180.615 146.78C179.975 146.407 179.488 145.907 179.155 145.28C178.835 144.64 178.701 143.927 178.755 143.14L179.215 142.78C179.281 143.3 179.461 143.76 179.755 144.16C180.048 144.56 180.428 144.873 180.895 145.1C181.361 145.327 181.868 145.44 182.415 145.44C183.068 145.44 183.628 145.293 184.095 145C184.575 144.707 184.948 144.3 185.215 143.78C185.481 143.26 185.615 142.667 185.615 142C185.615 141.347 185.488 140.76 185.235 140.24C184.981 139.72 184.621 139.313 184.155 139.02C183.701 138.727 183.161 138.58 182.535 138.58C181.921 138.58 181.375 138.733 180.895 139.04C180.428 139.333 180.055 139.747 179.775 140.28C179.508 140.813 179.375 141.44 179.375 142.16V150.88ZM198.585 143.98L199.865 145.38C199.345 145.98 198.698 146.453 197.925 146.8C197.152 147.147 196.292 147.32 195.345 147.32C194.225 147.32 193.232 147.093 192.365 146.64C191.512 146.187 190.838 145.56 190.345 144.76C189.865 143.96 189.625 143.047 189.625 142.02C189.625 140.98 189.858 140.06 190.325 139.26C190.792 138.46 191.432 137.833 192.245 137.38C193.058 136.927 193.972 136.7 194.985 136.7C195.972 136.7 196.845 136.927 197.605 137.38C198.365 137.82 198.965 138.433 199.405 139.22C199.845 139.993 200.065 140.893 200.065 141.92V142.04H197.845V141.82C197.845 141.153 197.718 140.573 197.465 140.08C197.225 139.573 196.892 139.187 196.465 138.92C196.038 138.64 195.538 138.5 194.965 138.5C194.365 138.5 193.832 138.647 193.365 138.94C192.912 139.22 192.558 139.62 192.305 140.14C192.052 140.647 191.925 141.26 191.925 141.98C191.925 142.7 192.072 143.327 192.365 143.86C192.672 144.393 193.085 144.807 193.605 145.1C194.138 145.38 194.752 145.52 195.445 145.52C196.712 145.52 197.758 145.007 198.585 143.98ZM200.065 142.72H191.185V141.2H199.745L200.065 141.94V142.72ZM208.094 136.84V138.92H207.614C207 138.92 206.454 139.053 205.974 139.32C205.494 139.587 205.114 140 204.834 140.56C204.554 141.12 204.414 141.853 204.414 142.76V147H202.174V137.02H204.394V140.24H204.094C204.227 139.373 204.487 138.693 204.874 138.2C205.26 137.707 205.714 137.36 206.234 137.16C206.754 136.947 207.274 136.84 207.794 136.84H208.094ZM212.128 147H209.888V137.02H212.128V147ZM211.008 134.96C210.622 134.96 210.288 134.827 210.008 134.56C209.728 134.293 209.588 133.973 209.588 133.6C209.588 133.2 209.728 132.867 210.008 132.6C210.288 132.333 210.622 132.2 211.008 132.2C211.408 132.2 211.742 132.333 212.008 132.6C212.288 132.867 212.428 133.193 212.428 133.58C212.428 133.967 212.288 134.293 212.008 134.56C211.742 134.827 211.408 134.96 211.008 134.96ZM223.195 143.98L224.475 145.38C223.955 145.98 223.308 146.453 222.535 146.8C221.761 147.147 220.901 147.32 219.955 147.32C218.835 147.32 217.841 147.093 216.975 146.64C216.121 146.187 215.448 145.56 214.955 144.76C214.475 143.96 214.235 143.047 214.235 142.02C214.235 140.98 214.468 140.06 214.935 139.26C215.401 138.46 216.041 137.833 216.855 137.38C217.668 136.927 218.581 136.7 219.595 136.7C220.581 136.7 221.455 136.927 222.215 137.38C222.975 137.82 223.575 138.433 224.015 139.22C224.455 139.993 224.675 140.893 224.675 141.92V142.04H222.455V141.82C222.455 141.153 222.328 140.573 222.075 140.08C221.835 139.573 221.501 139.187 221.075 138.92C220.648 138.64 220.148 138.5 219.575 138.5C218.975 138.5 218.441 138.647 217.975 138.94C217.521 139.22 217.168 139.62 216.915 140.14C216.661 140.647 216.535 141.26 216.535 141.98C216.535 142.7 216.681 143.327 216.975 143.86C217.281 144.393 217.695 144.807 218.215 145.1C218.748 145.38 219.361 145.52 220.055 145.52C221.321 145.52 222.368 145.007 223.195 143.98ZM224.675 142.72H215.795V141.2H224.355L224.675 141.94V142.72ZM236.323 147H234.083V141.24C234.083 140.347 233.883 139.68 233.483 139.24C233.083 138.8 232.543 138.58 231.863 138.58C231.37 138.58 230.903 138.707 230.463 138.96C230.036 139.213 229.69 139.613 229.423 140.16C229.156 140.707 229.023 141.413 229.023 142.28V147H226.783V137.02H229.003V140.1H228.703C228.836 139.22 229.096 138.54 229.483 138.06C229.87 137.567 230.323 137.22 230.843 137.02C231.363 136.807 231.896 136.7 232.443 136.7C233.643 136.7 234.59 137.067 235.283 137.8C235.976 138.533 236.323 139.6 236.323 141V147ZM246.498 143.94L247.938 145.34C247.444 145.953 246.838 146.44 246.118 146.8C245.398 147.147 244.571 147.32 243.638 147.32C242.611 147.32 241.691 147.093 240.878 146.64C240.078 146.173 239.444 145.547 238.978 144.76C238.511 143.96 238.278 143.04 238.278 142C238.278 140.973 238.511 140.067 238.978 139.28C239.444 138.48 240.084 137.853 240.898 137.4C241.724 136.933 242.658 136.7 243.698 136.7C244.604 136.7 245.411 136.873 246.118 137.22C246.838 137.567 247.444 138.053 247.938 138.68L246.498 140.08C246.204 139.627 245.831 139.267 245.378 139C244.938 138.72 244.404 138.58 243.778 138.58C243.164 138.58 242.618 138.727 242.138 139.02C241.658 139.313 241.284 139.72 241.018 140.24C240.751 140.747 240.618 141.333 240.618 142C240.618 142.667 240.751 143.26 241.018 143.78C241.284 144.3 241.658 144.707 242.138 145C242.618 145.293 243.164 145.44 243.778 145.44C244.404 145.44 244.938 145.3 245.378 145.02C245.831 144.74 246.204 144.38 246.498 143.94ZM258.019 143.98L259.299 145.38C258.779 145.98 258.132 146.453 257.359 146.8C256.585 147.147 255.725 147.32 254.779 147.32C253.659 147.32 252.665 147.093 251.799 146.64C250.945 146.187 250.272 145.56 249.779 144.76C249.299 143.96 249.059 143.047 249.059 142.02C249.059 140.98 249.292 140.06 249.759 139.26C250.225 138.46 250.865 137.833 251.679 137.38C252.492 136.927 253.405 136.7 254.419 136.7C255.405 136.7 256.279 136.927 257.039 137.38C257.799 137.82 258.399 138.433 258.839 139.22C259.279 139.993 259.499 140.893 259.499 141.92V142.04H257.279V141.82C257.279 141.153 257.152 140.573 256.899 140.08C256.659 139.573 256.325 139.187 255.899 138.92C255.472 138.64 254.972 138.5 254.399 138.5C253.799 138.5 253.265 138.647 252.799 138.94C252.345 139.22 251.992 139.62 251.739 140.14C251.485 140.647 251.359 141.26 251.359 141.98C251.359 142.7 251.505 143.327 251.799 143.86C252.105 144.393 252.519 144.807 253.039 145.1C253.572 145.38 254.185 145.52 254.879 145.52C256.145 145.52 257.192 145.007 258.019 143.98ZM259.499 142.72H250.619V141.2H259.179L259.499 141.94V142.72Z" fill="white"/>
<path d="M213.114 63.779C213.114 65.6509 208.562 67.1684 202.946 67.1684C197.33 67.1684 192.777 65.6509 192.777 63.779M213.114 63.779C213.114 61.907 208.562 60.3895 202.946 60.3895C197.33 60.3895 192.777 61.907 192.777 63.779M213.114 63.779V70.5579M192.777 63.779V70.5579C192.777 72.4299 197.33 73.9474 202.946 73.9474C208.562 73.9474 213.114 72.4299 213.114 70.5579M219.893 73.7545C219.893 75.6265 215.341 77.144 209.725 77.144C204.109 77.144 199.556 75.6265 199.556 73.7545V80.5336M219.893 73.7545C219.893 72.2787 217.064 71.0232 213.114 70.5579M219.893 73.7545V80.5336C219.893 82.4055 215.341 83.9231 209.725 83.9231C204.109 83.9231 199.556 82.4055 199.556 80.5336M192.777 83.7302C192.777 85.6021 197.33 87.1197 202.946 87.1197C208.562 87.1197 213.114 85.6021 213.114 83.7302V90.5092C213.114 92.3812 208.562 93.8987 202.946 93.8987C197.33 93.8987 192.777 92.3812 192.777 90.5092V83.7302ZM192.777 83.7302C192.777 82.2544 195.607 80.9989 199.556 80.5336" stroke="white" stroke-width="2.71159" stroke-linecap="round"/>
<defs>
<filter id="filter0_ii_5301_873" x="-1" y="-1" width="447" height="218" filterUnits="userSpaceOnUse" color-interpolation-filters="sRGB">
<feFlood flood-opacity="0" result="BackgroundImageFix"/>
<feBlend mode="normal" in="SourceGraphic" in2="BackgroundImageFix" result="shape"/>
<feColorMatrix in="SourceAlpha" type="matrix" values="0 0 0 0 0 0 0 0 0 0 0 0 0 0 0 0 0 0 127 0" result="hardAlpha"/>
<feOffset dx="1" dy="1"/>
<feGaussianBlur stdDeviation="1.5"/>
<feComposite in2="hardAlpha" operator="arithmetic" k2="-1" k3="1"/>
<feColorMatrix type="matrix" values="0 0 0 0 1 0 0 0 0 1 0 0 0 0 1 0 0 0 1 0"/>
<feBlend mode="normal" in2="shape" result="effect1_innerShadow_5301_873"/>
<feColorMatrix in="SourceAlpha" type="matrix" values="0 0 0 0 0 0 0 0 0 0 0 0 0 0 0 0 0 0 127 0" result="hardAlpha"/>
<feOffset dx="-1" dy="-1"/>
<feGaussianBlur stdDeviation="1.5"/>
<feComposite in2="hardAlpha" operator="arithmetic" k2="-1" k3="1"/>
<feColorMatrix type="matrix" values="0 0 0 0 0 0 0 0 0 0 0 0 0 0 0 0 0 0 1 0"/>
<feBlend mode="normal" in2="effect1_innerShadow_5301_873" result="effect2_innerShadow_5301_873"/>
</filter>
<linearGradient id="paint0_linear_5301_873" x1="257.987" y1="0" x2="257.987" y2="177.414" gradientUnits="userSpaceOnUse">
<stop stop-color="#454545"/>
<stop offset="1" stop-color="#8B8B8B"/>
</linearGradient>
</defs>
</svg>
