<svg width="190" height="194" viewBox="0 0 190 194" fill="none" xmlns="http://www.w3.org/2000/svg">
<g filter="url(#filter0_ii_5301_876)">
<path d="M0 184C0 189.523 4.47715 194 10 194L180 194C185.523 194 190 189.523 190 184V133.415L190 10C190 4.47717 185.523 0 180 0L10 0C4.47715 0 0 4.47716 0 10L0 184Z" fill="url(#paint0_linear_5301_876)"/>
</g>
<path fill-rule="evenodd" clip-rule="evenodd" d="M54 61H71.8565V61.0005H117.435C134.771 61.0005 142.231 82.9894 128.473 93.538L76.2435 133.585V111.418L117.769 79.5779C117.91 79.4705 117.959 79.3994 117.97 79.383C117.983 79.3642 117.987 79.3524 117.992 79.3373C118.003 79.2951 118.021 79.1584 117.956 78.965C117.89 78.7717 117.792 78.6742 117.758 78.6477C117.745 78.6382 117.734 78.6317 117.713 78.6245C117.694 78.6182 117.612 78.5919 117.435 78.5919H71.8565V133.855H54V61ZM104.898 111.77L123.189 133.568H146.153L127.862 111.77H104.898Z" fill="white"/>
<defs>
<filter id="filter0_ii_5301_876" x="-3" y="-3" width="197" height="201" filterUnits="userSpaceOnUse" color-interpolation-filters="sRGB">
<feFlood flood-opacity="0" result="BackgroundImageFix"/>
<feBlend mode="normal" in="SourceGraphic" in2="BackgroundImageFix" result="shape"/>
<feColorMatrix in="SourceAlpha" type="matrix" values="0 0 0 0 0 0 0 0 0 0 0 0 0 0 0 0 0 0 127 0" result="hardAlpha"/>
<feOffset dx="4" dy="4"/>
<feGaussianBlur stdDeviation="2"/>
<feComposite in2="hardAlpha" operator="arithmetic" k2="-1" k3="1"/>
<feColorMatrix type="matrix" values="0 0 0 0 1 0 0 0 0 1 0 0 0 0 1 0 0 0 0.48 0"/>
<feBlend mode="normal" in2="shape" result="effect1_innerShadow_5301_876"/>
<feColorMatrix in="SourceAlpha" type="matrix" values="0 0 0 0 0 0 0 0 0 0 0 0 0 0 0 0 0 0 127 0" result="hardAlpha"/>
<feOffset dx="-3" dy="-4"/>
<feGaussianBlur stdDeviation="1.5"/>
<feComposite in2="hardAlpha" operator="arithmetic" k2="-1" k3="1"/>
<feColorMatrix type="matrix" values="0 0 0 0 0 0 0 0 0 0 0 0 0 0 0 0 0 0 0.4 0"/>
<feBlend mode="normal" in2="effect1_innerShadow_5301_876" result="effect2_innerShadow_5301_876"/>
</filter>
<linearGradient id="paint0_linear_5301_876" x1="0" y1="97" x2="190" y2="97" gradientUnits="userSpaceOnUse">
<stop stop-color="#C90000"/>
<stop offset="1" stop-color="#FF3434"/>
</linearGradient>
</defs>
</svg>
