<svg width="198" height="272" viewBox="0 0 198 272" fill="none" xmlns="http://www.w3.org/2000/svg">
<g filter="url(#filter0_ii_5308_870)">
<path d="M0.5 59.5C0.5 53.9771 4.97715 49.5 10.5 49.5H121.5C127.023 49.5 131.5 45.0228 131.5 39.5V10.5C131.5 4.97715 135.977 0.5 141.5 0.5H188C193.523 0.5 198 4.97715 198 10.5V262C198 267.523 193.523 272 188 272H10.5C4.97715 272 0.5 267.523 0.5 262V59.5Z" fill="url(#paint0_linear_5308_870)"/>
</g>
<path d="M60.842 169.32C59.642 169.32 58.5354 169.087 57.522 168.62C56.5087 168.153 55.662 167.487 54.982 166.62L56.502 165.12C57.0487 165.827 57.6954 166.367 58.442 166.74C59.202 167.1 60.022 167.28 60.902 167.28C61.582 167.28 62.182 167.173 62.702 166.96C63.222 166.747 63.6287 166.453 63.922 166.08C64.2154 165.693 64.362 165.26 64.362 164.78C64.362 164.1 64.0754 163.567 63.502 163.18C62.942 162.78 62.162 162.58 61.162 162.58H58.282V160.62H61.182C62.022 160.62 62.6887 160.433 63.182 160.06C63.6887 159.673 63.942 159.167 63.942 158.54C63.942 157.913 63.6554 157.407 63.082 157.02C62.522 156.62 61.782 156.42 60.862 156.42C60.0354 156.42 59.3087 156.587 58.682 156.92C58.0687 157.24 57.462 157.787 56.862 158.56L55.342 157.08C56.0887 156.147 56.9154 155.467 57.822 155.04C58.7287 154.6 59.762 154.38 60.922 154.38C61.962 154.38 62.882 154.547 63.682 154.88C64.4954 155.213 65.1287 155.673 65.582 156.26C66.0487 156.847 66.282 157.52 66.282 158.28C66.282 158.987 66.0754 159.62 65.662 160.18C65.262 160.727 64.702 161.147 63.982 161.44C64.8354 161.72 65.502 162.167 65.982 162.78C66.462 163.38 66.702 164.087 66.702 164.9C66.702 165.74 66.442 166.493 65.922 167.16C65.4154 167.827 64.722 168.353 63.842 168.74C62.962 169.127 61.962 169.32 60.842 169.32ZM77.8294 169H75.7694V167.02L75.6694 166.6V162.86C75.6694 162.113 75.4294 161.533 74.9494 161.12C74.4694 160.693 73.816 160.48 72.9894 160.48C72.3894 160.48 71.8294 160.6 71.3094 160.84C70.8027 161.08 70.3627 161.413 69.9894 161.84L68.7094 160.44C69.256 159.893 69.896 159.467 70.6294 159.16C71.3627 158.853 72.176 158.7 73.0694 158.7C74.016 158.7 74.8427 158.867 75.5494 159.2C76.2694 159.52 76.8294 159.987 77.2294 160.6C77.6294 161.213 77.8294 161.947 77.8294 162.8V169ZM72.2294 169.32C71.4694 169.32 70.796 169.18 70.2094 168.9C69.6227 168.62 69.1694 168.24 68.8494 167.76C68.5294 167.28 68.3694 166.72 68.3694 166.08C68.3694 165.387 68.5694 164.8 68.9694 164.32C69.3694 163.827 69.9227 163.453 70.6294 163.2C71.3494 162.933 72.176 162.8 73.1094 162.8H75.9094V164.34H73.3094C72.5227 164.34 71.8827 164.48 71.3894 164.76C70.9094 165.04 70.6694 165.453 70.6694 166C70.6694 166.493 70.856 166.887 71.2294 167.18C71.6027 167.46 72.0894 167.6 72.6894 167.6C73.2627 167.6 73.7894 167.48 74.2694 167.24C74.7494 167 75.1294 166.673 75.4094 166.26C75.7027 165.833 75.8694 165.347 75.9094 164.8L76.6294 165.14C76.6294 165.953 76.4427 166.68 76.0694 167.32C75.696 167.947 75.176 168.44 74.5094 168.8C73.8427 169.147 73.0827 169.32 72.2294 169.32ZM87.1775 169L82.0575 163.82H82.2775L86.8775 159.02H89.6375L84.4175 164.46L84.1575 163.06L90.0975 169H87.1775ZM80.3975 169V159.02H82.6375V169H80.3975ZM100.173 169H98.1131V167.02L98.0131 166.6V162.86C98.0131 162.113 97.7731 161.533 97.2931 161.12C96.8131 160.693 96.1598 160.48 95.3331 160.48C94.7331 160.48 94.1731 160.6 93.6531 160.84C93.1465 161.08 92.7065 161.413 92.3331 161.84L91.0531 160.44C91.5998 159.893 92.2398 159.467 92.9731 159.16C93.7065 158.853 94.5198 158.7 95.4131 158.7C96.3598 158.7 97.1865 158.867 97.8931 159.2C98.6131 159.52 99.1731 159.987 99.5731 160.6C99.9731 161.213 100.173 161.947 100.173 162.8V169ZM94.5731 169.32C93.8131 169.32 93.1398 169.18 92.5531 168.9C91.9665 168.62 91.5131 168.24 91.1931 167.76C90.8731 167.28 90.7131 166.72 90.7131 166.08C90.7131 165.387 90.9131 164.8 91.3131 164.32C91.7131 163.827 92.2665 163.453 92.9731 163.2C93.6931 162.933 94.5198 162.8 95.4531 162.8H98.2531V164.34H95.6531C94.8665 164.34 94.2265 164.48 93.7331 164.76C93.2531 165.04 93.0131 165.453 93.0131 166C93.0131 166.493 93.1998 166.887 93.5731 167.18C93.9465 167.46 94.4331 167.6 95.0331 167.6C95.6065 167.6 96.1331 167.48 96.6131 167.24C97.0931 167 97.4731 166.673 97.7531 166.26C98.0465 165.833 98.2131 165.347 98.2531 164.8L98.9731 165.14C98.9731 165.953 98.7865 166.68 98.4131 167.32C98.0398 167.947 97.5198 168.44 96.8531 168.8C96.1865 169.147 95.4265 169.32 94.5731 169.32ZM106.061 169.32C105.221 169.32 104.395 169.173 103.581 168.88C102.768 168.587 102.088 168.147 101.541 167.56L102.761 166.2C103.628 167.067 104.708 167.5 106.001 167.5C106.775 167.5 107.381 167.367 107.821 167.1C108.261 166.82 108.481 166.44 108.481 165.96C108.481 165.107 107.735 164.68 106.241 164.68H104.241V163.1H106.261C106.888 163.1 107.368 163 107.701 162.8C108.035 162.587 108.201 162.273 108.201 161.86C108.201 161.447 108.001 161.12 107.601 160.88C107.215 160.64 106.681 160.52 106.001 160.52C104.841 160.52 103.848 160.953 103.021 161.82L101.801 160.42C102.921 159.273 104.341 158.7 106.061 158.7C106.901 158.7 107.641 158.827 108.281 159.08C108.935 159.32 109.448 159.66 109.821 160.1C110.195 160.527 110.381 161.027 110.381 161.6C110.381 162.133 110.221 162.593 109.901 162.98C109.581 163.367 109.128 163.647 108.541 163.82V163.66C109.221 163.833 109.748 164.133 110.121 164.56C110.495 164.973 110.681 165.487 110.681 166.1C110.681 166.713 110.481 167.267 110.081 167.76C109.681 168.24 109.135 168.62 108.441 168.9C107.748 169.18 106.955 169.32 106.061 169.32ZM120.041 169V159.02H122.281V169H120.041ZM112.761 169V159.02H115.001V169H112.761ZM113.821 164.68V162.84H121.321V164.68H113.821ZM133.962 169H131.902V167.02L131.802 166.6V162.86C131.802 162.113 131.562 161.533 131.082 161.12C130.602 160.693 129.949 160.48 129.122 160.48C128.522 160.48 127.962 160.6 127.442 160.84C126.936 161.08 126.496 161.413 126.122 161.84L124.842 160.44C125.389 159.893 126.029 159.467 126.762 159.16C127.496 158.853 128.309 158.7 129.202 158.7C130.149 158.7 130.976 158.867 131.682 159.2C132.402 159.52 132.962 159.987 133.362 160.6C133.762 161.213 133.962 161.947 133.962 162.8V169ZM128.362 169.32C127.602 169.32 126.929 169.18 126.342 168.9C125.756 168.62 125.302 168.24 124.982 167.76C124.662 167.28 124.502 166.72 124.502 166.08C124.502 165.387 124.702 164.8 125.102 164.32C125.502 163.827 126.056 163.453 126.762 163.2C127.482 162.933 128.309 162.8 129.242 162.8H132.042V164.34H129.442C128.656 164.34 128.016 164.48 127.522 164.76C127.042 165.04 126.802 165.453 126.802 166C126.802 166.493 126.989 166.887 127.362 167.18C127.736 167.46 128.222 167.6 128.822 167.6C129.396 167.6 129.922 167.48 130.402 167.24C130.882 167 131.262 166.673 131.542 166.26C131.836 165.833 132.002 165.347 132.042 164.8L132.762 165.14C132.762 165.953 132.576 166.68 132.202 167.32C131.829 167.947 131.309 168.44 130.642 168.8C129.976 169.147 129.216 169.32 128.362 169.32ZM142.85 169V159.32L144.29 160.74H140.31C139.804 160.74 139.377 160.853 139.03 161.08C138.697 161.307 138.53 161.68 138.53 162.2C138.53 162.667 138.684 163.027 138.99 163.28C139.31 163.533 139.757 163.66 140.33 163.66H143.77V165.3H140.09C138.93 165.3 138.004 165.02 137.31 164.46C136.63 163.887 136.29 163.12 136.29 162.16C136.29 161.56 136.457 161.027 136.79 160.56C137.124 160.08 137.577 159.707 138.15 159.44C138.737 159.16 139.397 159.02 140.13 159.02H144.95V169H142.85ZM135.81 169L139.25 164.56H141.57L138.31 169H135.81ZM46.4945 197.88H44.2545V184.02H46.4745V187.1H45.9945C46.0878 186.433 46.3211 185.847 46.6945 185.34C47.0678 184.833 47.5478 184.433 48.1345 184.14C48.7211 183.847 49.3745 183.7 50.0945 183.7C51.0278 183.7 51.8678 183.927 52.6145 184.38C53.3745 184.833 53.9745 185.46 54.4145 186.26C54.8545 187.06 55.0745 187.973 55.0745 189C55.0745 190.04 54.8478 190.96 54.3945 191.76C53.9545 192.56 53.3545 193.187 52.5945 193.64C51.8345 194.093 50.9745 194.32 50.0145 194.32C49.1345 194.32 48.3745 194.14 47.7345 193.78C47.0945 193.407 46.6078 192.907 46.2745 192.28C45.9545 191.64 45.8211 190.927 45.8745 190.14L46.3345 189.78C46.4011 190.3 46.5811 190.76 46.8745 191.16C47.1678 191.56 47.5478 191.873 48.0145 192.1C48.4811 192.327 48.9878 192.44 49.5345 192.44C50.1878 192.44 50.7478 192.293 51.2145 192C51.6945 191.707 52.0678 191.3 52.3345 190.78C52.6011 190.26 52.7345 189.667 52.7345 189C52.7345 188.347 52.6078 187.76 52.3545 187.24C52.1011 186.72 51.7411 186.313 51.2745 186.02C50.8211 185.727 50.2811 185.58 49.6545 185.58C49.0411 185.58 48.4945 185.733 48.0145 186.04C47.5478 186.333 47.1745 186.747 46.8945 187.28C46.6278 187.813 46.4945 188.44 46.4945 189.16V197.88ZM65.9837 194H63.9237V192.02L63.8237 191.6V187.86C63.8237 187.113 63.5837 186.533 63.1037 186.12C62.6237 185.693 61.9703 185.48 61.1437 185.48C60.5437 185.48 59.9837 185.6 59.4637 185.84C58.957 186.08 58.517 186.413 58.1437 186.84L56.8637 185.44C57.4103 184.893 58.0503 184.467 58.7837 184.16C59.517 183.853 60.3303 183.7 61.2237 183.7C62.1703 183.7 62.997 183.867 63.7037 184.2C64.4237 184.52 64.9837 184.987 65.3837 185.6C65.7837 186.213 65.9837 186.947 65.9837 187.8V194ZM60.3837 194.32C59.6237 194.32 58.9503 194.18 58.3637 193.9C57.777 193.62 57.3237 193.24 57.0037 192.76C56.6837 192.28 56.5237 191.72 56.5237 191.08C56.5237 190.387 56.7237 189.8 57.1237 189.32C57.5237 188.827 58.077 188.453 58.7837 188.2C59.5037 187.933 60.3303 187.8 61.2637 187.8H64.0637V189.34H61.4637C60.677 189.34 60.037 189.48 59.5437 189.76C59.0637 190.04 58.8237 190.453 58.8237 191C58.8237 191.493 59.0103 191.887 59.3837 192.18C59.757 192.46 60.2437 192.6 60.8437 192.6C61.417 192.6 61.9437 192.48 62.4237 192.24C62.9037 192 63.2837 191.673 63.5637 191.26C63.857 190.833 64.0237 190.347 64.0637 189.8L64.7837 190.14C64.7837 190.953 64.597 191.68 64.2237 192.32C63.8503 192.947 63.3303 193.44 62.6637 193.8C61.997 194.147 61.237 194.32 60.3837 194.32ZM71.8718 194.32C71.0318 194.32 70.2051 194.173 69.3918 193.88C68.5785 193.587 67.8985 193.147 67.3518 192.56L68.5718 191.2C69.4385 192.067 70.5185 192.5 71.8118 192.5C72.5851 192.5 73.1918 192.367 73.6318 192.1C74.0718 191.82 74.2918 191.44 74.2918 190.96C74.2918 190.107 73.5451 189.68 72.0518 189.68H70.0518V188.1H72.0718C72.6985 188.1 73.1785 188 73.5118 187.8C73.8451 187.587 74.0118 187.273 74.0118 186.86C74.0118 186.447 73.8118 186.12 73.4118 185.88C73.0251 185.64 72.4918 185.52 71.8118 185.52C70.6518 185.52 69.6585 185.953 68.8318 186.82L67.6118 185.42C68.7318 184.273 70.1518 183.7 71.8718 183.7C72.7118 183.7 73.4518 183.827 74.0918 184.08C74.7451 184.32 75.2585 184.66 75.6318 185.1C76.0051 185.527 76.1918 186.027 76.1918 186.6C76.1918 187.133 76.0318 187.593 75.7118 187.98C75.3918 188.367 74.9385 188.647 74.3518 188.82V188.66C75.0318 188.833 75.5585 189.133 75.9318 189.56C76.3051 189.973 76.4918 190.487 76.4918 191.1C76.4918 191.713 76.2918 192.267 75.8918 192.76C75.4918 193.24 74.9451 193.62 74.2518 193.9C73.5585 194.18 72.7651 194.32 71.8718 194.32ZM80.7913 197.88H78.5513V184.02H80.7713V187.1H80.2913C80.3847 186.433 80.618 185.847 80.9913 185.34C81.3647 184.833 81.8447 184.433 82.4313 184.14C83.018 183.847 83.6713 183.7 84.3913 183.7C85.3247 183.7 86.1647 183.927 86.9113 184.38C87.6713 184.833 88.2713 185.46 88.7113 186.26C89.1513 187.06 89.3713 187.973 89.3713 189C89.3713 190.04 89.1447 190.96 88.6913 191.76C88.2513 192.56 87.6513 193.187 86.8913 193.64C86.1313 194.093 85.2713 194.32 84.3113 194.32C83.4313 194.32 82.6713 194.14 82.0313 193.78C81.3913 193.407 80.9047 192.907 80.5713 192.28C80.2513 191.64 80.118 190.927 80.1713 190.14L80.6313 189.78C80.698 190.3 80.878 190.76 81.1713 191.16C81.4647 191.56 81.8447 191.873 82.3113 192.1C82.778 192.327 83.2847 192.44 83.8313 192.44C84.4847 192.44 85.0447 192.293 85.5113 192C85.9913 191.707 86.3647 191.3 86.6313 190.78C86.898 190.26 87.0313 189.667 87.0313 189C87.0313 188.347 86.9047 187.76 86.6513 187.24C86.398 186.72 86.038 186.313 85.5713 186.02C85.118 185.727 84.578 185.58 83.9513 185.58C83.338 185.58 82.7913 185.733 82.3113 186.04C81.8447 186.333 81.4713 186.747 81.1913 187.28C80.9247 187.813 80.7913 188.44 80.7913 189.16V197.88ZM100.281 194H98.2205V192.02L98.1205 191.6V187.86C98.1205 187.113 97.8805 186.533 97.4005 186.12C96.9205 185.693 96.2672 185.48 95.4405 185.48C94.8405 185.48 94.2805 185.6 93.7605 185.84C93.2539 186.08 92.8139 186.413 92.4405 186.84L91.1605 185.44C91.7072 184.893 92.3472 184.467 93.0805 184.16C93.8139 183.853 94.6272 183.7 95.5205 183.7C96.4672 183.7 97.2939 183.867 98.0005 184.2C98.7205 184.52 99.2805 184.987 99.6805 185.6C100.081 186.213 100.281 186.947 100.281 187.8V194ZM94.6805 194.32C93.9205 194.32 93.2472 194.18 92.6605 193.9C92.0739 193.62 91.6205 193.24 91.3005 192.76C90.9805 192.28 90.8205 191.72 90.8205 191.08C90.8205 190.387 91.0205 189.8 91.4205 189.32C91.8205 188.827 92.3739 188.453 93.0805 188.2C93.8005 187.933 94.6272 187.8 95.5605 187.8H98.3605V189.34H95.7605C94.9739 189.34 94.3339 189.48 93.8405 189.76C93.3605 190.04 93.1205 190.453 93.1205 191C93.1205 191.493 93.3072 191.887 93.6805 192.18C94.0539 192.46 94.5405 192.6 95.1405 192.6C95.7139 192.6 96.2405 192.48 96.7205 192.24C97.2005 192 97.5805 191.673 97.8605 191.26C98.1539 190.833 98.3205 190.347 98.3605 189.8L99.0805 190.14C99.0805 190.953 98.8939 191.68 98.5205 192.32C98.1472 192.947 97.6272 193.44 96.9605 193.8C96.2939 194.147 95.5339 194.32 94.6805 194.32ZM107.549 194.32C105.842 194.32 104.529 193.713 103.609 192.5C102.689 191.287 102.229 189.547 102.229 187.28C102.229 185.053 102.615 183.38 103.389 182.26C104.162 181.14 105.389 180.467 107.069 180.24L111.449 179.6L111.729 181.46L107.409 182.12C106.662 182.24 106.062 182.473 105.609 182.82C105.169 183.167 104.849 183.687 104.649 184.38C104.449 185.06 104.322 185.967 104.269 187.1L103.929 187.7C104.062 187.02 104.329 186.44 104.729 185.96C105.129 185.467 105.629 185.093 106.229 184.84C106.829 184.573 107.469 184.44 108.149 184.44C109.109 184.44 109.922 184.647 110.589 185.06C111.269 185.46 111.789 186.02 112.149 186.74C112.509 187.447 112.689 188.26 112.689 189.18C112.689 190.207 112.475 191.107 112.049 191.88C111.622 192.653 111.022 193.253 110.249 193.68C109.489 194.107 108.589 194.32 107.549 194.32ZM107.469 192.42C108.375 192.42 109.082 192.14 109.589 191.58C110.109 191.02 110.369 190.253 110.369 189.28C110.369 188.333 110.129 187.6 109.649 187.08C109.169 186.547 108.489 186.28 107.609 186.28C107.089 186.28 106.615 186.4 106.189 186.64C105.762 186.867 105.395 187.187 105.089 187.6C104.795 188.013 104.595 188.507 104.489 189.08L104.569 187.96C104.542 189.48 104.762 190.607 105.229 191.34C105.695 192.06 106.442 192.42 107.469 192.42ZM119.817 194.32C118.764 194.32 117.824 194.093 116.997 193.64C116.184 193.187 115.544 192.56 115.077 191.76C114.61 190.96 114.377 190.04 114.377 189C114.377 187.973 114.61 187.06 115.077 186.26C115.544 185.46 116.184 184.833 116.997 184.38C117.824 183.927 118.764 183.7 119.817 183.7C120.884 183.7 121.824 183.927 122.637 184.38C123.464 184.833 124.104 185.46 124.557 186.26C125.024 187.06 125.257 187.973 125.257 189C125.257 190.04 125.024 190.96 124.557 191.76C124.104 192.56 123.464 193.187 122.637 193.64C121.824 194.093 120.884 194.32 119.817 194.32ZM119.817 192.44C120.444 192.44 120.99 192.293 121.457 192C121.924 191.707 122.284 191.307 122.537 190.8C122.804 190.28 122.937 189.68 122.937 189C122.937 188.333 122.804 187.747 122.537 187.24C122.284 186.72 121.924 186.313 121.457 186.02C120.99 185.727 120.444 185.58 119.817 185.58C119.204 185.58 118.664 185.727 118.197 186.02C117.73 186.313 117.364 186.72 117.097 187.24C116.844 187.747 116.717 188.333 116.717 189C116.717 189.68 116.844 190.28 117.097 190.8C117.364 191.307 117.73 191.707 118.197 192C118.664 192.293 119.204 192.44 119.817 192.44ZM129.665 194V184.76H131.905V194H129.665ZM126.165 185.84V184.02H135.385V185.84H126.165ZM144.082 194L138.962 188.82H139.182L143.782 184.02H146.542L141.322 189.46L141.062 188.06L147.002 194H144.082ZM137.302 194V184.02H139.542V194H137.302ZM157.077 194H155.017V192.02L154.917 191.6V187.86C154.917 187.113 154.677 186.533 154.197 186.12C153.717 185.693 153.064 185.48 152.237 185.48C151.637 185.48 151.077 185.6 150.557 185.84C150.051 186.08 149.611 186.413 149.237 186.84L147.957 185.44C148.504 184.893 149.144 184.467 149.877 184.16C150.611 183.853 151.424 183.7 152.317 183.7C153.264 183.7 154.091 183.867 154.797 184.2C155.517 184.52 156.077 184.987 156.477 185.6C156.877 186.213 157.077 186.947 157.077 187.8V194ZM151.477 194.32C150.717 194.32 150.044 194.18 149.457 193.9C148.871 193.62 148.417 193.24 148.097 192.76C147.777 192.28 147.617 191.72 147.617 191.08C147.617 190.387 147.817 189.8 148.217 189.32C148.617 188.827 149.171 188.453 149.877 188.2C150.597 187.933 151.424 187.8 152.357 187.8H155.157V189.34H152.557C151.771 189.34 151.131 189.48 150.637 189.76C150.157 190.04 149.917 190.453 149.917 191C149.917 191.493 150.104 191.887 150.477 192.18C150.851 192.46 151.337 192.6 151.937 192.6C152.511 192.6 153.037 192.48 153.517 192.24C153.997 192 154.377 191.673 154.657 191.26C154.951 190.833 155.117 190.347 155.157 189.8L155.877 190.14C155.877 190.953 155.691 191.68 155.317 192.32C154.944 192.947 154.424 193.44 153.757 193.8C153.091 194.147 152.331 194.32 151.477 194.32Z" fill="white"/>
<path fill-rule="evenodd" clip-rule="evenodd" d="M97.3672 110.654V117.918H104.632V110.654H97.3672ZM97.0547 107.841C95.674 107.841 94.5547 108.96 94.5547 110.341V118.231C94.5547 119.611 95.674 120.731 97.0547 120.731H104.944C106.325 120.731 107.444 119.611 107.444 118.231V110.341C107.444 108.96 106.325 107.841 104.944 107.841H97.0547Z" fill="white"/>
<path fill-rule="evenodd" clip-rule="evenodd" d="M86.6328 132.096V139.361H93.8973V132.096H86.6328ZM86.3203 129.284C84.9396 129.284 83.8203 130.403 83.8203 131.784V139.673C83.8203 141.054 84.9396 142.173 86.3203 142.173H94.2098C95.5905 142.173 96.7098 141.054 96.7098 139.673V131.784C96.7098 130.403 95.5905 129.284 94.2098 129.284H86.3203Z" fill="white"/>
<path fill-rule="evenodd" clip-rule="evenodd" d="M108.102 132.096V139.361H115.366V132.096H108.102ZM107.789 129.284C106.408 129.284 105.289 130.403 105.289 131.784V139.673C105.289 141.054 106.408 142.173 107.789 142.173H115.679C117.059 142.173 118.179 141.054 118.179 139.673V131.784C118.179 130.403 117.059 129.284 115.679 129.284H107.789Z" fill="white"/>
<path fill-rule="evenodd" clip-rule="evenodd" d="M99.3896 121.714V123.089C99.3896 124.982 97.8549 126.517 95.9617 126.517H92.1501C91.9335 126.517 91.7578 126.692 91.7578 126.909V128.284H89.0078V126.909C89.0078 125.173 90.4147 123.767 92.1501 123.767H95.9617C96.3361 123.767 96.6396 123.463 96.6396 123.089V121.714H99.3896Z" fill="white"/>
<path fill-rule="evenodd" clip-rule="evenodd" d="M102.632 121.714V123.089C102.632 124.982 104.167 126.517 106.06 126.517H109.889C110.106 126.517 110.281 126.692 110.281 126.909V128.284H113.031V126.909C113.031 125.173 111.624 123.767 109.889 123.767H106.06C105.686 123.767 105.382 123.463 105.382 123.089V121.714H102.632Z" fill="white"/>
<defs>
<filter id="filter0_ii_5308_870" x="-0.5" y="-0.5" width="199.5" height="273.5" filterUnits="userSpaceOnUse" color-interpolation-filters="sRGB">
<feFlood flood-opacity="0" result="BackgroundImageFix"/>
<feBlend mode="normal" in="SourceGraphic" in2="BackgroundImageFix" result="shape"/>
<feColorMatrix in="SourceAlpha" type="matrix" values="0 0 0 0 0 0 0 0 0 0 0 0 0 0 0 0 0 0 127 0" result="hardAlpha"/>
<feOffset dx="1" dy="1"/>
<feGaussianBlur stdDeviation="1.5"/>
<feComposite in2="hardAlpha" operator="arithmetic" k2="-1" k3="1"/>
<feColorMatrix type="matrix" values="0 0 0 0 1 0 0 0 0 1 0 0 0 0 1 0 0 0 1 0"/>
<feBlend mode="normal" in2="shape" result="effect1_innerShadow_5308_870"/>
<feColorMatrix in="SourceAlpha" type="matrix" values="0 0 0 0 0 0 0 0 0 0 0 0 0 0 0 0 0 0 127 0" result="hardAlpha"/>
<feOffset dx="-1" dy="-1"/>
<feGaussianBlur stdDeviation="1.5"/>
<feComposite in2="hardAlpha" operator="arithmetic" k2="-1" k3="1"/>
<feColorMatrix type="matrix" values="0 0 0 0 0 0 0 0 0 0 0 0 0 0 0 0 0 0 1 0"/>
<feBlend mode="normal" in2="effect1_innerShadow_5308_870" result="effect2_innerShadow_5308_870"/>
</filter>
<linearGradient id="paint0_linear_5308_870" x1="115" y1="272" x2="115" y2="49.0002" gradientUnits="userSpaceOnUse">
<stop stop-color="#454545"/>
<stop offset="1" stop-color="#8B8B8B"/>
</linearGradient>
</defs>
</svg>
