<svg width="261" height="344" viewBox="0 0 261 344" fill="none" xmlns="http://www.w3.org/2000/svg">
<g filter="url(#filter0_ii_5301_872)">
<path d="M251 241.709C256.523 241.709 261 237.232 261 231.709L261 10C261 4.47717 256.523 -5.33895e-08 251 -1.19249e-07L177.301 -9.98105e-07C171.778 -1.06396e-06 167.301 4.47714 167.301 10L167.301 70.3172C167.301 75.84 162.823 80.3172 157.301 80.3172L10 80.3172C4.47715 80.3172 3.091e-06 84.7943 3.02514e-06 90.3172L1.19249e-07 334C5.33895e-08 339.523 4.47714 344 10 344L166.5 344C172.023 344 176.5 339.523 176.5 334L176.5 251.709C176.5 246.186 180.977 241.709 186.5 241.709L251 241.709Z" fill="url(#paint0_linear_5301_872)"/>
</g>
<path d="M43.3417 184H41.0417V169.7H46.7617C47.7484 169.7 48.6151 169.88 49.3617 170.24C50.1084 170.587 50.6884 171.08 51.1017 171.72C51.5284 172.347 51.7417 173.087 51.7417 173.94C51.7417 174.78 51.5284 175.52 51.1017 176.16C50.6884 176.8 50.1084 177.3 49.3617 177.66C48.6151 178.007 47.7484 178.18 46.7617 178.18H43.1417V176.22H46.7617C47.5751 176.22 48.2151 176.02 48.6817 175.62C49.1617 175.207 49.4017 174.647 49.4017 173.94C49.4017 173.233 49.1617 172.68 48.6817 172.28C48.2151 171.867 47.5751 171.66 46.7617 171.66H43.3417V184ZM62.1184 184H60.0584V182.02L59.9584 181.6V177.86C59.9584 177.113 59.7184 176.533 59.2384 176.12C58.7584 175.693 58.1051 175.48 57.2784 175.48C56.6784 175.48 56.1184 175.6 55.5984 175.84C55.0918 176.08 54.6518 176.413 54.2784 176.84L52.9984 175.44C53.5451 174.893 54.1851 174.467 54.9184 174.16C55.6518 173.853 56.4651 173.7 57.3584 173.7C58.3051 173.7 59.1318 173.867 59.8384 174.2C60.5584 174.52 61.1184 174.987 61.5184 175.6C61.9184 176.213 62.1184 176.947 62.1184 177.8V184ZM56.5184 184.32C55.7584 184.32 55.0851 184.18 54.4984 183.9C53.9118 183.62 53.4584 183.24 53.1384 182.76C52.8184 182.28 52.6584 181.72 52.6584 181.08C52.6584 180.387 52.8584 179.8 53.2584 179.32C53.6584 178.827 54.2118 178.453 54.9184 178.2C55.6384 177.933 56.4651 177.8 57.3984 177.8H60.1984V179.34H57.5984C56.8118 179.34 56.1718 179.48 55.6784 179.76C55.1984 180.04 54.9584 180.453 54.9584 181C54.9584 181.493 55.1451 181.887 55.5184 182.18C55.8918 182.46 56.3784 182.6 56.9784 182.6C57.5518 182.6 58.0784 182.48 58.5584 182.24C59.0384 182 59.4184 181.673 59.6984 181.26C59.9918 180.833 60.1584 180.347 60.1984 179.8L60.9184 180.14C60.9184 180.953 60.7318 181.68 60.3584 182.32C59.9851 182.947 59.4651 183.44 58.7984 183.8C58.1318 184.147 57.3718 184.32 56.5184 184.32ZM69.3866 184.32C67.6799 184.32 66.3666 183.713 65.4466 182.5C64.5266 181.287 64.0666 179.547 64.0666 177.28C64.0666 175.053 64.4532 173.38 65.2266 172.26C65.9999 171.14 67.2266 170.467 68.9066 170.24L73.2866 169.6L73.5666 171.46L69.2466 172.12C68.4999 172.24 67.8999 172.473 67.4466 172.82C67.0066 173.167 66.6866 173.687 66.4866 174.38C66.2866 175.06 66.1599 175.967 66.1066 177.1L65.7666 177.7C65.8999 177.02 66.1666 176.44 66.5666 175.96C66.9666 175.467 67.4666 175.093 68.0666 174.84C68.6666 174.573 69.3066 174.44 69.9866 174.44C70.9466 174.44 71.7599 174.647 72.4266 175.06C73.1066 175.46 73.6266 176.02 73.9866 176.74C74.3466 177.447 74.5266 178.26 74.5266 179.18C74.5266 180.207 74.3132 181.107 73.8866 181.88C73.4599 182.653 72.8599 183.253 72.0866 183.68C71.3266 184.107 70.4266 184.32 69.3866 184.32ZM69.3066 182.42C70.2132 182.42 70.9199 182.14 71.4266 181.58C71.9466 181.02 72.2066 180.253 72.2066 179.28C72.2066 178.333 71.9666 177.6 71.4866 177.08C71.0066 176.547 70.3266 176.28 69.4466 176.28C68.9266 176.28 68.4532 176.4 68.0266 176.64C67.5999 176.867 67.2332 177.187 66.9266 177.6C66.6332 178.013 66.4332 178.507 66.3266 179.08L66.4066 177.96C66.3799 179.48 66.5999 180.607 67.0666 181.34C67.5332 182.06 68.2799 182.42 69.3066 182.42ZM81.655 184.32C80.6017 184.32 79.6617 184.093 78.835 183.64C78.0217 183.187 77.3817 182.56 76.915 181.76C76.4483 180.96 76.215 180.04 76.215 179C76.215 177.973 76.4483 177.06 76.915 176.26C77.3817 175.46 78.0217 174.833 78.835 174.38C79.6617 173.927 80.6017 173.7 81.655 173.7C82.7217 173.7 83.6617 173.927 84.475 174.38C85.3017 174.833 85.9417 175.46 86.395 176.26C86.8617 177.06 87.095 177.973 87.095 179C87.095 180.04 86.8617 180.96 86.395 181.76C85.9417 182.56 85.3017 183.187 84.475 183.64C83.6617 184.093 82.7217 184.32 81.655 184.32ZM81.655 182.44C82.2817 182.44 82.8283 182.293 83.295 182C83.7617 181.707 84.1217 181.307 84.375 180.8C84.6417 180.28 84.775 179.68 84.775 179C84.775 178.333 84.6417 177.747 84.375 177.24C84.1217 176.72 83.7617 176.313 83.295 176.02C82.8283 175.727 82.2817 175.58 81.655 175.58C81.0417 175.58 80.5017 175.727 80.035 176.02C79.5683 176.313 79.2017 176.72 78.935 177.24C78.6817 177.747 78.555 178.333 78.555 179C78.555 179.68 78.6817 180.28 78.935 180.8C79.2017 181.307 79.5683 181.707 80.035 182C80.5017 182.293 81.0417 182.44 81.655 182.44ZM91.503 184V174.76H93.743V184H91.503ZM88.003 175.84V174.02H97.223V175.84H88.003ZM107.509 184H105.449V182.02L105.349 181.6V177.86C105.349 177.113 105.109 176.533 104.629 176.12C104.149 175.693 103.496 175.48 102.669 175.48C102.069 175.48 101.509 175.6 100.989 175.84C100.482 176.08 100.042 176.413 99.6691 176.84L98.3891 175.44C98.9357 174.893 99.5757 174.467 100.309 174.16C101.042 173.853 101.856 173.7 102.749 173.7C103.696 173.7 104.522 173.867 105.229 174.2C105.949 174.52 106.509 174.987 106.909 175.6C107.309 176.213 107.509 176.947 107.509 177.8V184ZM101.909 184.32C101.149 184.32 100.476 184.18 99.8891 183.9C99.3024 183.62 98.8491 183.24 98.5291 182.76C98.2091 182.28 98.0491 181.72 98.0491 181.08C98.0491 180.387 98.2491 179.8 98.6491 179.32C99.0491 178.827 99.6024 178.453 100.309 178.2C101.029 177.933 101.856 177.8 102.789 177.8H105.589V179.34H102.989C102.202 179.34 101.562 179.48 101.069 179.76C100.589 180.04 100.349 180.453 100.349 181C100.349 181.493 100.536 181.887 100.909 182.18C101.282 182.46 101.769 182.6 102.369 182.6C102.942 182.6 103.469 182.48 103.949 182.24C104.429 182 104.809 181.673 105.089 181.26C105.382 180.833 105.549 180.347 105.589 179.8L106.309 180.14C106.309 180.953 106.122 181.68 105.749 182.32C105.376 182.947 104.856 183.44 104.189 183.8C103.522 184.147 102.762 184.32 101.909 184.32ZM121.583 180.94L123.023 182.34C122.53 182.953 121.923 183.44 121.203 183.8C120.483 184.147 119.657 184.32 118.723 184.32C117.697 184.32 116.777 184.093 115.963 183.64C115.163 183.173 114.53 182.547 114.063 181.76C113.597 180.96 113.363 180.04 113.363 179C113.363 177.973 113.597 177.067 114.063 176.28C114.53 175.48 115.17 174.853 115.983 174.4C116.81 173.933 117.743 173.7 118.783 173.7C119.69 173.7 120.497 173.873 121.203 174.22C121.923 174.567 122.53 175.053 123.023 175.68L121.583 177.08C121.29 176.627 120.917 176.267 120.463 176C120.023 175.72 119.49 175.58 118.863 175.58C118.25 175.58 117.703 175.727 117.223 176.02C116.743 176.313 116.37 176.72 116.103 177.24C115.837 177.747 115.703 178.333 115.703 179C115.703 179.667 115.837 180.26 116.103 180.78C116.37 181.3 116.743 181.707 117.223 182C117.703 182.293 118.25 182.44 118.863 182.44C119.49 182.44 120.023 182.3 120.463 182.02C120.917 181.74 121.29 181.38 121.583 180.94ZM128.522 183.06V182.18H128.842C129.122 182.18 129.342 182.127 129.502 182.02C129.675 181.9 129.802 181.7 129.882 181.42C129.975 181.127 130.048 180.72 130.102 180.2L130.782 174.02H138.242V182.76H136.042V174.38L137.602 175.84H131.162L132.922 174.38L132.202 180.38C132.135 181.047 132.002 181.573 131.802 181.96C131.615 182.347 131.328 182.627 130.942 182.8C130.568 182.973 130.062 183.06 129.422 183.06H128.522ZM128.042 186.68V182.18H139.802V186.68H137.702V182.7L138.962 184H129.362L130.162 182.7V186.68H128.042ZM150.536 184H148.476V182.02L148.376 181.6V177.86C148.376 177.113 148.136 176.533 147.656 176.12C147.176 175.693 146.523 175.48 145.696 175.48C145.096 175.48 144.536 175.6 144.016 175.84C143.51 176.08 143.07 176.413 142.696 176.84L141.416 175.44C141.963 174.893 142.603 174.467 143.336 174.16C144.07 173.853 144.883 173.7 145.776 173.7C146.723 173.7 147.55 173.867 148.256 174.2C148.976 174.52 149.536 174.987 149.936 175.6C150.336 176.213 150.536 176.947 150.536 177.8V184ZM144.936 184.32C144.176 184.32 143.503 184.18 142.916 183.9C142.33 183.62 141.876 183.24 141.556 182.76C141.236 182.28 141.076 181.72 141.076 181.08C141.076 180.387 141.276 179.8 141.676 179.32C142.076 178.827 142.63 178.453 143.336 178.2C144.056 177.933 144.883 177.8 145.816 177.8H148.616V179.34H146.016C145.23 179.34 144.59 179.48 144.096 179.76C143.616 180.04 143.376 180.453 143.376 181C143.376 181.493 143.563 181.887 143.936 182.18C144.31 182.46 144.796 182.6 145.396 182.6C145.97 182.6 146.496 182.48 146.976 182.24C147.456 182 147.836 181.673 148.116 181.26C148.41 180.833 148.576 180.347 148.616 179.8L149.336 180.14C149.336 180.953 149.15 181.68 148.776 182.32C148.403 182.947 147.883 183.44 147.216 183.8C146.55 184.147 145.79 184.32 144.936 184.32ZM160.385 184V174.02H162.625V184H160.385ZM153.105 184V174.02H155.345V184H153.105ZM154.165 179.68V177.84H161.665V179.68H154.165ZM172.826 184V174.02H175.066V184H172.826ZM165.546 184V174.02H167.786V184H165.546ZM166.606 179.68V177.84H174.106V179.68H166.606ZM177.987 184V174.02H180.147V183.7L178.587 182.18H182.687C183.261 182.18 183.701 182.047 184.007 181.78C184.314 181.5 184.467 181.12 184.467 180.64C184.467 180.16 184.314 179.787 184.007 179.52C183.701 179.253 183.261 179.12 182.687 179.12H179.107V177.3H182.847C184.034 177.3 184.981 177.607 185.687 178.22C186.394 178.833 186.747 179.62 186.747 180.58C186.747 181.26 186.581 181.86 186.247 182.38C185.927 182.887 185.474 183.287 184.887 183.58C184.301 183.86 183.621 184 182.847 184H177.987ZM187.927 184V174.02H190.167V184H187.927ZM193.085 184V174.02H195.445L199.185 181.06L198.825 181.04L202.505 174.02H204.965V184H202.905V174.76L203.805 175.26L199.725 183H198.185L194.105 175.26L195.065 174.84V184H193.085ZM207.89 184V174.02H210.05V181.12L209.89 181.06L215.41 174.02H217.37V184H215.21V176.9L215.35 176.96L209.85 184H207.89ZM72.167 209V199.02H74.327V206.12L74.167 206.06L79.687 199.02H81.647V209H79.487V201.9L79.627 201.96L74.127 209H72.167ZM97.2356 209H95.1756V207.02L95.0756 206.6V202.86C95.0756 202.113 94.8356 201.533 94.3556 201.12C93.8756 200.693 93.2223 200.48 92.3956 200.48C91.7956 200.48 91.2356 200.6 90.7156 200.84C90.209 201.08 89.769 201.413 89.3956 201.84L88.1156 200.44C88.6623 199.893 89.3023 199.467 90.0356 199.16C90.769 198.853 91.5823 198.7 92.4756 198.7C93.4223 198.7 94.249 198.867 94.9556 199.2C95.6756 199.52 96.2356 199.987 96.6356 200.6C97.0356 201.213 97.2356 201.947 97.2356 202.8V209ZM91.6356 209.32C90.8756 209.32 90.2023 209.18 89.6156 208.9C89.029 208.62 88.5756 208.24 88.2556 207.76C87.9356 207.28 87.7756 206.72 87.7756 206.08C87.7756 205.387 87.9756 204.8 88.3756 204.32C88.7756 203.827 89.329 203.453 90.0356 203.2C90.7556 202.933 91.5823 202.8 92.5156 202.8H95.3156V204.34H92.7156C91.929 204.34 91.289 204.48 90.7956 204.76C90.3156 205.04 90.0756 205.453 90.0756 206C90.0756 206.493 90.2623 206.887 90.6356 207.18C91.009 207.46 91.4956 207.6 92.0956 207.6C92.669 207.6 93.1956 207.48 93.6756 207.24C94.1556 207 94.5356 206.673 94.8156 206.26C95.109 205.833 95.2756 205.347 95.3156 204.8L96.0356 205.14C96.0356 205.953 95.849 206.68 95.4756 207.32C95.1023 207.947 94.5823 208.44 93.9156 208.8C93.249 209.147 92.489 209.32 91.6356 209.32ZM107.084 209V199.02H109.324V209H107.084ZM99.8038 209V199.02H102.044V209H99.8038ZM100.864 204.68V202.84H108.364V204.68H100.864ZM121.005 209H118.945V207.02L118.845 206.6V202.86C118.845 202.113 118.605 201.533 118.125 201.12C117.645 200.693 116.992 200.48 116.165 200.48C115.565 200.48 115.005 200.6 114.485 200.84C113.978 201.08 113.538 201.413 113.165 201.84L111.885 200.44C112.432 199.893 113.072 199.467 113.805 199.16C114.538 198.853 115.352 198.7 116.245 198.7C117.192 198.7 118.018 198.867 118.725 199.2C119.445 199.52 120.005 199.987 120.405 200.6C120.805 201.213 121.005 201.947 121.005 202.8V209ZM115.405 209.32C114.645 209.32 113.972 209.18 113.385 208.9C112.798 208.62 112.345 208.24 112.025 207.76C111.705 207.28 111.545 206.72 111.545 206.08C111.545 205.387 111.745 204.8 112.145 204.32C112.545 203.827 113.098 203.453 113.805 203.2C114.525 202.933 115.352 202.8 116.285 202.8H119.085V204.34H116.485C115.698 204.34 115.058 204.48 114.565 204.76C114.085 205.04 113.845 205.453 113.845 206C113.845 206.493 114.032 206.887 114.405 207.18C114.778 207.46 115.265 207.6 115.865 207.6C116.438 207.6 116.965 207.48 117.445 207.24C117.925 207 118.305 206.673 118.585 206.26C118.878 205.833 119.045 205.347 119.085 204.8L119.805 205.14C119.805 205.953 119.618 206.68 119.245 207.32C118.872 207.947 118.352 208.44 117.685 208.8C117.018 209.147 116.258 209.32 115.405 209.32ZM122.493 209V207.14H123.213C123.573 207.14 123.84 207.053 124.013 206.88C124.2 206.707 124.307 206.407 124.333 205.98L124.973 199.02H132.573V209H130.333V199.38L131.933 200.84H125.393L127.093 199.38L126.413 206.42C126.32 207.38 126.053 208.053 125.613 208.44C125.173 208.813 124.5 209 123.593 209H122.493ZM135.468 209V199.02H137.628V206.12L137.468 206.06L142.988 199.02H144.948V209H142.788V201.9L142.928 201.96L137.428 209H135.468ZM150.37 209V199.76H152.61V209H150.37ZM146.87 200.84V199.02H156.09V200.84H146.87ZM158.007 209V199.02H160.167V206.12L160.007 206.06L165.527 199.02H167.487V209H165.327V201.9L165.467 201.96L159.967 209H158.007ZM177.189 209L172.069 203.82H172.289L176.889 199.02H179.649L174.429 204.46L174.169 203.06L180.109 209H177.189ZM170.409 209V199.02H172.649V209H170.409ZM190.185 209H188.125V207.02L188.025 206.6V202.86C188.025 202.113 187.785 201.533 187.305 201.12C186.825 200.693 186.172 200.48 185.345 200.48C184.745 200.48 184.185 200.6 183.665 200.84C183.158 201.08 182.718 201.413 182.345 201.84L181.065 200.44C181.612 199.893 182.252 199.467 182.985 199.16C183.718 198.853 184.532 198.7 185.425 198.7C186.372 198.7 187.198 198.867 187.905 199.2C188.625 199.52 189.185 199.987 189.585 200.6C189.985 201.213 190.185 201.947 190.185 202.8V209ZM184.585 209.32C183.825 209.32 183.152 209.18 182.565 208.9C181.978 208.62 181.525 208.24 181.205 207.76C180.885 207.28 180.725 206.72 180.725 206.08C180.725 205.387 180.925 204.8 181.325 204.32C181.725 203.827 182.278 203.453 182.985 203.2C183.705 202.933 184.532 202.8 185.465 202.8H188.265V204.34H185.665C184.878 204.34 184.238 204.48 183.745 204.76C183.265 205.04 183.025 205.453 183.025 206C183.025 206.493 183.212 206.887 183.585 207.18C183.958 207.46 184.445 207.6 185.045 207.6C185.618 207.6 186.145 207.48 186.625 207.24C187.105 207 187.485 206.673 187.765 206.26C188.058 205.833 188.225 205.347 188.265 204.8L188.985 205.14C188.985 205.953 188.798 206.68 188.425 207.32C188.052 207.947 187.532 208.44 186.865 208.8C186.198 209.147 185.438 209.32 184.585 209.32Z" fill="white"/>
<path d="M131 120.124C123.688 120.124 117.938 123.562 117.938 127.874V150.124C117.938 154.437 123.813 157.874 130.938 157.874C138.125 157.874 144 154.374 144 150.124V127.874C144.062 123.499 138.313 120.124 131 120.124ZM131 122.937C137 122.937 141.25 125.562 141.25 127.874C141.25 130.249 137.063 132.812 131 132.812C124.938 132.812 120.75 130.187 120.75 127.874C120.75 125.499 125 122.937 131 122.937ZM131 155.124C125.125 155.124 120.812 152.499 120.812 150.187V147.749C123.188 149.499 126.813 150.562 131 150.562C135.188 150.562 138.875 149.437 141.25 147.749V150.187C141.25 152.499 136.875 155.124 131 155.124ZM131 147.749C125 147.749 120.812 145.249 120.812 142.999V140.124C123.25 141.874 127.063 142.937 131 142.937C135.125 142.937 138.813 141.874 141.25 140.124V142.999C141.25 145.249 137 147.749 131 147.749ZM139.625 137.812C137.688 139.249 134.5 140.124 131 140.124C127.563 140.124 124.313 139.249 122.375 137.812C121.625 137.312 120.812 136.437 120.812 135.374V132.749C123.188 134.499 126.875 135.624 131.062 135.624C135.25 135.624 138.938 134.499 141.313 132.749V135.374C141.25 136.374 140.375 137.249 139.625 137.812Z" fill="white"/>
<defs>
<filter id="filter0_ii_5301_872" x="-1" y="-1" width="263" height="346" filterUnits="userSpaceOnUse" color-interpolation-filters="sRGB">
<feFlood flood-opacity="0" result="BackgroundImageFix"/>
<feBlend mode="normal" in="SourceGraphic" in2="BackgroundImageFix" result="shape"/>
<feColorMatrix in="SourceAlpha" type="matrix" values="0 0 0 0 0 0 0 0 0 0 0 0 0 0 0 0 0 0 127 0" result="hardAlpha"/>
<feOffset dx="1" dy="1"/>
<feGaussianBlur stdDeviation="1.5"/>
<feComposite in2="hardAlpha" operator="arithmetic" k2="-1" k3="1"/>
<feColorMatrix type="matrix" values="0 0 0 0 1 0 0 0 0 1 0 0 0 0 1 0 0 0 1 0"/>
<feBlend mode="normal" in2="shape" result="effect1_innerShadow_5301_872"/>
<feColorMatrix in="SourceAlpha" type="matrix" values="0 0 0 0 0 0 0 0 0 0 0 0 0 0 0 0 0 0 127 0" result="hardAlpha"/>
<feOffset dx="-1" dy="-1"/>
<feGaussianBlur stdDeviation="1.5"/>
<feComposite in2="hardAlpha" operator="arithmetic" k2="-1" k3="1"/>
<feColorMatrix type="matrix" values="0 0 0 0 0 0 0 0 0 0 0 0 0 0 0 0 0 0 1 0"/>
<feBlend mode="normal" in2="effect1_innerShadow_5301_872" result="effect2_innerShadow_5301_872"/>
</filter>
<linearGradient id="paint0_linear_5301_872" x1="2.37821e-06" y1="144.567" x2="214.375" y2="144.567" gradientUnits="userSpaceOnUse">
<stop stop-color="#363636"/>
<stop offset="1" stop-color="#5B5B5B"/>
</linearGradient>
</defs>
</svg>
