<svg width="345" height="225" viewBox="0 0 345 225" fill="none" xmlns="http://www.w3.org/2000/svg">
<g filter="url(#filter0_ii_5301_870)">
<path d="M344.5 10C344.5 4.47716 340.023 0 334.5 0H10C4.47714 0 0 4.47715 0 10V115C0 120.523 4.47714 125 10 125H121.5C127.023 125 131.5 129.477 131.5 135V214.5C131.5 220.023 135.977 224.5 141.5 224.5H334.5C340.023 224.5 344.5 220.023 344.5 214.5V10Z" fill="url(#paint0_linear_5301_870)"/>
</g>
<path d="M185.168 108V93.7H190.908C191.842 93.7 192.655 93.86 193.348 94.18C194.055 94.4867 194.595 94.92 194.968 95.48C195.355 96.04 195.548 96.6933 195.548 97.44C195.548 98.1467 195.355 98.7733 194.968 99.32C194.595 99.8533 194.055 100.273 193.348 100.58C192.655 100.873 191.842 101.02 190.908 101.02H187.668V100.02H191.188C192.188 100.02 193.062 100.18 193.808 100.5C194.555 100.82 195.135 101.273 195.548 101.86C195.962 102.433 196.168 103.113 196.168 103.9C196.168 104.713 195.962 105.433 195.548 106.06C195.135 106.673 194.555 107.153 193.808 107.5C193.062 107.833 192.188 108 191.188 108H185.168ZM187.468 106.06H191.188C192.015 106.06 192.662 105.867 193.128 105.48C193.595 105.08 193.828 104.527 193.828 103.82C193.828 103.127 193.595 102.587 193.128 102.2C192.662 101.813 192.015 101.62 191.188 101.62H187.268V99.7H190.808C191.555 99.7 192.142 99.52 192.568 99.16C193.008 98.7867 193.228 98.28 193.228 97.64C193.228 97.0133 193.008 96.5267 192.568 96.18C192.142 95.82 191.555 95.64 190.808 95.64H187.468V106.06ZM207.686 108H205.466V106.08L205.446 105.52V98.02H207.686V108ZM205.606 103.78L206.066 104.16C206.106 104.973 205.959 105.693 205.626 106.32C205.293 106.947 204.819 107.44 204.206 107.8C203.606 108.147 202.899 108.32 202.086 108.32C200.913 108.32 199.973 107.967 199.266 107.26C198.559 106.553 198.206 105.533 198.206 104.2V98.02H200.446V103.98C200.446 104.78 200.646 105.393 201.046 105.82C201.446 106.233 201.993 106.44 202.686 106.44C203.179 106.44 203.633 106.327 204.046 106.1C204.473 105.873 204.826 105.56 205.106 105.16C205.386 104.76 205.553 104.3 205.606 103.78ZM209.441 106.48L210.741 105.08C211.195 105.547 211.728 105.913 212.341 106.18C212.968 106.447 213.621 106.58 214.301 106.58C214.995 106.58 215.548 106.453 215.961 106.2C216.375 105.933 216.581 105.593 216.581 105.18C216.581 104.807 216.395 104.52 216.021 104.32C215.661 104.107 215.015 103.94 214.081 103.82C212.615 103.607 211.548 103.273 210.881 102.82C210.228 102.353 209.901 101.713 209.901 100.9C209.901 100.26 210.088 99.7 210.461 99.22C210.835 98.74 211.341 98.3667 211.981 98.1C212.621 97.8333 213.355 97.7 214.181 97.7C215.141 97.7 215.988 97.86 216.721 98.18C217.468 98.5 218.115 98.9333 218.661 99.48L217.361 100.9C216.948 100.447 216.475 100.087 215.941 99.82C215.408 99.5533 214.828 99.42 214.201 99.42C213.575 99.42 213.068 99.5467 212.681 99.8C212.295 100.04 212.101 100.353 212.101 100.74C212.101 101.06 212.275 101.307 212.621 101.48C212.981 101.64 213.608 101.78 214.501 101.9C215.968 102.113 217.048 102.467 217.741 102.96C218.435 103.44 218.781 104.133 218.781 105.04C218.781 105.693 218.588 106.267 218.201 106.76C217.815 107.253 217.281 107.64 216.601 107.92C215.921 108.187 215.128 108.32 214.221 108.32C213.248 108.32 212.355 108.16 211.541 107.84C210.728 107.507 210.028 107.053 209.441 106.48ZM223.066 108H220.826V98.02H223.066V108ZM221.946 95.96C221.559 95.96 221.226 95.8267 220.946 95.56C220.666 95.2933 220.526 94.9733 220.526 94.6C220.526 94.2 220.666 93.8667 220.946 93.6C221.226 93.3333 221.559 93.2 221.946 93.2C222.346 93.2 222.679 93.3333 222.946 93.6C223.226 93.8667 223.366 94.1933 223.366 94.58C223.366 94.9667 223.226 95.2933 222.946 95.56C222.679 95.8267 222.346 95.96 221.946 95.96ZM235.112 108H232.872V102.24C232.872 101.347 232.672 100.68 232.272 100.24C231.872 99.8 231.332 99.58 230.652 99.58C230.159 99.58 229.692 99.7067 229.252 99.96C228.825 100.213 228.479 100.613 228.212 101.16C227.945 101.707 227.812 102.413 227.812 103.28V108H225.572V98.02H227.792V101.1H227.492C227.625 100.22 227.885 99.54 228.272 99.06C228.659 98.5667 229.112 98.22 229.632 98.02C230.152 97.8067 230.685 97.7 231.232 97.7C232.432 97.7 233.379 98.0667 234.072 98.8C234.765 99.5333 235.112 100.6 235.112 102V108ZM246.027 104.98L247.307 106.38C246.787 106.98 246.14 107.453 245.367 107.8C244.593 108.147 243.733 108.32 242.787 108.32C241.667 108.32 240.673 108.093 239.807 107.64C238.953 107.187 238.28 106.56 237.787 105.76C237.307 104.96 237.067 104.047 237.067 103.02C237.067 101.98 237.3 101.06 237.767 100.26C238.233 99.46 238.873 98.8333 239.687 98.38C240.5 97.9267 241.413 97.7 242.427 97.7C243.413 97.7 244.287 97.9267 245.047 98.38C245.807 98.82 246.407 99.4333 246.847 100.22C247.287 100.993 247.507 101.893 247.507 102.92V103.04H245.287V102.82C245.287 102.153 245.16 101.573 244.907 101.08C244.667 100.573 244.333 100.187 243.907 99.92C243.48 99.64 242.98 99.5 242.407 99.5C241.807 99.5 241.273 99.6467 240.807 99.94C240.353 100.22 240 100.62 239.747 101.14C239.493 101.647 239.367 102.26 239.367 102.98C239.367 103.7 239.513 104.327 239.807 104.86C240.113 105.393 240.527 105.807 241.047 106.1C241.58 106.38 242.193 106.52 242.887 106.52C244.153 106.52 245.2 106.007 246.027 104.98ZM247.507 103.72H238.627V102.2H247.187L247.507 102.94V103.72ZM248.719 106.48L250.019 105.08C250.472 105.547 251.005 105.913 251.619 106.18C252.245 106.447 252.899 106.58 253.579 106.58C254.272 106.58 254.825 106.453 255.239 106.2C255.652 105.933 255.859 105.593 255.859 105.18C255.859 104.807 255.672 104.52 255.299 104.32C254.939 104.107 254.292 103.94 253.359 103.82C251.892 103.607 250.825 103.273 250.159 102.82C249.505 102.353 249.179 101.713 249.179 100.9C249.179 100.26 249.365 99.7 249.739 99.22C250.112 98.74 250.619 98.3667 251.259 98.1C251.899 97.8333 252.632 97.7 253.459 97.7C254.419 97.7 255.265 97.86 255.999 98.18C256.745 98.5 257.392 98.9333 257.939 99.48L256.639 100.9C256.225 100.447 255.752 100.087 255.219 99.82C254.685 99.5533 254.105 99.42 253.479 99.42C252.852 99.42 252.345 99.5467 251.959 99.8C251.572 100.04 251.379 100.353 251.379 100.74C251.379 101.06 251.552 101.307 251.899 101.48C252.259 101.64 252.885 101.78 253.779 101.9C255.245 102.113 256.325 102.467 257.019 102.96C257.712 103.44 258.059 104.133 258.059 105.04C258.059 105.693 257.865 106.267 257.479 106.76C257.092 107.253 256.559 107.64 255.879 107.92C255.199 108.187 254.405 108.32 253.499 108.32C252.525 108.32 251.632 108.16 250.819 107.84C250.005 107.507 249.305 107.053 248.719 106.48ZM259.207 106.48L260.507 105.08C260.96 105.547 261.494 105.913 262.107 106.18C262.734 106.447 263.387 106.58 264.067 106.58C264.76 106.58 265.314 106.453 265.727 106.2C266.14 105.933 266.347 105.593 266.347 105.18C266.347 104.807 266.16 104.52 265.787 104.32C265.427 104.107 264.78 103.94 263.847 103.82C262.38 103.607 261.314 103.273 260.647 102.82C259.994 102.353 259.667 101.713 259.667 100.9C259.667 100.26 259.854 99.7 260.227 99.22C260.6 98.74 261.107 98.3667 261.747 98.1C262.387 97.8333 263.12 97.7 263.947 97.7C264.907 97.7 265.754 97.86 266.487 98.18C267.234 98.5 267.88 98.9333 268.427 99.48L267.127 100.9C266.714 100.447 266.24 100.087 265.707 99.82C265.174 99.5533 264.594 99.42 263.967 99.42C263.34 99.42 262.834 99.5467 262.447 99.8C262.06 100.04 261.867 100.353 261.867 100.74C261.867 101.06 262.04 101.307 262.387 101.48C262.747 101.64 263.374 101.78 264.267 101.9C265.734 102.113 266.814 102.467 267.507 102.96C268.2 103.44 268.547 104.133 268.547 105.04C268.547 105.693 268.354 106.267 267.967 106.76C267.58 107.253 267.047 107.64 266.367 107.92C265.687 108.187 264.894 108.32 263.987 108.32C263.014 108.32 262.12 108.16 261.307 107.84C260.494 107.507 259.794 107.053 259.207 106.48ZM174.695 133H172.395V118.7H174.695V133ZM186.987 133H184.747V127.24C184.747 126.347 184.547 125.68 184.147 125.24C183.747 124.8 183.207 124.58 182.527 124.58C182.034 124.58 181.567 124.707 181.127 124.96C180.7 125.213 180.354 125.613 180.087 126.16C179.82 126.707 179.687 127.413 179.687 128.28V133H177.447V123.02H179.667V126.1H179.367C179.5 125.22 179.76 124.54 180.147 124.06C180.534 123.567 180.987 123.22 181.507 123.02C182.027 122.807 182.56 122.7 183.107 122.7C184.307 122.7 185.254 123.067 185.947 123.8C186.64 124.533 186.987 125.6 186.987 127V133ZM195.445 133H192.985C192.145 133 191.512 132.787 191.085 132.36C190.659 131.92 190.445 131.287 190.445 130.46V120.28H192.685V130.12C192.685 130.467 192.765 130.727 192.925 130.9C193.085 131.06 193.339 131.14 193.685 131.14H195.445V133ZM195.305 124.84H188.585V123.02H195.305V124.84ZM205.675 129.98L206.955 131.38C206.435 131.98 205.788 132.453 205.015 132.8C204.242 133.147 203.382 133.32 202.435 133.32C201.315 133.32 200.322 133.093 199.455 132.64C198.602 132.187 197.928 131.56 197.435 130.76C196.955 129.96 196.715 129.047 196.715 128.02C196.715 126.98 196.948 126.06 197.415 125.26C197.882 124.46 198.522 123.833 199.335 123.38C200.148 122.927 201.062 122.7 202.075 122.7C203.062 122.7 203.935 122.927 204.695 123.38C205.455 123.82 206.055 124.433 206.495 125.22C206.935 125.993 207.155 126.893 207.155 127.92V128.04H204.935V127.82C204.935 127.153 204.808 126.573 204.555 126.08C204.315 125.573 203.982 125.187 203.555 124.92C203.128 124.64 202.628 124.5 202.055 124.5C201.455 124.5 200.922 124.647 200.455 124.94C200.002 125.22 199.648 125.62 199.395 126.14C199.142 126.647 199.015 127.26 199.015 127.98C199.015 128.7 199.162 129.327 199.455 129.86C199.762 130.393 200.175 130.807 200.695 131.1C201.228 131.38 201.842 131.52 202.535 131.52C203.802 131.52 204.848 131.007 205.675 129.98ZM207.155 128.72H198.275V127.2H206.835L207.155 127.94V128.72ZM211.503 133H209.263V118.6H211.503V133ZM216.25 133H214.01V118.6H216.25V133ZM220.996 133H218.756V123.02H220.996V133ZM219.876 120.96C219.489 120.96 219.156 120.827 218.876 120.56C218.596 120.293 218.456 119.973 218.456 119.6C218.456 119.2 218.596 118.867 218.876 118.6C219.156 118.333 219.489 118.2 219.876 118.2C220.276 118.2 220.609 118.333 220.876 118.6C221.156 118.867 221.296 119.193 221.296 119.58C221.296 119.967 221.156 120.293 220.876 120.56C220.609 120.827 220.276 120.96 219.876 120.96ZM233.922 131.9C233.922 132.953 233.682 133.873 233.202 134.66C232.722 135.46 232.062 136.08 231.222 136.52C230.395 136.973 229.442 137.2 228.362 137.2C227.415 137.2 226.542 137.04 225.742 136.72C224.942 136.413 224.282 135.987 223.762 135.44L225.062 133.94C225.448 134.38 225.902 134.72 226.422 134.96C226.955 135.213 227.568 135.34 228.262 135.34C228.955 135.34 229.555 135.2 230.062 134.92C230.582 134.64 230.982 134.253 231.262 133.76C231.542 133.267 231.682 132.68 231.682 132V128.16C231.682 127.373 231.535 126.72 231.242 126.2C230.948 125.667 230.568 125.267 230.102 125C229.635 124.72 229.115 124.58 228.542 124.58C227.928 124.58 227.388 124.727 226.922 125.02C226.455 125.313 226.088 125.713 225.822 126.22C225.568 126.713 225.442 127.273 225.442 127.9C225.442 128.54 225.575 129.107 225.842 129.6C226.108 130.093 226.482 130.48 226.962 130.76C227.442 131.04 228.002 131.18 228.642 131.18C229.188 131.18 229.688 131.073 230.142 130.86C230.608 130.633 230.988 130.32 231.282 129.92C231.588 129.52 231.775 129.06 231.842 128.54L232.322 128.9C232.388 129.687 232.248 130.4 231.902 131.04C231.568 131.667 231.075 132.167 230.422 132.54C229.782 132.9 229.028 133.08 228.162 133.08C227.215 133.08 226.355 132.867 225.582 132.44C224.822 132 224.215 131.393 223.762 130.62C223.322 129.833 223.102 128.933 223.102 127.92C223.102 126.893 223.328 125.993 223.782 125.22C224.235 124.433 224.842 123.82 225.602 123.38C226.362 122.927 227.202 122.7 228.122 122.7C228.828 122.7 229.462 122.833 230.022 123.1C230.595 123.367 231.068 123.753 231.442 124.26C231.828 124.767 232.075 125.38 232.182 126.1H231.702V123.02H233.922V131.9ZM244.952 129.98L246.232 131.38C245.712 131.98 245.066 132.453 244.292 132.8C243.519 133.147 242.659 133.32 241.712 133.32C240.592 133.32 239.599 133.093 238.732 132.64C237.879 132.187 237.206 131.56 236.712 130.76C236.232 129.96 235.992 129.047 235.992 128.02C235.992 126.98 236.226 126.06 236.692 125.26C237.159 124.46 237.799 123.833 238.612 123.38C239.426 122.927 240.339 122.7 241.352 122.7C242.339 122.7 243.212 122.927 243.972 123.38C244.732 123.82 245.332 124.433 245.772 125.22C246.212 125.993 246.432 126.893 246.432 127.92V128.04H244.212V127.82C244.212 127.153 244.086 126.573 243.832 126.08C243.592 125.573 243.259 125.187 242.832 124.92C242.406 124.64 241.906 124.5 241.332 124.5C240.732 124.5 240.199 124.647 239.732 124.94C239.279 125.22 238.926 125.62 238.672 126.14C238.419 126.647 238.292 127.26 238.292 127.98C238.292 128.7 238.439 129.327 238.732 129.86C239.039 130.393 239.452 130.807 239.972 131.1C240.506 131.38 241.119 131.52 241.812 131.52C243.079 131.52 244.126 131.007 244.952 129.98ZM246.432 128.72H237.552V127.2H246.112L246.432 127.94V128.72ZM258.081 133H255.841V127.24C255.841 126.347 255.641 125.68 255.241 125.24C254.841 124.8 254.301 124.58 253.621 124.58C253.127 124.58 252.661 124.707 252.221 124.96C251.794 125.213 251.447 125.613 251.181 126.16C250.914 126.707 250.781 127.413 250.781 128.28V133H248.541V123.02H250.761V126.1H250.461C250.594 125.22 250.854 124.54 251.241 124.06C251.627 123.567 252.081 123.22 252.601 123.02C253.121 122.807 253.654 122.7 254.201 122.7C255.401 122.7 256.347 123.067 257.041 123.8C257.734 124.533 258.081 125.6 258.081 127V133ZM268.255 129.94L269.695 131.34C269.202 131.953 268.595 132.44 267.875 132.8C267.155 133.147 266.329 133.32 265.395 133.32C264.369 133.32 263.449 133.093 262.635 132.64C261.835 132.173 261.202 131.547 260.735 130.76C260.269 129.96 260.035 129.04 260.035 128C260.035 126.973 260.269 126.067 260.735 125.28C261.202 124.48 261.842 123.853 262.655 123.4C263.482 122.933 264.415 122.7 265.455 122.7C266.362 122.7 267.169 122.873 267.875 123.22C268.595 123.567 269.202 124.053 269.695 124.68L268.255 126.08C267.962 125.627 267.589 125.267 267.135 125C266.695 124.72 266.162 124.58 265.535 124.58C264.922 124.58 264.375 124.727 263.895 125.02C263.415 125.313 263.042 125.72 262.775 126.24C262.509 126.747 262.375 127.333 262.375 128C262.375 128.667 262.509 129.26 262.775 129.78C263.042 130.3 263.415 130.707 263.895 131C264.375 131.293 264.922 131.44 265.535 131.44C266.162 131.44 266.695 131.3 267.135 131.02C267.589 130.74 267.962 130.38 268.255 129.94ZM279.777 129.98L281.057 131.38C280.537 131.98 279.89 132.453 279.117 132.8C278.343 133.147 277.483 133.32 276.537 133.32C275.417 133.32 274.423 133.093 273.557 132.64C272.703 132.187 272.03 131.56 271.537 130.76C271.057 129.96 270.817 129.047 270.817 128.02C270.817 126.98 271.05 126.06 271.517 125.26C271.983 124.46 272.623 123.833 273.437 123.38C274.25 122.927 275.163 122.7 276.177 122.7C277.163 122.7 278.037 122.927 278.797 123.38C279.557 123.82 280.157 124.433 280.597 125.22C281.037 125.993 281.257 126.893 281.257 127.92V128.04H279.037V127.82C279.037 127.153 278.91 126.573 278.657 126.08C278.417 125.573 278.083 125.187 277.657 124.92C277.23 124.64 276.73 124.5 276.157 124.5C275.557 124.5 275.023 124.647 274.557 124.94C274.103 125.22 273.75 125.62 273.497 126.14C273.243 126.647 273.117 127.26 273.117 127.98C273.117 128.7 273.263 129.327 273.557 129.86C273.863 130.393 274.277 130.807 274.797 131.1C275.33 131.38 275.943 131.52 276.637 131.52C277.903 131.52 278.95 131.007 279.777 129.98ZM281.257 128.72H272.377V127.2H280.937L281.257 127.94V128.72Z" fill="white"/>
<path fill-rule="evenodd" clip-rule="evenodd" d="M212.621 52.3875V48.6364H216.372V52.3875H212.621ZM209.809 48.3239C209.809 46.9431 210.928 45.8239 212.309 45.8239H216.685C218.065 45.8239 219.185 46.9431 219.185 48.3239V52.7C219.185 54.0807 218.065 55.2 216.685 55.2H212.309C210.928 55.2 209.809 54.0807 209.809 52.7V48.3239ZM220.436 64.873V61.1218H224.187V64.873H220.436ZM217.624 60.8093C217.624 59.4286 218.743 58.3093 220.124 58.3093H224.5C225.881 58.3093 227 59.4286 227 60.8093V65.1855C227 66.5662 225.881 67.6855 224.5 67.6855H220.124C218.743 67.6855 217.624 66.5662 217.624 65.1855V60.8093ZM237.587 73.6368V77.388H241.338V73.6368H237.587ZM237.274 70.8243C235.894 70.8243 234.774 71.9436 234.774 73.3243V77.7005C234.774 79.0812 235.894 80.2005 237.274 80.2005H241.651C243.031 80.2005 244.151 79.0812 244.151 77.7005V73.3243C244.151 71.9436 243.031 70.8243 241.651 70.8243H237.274ZM241.512 52.7769V56.3241H241.515V59.871C241.515 62.3736 239.486 64.4023 236.984 64.4023H232.489V66.6071L228.877 62.9952L232.489 59.3833V61.5898H236.984C237.933 61.5898 238.703 60.8203 238.703 59.871V56.3264H238.7V52.7769C238.7 51.8277 237.93 51.0582 236.981 51.0582L231.21 51.0582L230.482 51.0582H221.222V48.2457H230.482L231.21 48.2457L236.981 48.2457C239.484 48.2457 241.512 50.2744 241.512 52.7769ZM212.719 72.4768L212.719 69.3849V66.1194C212.719 65.1701 213.488 64.4006 214.438 64.4006H215.766L215.766 61.5881H214.438C211.935 61.5881 209.906 63.6168 209.906 66.1194L209.906 69.3849L209.906 72.4768C209.906 74.9794 211.935 77.0081 214.438 77.0081H229.235V79.1489L232.847 75.5369L229.235 71.925V74.1956H214.438C213.488 74.1956 212.719 73.4261 212.719 72.4768Z" fill="white"/>
<defs>
<filter id="filter0_ii_5301_870" x="-1" y="-1" width="346.5" height="226.5" filterUnits="userSpaceOnUse" color-interpolation-filters="sRGB">
<feFlood flood-opacity="0" result="BackgroundImageFix"/>
<feBlend mode="normal" in="SourceGraphic" in2="BackgroundImageFix" result="shape"/>
<feColorMatrix in="SourceAlpha" type="matrix" values="0 0 0 0 0 0 0 0 0 0 0 0 0 0 0 0 0 0 127 0" result="hardAlpha"/>
<feOffset dx="1" dy="1"/>
<feGaussianBlur stdDeviation="1.5"/>
<feComposite in2="hardAlpha" operator="arithmetic" k2="-1" k3="1"/>
<feColorMatrix type="matrix" values="0 0 0 0 1 0 0 0 0 1 0 0 0 0 1 0 0 0 1 0"/>
<feBlend mode="normal" in2="shape" result="effect1_innerShadow_5301_870"/>
<feColorMatrix in="SourceAlpha" type="matrix" values="0 0 0 0 0 0 0 0 0 0 0 0 0 0 0 0 0 0 127 0" result="hardAlpha"/>
<feOffset dx="-1" dy="-1"/>
<feGaussianBlur stdDeviation="1.5"/>
<feComposite in2="hardAlpha" operator="arithmetic" k2="-1" k3="1"/>
<feColorMatrix type="matrix" values="0 0 0 0 0 0 0 0 0 0 0 0 0 0 0 0 0 0 1 0"/>
<feBlend mode="normal" in2="effect1_innerShadow_5301_870" result="effect2_innerShadow_5301_870"/>
</filter>
<linearGradient id="paint0_linear_5301_870" x1="144.777" y1="224.5" x2="144.777" y2="40.1042" gradientUnits="userSpaceOnUse">
<stop stop-color="#454545"/>
<stop offset="1" stop-color="#8B8B8B"/>
</linearGradient>
</defs>
</svg>
