<svg width="327" height="238" viewBox="0 0 327 238" fill="none" xmlns="http://www.w3.org/2000/svg">
<g filter="url(#filter0_ii_5301_869)">
<path d="M327 10C327 4.47715 322.523 0 317 0H10C4.47717 0 0 4.47715 0 10V61.2027C0 66.7255 4.47714 71.2027 10 71.2027H27C32.5229 71.2027 37 75.6798 37 81.2027V227.5C37 233.023 41.4771 237.5 47 237.5H236C241.523 237.5 246 233.023 246 227.5V106C246 100.477 250.477 96 256 96H317C322.523 96 327 91.5229 327 86V10Z" fill="url(#paint0_linear_5301_869)"/>
</g>
<path d="M126.892 122H124.592V107.7H130.312C131.299 107.7 132.166 107.88 132.912 108.24C133.659 108.587 134.239 109.08 134.652 109.72C135.079 110.347 135.292 111.087 135.292 111.94C135.292 112.78 135.079 113.52 134.652 114.16C134.239 114.8 133.659 115.3 132.912 115.66C132.166 116.007 131.299 116.18 130.312 116.18H126.692V114.22H130.312C131.126 114.22 131.766 114.02 132.232 113.62C132.712 113.207 132.952 112.647 132.952 111.94C132.952 111.233 132.712 110.68 132.232 110.28C131.766 109.867 131.126 109.66 130.312 109.66H126.892V122ZM143.299 111.84V113.92H142.819C142.205 113.92 141.659 114.053 141.179 114.32C140.699 114.587 140.319 115 140.039 115.56C139.759 116.12 139.619 116.853 139.619 117.76V122H137.379V112.02H139.599V115.24H139.299C139.432 114.373 139.692 113.693 140.079 113.2C140.465 112.707 140.919 112.36 141.439 112.16C141.959 111.947 142.479 111.84 142.999 111.84H143.299ZM149.743 122.32C148.69 122.32 147.75 122.093 146.923 121.64C146.11 121.187 145.47 120.56 145.003 119.76C144.536 118.96 144.303 118.04 144.303 117C144.303 115.973 144.536 115.06 145.003 114.26C145.47 113.46 146.11 112.833 146.923 112.38C147.75 111.927 148.69 111.7 149.743 111.7C150.81 111.7 151.75 111.927 152.563 112.38C153.39 112.833 154.03 113.46 154.483 114.26C154.95 115.06 155.183 115.973 155.183 117C155.183 118.04 154.95 118.96 154.483 119.76C154.03 120.56 153.39 121.187 152.563 121.64C151.75 122.093 150.81 122.32 149.743 122.32ZM149.743 120.44C150.37 120.44 150.916 120.293 151.383 120C151.85 119.707 152.21 119.307 152.463 118.8C152.73 118.28 152.863 117.68 152.863 117C152.863 116.333 152.73 115.747 152.463 115.24C152.21 114.72 151.85 114.313 151.383 114.02C150.916 113.727 150.37 113.58 149.743 113.58C149.13 113.58 148.59 113.727 148.123 114.02C147.656 114.313 147.29 114.72 147.023 115.24C146.77 115.747 146.643 116.333 146.643 117C146.643 117.68 146.77 118.28 147.023 118.8C147.29 119.307 147.656 119.707 148.123 120C148.59 120.293 149.13 120.44 149.743 120.44ZM165.081 118.94L166.521 120.34C166.028 120.953 165.421 121.44 164.701 121.8C163.981 122.147 163.155 122.32 162.221 122.32C161.195 122.32 160.275 122.093 159.461 121.64C158.661 121.173 158.028 120.547 157.561 119.76C157.095 118.96 156.861 118.04 156.861 117C156.861 115.973 157.095 115.067 157.561 114.28C158.028 113.48 158.668 112.853 159.481 112.4C160.308 111.933 161.241 111.7 162.281 111.7C163.188 111.7 163.995 111.873 164.701 112.22C165.421 112.567 166.028 113.053 166.521 113.68L165.081 115.08C164.788 114.627 164.415 114.267 163.961 114C163.521 113.72 162.988 113.58 162.361 113.58C161.748 113.58 161.201 113.727 160.721 114.02C160.241 114.313 159.868 114.72 159.601 115.24C159.335 115.747 159.201 116.333 159.201 117C159.201 117.667 159.335 118.26 159.601 118.78C159.868 119.3 160.241 119.707 160.721 120C161.201 120.293 161.748 120.44 162.361 120.44C162.988 120.44 163.521 120.3 163.961 120.02C164.415 119.74 164.788 119.38 165.081 118.94ZM176.603 118.98L177.883 120.38C177.363 120.98 176.716 121.453 175.943 121.8C175.169 122.147 174.309 122.32 173.363 122.32C172.243 122.32 171.249 122.093 170.383 121.64C169.529 121.187 168.856 120.56 168.363 119.76C167.883 118.96 167.643 118.047 167.643 117.02C167.643 115.98 167.876 115.06 168.343 114.26C168.809 113.46 169.449 112.833 170.263 112.38C171.076 111.927 171.989 111.7 173.003 111.7C173.989 111.7 174.863 111.927 175.623 112.38C176.383 112.82 176.983 113.433 177.423 114.22C177.863 114.993 178.083 115.893 178.083 116.92V117.04H175.863V116.82C175.863 116.153 175.736 115.573 175.483 115.08C175.243 114.573 174.909 114.187 174.483 113.92C174.056 113.64 173.556 113.5 172.983 113.5C172.383 113.5 171.849 113.647 171.383 113.94C170.929 114.22 170.576 114.62 170.323 115.14C170.069 115.647 169.943 116.26 169.943 116.98C169.943 117.7 170.089 118.327 170.383 118.86C170.689 119.393 171.103 119.807 171.623 120.1C172.156 120.38 172.769 120.52 173.463 120.52C174.729 120.52 175.776 120.007 176.603 118.98ZM178.083 117.72H169.203V116.2H177.763L178.083 116.94V117.72ZM179.295 120.48L180.595 119.08C181.048 119.547 181.582 119.913 182.195 120.18C182.822 120.447 183.475 120.58 184.155 120.58C184.848 120.58 185.402 120.453 185.815 120.2C186.228 119.933 186.435 119.593 186.435 119.18C186.435 118.807 186.248 118.52 185.875 118.32C185.515 118.107 184.868 117.94 183.935 117.82C182.468 117.607 181.402 117.273 180.735 116.82C180.082 116.353 179.755 115.713 179.755 114.9C179.755 114.26 179.942 113.7 180.315 113.22C180.688 112.74 181.195 112.367 181.835 112.1C182.475 111.833 183.208 111.7 184.035 111.7C184.995 111.7 185.842 111.86 186.575 112.18C187.322 112.5 187.968 112.933 188.515 113.48L187.215 114.9C186.802 114.447 186.328 114.087 185.795 113.82C185.262 113.553 184.682 113.42 184.055 113.42C183.428 113.42 182.922 113.547 182.535 113.8C182.148 114.04 181.955 114.353 181.955 114.74C181.955 115.06 182.128 115.307 182.475 115.48C182.835 115.64 183.462 115.78 184.355 115.9C185.822 116.113 186.902 116.467 187.595 116.96C188.288 117.44 188.635 118.133 188.635 119.04C188.635 119.693 188.442 120.267 188.055 120.76C187.668 121.253 187.135 121.64 186.455 121.92C185.775 122.187 184.982 122.32 184.075 122.32C183.102 122.32 182.208 122.16 181.395 121.84C180.582 121.507 179.882 121.053 179.295 120.48ZM189.783 120.48L191.083 119.08C191.537 119.547 192.07 119.913 192.683 120.18C193.31 120.447 193.963 120.58 194.643 120.58C195.337 120.58 195.89 120.453 196.303 120.2C196.717 119.933 196.923 119.593 196.923 119.18C196.923 118.807 196.737 118.52 196.363 118.32C196.003 118.107 195.357 117.94 194.423 117.82C192.957 117.607 191.89 117.273 191.223 116.82C190.57 116.353 190.243 115.713 190.243 114.9C190.243 114.26 190.43 113.7 190.803 113.22C191.177 112.74 191.683 112.367 192.323 112.1C192.963 111.833 193.697 111.7 194.523 111.7C195.483 111.7 196.33 111.86 197.063 112.18C197.81 112.5 198.457 112.933 199.003 113.48L197.703 114.9C197.29 114.447 196.817 114.087 196.283 113.82C195.75 113.553 195.17 113.42 194.543 113.42C193.917 113.42 193.41 113.547 193.023 113.8C192.637 114.04 192.443 114.353 192.443 114.74C192.443 115.06 192.617 115.307 192.963 115.48C193.323 115.64 193.95 115.78 194.843 115.9C196.31 116.113 197.39 116.467 198.083 116.96C198.777 117.44 199.123 118.133 199.123 119.04C199.123 119.693 198.93 120.267 198.543 120.76C198.157 121.253 197.623 121.64 196.943 121.92C196.263 122.187 195.47 122.32 194.563 122.32C193.59 122.32 192.697 122.16 191.883 121.84C191.07 121.507 190.37 121.053 189.783 120.48ZM139.263 145.58H137.563L131.903 133.8L133.023 133.76V147H130.783V132.7H133.543L138.963 144.06H137.903L143.323 132.7H146.023V147H143.783V133.76L144.903 133.8L139.263 145.58ZM151.005 147H148.765V137.02H151.005V147ZM149.885 134.96C149.499 134.96 149.165 134.827 148.885 134.56C148.605 134.293 148.465 133.973 148.465 133.6C148.465 133.2 148.605 132.867 148.885 132.6C149.165 132.333 149.499 132.2 149.885 132.2C150.285 132.2 150.619 132.333 150.885 132.6C151.165 132.867 151.305 133.193 151.305 133.58C151.305 133.967 151.165 134.293 150.885 134.56C150.619 134.827 150.285 134.96 149.885 134.96ZM163.051 147H160.811V141.24C160.811 140.347 160.611 139.68 160.211 139.24C159.811 138.8 159.271 138.58 158.591 138.58C158.098 138.58 157.631 138.707 157.191 138.96C156.765 139.213 156.418 139.613 156.151 140.16C155.885 140.707 155.751 141.413 155.751 142.28V147H153.511V137.02H155.731V140.1H155.431C155.565 139.22 155.825 138.54 156.211 138.06C156.598 137.567 157.051 137.22 157.571 137.02C158.091 136.807 158.625 136.7 159.171 136.7C160.371 136.7 161.318 137.067 162.011 137.8C162.705 138.533 163.051 139.6 163.051 141V147ZM167.646 147H165.406V137.02H167.646V147ZM166.526 134.96C166.139 134.96 165.806 134.827 165.526 134.56C165.246 134.293 165.106 133.973 165.106 133.6C165.106 133.2 165.246 132.867 165.526 132.6C165.806 132.333 166.139 132.2 166.526 132.2C166.926 132.2 167.259 132.333 167.526 132.6C167.806 132.867 167.946 133.193 167.946 133.58C167.946 133.967 167.806 134.293 167.526 134.56C167.259 134.827 166.926 134.96 166.526 134.96ZM179.692 147H177.452V141.24C177.452 140.347 177.252 139.68 176.852 139.24C176.452 138.8 175.912 138.58 175.232 138.58C174.739 138.58 174.272 138.707 173.832 138.96C173.405 139.213 173.059 139.613 172.792 140.16C172.525 140.707 172.392 141.413 172.392 142.28V147H170.152V137.02H172.372V140.1H172.072C172.205 139.22 172.465 138.54 172.852 138.06C173.239 137.567 173.692 137.22 174.212 137.02C174.732 136.807 175.265 136.7 175.812 136.7C177.012 136.7 177.959 137.067 178.652 137.8C179.345 138.533 179.692 139.6 179.692 141V147ZM192.467 145.9C192.467 146.953 192.227 147.873 191.747 148.66C191.267 149.46 190.607 150.08 189.767 150.52C188.94 150.973 187.987 151.2 186.907 151.2C185.96 151.2 185.087 151.04 184.287 150.72C183.487 150.413 182.827 149.987 182.307 149.44L183.607 147.94C183.993 148.38 184.447 148.72 184.967 148.96C185.5 149.213 186.113 149.34 186.807 149.34C187.5 149.34 188.1 149.2 188.607 148.92C189.127 148.64 189.527 148.253 189.807 147.76C190.087 147.267 190.227 146.68 190.227 146V142.16C190.227 141.373 190.08 140.72 189.787 140.2C189.493 139.667 189.113 139.267 188.647 139C188.18 138.72 187.66 138.58 187.087 138.58C186.473 138.58 185.933 138.727 185.467 139.02C185 139.313 184.633 139.713 184.367 140.22C184.113 140.713 183.987 141.273 183.987 141.9C183.987 142.54 184.12 143.107 184.387 143.6C184.653 144.093 185.027 144.48 185.507 144.76C185.987 145.04 186.547 145.18 187.187 145.18C187.733 145.18 188.233 145.073 188.687 144.86C189.153 144.633 189.533 144.32 189.827 143.92C190.133 143.52 190.32 143.06 190.387 142.54L190.867 142.9C190.933 143.687 190.793 144.4 190.447 145.04C190.113 145.667 189.62 146.167 188.967 146.54C188.327 146.9 187.573 147.08 186.707 147.08C185.76 147.08 184.9 146.867 184.127 146.44C183.367 146 182.76 145.393 182.307 144.62C181.867 143.833 181.647 142.933 181.647 141.92C181.647 140.893 181.873 139.993 182.327 139.22C182.78 138.433 183.387 137.82 184.147 137.38C184.907 136.927 185.747 136.7 186.667 136.7C187.373 136.7 188.007 136.833 188.567 137.1C189.14 137.367 189.613 137.753 189.987 138.26C190.373 138.767 190.62 139.38 190.727 140.1H190.247V137.02H192.467V145.9Z" fill="white"/>
<path d="M162.062 69.2476C157.812 69.2476 154.312 72.7476 154.312 76.9976C154.312 81.3101 157.812 84.7476 162.062 84.7476C166.312 84.7476 169.812 81.3101 169.812 76.9976C169.812 72.7476 166.312 69.2476 162.062 69.2476ZM162.062 81.9976C159.312 81.9976 157.125 79.7476 157.125 77.0601C157.125 74.3101 159.312 72.1226 162.062 72.1226C164.812 72.1226 167 74.3101 167 76.9976C167 79.7476 164.75 81.9976 162.062 81.9976Z" fill="white"/>
<path d="M179.939 80.8086L176.439 78.8711C176.564 78.1836 176.626 77.4961 176.626 76.8086C176.626 76.0586 176.564 75.3711 176.501 74.6836L180.064 72.6836C180.876 72.2461 181.189 71.2461 180.814 70.3711L177.189 64.2461C176.751 63.4961 175.751 63.1836 174.939 63.4961L171.189 65.5586C171.001 65.4336 170.814 65.2461 170.689 65.1211C170.001 64.5586 169.376 63.9961 168.376 63.4961C168.314 63.4961 168.251 63.4336 168.251 63.3086V61.0586C168.251 59.4336 166.939 58.0586 165.251 58.0586H158.814C157.189 58.0586 155.814 59.4336 155.814 61.0586V63.4961C155.814 63.5586 155.751 63.6211 155.689 63.6836C154.751 64.1211 154.064 64.7461 153.314 65.3086C153.189 65.4336 153.001 65.5586 152.876 65.6836L149.564 63.8086C148.314 63.1211 147.251 63.5586 146.814 64.3086L143.376 70.2461C143.189 70.7461 143.126 71.2461 143.251 71.7461C143.376 72.2461 143.689 72.6211 144.126 72.8711L147.626 74.7461C147.501 75.3711 147.501 76.0586 147.501 76.8711C147.501 77.5586 147.564 78.2461 147.626 78.9336L144.001 80.9336C143.189 81.3711 142.876 82.3711 143.251 83.2461L146.876 89.3711C147.314 90.1211 148.251 90.4336 149.126 90.1211L152.876 88.0586C153.064 88.1836 153.189 88.3086 153.376 88.4961C154.064 89.1211 154.751 89.6836 155.751 90.1211C155.814 90.1211 155.876 90.1836 155.876 90.3086V92.9961C155.876 94.6211 157.189 95.9961 158.876 95.9961H165.251C166.876 95.9961 168.251 94.6211 168.251 92.9961V90.1211C168.251 90.0586 168.314 89.9961 168.376 89.9336C169.314 89.4961 169.939 88.9336 170.689 88.3086C170.876 88.1836 171.001 88.0586 171.189 87.8711L174.501 89.7461C175.751 90.4336 176.751 89.9961 177.251 89.2461L180.751 83.3086C181.001 82.8711 181.064 82.3711 180.939 81.9336C180.814 81.4961 180.376 81.0586 179.939 80.8086ZM175.189 86.9961L172.189 85.3086C171.314 84.8086 170.314 84.9336 169.564 85.5586C169.251 85.8086 169.001 85.9961 168.751 86.2461C168.126 86.8086 167.689 87.1836 167.064 87.4336C166.064 87.9336 165.376 88.9961 165.376 90.1211V92.8711C165.376 92.9961 165.314 93.0586 165.189 93.0586H158.814C158.689 93.0586 158.626 92.9961 158.626 92.8711V90.1836C158.626 89.0586 157.939 87.9961 156.939 87.4961C156.314 87.1836 155.814 86.8086 155.189 86.2461C154.939 86.0586 154.689 85.8086 154.376 85.6211C153.939 85.3086 153.439 85.1211 152.876 85.1211C152.501 85.1211 152.064 85.2461 151.689 85.4336L148.689 87.1211L146.189 82.8711L149.126 81.2461C150.001 80.7461 150.501 79.8086 150.376 78.7461C150.314 78.1211 150.251 77.4961 150.251 76.8711C150.251 76.1836 150.314 75.5586 150.376 75.0586C150.564 73.9961 150.064 72.9336 149.126 72.4336L146.376 70.8711L148.814 66.6836L151.814 68.3711C152.689 68.8711 153.689 68.7461 154.439 68.1211C154.689 67.9336 154.939 67.6836 155.189 67.4961C155.814 66.9336 156.314 66.5586 156.939 66.2461C158.001 65.7461 158.626 64.6836 158.626 63.5586V61.1211C158.626 60.9961 158.689 60.9336 158.814 60.9336H165.189C165.314 60.9336 165.376 60.9961 165.376 61.1211V63.4961C165.376 64.6211 166.064 65.6836 167.064 66.1836C167.689 66.4961 168.126 66.8711 168.751 67.3711C169.001 67.6211 169.251 67.8086 169.564 68.0586C170.314 68.6836 171.376 68.7461 172.189 68.2461L175.189 66.5586L177.689 70.8086L174.814 72.4336C173.939 72.9336 173.439 73.9961 173.626 75.0586C173.689 75.6211 173.751 76.2461 173.751 76.8711C173.751 77.4961 173.689 78.1211 173.564 78.7461C173.376 79.8086 173.876 80.8086 174.814 81.3086L177.626 82.8711L175.189 86.9961Z" fill="white"/>
<defs>
<filter id="filter0_ii_5301_869" x="-1" y="-1" width="329" height="239.5" filterUnits="userSpaceOnUse" color-interpolation-filters="sRGB">
<feFlood flood-opacity="0" result="BackgroundImageFix"/>
<feBlend mode="normal" in="SourceGraphic" in2="BackgroundImageFix" result="shape"/>
<feColorMatrix in="SourceAlpha" type="matrix" values="0 0 0 0 0 0 0 0 0 0 0 0 0 0 0 0 0 0 127 0" result="hardAlpha"/>
<feOffset dx="1" dy="1"/>
<feGaussianBlur stdDeviation="1.5"/>
<feComposite in2="hardAlpha" operator="arithmetic" k2="-1" k3="1"/>
<feColorMatrix type="matrix" values="0 0 0 0 1 0 0 0 0 1 0 0 0 0 1 0 0 0 1 0"/>
<feBlend mode="normal" in2="shape" result="effect1_innerShadow_5301_869"/>
<feColorMatrix in="SourceAlpha" type="matrix" values="0 0 0 0 0 0 0 0 0 0 0 0 0 0 0 0 0 0 127 0" result="hardAlpha"/>
<feOffset dx="-1" dy="-1"/>
<feGaussianBlur stdDeviation="1.5"/>
<feComposite in2="hardAlpha" operator="arithmetic" k2="-1" k3="1"/>
<feColorMatrix type="matrix" values="0 0 0 0 0 0 0 0 0 0 0 0 0 0 0 0 0 0 1 0"/>
<feBlend mode="normal" in2="effect1_innerShadow_5301_869" result="effect2_innerShadow_5301_869"/>
</filter>
<linearGradient id="paint0_linear_5301_869" x1="137.423" y1="237.5" x2="137.423" y2="42.4265" gradientUnits="userSpaceOnUse">
<stop stop-color="#ABABAB"/>
<stop offset="1" stop-color="#8D8D8D"/>
</linearGradient>
</defs>
</svg>
