<svg width="445" height="216" viewBox="0 0 445 216" fill="none" xmlns="http://www.w3.org/2000/svg">
<g filter="url(#filter0_ii_5308_868)">
<path d="M0 206C0 211.523 4.47715 216 10 216L435 216C440.523 216 445 211.523 445 206V79C445 73.4772 440.523 69 435 69L302.5 69C296.977 69 292.5 64.5228 292.5 59V10C292.5 4.47716 288.023 0 282.5 0L92 0C86.4771 0 82 4.47716 82 10L82 85.5C82 91.0228 77.5229 95.5 72 95.5L10 95.5C4.47715 95.5 0 99.9771 0 105.5L0 206Z" fill="url(#paint0_linear_5308_868)"/>
</g>
<path d="M147.011 122V120.06H148.791C149.245 120.06 149.631 119.993 149.951 119.86C150.271 119.713 150.558 119.473 150.811 119.14C151.065 118.807 151.325 118.353 151.591 117.78L156.391 107.7H158.751L153.191 119C152.831 119.733 152.451 120.32 152.051 120.76C151.665 121.2 151.218 121.52 150.711 121.72C150.205 121.907 149.598 122 148.891 122H147.011ZM151.491 118.8L145.851 107.7H148.231L153.231 117.76L151.491 118.8ZM159.335 122V112.02H168.555V122H166.315V112.38L167.915 113.84H159.855L161.575 112.38V122H159.335ZM173.703 125.88H171.463V112.02H173.683V115.1H173.203C173.297 114.433 173.53 113.847 173.903 113.34C174.277 112.833 174.757 112.433 175.343 112.14C175.93 111.847 176.583 111.7 177.303 111.7C178.237 111.7 179.077 111.927 179.823 112.38C180.583 112.833 181.183 113.46 181.623 114.26C182.063 115.06 182.283 115.973 182.283 117C182.283 118.04 182.057 118.96 181.603 119.76C181.163 120.56 180.563 121.187 179.803 121.64C179.043 122.093 178.183 122.32 177.223 122.32C176.343 122.32 175.583 122.14 174.943 121.78C174.303 121.407 173.817 120.907 173.483 120.28C173.163 119.64 173.03 118.927 173.083 118.14L173.543 117.78C173.61 118.3 173.79 118.76 174.083 119.16C174.377 119.56 174.757 119.873 175.223 120.1C175.69 120.327 176.197 120.44 176.743 120.44C177.397 120.44 177.957 120.293 178.423 120C178.903 119.707 179.277 119.3 179.543 118.78C179.81 118.26 179.943 117.667 179.943 117C179.943 116.347 179.817 115.76 179.563 115.24C179.31 114.72 178.95 114.313 178.483 114.02C178.03 113.727 177.49 113.58 176.863 113.58C176.25 113.58 175.703 113.733 175.223 114.04C174.757 114.333 174.383 114.747 174.103 115.28C173.837 115.813 173.703 116.44 173.703 117.16V125.88ZM193.193 122H191.133V120.02L191.033 119.6V115.86C191.033 115.113 190.793 114.533 190.313 114.12C189.833 113.693 189.179 113.48 188.353 113.48C187.753 113.48 187.193 113.6 186.673 113.84C186.166 114.08 185.726 114.413 185.353 114.84L184.073 113.44C184.619 112.893 185.259 112.467 185.993 112.16C186.726 111.853 187.539 111.7 188.433 111.7C189.379 111.7 190.206 111.867 190.913 112.2C191.633 112.52 192.193 112.987 192.593 113.6C192.993 114.213 193.193 114.947 193.193 115.8V122ZM187.593 122.32C186.833 122.32 186.159 122.18 185.573 121.9C184.986 121.62 184.533 121.24 184.213 120.76C183.893 120.28 183.733 119.72 183.733 119.08C183.733 118.387 183.933 117.8 184.333 117.32C184.733 116.827 185.286 116.453 185.993 116.2C186.713 115.933 187.539 115.8 188.473 115.8H191.273V117.34H188.673C187.886 117.34 187.246 117.48 186.753 117.76C186.273 118.04 186.033 118.453 186.033 119C186.033 119.493 186.219 119.887 186.593 120.18C186.966 120.46 187.453 120.6 188.053 120.6C188.626 120.6 189.153 120.48 189.633 120.24C190.113 120 190.493 119.673 190.773 119.26C191.066 118.833 191.233 118.347 191.273 117.8L191.993 118.14C191.993 118.953 191.806 119.68 191.433 120.32C191.059 120.947 190.539 121.44 189.873 121.8C189.206 122.147 188.446 122.32 187.593 122.32ZM195.761 122V112.02H200.861C201.941 112.02 202.794 112.26 203.421 112.74C204.047 113.22 204.361 113.867 204.361 114.68C204.361 115.187 204.207 115.633 203.901 116.02C203.607 116.393 203.207 116.68 202.701 116.88L202.681 116.7C203.321 116.873 203.841 117.173 204.241 117.6C204.641 118.013 204.841 118.52 204.841 119.12C204.841 119.693 204.667 120.2 204.321 120.64C203.987 121.067 203.534 121.4 202.961 121.64C202.387 121.88 201.747 122 201.041 122H195.761ZM197.821 121.44L196.661 120.32H200.761C201.361 120.32 201.814 120.207 202.121 119.98C202.441 119.753 202.601 119.42 202.601 118.98C202.601 118.54 202.441 118.207 202.121 117.98C201.814 117.753 201.361 117.64 200.761 117.64H196.881V116.06H200.601C201.161 116.06 201.554 115.953 201.781 115.74C202.021 115.527 202.141 115.227 202.141 114.84C202.141 114.453 202.021 114.167 201.781 113.98C201.554 113.793 201.161 113.7 200.601 113.7H196.601L197.821 112.54V121.44ZM205.814 122V120.14H206.534C206.894 120.14 207.16 120.053 207.334 119.88C207.52 119.707 207.627 119.407 207.654 118.98L208.294 112.02H215.894V122H213.654V112.38L215.254 113.84H208.714L210.414 112.38L209.734 119.42C209.64 120.38 209.374 121.053 208.934 121.44C208.494 121.813 207.82 122 206.914 122H205.814ZM227.128 118.98L228.408 120.38C227.888 120.98 227.241 121.453 226.468 121.8C225.695 122.147 224.835 122.32 223.888 122.32C222.768 122.32 221.775 122.093 220.908 121.64C220.055 121.187 219.381 120.56 218.888 119.76C218.408 118.96 218.168 118.047 218.168 117.02C218.168 115.98 218.401 115.06 218.868 114.26C219.335 113.46 219.975 112.833 220.788 112.38C221.601 111.927 222.515 111.7 223.528 111.7C224.515 111.7 225.388 111.927 226.148 112.38C226.908 112.82 227.508 113.433 227.948 114.22C228.388 114.993 228.608 115.893 228.608 116.92V117.04H226.388V116.82C226.388 116.153 226.261 115.573 226.008 115.08C225.768 114.573 225.435 114.187 225.008 113.92C224.581 113.64 224.081 113.5 223.508 113.5C222.908 113.5 222.375 113.647 221.908 113.94C221.455 114.22 221.101 114.62 220.848 115.14C220.595 115.647 220.468 116.26 220.468 116.98C220.468 117.7 220.615 118.327 220.908 118.86C221.215 119.393 221.628 119.807 222.148 120.1C222.681 120.38 223.295 120.52 223.988 120.52C225.255 120.52 226.301 120.007 227.128 118.98ZM228.608 117.72H219.728V116.2H228.288L228.608 116.94V117.72ZM238.217 122V112.02H240.457V122H238.217ZM230.937 122V112.02H233.177V122H230.937ZM231.997 117.68V115.84H239.497V117.68H231.997ZM243.378 122V112.02H245.538V119.12L245.378 119.06L250.898 112.02H252.858V122H250.698V114.9L250.838 114.96L245.338 122H243.378ZM264.12 118.98L265.4 120.38C264.88 120.98 264.234 121.453 263.46 121.8C262.687 122.147 261.827 122.32 260.88 122.32C259.76 122.32 258.767 122.093 257.9 121.64C257.047 121.187 256.374 120.56 255.88 119.76C255.4 118.96 255.16 118.047 255.16 117.02C255.16 115.98 255.394 115.06 255.86 114.26C256.327 113.46 256.967 112.833 257.78 112.38C258.594 111.927 259.507 111.7 260.52 111.7C261.507 111.7 262.38 111.927 263.14 112.38C263.9 112.82 264.5 113.433 264.94 114.22C265.38 114.993 265.6 115.893 265.6 116.92V117.04H263.38V116.82C263.38 116.153 263.254 115.573 263 115.08C262.76 114.573 262.427 114.187 262 113.92C261.574 113.64 261.074 113.5 260.5 113.5C259.9 113.5 259.367 113.647 258.9 113.94C258.447 114.22 258.094 114.62 257.84 115.14C257.587 115.647 257.46 116.26 257.46 116.98C257.46 117.7 257.607 118.327 257.9 118.86C258.207 119.393 258.62 119.807 259.14 120.1C259.674 120.38 260.287 120.52 260.98 120.52C262.247 120.52 263.294 120.007 264.12 118.98ZM265.6 117.72H256.72V116.2H265.28L265.6 116.94V117.72ZM113.918 147L108.798 141.82H109.018L113.618 137.02H116.378L111.158 142.46L110.898 141.06L116.838 147H113.918ZM107.138 147V137.02H109.378V147H107.138ZM117.464 147V145.14H118.184C118.544 145.14 118.811 145.053 118.984 144.88C119.171 144.707 119.277 144.407 119.304 143.98L119.944 137.02H127.544V147H125.304V137.38L126.904 138.84H120.364L122.064 137.38L121.384 144.42C121.291 145.38 121.024 146.053 120.584 146.44C120.144 146.813 119.471 147 118.564 147H117.464ZM130.439 147V137.02H132.599V144.12L132.439 144.06L137.959 137.02H139.919V147H137.759V139.9L137.899 139.96L132.399 147H130.439ZM151.181 143.98L152.461 145.38C151.941 145.98 151.294 146.453 150.521 146.8C149.748 147.147 148.888 147.32 147.941 147.32C146.821 147.32 145.828 147.093 144.961 146.64C144.108 146.187 143.434 145.56 142.941 144.76C142.461 143.96 142.221 143.047 142.221 142.02C142.221 140.98 142.454 140.06 142.921 139.26C143.388 138.46 144.028 137.833 144.841 137.38C145.654 136.927 146.568 136.7 147.581 136.7C148.568 136.7 149.441 136.927 150.201 137.38C150.961 137.82 151.561 138.433 152.001 139.22C152.441 139.993 152.661 140.893 152.661 141.92V142.04H150.441V141.82C150.441 141.153 150.314 140.573 150.061 140.08C149.821 139.573 149.488 139.187 149.061 138.92C148.634 138.64 148.134 138.5 147.561 138.5C146.961 138.5 146.428 138.647 145.961 138.94C145.508 139.22 145.154 139.62 144.901 140.14C144.648 140.647 144.521 141.26 144.521 141.98C144.521 142.7 144.668 143.327 144.961 143.86C145.268 144.393 145.681 144.807 146.201 145.1C146.734 145.38 147.348 145.52 148.041 145.52C149.308 145.52 150.354 145.007 151.181 143.98ZM152.661 142.72H143.781V141.2H152.341L152.661 141.94V142.72ZM162.269 147V137.02H164.509V147H162.269ZM154.989 147V137.02H157.229V147H154.989ZM156.049 142.68V140.84H163.549V142.68H156.049ZM169.931 147V137.76H172.171V147H169.931ZM166.431 138.84V137.02H175.651V138.84H166.431ZM184.777 143.94L186.217 145.34C185.723 145.953 185.117 146.44 184.397 146.8C183.677 147.147 182.85 147.32 181.917 147.32C180.89 147.32 179.97 147.093 179.157 146.64C178.357 146.173 177.723 145.547 177.257 144.76C176.79 143.96 176.557 143.04 176.557 142C176.557 140.973 176.79 140.067 177.257 139.28C177.723 138.48 178.363 137.853 179.177 137.4C180.003 136.933 180.937 136.7 181.977 136.7C182.883 136.7 183.69 136.873 184.397 137.22C185.117 137.567 185.723 138.053 186.217 138.68L184.777 140.08C184.483 139.627 184.11 139.267 183.657 139C183.217 138.72 182.683 138.58 182.057 138.58C181.443 138.58 180.897 138.727 180.417 139.02C179.937 139.313 179.563 139.72 179.297 140.24C179.03 140.747 178.897 141.333 178.897 142C178.897 142.667 179.03 143.26 179.297 143.78C179.563 144.3 179.937 144.707 180.417 145C180.897 145.293 181.443 145.44 182.057 145.44C182.683 145.44 183.217 145.3 183.657 145.02C184.11 144.74 184.483 144.38 184.777 143.94ZM195.129 147L190.009 141.82H190.229L194.829 137.02H197.589L192.369 142.46L192.109 141.06L198.049 147H195.129ZM188.349 147V137.02H190.589V147H188.349ZM199.755 147V137.02H201.915V144.12L201.755 144.06L207.275 137.02H209.235V147H207.075V139.9L207.215 139.96L201.715 147H199.755ZM212.157 147V137.02H214.517L218.257 144.06L217.897 144.04L221.577 137.02H224.037V147H221.977V137.76L222.877 138.26L218.797 146H217.257L213.177 138.26L214.137 137.84V147H212.157ZM235.688 147.32C234.635 147.32 233.695 147.093 232.868 146.64C232.055 146.187 231.415 145.56 230.948 144.76C230.482 143.96 230.248 143.04 230.248 142C230.248 140.973 230.482 140.06 230.948 139.26C231.415 138.46 232.055 137.833 232.868 137.38C233.695 136.927 234.635 136.7 235.688 136.7C236.755 136.7 237.695 136.927 238.508 137.38C239.335 137.833 239.975 138.46 240.428 139.26C240.895 140.06 241.128 140.973 241.128 142C241.128 143.04 240.895 143.96 240.428 144.76C239.975 145.56 239.335 146.187 238.508 146.64C237.695 147.093 236.755 147.32 235.688 147.32ZM235.688 145.44C236.315 145.44 236.862 145.293 237.328 145C237.795 144.707 238.155 144.307 238.408 143.8C238.675 143.28 238.808 142.68 238.808 142C238.808 141.333 238.675 140.747 238.408 140.24C238.155 139.72 237.795 139.313 237.328 139.02C236.862 138.727 236.315 138.58 235.688 138.58C235.075 138.58 234.535 138.727 234.068 139.02C233.602 139.313 233.235 139.72 232.968 140.24C232.715 140.747 232.588 141.333 232.588 142C232.588 142.68 232.715 143.28 232.968 143.8C233.235 144.307 233.602 144.707 234.068 145C234.535 145.293 235.075 145.44 235.688 145.44ZM243.427 147V137.02H252.647V147H250.407V137.38L252.007 138.84H243.947L245.667 137.38V147H243.427ZM255.575 147V137.02H257.735V146.7L256.175 145.18H260.275C260.849 145.18 261.289 145.047 261.595 144.78C261.902 144.5 262.055 144.12 262.055 143.64C262.055 143.16 261.902 142.787 261.595 142.52C261.289 142.253 260.849 142.12 260.275 142.12H256.695V140.3H260.435C261.622 140.3 262.569 140.607 263.275 141.22C263.982 141.833 264.335 142.62 264.335 143.58C264.335 144.26 264.169 144.86 263.835 145.38C263.515 145.887 263.062 146.287 262.475 146.58C261.889 146.86 261.209 147 260.435 147H255.575ZM265.515 147V137.02H267.755V147H265.515ZM273.173 147V137.76H275.413V147H273.173ZM269.673 138.84V137.02H278.893V138.84H269.673ZM285.239 147.32C284.186 147.32 283.246 147.093 282.419 146.64C281.606 146.187 280.966 145.56 280.499 144.76C280.032 143.96 279.799 143.04 279.799 142C279.799 140.973 280.032 140.06 280.499 139.26C280.966 138.46 281.606 137.833 282.419 137.38C283.246 136.927 284.186 136.7 285.239 136.7C286.306 136.7 287.246 136.927 288.059 137.38C288.886 137.833 289.526 138.46 289.979 139.26C290.446 140.06 290.679 140.973 290.679 142C290.679 143.04 290.446 143.96 289.979 144.76C289.526 145.56 288.886 146.187 288.059 146.64C287.246 147.093 286.306 147.32 285.239 147.32ZM285.239 145.44C285.866 145.44 286.412 145.293 286.879 145C287.346 144.707 287.706 144.307 287.959 143.8C288.226 143.28 288.359 142.68 288.359 142C288.359 141.333 288.226 140.747 287.959 140.24C287.706 139.72 287.346 139.313 286.879 139.02C286.412 138.727 285.866 138.58 285.239 138.58C284.626 138.58 284.086 138.727 283.619 139.02C283.152 139.313 282.786 139.72 282.519 140.24C282.266 140.747 282.139 141.333 282.139 142C282.139 142.68 282.266 143.28 282.519 143.8C282.786 144.307 283.152 144.707 283.619 145C284.086 145.293 284.626 145.44 285.239 145.44ZM292.978 147V137.02H295.338L299.078 144.06L298.718 144.04L302.398 137.02H304.858V147H302.798V137.76L303.698 138.26L299.618 146H298.078L293.998 138.26L294.958 137.84V147H292.978Z" fill="white"/>
<path d="M213.114 63.779C213.114 65.6509 208.562 67.1684 202.946 67.1684C197.33 67.1684 192.777 65.6509 192.777 63.779M213.114 63.779C213.114 61.907 208.562 60.3895 202.946 60.3895C197.33 60.3895 192.777 61.907 192.777 63.779M213.114 63.779V70.5579M192.777 63.779V70.5579C192.777 72.4299 197.33 73.9474 202.946 73.9474C208.562 73.9474 213.114 72.4299 213.114 70.5579M219.893 73.7545C219.893 75.6265 215.341 77.144 209.725 77.144C204.109 77.144 199.556 75.6265 199.556 73.7545V80.5336M219.893 73.7545C219.893 72.2787 217.064 71.0232 213.114 70.5579M219.893 73.7545V80.5336C219.893 82.4055 215.341 83.9231 209.725 83.9231C204.109 83.9231 199.556 82.4055 199.556 80.5336M192.777 83.7302C192.777 85.6021 197.33 87.1197 202.946 87.1197C208.562 87.1197 213.114 85.6021 213.114 83.7302V90.5092C213.114 92.3812 208.562 93.8987 202.946 93.8987C197.33 93.8987 192.777 92.3812 192.777 90.5092V83.7302ZM192.777 83.7302C192.777 82.2544 195.607 80.9989 199.556 80.5336" stroke="white" stroke-width="2.71159" stroke-linecap="round"/>
<defs>
<filter id="filter0_ii_5308_868" x="-1" y="-1" width="447" height="218" filterUnits="userSpaceOnUse" color-interpolation-filters="sRGB">
<feFlood flood-opacity="0" result="BackgroundImageFix"/>
<feBlend mode="normal" in="SourceGraphic" in2="BackgroundImageFix" result="shape"/>
<feColorMatrix in="SourceAlpha" type="matrix" values="0 0 0 0 0 0 0 0 0 0 0 0 0 0 0 0 0 0 127 0" result="hardAlpha"/>
<feOffset dx="1" dy="1"/>
<feGaussianBlur stdDeviation="1.5"/>
<feComposite in2="hardAlpha" operator="arithmetic" k2="-1" k3="1"/>
<feColorMatrix type="matrix" values="0 0 0 0 1 0 0 0 0 1 0 0 0 0 1 0 0 0 1 0"/>
<feBlend mode="normal" in2="shape" result="effect1_innerShadow_5308_868"/>
<feColorMatrix in="SourceAlpha" type="matrix" values="0 0 0 0 0 0 0 0 0 0 0 0 0 0 0 0 0 0 127 0" result="hardAlpha"/>
<feOffset dx="-1" dy="-1"/>
<feGaussianBlur stdDeviation="1.5"/>
<feComposite in2="hardAlpha" operator="arithmetic" k2="-1" k3="1"/>
<feColorMatrix type="matrix" values="0 0 0 0 0 0 0 0 0 0 0 0 0 0 0 0 0 0 1 0"/>
<feBlend mode="normal" in2="effect1_innerShadow_5308_868" result="effect2_innerShadow_5308_868"/>
</filter>
<linearGradient id="paint0_linear_5308_868" x1="257.987" y1="0" x2="257.987" y2="177.414" gradientUnits="userSpaceOnUse">
<stop stop-color="#454545"/>
<stop offset="1" stop-color="#8B8B8B"/>
</linearGradient>
</defs>
</svg>
