<svg width="239" height="155" viewBox="0 0 239 155" fill="none" xmlns="http://www.w3.org/2000/svg">
<g filter="url(#filter0_ii_5301_868)">
<path d="M0 10C0 4.47715 4.47715 0 10 0H229C234.523 0 239 4.47715 239 10V61.5C239 67.0229 234.523 71.5 229 71.5H176C170.477 71.5 166 75.9771 166 81.5V144.5C166 150.023 161.523 154.5 156 154.5H10C4.47716 154.5 0 150.023 0 144.5V10Z" fill="url(#paint0_linear_5301_868)"/>
</g>
<path d="M82.1823 90H72.3423V75.7H82.1823V77.66H74.6423V88.04H82.1823V90ZM81.8023 83.72H74.4423V81.76H81.8023V83.72ZM86.9079 90H84.6079V75.7H90.3279C91.3146 75.7 92.1812 75.88 92.9279 76.24C93.6746 76.5867 94.2546 77.08 94.6679 77.72C95.0946 78.3467 95.3079 79.0867 95.3079 79.94C95.3079 80.78 95.0946 81.52 94.6679 82.16C94.2546 82.8 93.6746 83.3 92.9279 83.66C92.1812 84.0067 91.3146 84.18 90.3279 84.18H86.7079V82.22H90.3279C91.1412 82.22 91.7812 82.02 92.2479 81.62C92.7279 81.2067 92.9679 80.6467 92.9679 79.94C92.9679 79.2333 92.7279 78.68 92.2479 78.28C91.7812 77.8667 91.1412 77.66 90.3279 77.66H86.9079V90ZM96.7479 90H93.8879L88.6879 83.34H91.3279L96.7479 90ZM100.931 90H98.6313V75.7H104.351C105.338 75.7 106.205 75.88 106.951 76.24C107.698 76.5867 108.278 77.08 108.691 77.72C109.118 78.3467 109.331 79.0867 109.331 79.94C109.331 80.78 109.118 81.52 108.691 82.16C108.278 82.8 107.698 83.3 106.951 83.66C106.205 84.0067 105.338 84.18 104.351 84.18H100.731V82.22H104.351C105.165 82.22 105.805 82.02 106.271 81.62C106.751 81.2067 106.991 80.6467 106.991 79.94C106.991 79.2333 106.751 78.68 106.271 78.28C105.805 77.8667 105.165 77.66 104.351 77.66H100.931V90ZM56.2885 111.94L57.7285 113.34C57.2352 113.953 56.6285 114.44 55.9085 114.8C55.1885 115.147 54.3618 115.32 53.4285 115.32C52.4018 115.32 51.4818 115.093 50.6685 114.64C49.8685 114.173 49.2352 113.547 48.7685 112.76C48.3018 111.96 48.0685 111.04 48.0685 110C48.0685 108.973 48.3018 108.067 48.7685 107.28C49.2352 106.48 49.8752 105.853 50.6885 105.4C51.5152 104.933 52.4485 104.7 53.4885 104.7C54.3952 104.7 55.2018 104.873 55.9085 105.22C56.6285 105.567 57.2352 106.053 57.7285 106.68L56.2885 108.08C55.9952 107.627 55.6218 107.267 55.1685 107C54.7285 106.72 54.1952 106.58 53.5685 106.58C52.9552 106.58 52.4085 106.727 51.9285 107.02C51.4485 107.313 51.0752 107.72 50.8085 108.24C50.5418 108.747 50.4085 109.333 50.4085 110C50.4085 110.667 50.5418 111.26 50.8085 111.78C51.0752 112.3 51.4485 112.707 51.9285 113C52.4085 113.293 52.9552 113.44 53.5685 113.44C54.1952 113.44 54.7285 113.3 55.1685 113.02C55.6218 112.74 55.9952 112.38 56.2885 111.94ZM59.8604 115V105.02H62.0204V112.12L61.8604 112.06L67.3804 105.02H69.3404V115H67.1804V107.9L67.3204 107.96L61.8204 115H59.8604ZM79.8627 111.94L81.3027 113.34C80.8094 113.953 80.2027 114.44 79.4827 114.8C78.7627 115.147 77.9361 115.32 77.0027 115.32C75.9761 115.32 75.0561 115.093 74.2427 114.64C73.4427 114.173 72.8094 113.547 72.3427 112.76C71.8761 111.96 71.6427 111.04 71.6427 110C71.6427 108.973 71.8761 108.067 72.3427 107.28C72.8094 106.48 73.4494 105.853 74.2627 105.4C75.0894 104.933 76.0227 104.7 77.0627 104.7C77.9694 104.7 78.7761 104.873 79.4827 105.22C80.2027 105.567 80.8094 106.053 81.3027 106.68L79.8627 108.08C79.5694 107.627 79.1961 107.267 78.7427 107C78.3027 106.72 77.7694 106.58 77.1427 106.58C76.5294 106.58 75.9827 106.727 75.5027 107.02C75.0227 107.313 74.6494 107.72 74.3827 108.24C74.1161 108.747 73.9827 109.333 73.9827 110C73.9827 110.667 74.1161 111.26 74.3827 111.78C74.6494 112.3 75.0227 112.707 75.5027 113C75.9827 113.293 76.5294 113.44 77.1427 113.44C77.7694 113.44 78.3027 113.3 78.7427 113.02C79.1961 112.74 79.5694 112.38 79.8627 111.94ZM85.9346 115V105.76H88.1746V115H85.9346ZM82.4346 106.84V105.02H91.6546V106.84H82.4346ZM101.521 111.98L102.801 113.38C102.281 113.98 101.634 114.453 100.861 114.8C100.087 115.147 99.2274 115.32 98.2807 115.32C97.1607 115.32 96.1674 115.093 95.3007 114.64C94.4474 114.187 93.774 113.56 93.2807 112.76C92.8007 111.96 92.5607 111.047 92.5607 110.02C92.5607 108.98 92.794 108.06 93.2607 107.26C93.7274 106.46 94.3674 105.833 95.1807 105.38C95.994 104.927 96.9074 104.7 97.9207 104.7C98.9074 104.7 99.7807 104.927 100.541 105.38C101.301 105.82 101.901 106.433 102.341 107.22C102.781 107.993 103.001 108.893 103.001 109.92V110.04H100.781V109.82C100.781 109.153 100.654 108.573 100.401 108.08C100.161 107.573 99.8274 107.187 99.4007 106.92C98.974 106.64 98.474 106.5 97.9007 106.5C97.3007 106.5 96.7674 106.647 96.3007 106.94C95.8474 107.22 95.494 107.62 95.2407 108.14C94.9874 108.647 94.8607 109.26 94.8607 109.98C94.8607 110.7 95.0074 111.327 95.3007 111.86C95.6074 112.393 96.0207 112.807 96.5407 113.1C97.074 113.38 97.6874 113.52 98.3807 113.52C99.6474 113.52 100.694 113.007 101.521 111.98ZM103.001 110.72H94.1207V109.2H102.681L103.001 109.94V110.72ZM105.329 115V105.02H107.689L111.429 112.06L111.069 112.04L114.749 105.02H117.209V115H115.149V105.76L116.049 106.26L111.969 114H110.429L106.349 106.26L107.309 105.84V115H105.329ZM120.134 115V105.02H122.294V114.7L120.734 113.18H124.834C125.407 113.18 125.847 113.047 126.154 112.78C126.46 112.5 126.614 112.12 126.614 111.64C126.614 111.16 126.46 110.787 126.154 110.52C125.847 110.253 125.407 110.12 124.834 110.12H121.254V108.3H124.994C126.18 108.3 127.127 108.607 127.834 109.22C128.54 109.833 128.894 110.62 128.894 111.58C128.894 112.26 128.727 112.86 128.394 113.38C128.074 113.887 127.62 114.287 127.034 114.58C126.447 114.86 125.767 115 124.994 115H120.134ZM130.074 115V105.02H132.314V115H130.074Z" fill="white"/>
<path d="M90.9375 34.4918C93.5625 34.4918 95.625 32.3668 95.625 29.8043C95.625 27.2418 93.5 25.1168 90.9375 25.1168C88.375 25.1168 86.25 27.2418 86.25 29.8043C86.25 32.3668 88.3125 34.4918 90.9375 34.4918ZM90.9375 27.8668C92 27.8668 92.8125 28.7418 92.8125 29.7418C92.8125 30.7418 91.9375 31.6168 90.9375 31.6168C89.9375 31.6168 89.0625 30.7418 89.0625 29.7418C89.0625 28.7418 89.875 27.8668 90.9375 27.8668Z" fill="white"/>
<path d="M85.7503 40.8018C87.0628 39.3643 89.0003 38.4893 91.0003 38.4893C93.0003 38.4893 94.9378 39.3018 96.2503 40.8018C96.5003 41.1143 96.8753 41.2393 97.3128 41.2393C97.6253 41.2393 98.0003 41.1143 98.2503 40.8643C98.8128 40.3643 98.8753 39.4268 98.3128 38.8643C96.4378 36.8643 93.7503 35.6768 91.0003 35.6768C88.2503 35.6768 85.5628 36.8643 83.6878 38.8643C83.1878 39.4268 83.1878 40.3018 83.7503 40.8643C84.3128 41.4268 85.1878 41.3643 85.7503 40.8018Z" fill="white"/>
<path d="M79.3763 54.3044C82.0013 54.3044 84.0638 52.1794 84.0638 49.6169C84.0638 46.9919 81.9388 44.9294 79.3763 44.9294C76.8138 44.9294 74.6888 47.0544 74.6888 49.6169C74.6263 52.2419 76.7513 54.3044 79.3763 54.3044ZM79.3763 47.6794C80.4388 47.6794 81.2513 48.5544 81.2513 49.5544C81.2513 50.6169 80.3763 51.4294 79.3763 51.4294C78.3763 51.4294 77.5013 50.5544 77.5013 49.5544C77.4388 48.5544 78.3138 47.6794 79.3763 47.6794Z" fill="white"/>
<path d="M79.1878 55.3629C76.4378 55.3629 73.7503 56.5504 71.8753 58.5504C71.3753 59.1129 71.3753 59.9879 71.9378 60.5504C72.5003 61.1129 73.3753 61.0504 73.9378 60.4879C75.2503 59.0504 77.1878 58.1754 79.1878 58.1754C81.1878 58.1754 83.1253 58.9879 84.4378 60.4879C84.6878 60.8004 85.0628 60.9254 85.5003 60.9254C85.8128 60.9254 86.1878 60.8004 86.4378 60.5504C87.0003 60.0504 87.0628 59.1129 86.5003 58.5504C84.6253 56.5504 81.9378 55.3629 79.1878 55.3629Z" fill="white"/>
<path d="M102.5 54.3044C105.125 54.3044 107.188 52.1794 107.188 49.6169C107.188 46.9919 105.062 44.9294 102.5 44.9294C99.875 44.9294 97.8125 47.0544 97.8125 49.6169C97.8125 52.2419 99.9375 54.3044 102.5 54.3044ZM102.5 47.6794C103.562 47.6794 104.375 48.5544 104.375 49.5544C104.375 50.6169 103.5 51.4294 102.5 51.4294C101.438 51.4294 100.625 50.5544 100.625 49.5544C100.625 48.5544 101.5 47.6794 102.5 47.6794Z" fill="white"/>
<path d="M110.188 58.6176C108.313 56.6176 105.625 55.4301 102.875 55.4301C100.125 55.4301 97.4378 56.6176 95.5628 58.6176C95.0628 59.1801 95.0628 60.0551 95.6253 60.6176C96.1878 61.1176 97.0628 61.1176 97.6253 60.5551C98.9378 59.1176 100.875 58.2426 102.875 58.2426C104.875 58.2426 106.813 59.0551 108.125 60.5551C108.375 60.8676 108.75 60.9926 109.188 60.9926C109.5 60.9926 109.875 60.8676 110.125 60.6176C110.625 60.0551 110.688 59.1801 110.188 58.6176Z" fill="white"/>
<path d="M95.5003 48.5541C95.8128 47.8666 95.5003 46.9916 94.8128 46.6791L92.3753 45.5541V42.9916C92.3753 42.2416 91.7503 41.5541 91.0003 41.5541C90.2503 41.5541 89.5628 42.1791 89.5628 42.9916V45.4916L87.0628 46.6791C86.3753 46.9916 86.0628 47.8666 86.3753 48.5541C86.6878 49.2416 87.5628 49.5541 88.2503 49.2416L90.8753 47.9916L93.6878 49.2416C93.8753 49.3041 94.0628 49.3666 94.2503 49.3666C94.7503 49.3666 95.2503 49.0541 95.5003 48.5541Z" fill="white"/>
<defs>
<filter id="filter0_ii_5301_868" x="-1" y="-1" width="241" height="156.5" filterUnits="userSpaceOnUse" color-interpolation-filters="sRGB">
<feFlood flood-opacity="0" result="BackgroundImageFix"/>
<feBlend mode="normal" in="SourceGraphic" in2="BackgroundImageFix" result="shape"/>
<feColorMatrix in="SourceAlpha" type="matrix" values="0 0 0 0 0 0 0 0 0 0 0 0 0 0 0 0 0 0 127 0" result="hardAlpha"/>
<feOffset dx="1" dy="1"/>
<feGaussianBlur stdDeviation="1.5"/>
<feComposite in2="hardAlpha" operator="arithmetic" k2="-1" k3="1"/>
<feColorMatrix type="matrix" values="0 0 0 0 1 0 0 0 0 1 0 0 0 0 1 0 0 0 1 0"/>
<feBlend mode="normal" in2="shape" result="effect1_innerShadow_5301_868"/>
<feColorMatrix in="SourceAlpha" type="matrix" values="0 0 0 0 0 0 0 0 0 0 0 0 0 0 0 0 0 0 127 0" result="hardAlpha"/>
<feOffset dx="-1" dy="-1"/>
<feGaussianBlur stdDeviation="1.5"/>
<feComposite in2="hardAlpha" operator="arithmetic" k2="-1" k3="1"/>
<feColorMatrix type="matrix" values="0 0 0 0 0 0 0 0 0 0 0 0 0 0 0 0 0 0 1 0"/>
<feBlend mode="normal" in2="effect1_innerShadow_5301_868" result="effect2_innerShadow_5301_868"/>
</filter>
<linearGradient id="paint0_linear_5301_868" x1="138.559" y1="154.5" x2="138.559" y2="27.5996" gradientUnits="userSpaceOnUse">
<stop stop-color="#454545"/>
<stop offset="1" stop-color="#8B8B8B"/>
</linearGradient>
</defs>
</svg>
