<svg width="306" height="6" viewBox="0 0 306 6" fill="none" xmlns="http://www.w3.org/2000/svg">
<circle cx="3" cy="3" r="3" fill="#FF3434" fill-opacity="0.5"/>
<circle cx="63" cy="3" r="3" fill="#FF3434" fill-opacity="0.5"/>
<circle cx="123" cy="3" r="3" fill="#FF3434" fill-opacity="0.5"/>
<circle cx="183" cy="3" r="3" fill="#FF3434" fill-opacity="0.5"/>
<circle cx="243" cy="3" r="3" fill="#FF3434" fill-opacity="0.5"/>
<circle cx="303" cy="3" r="3" fill="#FF3434" fill-opacity="0.5"/>
<circle cx="3" cy="3" r="1" fill="#FF3434" fill-opacity="0.5"/>
<circle cx="15" cy="3" r="1" fill="#FF3434" fill-opacity="0.5"/>
<circle cx="27" cy="3" r="1" fill="#FF3434" fill-opacity="0.5"/>
<circle cx="39" cy="3" r="1" fill="#FF3434" fill-opacity="0.5"/>
<circle cx="51" cy="3" r="1" fill="#FF3434" fill-opacity="0.5"/>
<circle cx="63" cy="3" r="1" fill="#FF3434" fill-opacity="0.5"/>
<circle cx="75" cy="3" r="1" fill="#FF3434" fill-opacity="0.5"/>
<circle cx="87" cy="3" r="1" fill="#FF3434" fill-opacity="0.5"/>
<circle cx="99" cy="3" r="1" fill="#FF3434" fill-opacity="0.5"/>
<circle cx="111" cy="3" r="1" fill="#FF3434" fill-opacity="0.5"/>
<circle cx="123" cy="3" r="1" fill="#FF3434" fill-opacity="0.5"/>
<circle cx="135" cy="3" r="1" fill="#FF3434" fill-opacity="0.5"/>
<circle cx="147" cy="3" r="1" fill="#FF3434" fill-opacity="0.5"/>
<circle cx="159" cy="3" r="1" fill="#FF3434" fill-opacity="0.5"/>
<circle cx="171" cy="3" r="1" fill="#FF3434" fill-opacity="0.5"/>
<circle cx="183" cy="3" r="1" fill="#FF3434" fill-opacity="0.5"/>
<circle cx="195" cy="3" r="1" fill="#FF3434" fill-opacity="0.5"/>
<circle cx="207" cy="3" r="1" fill="#FF3434" fill-opacity="0.5"/>
<circle cx="219" cy="3" r="1" fill="#FF3434" fill-opacity="0.5"/>
<circle cx="231" cy="3" r="1" fill="#FF3434" fill-opacity="0.5"/>
<circle cx="243" cy="3" r="1" fill="#FF3434" fill-opacity="0.5"/>
<circle cx="255" cy="3" r="1" fill="#FF3434" fill-opacity="0.5"/>
<circle cx="267" cy="3" r="1" fill="#FF3434" fill-opacity="0.5"/>
<circle cx="279" cy="3" r="1" fill="#FF3434" fill-opacity="0.5"/>
<circle cx="291" cy="3" r="1" fill="#FF3434" fill-opacity="0.5"/>
<circle cx="303" cy="3" r="1" fill="#FF3434" fill-opacity="0.5"/>
</svg>
