<svg width="30" height="31" viewBox="0 0 30 31" fill="none" xmlns="http://www.w3.org/2000/svg">
<g clip-path="url(#clip0_3383_14884)">
<mask id="mask0_3383_14884" style="mask-type:luminance" maskUnits="userSpaceOnUse" x="0" y="0" width="30" height="31">
<path d="M22.7273 0.5H7.27273C3.25611 0.5 0 3.75611 0 7.77273V23.2273C0 27.2439 3.25611 30.5 7.27273 30.5H22.7273C26.7439 30.5 30 27.2439 30 23.2273V7.77273C30 3.75611 26.7439 0.5 22.7273 0.5Z" fill="white"/>
</mask>
<g mask="url(#mask0_3383_14884)">
<path d="M30 0.5H0V30.5H30V0.5Z" fill="#100943"/>
<path d="M30 15.5C38.2843 15.5 45 8.78427 45 0.500008C45 -7.78427 38.2843 -14.5 30 -14.5C21.7157 -14.5 15 -7.78427 15 0.500008C15 8.78427 21.7157 15.5 30 15.5Z" fill="#ED143B"/>
<path d="M18.5281 14.8151H9.66502V11.3079H18.5281C19.0458 11.3079 19.4058 11.3981 19.5864 11.5557C19.7671 11.7133 19.879 12.0056 19.879 12.4325V13.6918C19.879 14.1417 19.7671 14.434 19.5864 14.5915C19.4058 14.7491 19.0458 14.8165 18.5281 14.8165V14.8151ZM19.1361 8.00134H5.90625V23H9.66502V18.1203H16.5921L19.879 23H24.0881L20.4641 18.0974C21.8002 17.8994 22.4001 17.49 22.8949 16.8152C23.3897 16.1404 23.6378 15.0616 23.6378 13.6218V12.4972C23.6378 11.6433 23.5474 10.9685 23.3897 10.4513C23.2319 9.93409 22.9624 9.48425 22.5794 9.08018C22.175 8.69768 21.7247 8.4283 21.184 8.24782C20.6434 8.09025 19.968 8 19.1361 8V8.00134Z" fill="white"/>
</g>
</g>
<defs>
<clipPath id="clip0_3383_14884">
<rect width="30" height="30" fill="white" transform="translate(0 0.5)"/>
</clipPath>
</defs>
</svg>
