<svg width="31" height="31" viewBox="0 0 31 31" fill="none" xmlns="http://www.w3.org/2000/svg">
<g clip-path="url(#clip0_3383_14870)">
<mask id="mask0_3383_14870" style="mask-type:luminance" maskUnits="userSpaceOnUse" x="0" y="0" width="31" height="31">
<path d="M30.8493 0.5H0.15625V30.5H30.8493V0.5Z" fill="white"/>
</mask>
<g mask="url(#mask0_3383_14870)">
<path d="M0.15625 14.9C0.15625 8.11178 0.15625 4.71767 2.3138 2.60883C4.47136 0.5 7.94388 0.5 14.8889 0.5H16.1166C23.0617 0.5 26.5342 0.5 28.6918 2.60883C30.8493 4.71767 30.8493 8.11178 30.8493 14.9V16.1C30.8493 22.8882 30.8493 26.2823 28.6918 28.3912C26.5342 30.5 23.0617 30.5 16.1166 30.5H14.8889C7.94388 30.5 4.47136 30.5 2.3138 28.3912C0.15625 26.2823 0.15625 22.8882 0.15625 16.1V14.9Z" fill="#0077FF"/>
<path d="M16.4877 22.1126C9.49227 22.1126 5.5022 17.4251 5.33594 9.62512H8.84007C8.95517 15.3501 11.5385 17.7751 13.5846 18.2751V9.62512H16.8843V14.5626C18.9049 14.3501 21.0276 12.1001 21.7437 9.62512H25.0433C24.4934 12.6751 22.1914 14.9251 20.5545 15.8501C22.1914 16.6001 24.8133 18.5626 25.8108 22.1126H22.1787C21.3985 19.7376 19.4548 17.9001 16.8843 17.6501V22.1126H16.4877Z" fill="white"/>
</g>
</g>
<defs>
<clipPath id="clip0_3383_14870">
<rect width="31" height="30" fill="white" transform="translate(0 0.5)"/>
</clipPath>
</defs>
</svg>
