<svg width="32" height="33" viewBox="0 0 32 33" fill="none" xmlns="http://www.w3.org/2000/svg">
<path d="M16 0.5C7.164 0.5 0 7.663 0 16.5C0 25.337 7.164 32.5 16 32.5C24.836 32.5 32 25.337 32 16.5C32 7.663 24.836 0.5 16 0.5ZM23.292 10.246C23.034 12.955 21.918 19.526 21.351 22.559C21.112 23.842 20.638 24.272 20.181 24.315C19.186 24.407 18.431 23.657 17.467 23.027C15.959 22.039 15.108 21.423 13.646 20.459C11.955 19.345 13.05 18.732 14.012 17.731C14.266 17.468 18.649 13.483 18.733 13.122C18.745 13.077 18.754 12.907 18.655 12.818C18.552 12.729 18.405 12.761 18.3 12.783C18.149 12.818 15.741 14.411 11.075 17.56C10.39 18.029 9.77202 18.257 9.21802 18.246C8.60602 18.232 7.43099 17.9 6.55499 17.615C5.48299 17.267 4.63098 17.082 4.70398 16.491C4.74298 16.182 5.16803 15.867 5.97803 15.545C10.972 13.37 14.3 11.936 15.967 11.242C20.723 9.264 21.712 8.919 22.355 8.909C22.498 8.907 22.814 8.94197 23.019 9.10797C23.193 9.24797 23.24 9.43702 23.264 9.57202C23.286 9.70502 23.313 10.009 23.292 10.246Z" fill="#06B1DF"/>
</svg>
