<svg width="30" height="31" viewBox="0 0 30 31" fill="none" xmlns="http://www.w3.org/2000/svg">
<path d="M1.57802 2.90504C3.22943 0.12778 8.40879 0 12.4915 0C16.5741 0 20.2643 0.0283586 22.7767 2.1199C24.9751 3.94998 24.9751 8.87214 24.9751 14.9963C24.9751 21.1204 24.9751 25.6742 23.0123 27.7941C20.6213 30.3764 17.0453 29.9925 12.4915 29.9925C7.93768 29.9925 4.56413 29.9925 2.20621 28.0297C0.00779282 26.1996 0.0078722 20.8064 0.00782743 14.9963C0.00778267 9.18623 -0.203951 5.90184 1.57802 2.90504Z" fill="#0077FF"/>
<path d="M6.60145 2.90504C8.25287 0.12778 13.4322 0 17.5149 0C21.5976 0 25.2877 0.0283586 27.8001 2.1199C29.9985 3.94998 29.9985 8.87214 29.9985 14.9963C29.9985 21.1204 29.9985 25.6742 28.0357 27.7941C25.6448 30.3764 22.0687 29.9925 17.5149 29.9925C12.9611 29.9925 9.58757 29.9925 7.22965 28.0297C5.03123 26.1996 5.03131 20.8064 5.03126 14.9963C5.03122 9.18623 4.81949 5.90184 6.60145 2.90504Z" fill="#FF2B42"/>
<path d="M23.1283 13.5752L15.1468 9.01432C13.9953 8.3563 12.5625 9.18778 12.5625 10.5141V19.6359C12.5625 20.9622 13.9953 21.7936 15.1468 21.1356L23.1283 16.5747C24.2887 15.9116 24.2887 14.2383 23.1283 13.5752Z" fill="white"/>
</svg>
