<svg width="36" height="26" viewBox="0 0 36 26" fill="none" xmlns="http://www.w3.org/2000/svg">
<path fill-rule="evenodd" clip-rule="evenodd" d="M33.6441 23.6402C34.495 22.7894 34.9521 20.9756 35.0677 20.2115C35.1797 19.4491 35.5049 14.5952 35.5049 13.0055C35.5049 11.4158 35.1797 6.56169 35.0677 5.79935C34.9521 5.03701 34.495 3.22504 33.6441 2.37238C32.6903 1.41674 31.7311 1.13856 30.882 0.988622C30.0474 0.838684 22.5848 0.506348 17.7524 0.506348C12.9201 0.506348 5.45564 0.838684 4.62285 0.988622C3.7756 1.13856 2.81452 1.41855 1.8625 2.37238C1.00984 3.22323 0.552794 5.03521 0.437179 5.79935C0.325176 6.56169 0 11.4158 0 13.0055C0 14.5952 0.32337 19.4491 0.437179 20.2115C0.552794 20.9738 1.00984 22.7875 1.8625 23.6402C2.81452 24.594 3.7738 24.8704 4.62285 25.024C5.45564 25.1739 12.9201 25.5063 17.7524 25.5063C22.5848 25.5063 30.0474 25.1739 30.882 25.024C31.7293 24.8704 32.6903 24.5922 33.6441 23.6402ZM24.3131 13.0051L13.6728 18.5511V7.45919L24.3131 13.0051Z" fill="#FF0000"/>
</svg>
