<svg width="30" height="30" viewBox="0 0 30 30" fill="none" xmlns="http://www.w3.org/2000/svg">
<g clip-path="url(#clip0_3322_7451)">
<mask id="mask0_3322_7451" style="mask-type:luminance" maskUnits="userSpaceOnUse" x="0" y="0" width="30" height="31">
<path d="M22.7273 0.00634766H7.27273C3.25611 0.00634766 0 3.26246 0 7.27908V22.7336C0 26.7502 3.25611 30.0063 7.27273 30.0063H22.7273C26.7439 30.0063 30 26.7502 30 22.7336V7.27908C30 3.26246 26.7439 0.00634766 22.7273 0.00634766Z" fill="white"/>
</mask>
<g mask="url(#mask0_3322_7451)">
<path d="M30 0.00634766H0V30.0063H30V0.00634766Z" fill="#100943"/>
<path d="M30 15.0064C38.2843 15.0064 45 8.29062 45 0.00635529C45 -8.27793 38.2843 -14.9937 30 -14.9937C21.7157 -14.9937 15 -8.27793 15 0.00635529C15 8.29062 21.7157 15.0064 30 15.0064Z" fill="#ED143B"/>
<path d="M18.532 14.3215H9.66893V10.8142H18.532C19.0497 10.8142 19.4097 10.9045 19.5903 11.0621C19.771 11.2196 19.8829 11.5119 19.8829 11.9389V13.1982C19.8829 13.648 19.771 13.9403 19.5903 14.0979C19.4097 14.2555 19.0497 14.3228 18.532 14.3228V14.3215ZM19.14 7.50769H5.91016V22.5063H9.66893V17.6267H16.596L19.8829 22.5063H24.092L20.468 17.6038C21.8041 17.4058 22.404 16.9963 22.8988 16.3216C23.3936 15.6468 23.6417 14.5679 23.6417 13.1281V12.0035C23.6417 11.1496 23.5513 10.4748 23.3936 9.95764C23.2358 9.44044 22.9663 8.9906 22.5833 8.58653C22.1789 8.20403 21.7286 7.93464 21.188 7.75417C20.6473 7.5966 19.9719 7.50635 19.14 7.50635V7.50769Z" fill="white"/>
</g>
</g>
<defs>
<clipPath id="clip0_3322_7451">
<rect width="30" height="30" fill="white" transform="translate(0 0.00634766)"/>
</clipPath>
</defs>
</svg>
