<svg width="33" height="33" viewBox="0 0 33 33" fill="none" xmlns="http://www.w3.org/2000/svg">
<path d="M16.6992 0.19043C7.86322 0.19043 0.699219 7.35343 0.699219 16.1904C0.699219 25.0274 7.86322 32.1904 16.6992 32.1904C25.5352 32.1904 32.6992 25.0274 32.6992 16.1904C32.6992 7.35343 25.5352 0.19043 16.6992 0.19043ZM24.2852 21.7744H22.1852C21.4992 21.7744 21.4142 21.2744 20.1572 20.0754C19.0962 19.0294 18.6422 18.9464 18.3862 18.9464C18.1572 18.9464 18.0002 19.1184 18.0002 19.5184V21.1184C18.0002 21.5894 17.7292 21.7744 16.6152 21.7744C14.7872 21.7744 12.7592 20.6464 11.2172 18.5614C8.91622 15.4614 8.33124 13.1474 8.33124 12.6474C8.33124 12.3764 8.53122 12.1904 8.80322 12.1904H10.6743C11.1593 12.1904 11.3452 12.3344 11.5162 12.8484C12.3732 15.3624 13.9023 17.5754 14.5443 17.5754C14.7873 17.5754 14.8152 17.3764 14.8152 16.8615V14.3044C14.8152 13.0654 14.1152 12.9615 14.1152 12.5045C14.1152 12.3225 14.2583 12.1904 14.4863 12.1904H17.4863C17.8863 12.1904 17.9432 12.3345 17.9432 12.8195V16.2904C17.9432 16.6864 18.0243 16.8334 18.2003 16.8334C18.4183 16.8334 18.6192 16.7005 19.0142 16.2625C20.2442 14.9045 21.2562 12.7484 21.2562 12.7484C21.3842 12.4774 21.5422 12.2914 21.9702 12.2914C22.5992 12.2914 23.8412 12.2914 23.8412 12.2914C24.2122 12.2914 24.3702 12.4914 24.2982 12.8494C24.0842 13.8484 21.9272 16.8904 21.9272 16.8904C21.7282 17.2044 21.6422 17.3765 21.9272 17.6765C22.1272 17.9335 22.7553 18.4895 23.1423 19.0045C24.0843 20.0045 24.6992 20.8474 24.6992 21.3174C24.6992 21.6744 24.4992 21.7744 24.2852 21.7744Z" fill="#4D76A3"/>
</svg>
