<svg width="32" height="33" viewBox="0 0 32 33" fill="none" xmlns="http://www.w3.org/2000/svg">
<path d="M16 0.19043C7.164 0.19043 0 7.35343 0 16.1904C0 25.0274 7.164 32.1904 16 32.1904C24.836 32.1904 32 25.0274 32 16.1904C32 7.35343 24.836 0.19043 16 0.19043ZM25.606 20.4494C25.542 20.8724 25.289 21.8764 24.818 22.3474C24.29 22.8744 23.758 23.0284 23.289 23.1134C22.827 23.1964 18.696 23.3804 16.021 23.3804C13.346 23.3804 9.21399 23.1964 8.75299 23.1134C8.28299 23.0284 7.75198 22.8754 7.22498 22.3474C6.75298 21.8754 6.49997 20.8714 6.43597 20.4494C6.37297 20.0274 6.19397 17.3404 6.19397 16.4604C6.19397 15.5804 6.37397 12.8934 6.43597 12.4714C6.49997 12.0484 6.75298 11.0454 7.22498 10.5744C7.75198 10.0464 8.28399 9.89141 8.75299 9.80841C9.21399 9.72541 13.346 9.54144 16.021 9.54144C18.696 9.54144 22.827 9.72541 23.289 9.80841C23.759 9.89141 24.29 10.0454 24.818 10.5744C25.289 11.0464 25.542 12.0494 25.606 12.4714C25.668 12.8934 25.848 15.5804 25.848 16.4604C25.848 17.3404 25.668 20.0274 25.606 20.4494Z" fill="#E32726"/>
<path d="M13.7617 19.5306L19.6517 16.4606L13.7617 13.3906V19.5306Z" fill="#E32726"/>
</svg>
