<svg width="32" height="33" viewBox="0 0 32 33" fill="none" xmlns="http://www.w3.org/2000/svg">
<path d="M16 0.19043C7.164 0.19043 0 7.35343 0 16.1904C0 25.0274 7.164 32.1904 16 32.1904C24.836 32.1904 32 25.0274 32 16.1904C32 7.35343 24.836 0.19043 16 0.19043ZM23.292 9.9364C23.034 12.6454 21.918 19.2164 21.351 22.2495C21.112 23.5325 20.638 23.9624 20.181 24.0054C19.186 24.0974 18.431 23.3474 17.467 22.7174C15.959 21.7294 15.108 21.1134 13.646 20.1494C11.955 19.0354 13.05 18.4224 14.012 17.4214C14.266 17.1584 18.649 13.1734 18.733 12.8124C18.745 12.7674 18.754 12.5974 18.655 12.5084C18.552 12.4194 18.405 12.4514 18.3 12.4734C18.149 12.5084 15.741 14.1014 11.075 17.2504C10.39 17.7194 9.77202 17.9474 9.21802 17.9364C8.60602 17.9224 7.43099 17.5904 6.55499 17.3054C5.48299 16.9574 4.63098 16.7725 4.70398 16.1815C4.74298 15.8725 5.16803 15.5574 5.97803 15.2354C10.972 13.0604 14.3 11.6264 15.967 10.9324C20.723 8.95443 21.712 8.60943 22.355 8.59943C22.498 8.59743 22.814 8.6324 23.019 8.7984C23.193 8.9384 23.24 9.12745 23.264 9.26245C23.286 9.39545 23.313 9.6994 23.292 9.9364Z" fill="#06B1DF"/>
</svg>
