<svg width="36" height="25" viewBox="0 0 36 25" fill="none" xmlns="http://www.w3.org/2000/svg">
<path fill-rule="evenodd" clip-rule="evenodd" d="M33.6441 23.1339C34.495 22.283 34.9521 20.4693 35.0677 19.7051C35.1797 18.9428 35.5049 14.0888 35.5049 12.4991C35.5049 10.9094 35.1797 6.05534 35.0677 5.293C34.9521 4.53066 34.495 2.71869 33.6441 1.86603C32.6903 0.910397 31.7311 0.632213 30.882 0.482275C30.0474 0.332336 22.5848 0 17.7524 0C12.9201 0 5.45564 0.332336 4.62285 0.482275C3.7756 0.632213 2.81452 0.912203 1.8625 1.86603C1.00984 2.71689 0.552794 4.52886 0.437179 5.293C0.325176 6.05534 0 10.9094 0 12.4991C0 14.0888 0.32337 18.9428 0.437179 19.7051C0.552794 20.4675 1.00984 22.2812 1.8625 23.1339C2.81452 24.0877 3.7738 24.3641 4.62285 24.5176C5.45564 24.6676 12.9201 25 17.7524 25C22.5848 25 30.0474 24.6676 30.882 24.5176C31.7293 24.3641 32.6903 24.0859 33.6441 23.1339ZM24.3131 12.4988L13.6728 18.0447V6.95284L24.3131 12.4988Z" fill="#FF0000"/>
</svg>
