<svg width="466" height="462" viewBox="0 0 466 462" fill="none" xmlns="http://www.w3.org/2000/svg">
<g clip-path="url(#clip0_2_417)">
<path d="M2.92184 32.143L6.9102 27.7356L9.61829 24C11.8214 25.7189 10.6121 27.5604 10.6121 27.5604L8.10641 31.1609H15.3633L14.0027 37.5037L12.124 40H4.99603C3.37578 40 2.36328 38.6221 2.36328 38.6221" stroke="#999999" stroke-width="2" stroke-miterlimit="10" stroke-linecap="round" stroke-linejoin="bevel"/>
</g>
<path d="M59.4595 25.805L65.8645 18.333L70.2135 12C73.7515 14.914 71.8095 18.036 71.8095 18.036L67.7855 24.14H79.4395L77.2545 34.893L74.2375 39.125H62.7905C60.1885 39.125 58.5625 36.789 58.5625 36.789" stroke="#FF3434" stroke-width="3" stroke-miterlimit="10" stroke-linecap="round" stroke-linejoin="round"/>
<g clip-path="url(#clip1_2_417)">
<path d="M150.5 40H122.5V3H144L150.5 9.5V40Z" stroke="#FF3434" stroke-width="2" stroke-miterlimit="10"/>
<path d="M143.5 3V10H150.5" stroke="#FF3434" stroke-width="2" stroke-miterlimit="10"/>
<path d="M135.951 11C133.79 11 135.098 16.215 137.96 19.941C141.926 25.104 144.906 26.534 145.416 24.34C145.839 22.534 141.498 22.666 136.523 24.481C132.434 25.977 126.835 28.582 128.97 30.364C130.872 31.953 133.153 25.854 134.659 22.246C137.107 16.391 138.006 11 135.951 11Z" stroke="#FF3434" stroke-width="2" stroke-miterlimit="10"/>
</g>
<g clip-path="url(#clip2_2_417)">
<path d="M193.678 3.97986C195.932 0.188477 203.003 0.0140381 208.576 0.0140381C214.15 0.0140381 219.188 0.052752 222.618 2.90802C225.619 5.40637 225.619 12.1259 225.619 20.4863C225.619 28.8467 225.619 35.0633 222.939 37.9573C219.675 41.4824 214.793 40.9584 208.576 40.9584C202.36 40.9584 197.754 40.9584 194.535 38.2788C191.534 35.7805 191.534 28.4179 191.534 20.4863C191.534 12.5546 191.245 8.07096 193.678 3.97986Z" fill="#0077FF"/>
<path d="M200.537 3.97986C202.791 0.188477 209.862 0.0140381 215.436 0.0140381C221.009 0.0140381 226.047 0.052752 229.477 2.90802C232.478 5.40637 232.478 12.1259 232.478 20.4863C232.478 28.8467 232.478 35.0633 229.798 37.9573C226.534 41.4824 221.652 40.9584 215.436 40.9584C209.219 40.9584 204.614 40.9584 201.395 38.2788C198.393 35.7805 198.394 28.4179 198.393 20.4863C198.393 12.5546 198.104 8.07096 200.537 3.97986Z" fill="#FF2B42"/>
<path d="M223.096 18.5459L212.2 12.3195C210.628 11.4213 208.672 12.5563 208.672 14.3669V26.8196C208.672 28.6302 210.628 29.7653 212.2 28.867L223.096 22.6406C224.68 21.7354 224.68 19.4511 223.096 18.5459Z" fill="white"/>
</g>
<path d="M275.555 16.636C276.065 15.7784 277.218 15.1956 278.965 14.8663C280.669 14.5452 282.662 14.5142 284.503 14.5142C286.353 14.5142 288.021 14.5226 289.502 14.7503C290.971 14.976 292.168 15.4063 293.107 16.1878C293.775 16.7439 294.239 17.9056 294.483 19.8806C294.721 21.8056 294.722 24.218 294.722 26.9911C294.722 29.7626 294.721 32.0979 294.508 33.9787C294.292 35.8863 293.878 37.1077 293.225 37.8129C292.363 38.7432 291.276 39.1726 289.832 39.3585C288.696 39.5048 287.439 39.4922 285.974 39.4775C285.506 39.4729 285.017 39.468 284.503 39.468C282.435 39.468 280.733 39.4658 279.284 39.2576C277.855 39.0523 276.767 38.6573 275.9 37.9354C275.59 37.6777 275.301 37.2448 275.058 36.5738C274.816 35.906 274.643 35.0659 274.524 34.0703C274.286 32.0719 274.284 29.6205 274.284 26.9911C274.284 26.4546 274.282 25.946 274.281 25.462C274.274 23.5537 274.268 22.0296 274.386 20.6979C274.53 19.064 274.855 17.8126 275.555 16.636Z" stroke="#FF3434" stroke-width="2"/>
<path d="M289.546 25.7138L282.373 21.615C281.338 21.0237 280.051 21.7709 280.051 22.9628V31.1604C280.051 32.3523 281.338 33.0996 282.373 32.5082L289.546 28.4094C290.589 27.8135 290.589 26.3098 289.546 25.7138Z" stroke="#FF3434" stroke-width="2"/>
<g clip-path="url(#clip3_2_417)">
<path d="M343 38C346.038 38 348.5 35.5376 348.5 32.5C348.5 29.4624 346.038 27 343 27C339.962 27 337.5 29.4624 337.5 32.5C337.5 35.5376 339.962 38 343 38Z" stroke="#333333" stroke-width="2"/>
<path d="M347.207 36.2929L351.207 40.2929" stroke="#333333" stroke-width="2"/>
</g>
<path d="M404.5 30C405.605 30 406.5 29.1046 406.5 28C406.5 26.8954 405.605 26 404.5 26C403.395 26 402.5 26.8954 402.5 28C402.5 29.1046 403.395 30 404.5 30Z" fill="#999999" stroke="#999999" stroke-miterlimit="10"/>
<path d="M404.5 40C405.605 40 406.5 39.1046 406.5 38C406.5 36.8954 405.605 36 404.5 36C403.395 36 402.5 36.8954 402.5 38C402.5 39.1046 403.395 40 404.5 40Z" fill="#999999" stroke="#999999" stroke-miterlimit="10"/>
<path d="M395.5 35C396.605 35 397.5 34.1046 397.5 33C397.5 31.8954 396.605 31 395.5 31C394.395 31 393.5 31.8954 393.5 33C393.5 34.1046 394.395 35 395.5 35Z" fill="#999999" stroke="#999999" stroke-miterlimit="10"/>
<path d="M395.5 33L404.5 28" stroke="#999999" stroke-width="2" stroke-miterlimit="10"/>
<path d="M395.5 33L404.5 38" stroke="#999999" stroke-width="2" stroke-miterlimit="10"/>
<g clip-path="url(#clip4_2_417)">
<path d="M8.36328 94C11.677 94 14.3633 91.3137 14.3633 88C14.3633 84.6863 11.677 82 8.36328 82C5.04957 82 2.36328 84.6863 2.36328 88C2.36328 91.3137 5.04957 94 8.36328 94Z" stroke="#999999" stroke-width="2"/>
<path d="M8.36328 84V88H11.3633" stroke="#999999" stroke-width="2"/>
</g>
<g clip-path="url(#clip5_2_417)">
<path d="M64 97C68.1421 97 71.5 93.6421 71.5 89.5C71.5 85.3579 68.1421 82 64 82C59.8579 82 56.5 85.3579 56.5 89.5C56.5 93.6421 59.8579 97 64 97Z" stroke="#999999" stroke-width="2"/>
<path d="M64 84.6428V89.5H67.6429" stroke="#999999" stroke-width="2"/>
</g>
<path d="M122.432 82.5601C119.076 82.5601 116.142 84.3391 114.5 87.0001C116.142 89.6611 119.076 91.4401 122.432 91.4401C125.788 91.4401 128.721 89.6611 130.364 87.0001C128.721 84.3391 125.788 82.5601 122.432 82.5601Z" stroke="#999999" stroke-width="2" stroke-miterlimit="10"/>
<path d="M122.431 82.5601C120.473 82.5601 118.879 84.1541 118.879 86.1131C118.879 88.0721 120.473 89.6661 122.431 89.6661C124.389 89.6661 125.983 88.0721 125.983 86.1131C125.983 84.1541 124.389 82.5601 122.431 82.5601ZM123.319 87.0011C122.584 87.0011 121.987 86.4041 121.987 85.6691C121.987 84.9351 122.584 84.3371 123.319 84.3371C124.053 84.3371 124.651 84.9351 124.651 85.6691C124.651 86.4041 124.053 87.0011 123.319 87.0011Z" fill="#999999"/>
<g clip-path="url(#clip6_2_417)">
<path d="M173.5 85.5L179 91L188 82" stroke="#FF0000" stroke-width="2"/>
</g>
<g clip-path="url(#clip7_2_417)">
<path d="M232.5 87.25C234.157 87.25 235.5 85.9069 235.5 84.25C235.5 82.5931 234.157 81.25 232.5 81.25C230.843 81.25 229.5 82.5931 229.5 84.25C229.5 85.9069 230.843 87.25 232.5 87.25Z" fill="#FF3434" fill-opacity="0.5"/>
<path d="M269.5 87.75C271.157 87.75 272.5 86.4069 272.5 84.75C272.5 83.0931 271.157 81.75 269.5 81.75C267.843 81.75 266.5 83.0931 266.5 84.75C266.5 86.4069 267.843 87.75 269.5 87.75Z" fill="#FF3434" fill-opacity="0.5"/>
<path d="M244.5 85.25C245.052 85.25 245.5 84.8023 245.5 84.25C245.5 83.6977 245.052 83.25 244.5 83.25C243.948 83.25 243.5 83.6977 243.5 84.25C243.5 84.8023 243.948 85.25 244.5 85.25Z" fill="#FF3434" fill-opacity="0.5"/>
<path d="M256.5 85.25C257.052 85.25 257.5 84.8023 257.5 84.25C257.5 83.6977 257.052 83.25 256.5 83.25C255.948 83.25 255.5 83.6977 255.5 84.25C255.5 84.8023 255.948 85.25 256.5 85.25Z" fill="#FF3434" fill-opacity="0.5"/>
</g>
<g clip-path="url(#clip8_2_417)">
<path d="M316 93C317.381 93 318.5 91.8807 318.5 90.5C318.5 89.1193 317.381 88 316 88C314.619 88 313.5 89.1193 313.5 90.5C313.5 91.8807 314.619 93 316 93Z" stroke="white" stroke-width="2"/>
<path d="M328 87C329.381 87 330.5 85.8807 330.5 84.5C330.5 83.1193 329.381 82 328 82C326.619 82 325.5 83.1193 325.5 84.5C325.5 85.8807 326.619 87 328 87Z" stroke="white" stroke-width="2"/>
<path d="M328 99C329.381 99 330.5 97.8807 330.5 96.5C330.5 95.1193 329.381 94 328 94C326.619 94 325.5 95.1193 325.5 96.5C325.5 97.8807 326.619 99 328 99Z" stroke="white" stroke-width="2"/>
<path d="M325.5 86L318.5 89.6M318.5 91.4L325.5 95" stroke="white" stroke-width="2"/>
</g>
<g clip-path="url(#clip9_2_417)">
<path d="M375 93C376.381 93 377.5 91.8807 377.5 90.5C377.5 89.1193 376.381 88 375 88C373.619 88 372.5 89.1193 372.5 90.5C372.5 91.8807 373.619 93 375 93Z" stroke="white" stroke-width="2"/>
<path d="M387 87C388.381 87 389.5 85.8807 389.5 84.5C389.5 83.1193 388.381 82 387 82C385.619 82 384.5 83.1193 384.5 84.5C384.5 85.8807 385.619 87 387 87Z" stroke="white" stroke-width="2"/>
<path d="M387 99C388.381 99 389.5 97.8807 389.5 96.5C389.5 95.1193 388.381 94 387 94C385.619 94 384.5 95.1193 384.5 96.5C384.5 97.8807 385.619 99 387 99Z" stroke="white" stroke-width="2"/>
<path d="M384.5 86L377.5 89.6M377.5 91.4L384.5 95" stroke="white" stroke-width="2"/>
</g>
<g clip-path="url(#clip10_2_417)">
<mask id="mask0_2_417" style="mask-type:luminance" maskUnits="userSpaceOnUse" x="0" y="140" width="31" height="31">
<path d="M30.5 140.006H0.5V170.006H30.5V140.006Z" fill="white"/>
</mask>
<g mask="url(#mask0_2_417)">
<mask id="mask1_2_417" style="mask-type:luminance" maskUnits="userSpaceOnUse" x="0" y="140" width="31" height="31">
<path d="M23.2273 140.006H7.77273C3.75611 140.006 0.5 143.262 0.5 147.279V162.734C0.5 166.75 3.75611 170.006 7.77273 170.006H23.2273C27.2439 170.006 30.5 166.75 30.5 162.734V147.279C30.5 143.262 27.2439 140.006 23.2273 140.006Z" fill="white"/>
</mask>
<g mask="url(#mask1_2_417)">
<path d="M30.5 140.006H0.5V170.006H30.5V140.006Z" fill="#100943"/>
<path d="M30.5 155.006C38.7843 155.006 45.5 148.291 45.5 140.006C45.5 131.722 38.7843 125.006 30.5 125.006C22.2157 125.006 15.5 131.722 15.5 140.006C15.5 148.291 22.2157 155.006 30.5 155.006Z" fill="#ED143B"/>
<path d="M19.032 154.321H10.1689V150.814H19.032C19.5497 150.814 19.9097 150.904 20.0903 151.062C20.271 151.22 20.3829 151.512 20.3829 151.939V153.198C20.3829 153.648 20.271 153.94 20.0903 154.098C19.9097 154.255 19.5497 154.323 19.032 154.323V154.321ZM19.64 147.508H6.41016V162.506H10.1689V157.627H17.096L20.3829 162.506H24.592L20.968 157.604C22.3041 157.406 22.904 156.996 23.3988 156.322C23.8936 155.647 24.1417 154.568 24.1417 153.128V152.003C24.1417 151.15 24.0513 150.475 23.8936 149.958C23.7358 149.44 23.4663 148.991 23.0833 148.587C22.6789 148.204 22.2286 147.935 21.688 147.754C21.1473 147.597 20.4719 147.506 19.64 147.506V147.508Z" fill="white"/>
</g>
</g>
</g>
<g clip-path="url(#clip11_2_417)">
<path d="M72.078 142.905C73.7294 140.128 78.9088 140 82.9915 140C87.0741 140 90.7643 140.028 93.2767 142.12C95.4751 143.95 95.4751 148.872 95.4751 154.996C95.4751 161.12 95.4751 165.674 93.5123 167.794C91.1213 170.376 87.5453 169.993 82.9915 169.993C78.4377 169.993 75.0641 169.992 72.7062 168.03C70.5078 166.2 70.5079 160.806 70.5078 154.996C70.5078 149.186 70.296 145.902 72.078 142.905Z" fill="#0077FF"/>
<path d="M77.1015 142.905C78.7529 140.128 83.9322 140 88.0149 140C92.0976 140 95.7877 140.028 98.3001 142.12C100.499 143.95 100.499 148.872 100.499 154.996C100.499 161.12 100.499 165.674 98.5357 167.794C96.1448 170.376 92.5687 169.993 88.0149 169.993C83.4611 169.993 80.0876 169.992 77.7297 168.03C75.5312 166.2 75.5313 160.806 75.5313 154.996C75.5312 149.186 75.3195 145.902 77.1015 142.905Z" fill="#FF2B42"/>
<path d="M93.6283 153.575L85.6468 149.014C84.4953 148.356 83.0625 149.188 83.0625 150.514V159.636C83.0625 160.962 84.4953 161.794 85.6468 161.136L93.6283 156.575C94.7887 155.912 94.7887 154.238 93.6283 153.575Z" fill="white"/>
</g>
<g clip-path="url(#clip12_2_417)">
<path fill-rule="evenodd" clip-rule="evenodd" d="M174.144 163.64C174.995 162.789 175.452 160.976 175.568 160.212C175.68 159.449 176.005 154.595 176.005 153.005C176.005 151.416 175.68 146.562 175.568 145.799C175.452 145.037 174.995 143.225 174.144 142.372C173.19 141.417 172.231 141.139 171.382 140.989C170.547 140.839 163.085 140.506 158.252 140.506C153.42 140.506 145.956 140.839 145.123 140.989C144.276 141.139 143.315 141.419 142.362 142.372C141.51 143.223 141.053 145.035 140.937 145.799C140.825 146.562 140.5 151.416 140.5 153.005C140.5 154.595 140.823 159.449 140.937 160.212C141.053 160.974 141.51 162.787 142.362 163.64C143.315 164.594 144.274 164.87 145.123 165.024C145.956 165.174 153.42 165.506 158.252 165.506C163.085 165.506 170.547 165.174 171.382 165.024C172.229 164.87 173.19 164.592 174.144 163.64ZM164.813 153.005L154.173 158.551V147.459L164.813 153.005Z" fill="#FF0000"/>
</g>
<g clip-path="url(#clip13_2_417)">
<path d="M232.5 140.19C223.664 140.19 216.5 147.353 216.5 156.19C216.5 165.027 223.664 172.19 232.5 172.19C241.336 172.19 248.5 165.027 248.5 156.19C248.5 147.353 241.336 140.19 232.5 140.19ZM239.792 149.936C239.534 152.645 238.418 159.216 237.851 162.25C237.612 163.533 237.138 163.962 236.681 164.005C235.686 164.097 234.931 163.347 233.967 162.717C232.459 161.729 231.608 161.113 230.146 160.149C228.455 159.035 229.55 158.422 230.512 157.421C230.766 157.158 235.149 153.173 235.233 152.812C235.245 152.767 235.254 152.597 235.155 152.508C235.052 152.419 234.905 152.451 234.8 152.473C234.649 152.508 232.241 154.101 227.575 157.25C226.89 157.719 226.272 157.947 225.718 157.936C225.106 157.922 223.931 157.59 223.055 157.305C221.983 156.957 221.131 156.772 221.204 156.181C221.243 155.872 221.668 155.557 222.478 155.235C227.472 153.06 230.8 151.626 232.467 150.932C237.223 148.954 238.212 148.609 238.855 148.599C238.998 148.597 239.314 148.632 239.519 148.798C239.693 148.938 239.74 149.127 239.764 149.262C239.786 149.395 239.813 149.699 239.792 149.936Z" fill="#06B1DF"/>
</g>
<g clip-path="url(#clip14_2_417)">
<path d="M304.5 140.19C295.664 140.19 288.5 147.353 288.5 156.19C288.5 165.027 295.664 172.19 304.5 172.19C313.336 172.19 320.5 165.027 320.5 156.19C320.5 147.353 313.336 140.19 304.5 140.19ZM314.106 160.449C314.042 160.872 313.789 161.876 313.318 162.347C312.79 162.874 312.258 163.028 311.789 163.113C311.327 163.196 307.196 163.38 304.521 163.38C301.846 163.38 297.714 163.196 297.253 163.113C296.783 163.028 296.252 162.875 295.725 162.347C295.253 161.875 295 160.871 294.936 160.449C294.873 160.027 294.694 157.34 294.694 156.46C294.694 155.58 294.874 152.893 294.936 152.471C295 152.048 295.253 151.045 295.725 150.574C296.252 150.046 296.784 149.891 297.253 149.808C297.714 149.725 301.846 149.541 304.521 149.541C307.196 149.541 311.327 149.725 311.789 149.808C312.259 149.891 312.79 150.045 313.318 150.574C313.789 151.046 314.042 152.049 314.106 152.471C314.168 152.893 314.348 155.58 314.348 156.46C314.348 157.34 314.168 160.027 314.106 160.449Z" fill="#E32726"/>
<path d="M302.262 159.531L308.152 156.461L302.262 153.391V159.531Z" fill="#E32726"/>
</g>
<g clip-path="url(#clip15_2_417)">
<path d="M377.199 140.19C368.363 140.19 361.199 147.353 361.199 156.19C361.199 165.027 368.363 172.19 377.199 172.19C386.035 172.19 393.199 165.027 393.199 156.19C393.199 147.353 386.035 140.19 377.199 140.19ZM384.785 161.774H382.685C381.999 161.774 381.914 161.274 380.657 160.075C379.596 159.029 379.142 158.946 378.886 158.946C378.657 158.946 378.5 159.118 378.5 159.518V161.118C378.5 161.589 378.229 161.774 377.115 161.774C375.287 161.774 373.259 160.646 371.717 158.561C369.416 155.461 368.831 153.147 368.831 152.647C368.831 152.376 369.031 152.19 369.303 152.19H371.174C371.659 152.19 371.845 152.334 372.016 152.848C372.873 155.362 374.402 157.575 375.044 157.575C375.287 157.575 375.315 157.376 375.315 156.861V154.304C375.315 153.065 374.615 152.962 374.615 152.505C374.615 152.323 374.758 152.19 374.986 152.19H377.986C378.386 152.19 378.443 152.334 378.443 152.819V156.29C378.443 156.686 378.524 156.833 378.7 156.833C378.918 156.833 379.119 156.701 379.514 156.263C380.744 154.905 381.756 152.748 381.756 152.748C381.884 152.477 382.042 152.291 382.47 152.291C383.099 152.291 384.341 152.291 384.341 152.291C384.712 152.291 384.87 152.491 384.798 152.849C384.584 153.848 382.427 156.89 382.427 156.89C382.228 157.204 382.142 157.377 382.427 157.677C382.627 157.934 383.255 158.489 383.642 159.004C384.584 160.004 385.199 160.847 385.199 161.317C385.199 161.674 384.999 161.774 384.785 161.774Z" fill="#4D76A3"/>
</g>
<g clip-path="url(#clip16_2_417)">
<path d="M449.5 140.5C440.664 140.5 433.5 147.663 433.5 156.5C433.5 165.337 440.664 172.5 449.5 172.5C458.336 172.5 465.5 165.337 465.5 156.5C465.5 147.663 458.336 140.5 449.5 140.5ZM456.792 150.246C456.534 152.955 455.418 159.526 454.851 162.559C454.612 163.842 454.138 164.272 453.681 164.315C452.686 164.407 451.931 163.657 450.967 163.027C449.459 162.039 448.608 161.423 447.146 160.459C445.455 159.345 446.55 158.732 447.512 157.731C447.766 157.468 452.149 153.483 452.233 153.122C452.245 153.077 452.254 152.907 452.155 152.818C452.052 152.729 451.905 152.761 451.8 152.783C451.649 152.818 449.241 154.411 444.575 157.56C443.89 158.029 443.272 158.257 442.718 158.246C442.106 158.232 440.931 157.9 440.055 157.615C438.983 157.267 438.131 157.082 438.204 156.491C438.243 156.182 438.668 155.867 439.478 155.545C444.472 153.37 447.8 151.936 449.467 151.242C454.223 149.264 455.212 148.919 455.855 148.909C455.998 148.907 456.314 148.942 456.519 149.108C456.693 149.248 456.74 149.437 456.764 149.572C456.786 149.705 456.813 150.009 456.792 150.246Z" fill="#06B1DF"/>
</g>
<g clip-path="url(#clip17_2_417)">
<mask id="mask2_2_417" style="mask-type:luminance" maskUnits="userSpaceOnUse" x="0" y="213" width="32" height="31">
<path d="M31.5 213.5H0.5V243.5H31.5V213.5Z" fill="white"/>
</mask>
<g mask="url(#mask2_2_417)">
<mask id="mask3_2_417" style="mask-type:luminance" maskUnits="userSpaceOnUse" x="0" y="213" width="32" height="31">
<path d="M31.3493 213.5H0.65625V243.5H31.3493V213.5Z" fill="white"/>
</mask>
<g mask="url(#mask3_2_417)">
<path d="M0.65625 227.9C0.65625 221.112 0.65625 217.718 2.8138 215.609C4.97136 213.5 8.44388 213.5 15.3889 213.5H16.6166C23.5617 213.5 27.0342 213.5 29.1918 215.609C31.3493 217.718 31.3493 221.112 31.3493 227.9V229.1C31.3493 235.888 31.3493 239.282 29.1918 241.391C27.0342 243.5 23.5617 243.5 16.6166 243.5H15.3889C8.44388 243.5 4.97136 243.5 2.8138 241.391C0.65625 239.282 0.65625 235.888 0.65625 229.1V227.9Z" fill="#0077FF"/>
<path d="M16.9877 235.113C9.99227 235.113 6.0022 230.425 5.83594 222.625H9.34007C9.45517 228.35 12.0385 230.775 14.0846 231.275V222.625H17.3843V227.563C19.4049 227.35 21.5276 225.1 22.2437 222.625H25.5433C24.9934 225.675 22.6914 227.925 21.0545 228.85C22.6914 229.6 25.3133 231.563 26.3108 235.113H22.6787C21.8985 232.738 19.9548 230.9 17.3843 230.65V235.113H16.9877Z" fill="white"/>
</g>
</g>
</g>
<g clip-path="url(#clip18_2_417)">
<path fill-rule="evenodd" clip-rule="evenodd" d="M105.144 236.134C105.995 235.283 106.452 233.469 106.568 232.705C106.68 231.943 107.005 227.089 107.005 225.499C107.005 223.909 106.68 219.055 106.568 218.293C106.452 217.531 105.995 215.719 105.144 214.866C104.19 213.91 103.231 213.632 102.382 213.482C101.547 213.332 94.0848 213 89.2524 213C84.4201 213 76.9556 213.332 76.1228 213.482C75.2756 213.632 74.3145 213.912 73.3625 214.866C72.5098 215.717 72.0528 217.529 71.9372 218.293C71.8252 219.055 71.5 223.909 71.5 225.499C71.5 227.089 71.8234 231.943 71.9372 232.705C72.0528 233.467 72.5098 235.281 73.3625 236.134C74.3145 237.088 75.2738 237.364 76.1228 237.518C76.9556 237.668 84.4201 238 89.2524 238C94.0848 238 101.547 237.668 102.382 237.518C103.229 237.364 104.19 237.086 105.144 236.134ZM95.8131 225.499L85.1728 231.045V219.953L95.8131 225.499Z" fill="#FF0000"/>
</g>
<g clip-path="url(#clip19_2_417)">
<mask id="mask4_2_417" style="mask-type:luminance" maskUnits="userSpaceOnUse" x="147" y="213" width="31" height="31">
<path d="M177.5 213.5H147.5V243.5H177.5V213.5Z" fill="white"/>
</mask>
<g mask="url(#mask4_2_417)">
<mask id="mask5_2_417" style="mask-type:luminance" maskUnits="userSpaceOnUse" x="147" y="213" width="31" height="31">
<path d="M170.227 213.5H154.773C150.756 213.5 147.5 216.756 147.5 220.773V236.227C147.5 240.244 150.756 243.5 154.773 243.5H170.227C174.244 243.5 177.5 240.244 177.5 236.227V220.773C177.5 216.756 174.244 213.5 170.227 213.5Z" fill="white"/>
</mask>
<g mask="url(#mask5_2_417)">
<path d="M177.5 213.5H147.5V243.5H177.5V213.5Z" fill="#100943"/>
<path d="M177.5 228.5C185.784 228.5 192.5 221.784 192.5 213.5C192.5 205.216 185.784 198.5 177.5 198.5C169.216 198.5 162.5 205.216 162.5 213.5C162.5 221.784 169.216 228.5 177.5 228.5Z" fill="#ED143B"/>
<path d="M166.028 227.815H157.165V224.308H166.028C166.546 224.308 166.906 224.398 167.086 224.556C167.267 224.713 167.379 225.006 167.379 225.432V226.692C167.379 227.142 167.267 227.434 167.086 227.592C166.906 227.749 166.546 227.816 166.028 227.816V227.815ZM166.636 221.001H153.406V236H157.165V231.12H164.092L167.379 236H171.588L167.964 231.097C169.3 230.899 169.9 230.49 170.395 229.815C170.89 229.14 171.138 228.062 171.138 226.622V225.497C171.138 224.643 171.047 223.968 170.89 223.451C170.732 222.934 170.462 222.484 170.079 222.08C169.675 221.698 169.225 221.428 168.684 221.248C168.143 221.09 167.468 221 166.636 221V221.001Z" fill="white"/>
</g>
</g>
</g>
<g clip-path="url(#clip20_2_417)">
<path d="M241 213H240C227.574 213 217.5 223.074 217.5 235.5C217.5 247.926 227.574 258 240 258H241C253.426 258 263.5 247.926 263.5 235.5C263.5 223.074 253.426 213 241 213Z" fill="#FF3434"/>
<path d="M243 229.364L236.5 236.011L243 242.659" stroke="white" stroke-width="2" stroke-linecap="round"/>
</g>
<path d="M304 235.5V236.5C304 248.926 314.074 259 326.5 259C338.926 259 349 248.926 349 236.5V235.5C349 223.074 338.926 213 326.5 213C314.074 213 304 223.074 304 235.5Z" fill="#FF3434"/>
<path d="M320.363 233.5L327.011 240L333.659 233.5" stroke="white" stroke-width="2" stroke-linecap="round"/>
<g clip-path="url(#clip21_2_417)">
<path d="M390.5 214.5L395.5 219.5L390.5 224.5" stroke="#FF3434" stroke-width="2"/>
</g>
<path d="M438.5 213.5L443 218L438.5 222.5" stroke="#FF3434"/>
<g clip-path="url(#clip22_2_417)">
<path d="M1.5 300.25L7 305.75L12.5 300.25" stroke="#FF3434" stroke-width="2"/>
</g>
<path d="M62 300L55.5 306.5L62 313" stroke="#FF3434" stroke-width="2" stroke-linecap="round"/>
<path d="M112 300L105.5 306.5L112 313" stroke="white" stroke-width="2" stroke-linecap="round"/>
<g clip-path="url(#clip23_2_417)">
<path d="M175.5 343C187.65 343 197.5 333.15 197.5 321C197.5 308.85 187.65 299 175.5 299C163.35 299 153.5 308.85 153.5 321C153.5 333.15 163.35 343 175.5 343Z" fill="white"/>
<path d="M172.5 327L179 320.5L172.5 314" stroke="#FF3434" stroke-width="2" stroke-linecap="round"/>
</g>
<g clip-path="url(#clip24_2_417)">
<path d="M238.5 303.5L244 309L253 300" stroke="white" stroke-width="2"/>
</g>
<path d="M295.5 300L316.5 321M295.5 321L316.5 300" stroke="#999999"/>
<g clip-path="url(#clip25_2_417)">
<path d="M371.363 302.25H359.363V313.25H371.363V302.25Z" stroke="#999999" stroke-width="2"/>
<path d="M362.363 299.75V304.25" stroke="#999999" stroke-width="2"/>
<path d="M362.363 305.25V307.25" stroke="#999999" stroke-width="2"/>
<path d="M362.363 308.25V310.25" stroke="#999999" stroke-width="2"/>
<path d="M365.363 305.25V307.25" stroke="#999999" stroke-width="2"/>
<path d="M365.363 308.25V310.25" stroke="#999999" stroke-width="2"/>
<path d="M368.363 305.25V307.25" stroke="#999999" stroke-width="2"/>
<path d="M368.363 299.75V304.25" stroke="#999999" stroke-width="2"/>
</g>
<g clip-path="url(#clip26_2_417)">
<path d="M2.06076 384.561V383H0.5V384.561H2.06076ZM44.87 384.561H46.4308V383H44.87V384.561ZM2.06077 427.382H0.500007V428.943H2.06077V427.382ZM30.1103 427.382L31.671 427.38L31.6694 425.821H30.1103V427.382ZM19.8959 449.312L18.7815 448.219L17.6778 449.344L18.8142 450.437L19.8959 449.312ZM30.4836 459.493L29.402 460.618L30.516 461.69L31.598 460.586L30.4836 459.493ZM44.8679 427.382V425.821H43.3057L43.3071 427.383L44.8679 427.382ZM44.8679 427.382L44.87 428.943H46.4308V427.382H44.8679ZM2.06076 386.122H44.87V383L2.06076 383V386.122ZM3.62153 427.382V384.561H0.5L0.500007 427.382H3.62153ZM30.1103 425.821H2.06077V428.943H30.1103V425.821ZM29.7283 438.88C31.1006 435.785 31.6765 432.417 31.671 427.38L28.5495 427.384C28.5547 432.171 28.007 435.061 26.8747 437.615L29.7283 438.88ZM21.0102 450.405C25.7477 445.572 28.2848 442.136 29.7283 438.88L26.8747 437.615C25.655 440.366 23.4207 443.486 18.7815 448.219L21.0102 450.405ZM31.5653 458.368L20.9775 448.186L18.8142 450.437L29.402 460.618L31.5653 458.368ZM40.3871 443.491C38.1252 448.592 34.4775 453.189 29.3693 458.4L31.598 460.586C36.806 455.274 40.7555 450.362 43.2406 444.757L40.3871 443.491ZM43.3071 427.383C43.3126 433.311 42.6354 438.419 40.3871 443.491L43.2406 444.757C45.7288 439.144 46.4365 433.559 46.4308 427.382L43.3071 427.383ZM43.3093 384.561L43.3071 427.383L46.4308 427.382V384.561H43.3093Z" fill="#FF0000"/>
<path d="M59.1311 384.561V383H57.5703V384.561H59.1311ZM101.941 384.561H103.501V383H101.941V384.561ZM59.1311 427.382H57.5703V428.943H59.1311V427.382ZM87.1804 427.382L88.7416 427.38L88.7396 425.821H87.1804V427.382ZM76.9662 449.312L75.852 448.219L74.7482 449.344L75.8847 450.437L76.9662 449.312ZM87.554 459.493L86.4725 460.618L87.5861 461.69L88.6683 460.586L87.554 459.493ZM101.938 427.382V425.821H100.376L100.378 427.383L101.938 427.382ZM101.938 427.382L101.941 428.943H103.501V427.382H101.938ZM59.1311 386.122H101.941V383L59.1311 383V386.122ZM60.6918 427.382V384.561H57.5703V427.382H60.6918ZM87.1804 425.821H59.1311V428.943H87.1804V425.821ZM86.7983 438.88C88.171 435.785 88.7468 432.417 88.7416 427.38L85.6199 427.384C85.6252 432.171 85.0775 435.061 83.9449 437.615L86.7983 438.88ZM78.0805 450.405C82.8182 445.572 85.3549 442.136 86.7983 438.88L83.9449 437.615C82.7253 440.366 80.4909 443.486 75.852 448.219L78.0805 450.405ZM88.6356 458.368L78.0478 448.186L75.8847 450.437L86.4725 460.618L88.6356 458.368ZM97.4574 443.491C95.1955 448.592 91.5478 453.189 86.4397 458.4L88.6683 460.586C93.8764 455.274 97.8258 450.362 100.311 444.757L97.4574 443.491ZM100.378 427.383C100.383 433.311 99.7055 438.419 97.4574 443.491L100.311 444.757C102.799 439.144 103.506 433.559 103.501 427.382L100.378 427.383ZM100.38 384.561L100.378 427.383L103.501 427.382V384.561H100.38Z" fill="#FF0000"/>
</g>
<g clip-path="url(#clip27_2_417)">
<path d="M144.5 384L158.5 398M144.5 398L158.5 384" stroke="#999999" stroke-width="2"/>
</g>
<g clip-path="url(#clip28_2_417)">
<path d="M214.363 393H211.363V396L207.363 393H201.363V384H214.363V393Z" stroke="#999999" stroke-width="2" stroke-miterlimit="10"/>
</g>
<g clip-path="url(#clip29_2_417)">
<path d="M269.5 384H260.5C258.291 384 256.5 385.791 256.5 388V397C256.5 399.209 258.291 401 260.5 401H269.5C271.709 401 273.5 399.209 273.5 397V388C273.5 385.791 271.709 384 269.5 384Z" stroke="#FF3434" stroke-width="2"/>
<path d="M266.5 390H263.5V398H266.5V390Z" fill="#FF3434"/>
<path d="M265 389C265.828 389 266.5 388.328 266.5 387.5C266.5 386.672 265.828 386 265 386C264.172 386 263.5 386.672 263.5 387.5C263.5 388.328 264.172 389 265 389Z" fill="#FF3434"/>
</g>
<path d="M344.125 433.875L339.875 436L335.625 433.875V426.438H344.125V433.875Z" stroke="#FF3434" stroke-width="3" stroke-linecap="round" stroke-linejoin="round"/>
<path d="M352.625 408.375C352.625 401.334 346.916 395.625 339.875 395.625C332.834 395.625 327.125 401.334 327.125 408.375C327.125 412.147 328.92 415.367 331.371 417.86C335.625 422.188 335.625 426.349 335.625 426.349H344.125C344.125 426.349 344.125 422.188 348.376 417.864C350.828 415.369 352.625 412.149 352.625 408.375Z" stroke="#FF3434" stroke-width="3" stroke-linecap="round" stroke-linejoin="round"/>
<path d="M339.875 425.375V410.5" stroke="#FF3434" stroke-width="3" stroke-linecap="round" stroke-linejoin="round"/>
<path d="M339.875 410.5L336.156 406.781" stroke="#FF3434" stroke-width="3" stroke-linecap="round" stroke-linejoin="round"/>
<path d="M339.875 410.5L343.594 406.781" stroke="#FF3434" stroke-width="3" stroke-linecap="round" stroke-linejoin="round"/>
<path d="M339.875 390.312V385" stroke="#FF3434" stroke-width="3" stroke-linecap="round" stroke-linejoin="round"/>
<path d="M357.938 408.375H363.25" stroke="#FF3434" stroke-width="3" stroke-linecap="round" stroke-linejoin="round"/>
<path d="M316.5 408.375H321.812" stroke="#FF3434" stroke-width="3" stroke-linecap="round" stroke-linejoin="round"/>
<path d="M323.367 391.869L327.123 395.625" stroke="#FF3434" stroke-width="3" stroke-linecap="round" stroke-linejoin="round"/>
<path d="M356.873 392.438L353.117 396.193" stroke="#FF3434" stroke-width="3" stroke-linecap="round" stroke-linejoin="round"/>
<defs>
<clipPath id="clip0_2_417">
<rect width="16" height="18" fill="white" transform="translate(0.5 23)"/>
</clipPath>
<clipPath id="clip1_2_417">
<rect width="30" height="39" fill="white" transform="translate(121.5 2)"/>
</clipPath>
<clipPath id="clip2_2_417">
<rect width="41" height="41" fill="white" transform="translate(191.5)"/>
</clipPath>
<clipPath id="clip3_2_417">
<rect width="16" height="15" fill="white" transform="translate(336.5 26)"/>
</clipPath>
<clipPath id="clip4_2_417">
<rect width="15" height="14" fill="white" transform="translate(0.5 81)"/>
</clipPath>
<clipPath id="clip5_2_417">
<rect width="17" height="17" fill="white" transform="translate(55.5 81)"/>
</clipPath>
<clipPath id="clip6_2_417">
<rect width="17" height="12" fill="white" transform="translate(172.5 81)"/>
</clipPath>
<clipPath id="clip7_2_417">
<rect width="43" height="7" fill="white" transform="translate(229.5 81)"/>
</clipPath>
<clipPath id="clip8_2_417">
<rect width="19" height="19" fill="white" transform="translate(312.5 81)"/>
</clipPath>
<clipPath id="clip9_2_417">
<rect width="19" height="19" fill="white" transform="translate(371.5 81)"/>
</clipPath>
<clipPath id="clip10_2_417">
<rect width="30" height="30" fill="white" transform="translate(0.5 140)"/>
</clipPath>
<clipPath id="clip11_2_417">
<rect width="30" height="31" fill="white" transform="translate(70.5 140)"/>
</clipPath>
<clipPath id="clip12_2_417">
<rect width="36" height="26" fill="white" transform="translate(140.5 140)"/>
</clipPath>
<clipPath id="clip13_2_417">
<rect width="32" height="33" fill="white" transform="translate(216.5 140)"/>
</clipPath>
<clipPath id="clip14_2_417">
<rect width="32" height="33" fill="white" transform="translate(288.5 140)"/>
</clipPath>
<clipPath id="clip15_2_417">
<rect width="33" height="33" fill="white" transform="translate(360.5 140)"/>
</clipPath>
<clipPath id="clip16_2_417">
<rect width="32" height="33" fill="white" transform="translate(433.5 140)"/>
</clipPath>
<clipPath id="clip17_2_417">
<rect width="31" height="31" fill="white" transform="translate(0.5 213)"/>
</clipPath>
<clipPath id="clip18_2_417">
<rect width="36" height="25" fill="white" transform="translate(71.5 213)"/>
</clipPath>
<clipPath id="clip19_2_417">
<rect width="30" height="31" fill="white" transform="translate(147.5 213)"/>
</clipPath>
<clipPath id="clip20_2_417">
<rect width="46" height="45" fill="white" transform="translate(217.5 213)"/>
</clipPath>
<clipPath id="clip21_2_417">
<rect width="8" height="13" fill="white" transform="translate(389.5 213)"/>
</clipPath>
<clipPath id="clip22_2_417">
<rect width="13" height="9" fill="white" transform="translate(0.5 299)"/>
</clipPath>
<clipPath id="clip23_2_417">
<rect width="44" height="44" fill="white" transform="translate(153.5 299)"/>
</clipPath>
<clipPath id="clip24_2_417">
<rect width="17" height="12" fill="white" transform="translate(237.5 299)"/>
</clipPath>
<clipPath id="clip25_2_417">
<rect width="15" height="16" fill="white" transform="translate(357.5 299)"/>
</clipPath>
<clipPath id="clip26_2_417">
<rect width="103" height="79" fill="white" transform="translate(0.5 383)"/>
</clipPath>
<clipPath id="clip27_2_417">
<rect width="16" height="16" fill="white" transform="translate(143.5 383)"/>
</clipPath>
<clipPath id="clip28_2_417">
<rect width="16" height="15" fill="white" transform="translate(199.5 383)"/>
</clipPath>
<clipPath id="clip29_2_417">
<rect width="19" height="19" fill="white" transform="translate(255.5 383)"/>
</clipPath>
</defs>
</svg>
